<?xml version="1.0" encoding="utf-8"?>
<!-- Generator: Adobe Illustrator 23.0.6, SVG Export Plug-In . SVG Version: 6.00 Build 0)  -->
<svg version="1.1" id="Layer_1" xmlns="http://www.w3.org/2000/svg" xmlns:xlink="http://www.w3.org/1999/xlink" x="0px" y="0px"
	 viewBox="0 0 20 20" style="enable-background:new 0 0 20 20;" xml:space="preserve">
<path d="M17.88,17c-0.55,0-1-0.45-1-1V4c0-0.55,0.45-1,1-1s1,0.45,1,1v12C18.88,16.55,18.43,17,17.88,17z M12.62,17
	c-0.55,0-1-0.45-1-1V7.23c0-0.55,0.45-1,1-1s1,0.45,1,1V16C13.62,16.55,13.18,17,12.62,17z M7.38,17c-0.55,0-1-0.45-1-1v-5.54
	c0-0.55,0.45-1,1-1s1,0.45,1,1V16C8.38,16.55,7.93,17,7.38,17z M2.12,17c-0.55,0-1-0.45-1-1v-2.31c0-0.55,0.45-1,1-1s1,0.45,1,1V16
	C3.12,16.55,2.68,17,2.12,17z"/>
</svg>
