<?xml version="1.0" encoding="utf-8"?>
<!-- Generator: Adobe Illustrator 24.0.1, SVG Export Plug-In . SVG Version: 6.00 Build 0)  -->
<svg version="1.1" id="Layer_1" xmlns="http://www.w3.org/2000/svg" xmlns:xlink="http://www.w3.org/1999/xlink" x="0px" y="0px"
	 viewBox="0 0 20 20" style="enable-background:new 0 0 20 20;" xml:space="preserve">
<path d="M17,5.7C16.5,5.9,16,6,15.4,6.1c0.6-0.4,1.1-0.9,1.3-1.6c-0.6,0.3-1.2,0.6-1.8,0.7c-0.5-0.6-1.3-0.9-2.1-0.9
	c-1.6,0-2.9,1.3-2.9,2.9c0,0.2,0,0.4,0.1,0.7C7.6,7.7,5.4,6.6,4,4.8C3.8,5.3,3.6,5.7,3.6,6.3c0,1,0.5,1.9,1.3,2.4
	C4.4,8.7,4,8.5,3.6,8.3c0,0,0,0,0,0c0,1.4,1,2.6,2.3,2.8c-0.2,0.1-0.5,0.1-0.8,0.1c-0.2,0-0.4,0-0.5-0.1c0.4,1.1,1.4,2,2.7,2
	c-1,0.8-2.2,1.2-3.6,1.2c-0.2,0-0.5,0-0.7,0c1.3,0.8,2.8,1.3,4.4,1.3c5.3,0,8.2-4.4,8.2-8.2c0-0.1,0-0.2,0-0.4
	C16.2,6.7,16.7,6.2,17,5.7z"/>
</svg>
