<?xml version="1.0" encoding="utf-8"?>
<!-- Generator: Adobe Illustrator 23.0.6, SVG Export Plug-In . SVG Version: 6.00 Build 0)  -->
<svg version="1.1" id="Layer_1" xmlns="http://www.w3.org/2000/svg" xmlns:xlink="http://www.w3.org/1999/xlink" x="0px" y="0px"
	 viewBox="0 0 20 20" style="enable-background:new 0 0 20 20;" xml:space="preserve">
<g>
	<path d="M12.45,15.73c-0.22,0-0.44-0.09-0.6-0.26c-1-1.07-2.71-1.07-3.71,0c-0.31,0.33-0.83,0.35-1.16,0.04
		c-0.33-0.31-0.35-0.82-0.04-1.16C7.76,13.48,8.84,13,10,13s2.24,0.48,3.05,1.36c0.31,0.33,0.29,0.85-0.04,1.16
		C12.85,15.65,12.65,15.73,12.45,15.73z M15.32,12.64c-0.22,0-0.44-0.09-0.6-0.26c-1.26-1.36-2.94-2.11-4.72-2.11
		s-3.45,0.75-4.72,2.11c-0.31,0.33-0.82,0.35-1.16,0.04c-0.33-0.31-0.35-0.83-0.04-1.16C5.66,9.57,7.76,8.63,10,8.63
		s4.34,0.94,5.92,2.63c0.31,0.33,0.29,0.85-0.04,1.16C15.72,12.57,15.52,12.64,15.32,12.64z M18.18,9.56c-0.22,0-0.44-0.09-0.6-0.26
		C15.55,7.11,12.86,5.91,10,5.91S4.45,7.11,2.42,9.3C2.11,9.63,1.59,9.65,1.26,9.34C0.93,9.03,0.91,8.51,1.22,8.18
		C3.56,5.66,6.68,4.27,10,4.27s6.44,1.39,8.78,3.91c0.31,0.33,0.29,0.85-0.04,1.16C18.58,9.49,18.38,9.56,18.18,9.56z"/>
</g>
</svg>
