<?xml version="1.0" encoding="utf-8"?>
<!-- Generator: Adobe Illustrator 23.0.6, SVG Export Plug-In . SVG Version: 6.00 Build 0)  -->
<svg version="1.1" id="Layer_1" xmlns="http://www.w3.org/2000/svg" xmlns:xlink="http://www.w3.org/1999/xlink" x="0px" y="0px"
	 viewBox="0 0 20 20" style="enable-background:new 0 0 20 20;" xml:space="preserve">
<g>
	<path d="M14.6,7.63l-1.76,4.69l-0.02,0.05H2.26C2.12,12.37,2,12.25,2,12.11V7.89c0-0.15,0.12-0.26,0.26-0.26H14.6 M16.19,6.63H2.26
		C1.57,6.63,1,7.2,1,7.89v4.21c0,0.7,0.57,1.26,1.26,1.26h13.93c0.78,0,1.4-0.63,1.4-1.4V8.03C17.6,7.26,16.97,6.63,16.19,6.63
		L16.19,6.63z M13.78,12.67l2-5.34h0.41c0.39,0,0.7,0.32,0.7,0.7v3.93c0,0.39-0.32,0.7-0.7,0.7H13.78L13.78,12.67z M19,8.6h-0.7
		v2.81H19V8.6L19,8.6z"/>
</g>
</svg>
