<?xml version="1.0" encoding="utf-8"?>
<svg version="1.1" xmlns="http://www.w3.org/2000/svg" xmlns:xlink="http://www.w3.org/1999/xlink" x="0px" y="0px"
	 width="150px" height="150px" viewBox="0 0 150 150" style="enable-background:new 0 0 150 150;" xml:space="preserve">
<style type="text/css">
	.st0{fill:#007EE5;}
	.st1{fill:#FFFFFF;}
</style>
<rect x="0.4" y="0.3" class="st0" width="150" height="150"/>
<g>
	<path class="st1" d="M110,53.5L93.9,40.2l-4.5,5.4l16.1,13.4L110,53.5z M60.5,45.4L55.9,40L40,53.5l4.5,5.4L60.5,45.4z M75,47.5
		c-17.5,0-31.5,14.1-31.5,31.3c0,17.2,14,31.3,31.5,31.3c17.3,0,31.5-14.1,31.5-31.3C106.5,61.5,92.3,47.5,75,47.5z M75,103.1
		c-13.5,0-24.5-10.9-24.5-24.3c0-13.4,11-24.3,24.5-24.3s24.5,10.9,24.5,24.3C99.5,92.3,88.5,103.1,75,103.1z"/>
	<path class="st1" d="M87.2,82.4c-0.2-0.7-0.6-1.5-1.1-2.1c-0.5-0.7-1.1-1.2-1.9-1.7c-0.7-0.5-1.6-0.9-2.6-1.2
		c-0.4-0.1-1.1-0.3-2-0.5c-0.7-0.2-1.3-0.3-2-0.5v-8.3c0.7,0.2,1.2,0.5,1.7,0.8c1.1,0.7,1.8,1.9,2,3.6h5.4c-0.1-1.4-0.4-2.6-0.9-3.6
		c-0.6-1.1-1.5-2.1-2.6-2.9c-1.1-0.8-2.4-1.4-3.8-1.8c-0.6-0.2-1.2-0.3-1.9-0.4v-2.6h-5v2.6c-0.5,0.1-1.2,0.2-1.8,0.3
		c-1.3,0.3-2.5,0.9-3.6,1.5c-1.1,0.7-1.9,1.6-2.6,2.6c-0.6,1.1-1,2.3-1,3.8c0,0.7,0.1,1.5,0.3,2.2c0.2,0.7,0.6,1.4,1.1,2
		c0.5,0.6,1.2,1.2,2.1,1.7c0.9,0.5,1.9,0.9,3.3,1.3c0.7,0.2,1.5,0.4,2.1,0.5v9.4c-0.9-0.2-1.7-0.6-2.4-1.1c-0.7-0.5-1.3-1.1-1.7-1.9
		c-0.4-0.7-0.6-1.6-0.6-2.5h-5.4c0.1,1.6,0.4,3.1,1.1,4.3c0.7,1.3,1.6,2.3,2.8,3.2c1.1,0.8,2.5,1.4,4,1.8c0.7,0.2,1.5,0.3,2.2,0.4
		v2.8h5v-2.7c0.8-0.1,1.5-0.2,2.2-0.4c1.5-0.3,2.8-0.9,3.9-1.6c1.1-0.7,2.1-1.7,2.8-2.8c0.7-1.1,1.1-2.5,1.1-4.1
		C87.5,83.9,87.4,83.2,87.2,82.4z M72.5,75.1c-0.9-0.3-1.9-0.7-2.5-1.3c-0.7-0.6-1-1.4-1-2.4c0-0.7,0.2-1.3,0.5-1.8
		c0.4-0.5,0.8-0.9,1.3-1.1c0.5-0.2,1.1-0.4,1.6-0.6V75.1z M81.8,86.8c-0.2,0.5-0.6,1-1.1,1.4c-0.5,0.4-1.2,0.7-2.1,1
		c-0.4,0.1-0.6,0.2-1.1,0.3v-8.4c0.8,0.2,1.4,0.4,2.1,0.6c0.6,0.2,1.2,0.6,1.8,1.1c0.5,0.5,0.8,1.3,0.8,2.4
		C82.1,85.8,82,86.3,81.8,86.8z"/>
</g>
</svg>
