<?xml version="1.0" encoding="utf-8"?>
<svg version="1.1" xmlns="http://www.w3.org/2000/svg" xmlns:xlink="http://www.w3.org/1999/xlink" x="0px" y="0px"
	 width="150px" height="150px" viewBox="0 0 150 150" style="enable-background:new 0 0 150 150;" xml:space="preserve">
<style type="text/css">
	.st0{fill:#F9F9F9;}
	.st1{fill:#6772FF;}
</style>
<rect x="0.4" y="0.3" class="st0" width="150" height="150"/>
<path class="st1" d="M97.1,80.3c-0.9-1.4-2.1-2.3-3.7-2.9c-1.6-0.4-3.2-0.2-4.5,0.7l-34,20.1c-0.9,0.5-2,0.2-2.3-0.5
	c-0.4-0.5-0.2-1.1-0.2-1.2c0-0.4,0.4-0.7,0.7-1.1l50.4-29.8c3.2-1.8,5.3-4.8,6.2-8.4c0.9-3.6,0.4-7.3-1.4-10.3
	c-3.7-6.6-12.1-8.7-18.7-5L60.9,59.3l-4.3-7.1h9.1L86,40.2H46.3l0,0c-1.1,0-2.1,0.2-3,0.7c-2.9,1.6-3.7,5.3-2.1,8.2l12.6,21.6
	c0.7,1.4,2,2.3,3.6,2.7c1.6,0.4,3.2,0.2,4.6-0.7l33.9-20.5c0.9-0.5,2-0.2,2.3,0.5c0.4,0.5,0.2,1.1,0.2,1.2c0,0.4-0.4,0.7-0.7,1.1
	L47,84.9c-3.2,1.8-5.3,4.8-6.2,8.4s-0.4,7.3,1.4,10.3c3.7,6.4,12.3,8.7,18.7,4.8l28.9-16.9l4.1,6.9h-9.1l-20.3,11.9h39.9l0,0
	c1.1,0,2.1-0.2,3-0.9c2.9-1.6,3.7-5.3,2.1-8.2L97.1,80.3z"/>
</svg>
