<?xml version="1.0" encoding="utf-8"?>
<!-- Generator: Adobe Illustrator 23.1.1, SVG Export Plug-In . SVG Version: 6.00 Build 0)  -->
<svg version="1.1" id="Layer_1" xmlns="http://www.w3.org/2000/svg" xmlns:xlink="http://www.w3.org/1999/xlink" x="0px" y="0px"
	 viewBox="0 0 60 60" style="enable-background:new 0 0 60 60;" xml:space="preserve">
<style type="text/css">
	.st0{fill:#F9F9F9;}
	.st1{fill:url(#SVGID_1_);}
	.st2{fill:#CF5278;}
</style>
<rect class="st0" width="60" height="60"/>
<g>
	
		<linearGradient id="SVGID_1_" gradientUnits="userSpaceOnUse" x1="30" y1="32" x2="30" y2="47" gradientTransform="matrix(1 0 0 -1 0 62)">
		<stop  offset="0" style="stop-color:#FA5E5A"/>
		<stop  offset="1" style="stop-color:#FF8800"/>
	</linearGradient>
	<path class="st1" d="M30,15c-8.28,0-15,6.72-15,15h30C45,21.72,38.28,15,30,15z"/>
	<path class="st2" d="M15.16,31.88c0.14,1.08,0.35,2.13,0.7,3.13h28.29c0.35-0.99,0.56-2.05,0.7-3.13H15.16z M30,45
		c3.44,0,6.61-1.17,9.14-3.12H20.86C23.39,43.83,26.56,45,30,45z M18.82,40h22.35c0.84-0.93,1.51-2,2.09-3.12H16.73
		C17.31,38,17.99,39.07,18.82,40z"/>
</g>
</svg>
