<svg version="1.1" id="Layer_1" xmlns="http://www.w3.org/2000/svg" xmlns:xlink="http://www.w3.org/1999/xlink" x="0px" y="0px"
	 viewBox="0 0 200 200" style="enable-background:new 0 0 200 200;" xml:space="preserve">
<style type="text/css">
	.st0{fill:#F1F1F1;}
	.st1{fill-rule:evenodd;clip-rule:evenodd;fill:#2397D4;}
	.st2{fill-rule:evenodd;clip-rule:evenodd;fill:#2F4A75;}
</style>
<rect class="st0" width="200" height="200"/>
<g>
	<path class="st1" d="M61.2,50l45.3,37l33-35.7c0.3-0.3,0.3-0.8-0.1-1.1c-0.1-0.1-0.3-0.2-0.5-0.2H61.2z M61.2,150l45.3-37l33,35.7
		c0.3,0.3,0.3,0.8-0.1,1.1c-0.1,0.1-0.3,0.2-0.5,0.2C138.9,150,61.2,150,61.2,150z"/>
	<path class="st2" d="M61.7,50.2l60.1,49.2c0.4,0.3,0.4,0.8,0.1,1.2c0,0-0.1,0.1-0.1,0.1l-60.1,49.1c-0.4,0.3-0.9,0.2-1.2-0.1
		c-0.1-0.1-0.2-0.3-0.2-0.5V50.8c0-0.5,0.4-0.8,0.8-0.8C61.4,50,61.6,50.1,61.7,50.2"/>
</g>
</svg>
