<?xml version="1.0" encoding="utf-8"?>
<!-- Generator: Adobe Illustrator 23.0.6, SVG Export Plug-In . SVG Version: 6.00 Build 0)  -->
<svg version="1.1" id="Layer_1" xmlns="http://www.w3.org/2000/svg" xmlns:xlink="http://www.w3.org/1999/xlink" x="0px" y="0px"
	 viewBox="0 0 80 80" style="enable-background:new 0 0 80 80;" xml:space="preserve">
<style type="text/css">
	.st0{fill:#F89520;}
	.st1{fill:#FCB042;}
	.st2{fill:#EC4175;}
	.st3{fill:#5B2D6F;}
</style>
<g id="hiphunt">
	<path class="st0" d="M7.52,16.67h64.96C65.22,6.57,53.38,0,40,0C26.62,0,14.78,6.57,7.52,16.67z"/>
	<path class="st1" d="M0.56,33.33h78.87c-1.03-6.15-3.46-11.81-6.96-16.67H7.52C4.03,21.52,1.59,27.19,0.56,33.33z"/>
	<path class="st2" d="M0.56,33.33C0.2,35.5,0,37.72,0,39.99v0.02c0,3.45,0.44,6.8,1.26,9.99h77.48c0.82-3.2,1.26-6.54,1.26-9.99
		v-0.02c0-2.27-0.2-4.49-0.56-6.66H0.56z"/>
	<path class="st3" d="M78.74,50H1.26C5.7,67.25,21.36,80,40,80C58.64,80,74.3,67.25,78.74,50z"/>
</g>
</svg>
