<?xml version="1.0" encoding="utf-8"?>
<!-- Generator: Adobe Illustrator 27.0.0, SVG Export Plug-In . SVG Version: 6.00 Build 0)  -->
<svg version="1.1" id="Layer_1" xmlns="http://www.w3.org/2000/svg" xmlns:xlink="http://www.w3.org/1999/xlink" x="0px" y="0px"
	 viewBox="0 0 150 150" style="enable-background:new 0 0 150 150;" xml:space="preserve">
<style type="text/css">
	.st0{fill:#FFFFFF;}
</style>
<rect width="150" height="150"/>
<path class="st0" d="M107.23,62.33L98.95,75.4V64.25l1.21-1.92h-1.21H92.4h0L84.12,75.4V62.33h-6.56v6.07
	c-1.99-3.88-5.93-6.07-11.21-6.07h-9.61v16.03h-2.91V62.33h-8.68L35,78.36v5.84h12.27v3.46h6.56V84.2h6.85
	c1.61,0,2.91-1.31,2.91-2.92V68.17H66c3.94,0,6.11,1.53,6.11,6.83s-2.17,6.83-5.91,6.83h-0.84c-1.61,0-2.91,1.31-2.91,2.92v2.92
	h2.91h1.09c5.21,0,9.13-2.19,11.12-6.06v6.06h6.56L92.4,74.6v13.07h6.56L115,62.33H107.23z M47.27,78.36h-5.52v-0.2l5.47-8.71h0.05
	V78.36z"/>
</svg>
