<?xml version="1.0" encoding="utf-8"?>
<!-- Generator: Adobe Illustrator 23.0.6, SVG Export Plug-In . SVG Version: 6.00 Build 0)  -->
<svg version="1.1" id="Layer_1" xmlns="http://www.w3.org/2000/svg" xmlns:xlink="http://www.w3.org/1999/xlink" x="0px" y="0px"
	 viewBox="0 0 375 1000" style="enable-background:new 0 0 375 1000;" xml:space="preserve">
<style type="text/css">
	.st0{fill:url(#SVGID_1_);}
	.st1{fill:#FFFFFF;}
	.st2{fill:#FF6D00;}
	.st3{fill:#FF9240;}
	.st4{font-family:'Helvetica';}
	.st5{font-size:36px;}
	.st6{fill:#181617;}
	.st7{fill:#1DB954;}
	.st8{fill:#0070E0;}
	.st9{fill:#FF5A5F;}
	.st10{fill:#1DA1F2;}
	.st11{fill:#DD0B15;}
	.st12{fill:#5ECC62;}
	.st13{fill:#6E2B77;}
	.st14{opacity:0.3;}
	.st15{filter:url(#Adobe_OpacityMaskFilter);}
	.st16{mask:url(#b_1_);fill:#FFFFFF;}
	.st17{opacity:0.75;fill:#FFFFFF;}
</style>
<linearGradient id="SVGID_1_" gradientUnits="userSpaceOnUse" x1="531.25" y1="843.75" x2="-156.25" y2="156.25">
	<stop  offset="0" style="stop-color:#4700FF"/>
	<stop  offset="0.2703" style="stop-color:#4A00FF"/>
	<stop  offset="0.4884" style="stop-color:#5400FF"/>
	<stop  offset="0.6883" style="stop-color:#6500FF"/>
	<stop  offset="0.8762" style="stop-color:#7D00FF"/>
	<stop  offset="1" style="stop-color:#9100FF"/>
</linearGradient>
<rect class="st0" width="375" height="1000"/>
<g>
	<path class="st1" d="M28.6,95.33L20,87.15v14.58h2.88v-7.92l8.6,8.19V87.42H28.6V95.33z M32.53,101.7h3.1l0.93-2.06l0.04-0.11h4.89
		l0.04,0.1l0.92,2.07h3.11l-6.52-14.55L32.53,101.7z M40.31,97h-2.54l1.27-2.97L40.31,97z M51.36,93.59
		c-1.02-0.3-0.92-0.19-1.78-0.75c-0.42-0.27-0.62-0.66-0.62-1.17c0-0.79,0.66-1.45,1.45-1.45c0.78,0,1.44,0.66,1.44,1.44h2.89
		c0-1.19-0.43-2.21-1.28-3.06c-0.85-0.85-1.88-1.28-3.07-1.28c-1.2,0-2.23,0.43-3.08,1.28c-0.85,0.85-1.28,1.87-1.28,3.06
		c0,0.79,0.2,1.45,0.59,1.98c0.66,0.9,1.64,1.62,2.7,1.98c1,0.35,0.76,0.26,1.79,0.64c0.49,0.18,0.73,0.57,0.73,1.18
		c0,0.79-0.66,1.45-1.45,1.45l0.01,0.02c-0.8,0-1.45-0.65-1.45-1.45h-2.9c0,1.2,0.43,2.22,1.28,3.07c0.85,0.85,1.88,1.28,3.08,1.28
		c1.19,0,2.22-0.43,3.07-1.28c0.85-0.85,1.28-1.87,1.28-3.07c0-0.81-0.21-1.47-0.6-1.99C53.46,94.59,52.46,93.91,51.36,93.59z
		 M63.73,93.15h-4.3v-5.73h-2.88v14.31h2.88V96h4.3v5.73h2.88V87.42h-2.88V93.15z M68.53,101.73h2.88V87.42h-2.88V101.73z
		 M80.21,87.35c-1.99,0-3.7,0.71-5.12,2.13c-1.42,1.42-2.13,3.13-2.13,5.12c0,1.99,0.71,3.69,2.13,5.11
		c1.42,1.41,3.12,2.12,5.12,2.12c1.99,0,3.7-0.71,5.13-2.12c1.42-1.41,2.14-3.12,2.14-5.11s-0.71-3.69-2.14-5.11
		C83.91,88.06,82.2,87.35,80.21,87.35z M83.28,97.64c-0.85,0.84-1.88,1.27-3.07,1.27c-1.2,0-2.22-0.43-3.07-1.27
		s-1.27-1.86-1.27-3.06c0-1.19,0.43-2.21,1.27-3.06c0.85-0.85,1.87-1.28,3.07-1.28c1.19,0,2.22,0.43,3.07,1.28
		c0.85,0.85,1.28,1.87,1.28,3.06C84.56,95.77,84.14,96.8,83.28,97.64z M96.53,95.47c-0.69-0.88-1.68-1.56-2.79-1.88
		c-1.02-0.3-0.93-0.19-1.78-0.75c-0.42-0.27-0.62-0.66-0.62-1.17c0-0.79,0.66-1.45,1.45-1.45c0.78,0,1.44,0.66,1.44,1.44h2.89
		c0-1.19-0.43-2.21-1.28-3.06s-1.88-1.28-3.07-1.28c-1.2,0-2.22,0.43-3.08,1.28c-0.85,0.85-1.28,1.87-1.28,3.06
		c0,0.79,0.19,1.45,0.59,1.98c0.66,0.9,1.64,1.62,2.7,1.98c1,0.35,0.76,0.26,1.79,0.64c0.49,0.18,0.73,0.57,0.73,1.18
		c0,0.79-0.66,1.45-1.45,1.45l0.01,0.02c-0.8,0-1.45-0.65-1.45-1.45h-2.9c0,1.2,0.43,2.22,1.28,3.07c0.85,0.85,1.88,1.28,3.08,1.28
		c1.19,0,2.22-0.43,3.07-1.28s1.28-1.87,1.28-3.07C97.14,96.65,96.93,95.99,96.53,95.47z"/>
	<path class="st2" d="M88.48,79.73h15.76V64L88.48,79.73z M120,79.73h-15.76v15.73L120,79.73z"/>
	<polygon class="st3" points="120,79.73 104.24,64 104.24,79.73 	"/>
</g>
<text transform="matrix(1 0 0 1 19.5746 187.265)"><tspan x="0" y="0" class="st1 st4 st5">Discover the people</tspan><tspan x="0" y="40" class="st1 st4 st5">behind the products</tspan><tspan x="0" y="80" class="st1 st4 st5">you love.</tspan></text>
<rect x="18.75" y="526.74" class="st6" width="169.65" height="169.65"/>
<rect x="18.75" y="694.59" class="st7" width="169.65" height="169.65"/>
<rect x="18.75" y="862.68" class="st8" width="169.65" height="146.66"/>
<rect x="188.4" y="528.54" class="st9" width="167.85" height="166.05"/>
<rect x="186.6" y="694.59" class="st10" width="169.65" height="169.65"/>
<rect x="186.6" y="862.68" class="st11" width="169.65" height="146.66"/>
<path id="spotify" class="st1" d="M103.57,743.41c-19.88,0-36,16.12-36,36c0,19.88,16.12,36,36,36s36-16.12,36-36
	C139.57,759.53,123.46,743.41,103.57,743.41z M119.87,795.26c-0.39,0.68-1.1,1.05-1.83,1.05c-0.36,0-0.73-0.09-1.06-0.29
	c-6.91-4.02-14.09-5.13-19.91-5.13c-6.57,0-11.36,1.43-11.82,1.57c-0.03,0.01-0.03,0.01-0.03,0.01l0,0
	c-1.11,0.36-2.31-0.25-2.67-1.36c-0.36-1.11,0.25-2.31,1.36-2.67c0.14-0.04,5.51-1.79,13.16-1.79c6.35,0,14.31,1.21,22.04,5.71
	C120.11,792.95,120.46,794.25,119.87,795.26z M124.26,785.79c-0.52,0.85-1.43,1.33-2.36,1.33c-0.49,0-0.98-0.13-1.43-0.4
	c-8.17-4.95-16.3-6.31-22.81-6.31c-7.62,0-12.97,1.89-13.11,1.94c-1.43,0.52-3.01-0.21-3.54-1.63c-0.53-1.43,0.2-3.01,1.63-3.54
	c0.2-0.07,6.21-2.28,15.02-2.28c7.26,0,16.47,1.53,25.67,7.11C124.64,782.8,125.05,784.49,124.26,785.79z M126.7,776.04
	c-0.53,0-1.08-0.13-1.57-0.41c-9.03-5.08-18.54-6.51-26.31-6.51c-8.88,0-15.43,1.87-16.04,2.06c-0.04,0.01-0.04,0.01-0.04,0.01
	c-1.7,0.53-3.5-0.41-4.03-2.11c-0.53-1.7,0.41-3.5,2.11-4.03c0.21-0.06,7.58-2.36,18.01-2.37c8.54,0,19.18,1.56,29.46,7.33
	c1.55,0.87,2.1,2.83,1.23,4.38C128.92,775.45,127.83,776.04,126.7,776.04z"/>
<path id="twitter" class="st1" d="M307.42,757.08c-2.65,1.17-5.5,1.97-8.48,2.33c3.05-1.83,5.39-4.72,6.49-8.17
	c-2.85,1.69-6.02,2.92-9.38,3.58c-2.69-2.87-6.53-4.66-10.78-4.66c-8.16,0-14.77,6.61-14.77,14.77c0,1.16,0.13,2.29,0.38,3.37
	c-12.28-0.62-23.16-6.5-30.45-15.43c-1.27,2.18-2,4.72-2,7.43c0,5.13,2.61,9.65,6.57,12.29c-2.42-0.08-4.7-0.74-6.69-1.85
	c0,0.06,0,0.12,0,0.19c0,7.16,5.09,13.13,11.85,14.48c-1.24,0.34-2.54,0.52-3.89,0.52c-0.95,0-1.88-0.09-2.78-0.27
	c1.88,5.87,7.33,10.14,13.8,10.26c-5.06,3.96-11.42,6.32-18.35,6.32c-1.19,0-2.37-0.07-3.52-0.21c6.54,4.19,14.3,6.64,22.64,6.64
	c27.17,0,42.03-22.51,42.03-42.03c0-0.64-0.01-1.28-0.04-1.91C302.94,762.65,305.45,760.04,307.42,757.08z"/>
<path id="github" class="st1" d="M103.57,576.45c-19.88,0-36,16.12-36,36c0,15.9,10.31,29.4,24.62,34.16
	c1.8,0.33,2.46-0.78,2.46-1.73c0-0.86-0.03-3.69-0.05-6.7c-10.01,2.18-12.13-4.25-12.13-4.25c-1.64-4.16-4-5.27-4-5.27
	c-3.27-2.23,0.25-2.19,0.25-2.19c3.62,0.25,5.52,3.71,5.52,3.71c3.21,5.5,8.42,3.91,10.48,2.99c0.32-2.33,1.26-3.91,2.29-4.81
	c-8-0.91-16.4-4-16.4-17.79c0-3.93,1.41-7.14,3.71-9.66c-0.37-0.91-1.61-4.57,0.35-9.53c0,0,3.02-0.97,9.9,3.69
	c2.87-0.8,5.95-1.2,9.01-1.21c3.06,0.01,6.14,0.41,9.02,1.21c6.87-4.66,9.89-3.69,9.89-3.69c1.96,4.96,0.73,8.62,0.35,9.53
	c2.31,2.52,3.71,5.73,3.71,9.66c0,13.83-8.42,16.87-16.44,17.76c1.29,1.12,2.44,3.31,2.44,6.67c0,4.82-0.04,8.69-0.04,9.88
	c0,0.96,0.65,2.08,2.47,1.73c14.3-4.77,24.6-18.26,24.6-34.16C139.57,592.57,123.46,576.45,103.57,576.45z M80.27,627.71
	c-0.09,0.18,0.06,0.42,0.32,0.54c0.26,0.12,0.54,0.07,0.62-0.11c0.09-0.18-0.06-0.43-0.32-0.54
	C80.63,627.47,80.35,627.52,80.27,627.71z M81.83,628.85c-0.17,0.16-0.13,0.5,0.11,0.75c0.23,0.25,0.56,0.33,0.73,0.17
	c0.18-0.16,0.13-0.49-0.1-0.75C82.33,628.77,82.01,628.69,81.83,628.85z M83.29,630.67c-0.23,0.15-0.23,0.54-0.01,0.86
	c0.22,0.32,0.58,0.46,0.8,0.31c0.23-0.16,0.23-0.54,0.01-0.87C83.87,630.65,83.51,630.52,83.29,630.67z M84.9,632.78
	c-0.2,0.22-0.11,0.63,0.21,0.92c0.31,0.3,0.73,0.36,0.92,0.14c0.21-0.22,0.12-0.63-0.2-0.92C85.53,632.63,85.1,632.56,84.9,632.78z
	 M87.22,634.56c-0.08,0.28,0.18,0.61,0.59,0.74c0.41,0.12,0.81-0.01,0.9-0.29c0.09-0.29-0.18-0.61-0.59-0.74
	C87.72,634.14,87.31,634.27,87.22,634.56z M90.11,635.25c0,0.29,0.35,0.53,0.78,0.52c0.43-0.01,0.77-0.25,0.76-0.55
	c0-0.29-0.35-0.53-0.78-0.53C90.45,634.7,90.11,634.95,90.11,635.25z M93.54,634.36c-0.42,0.08-0.72,0.37-0.67,0.67
	c0.05,0.29,0.44,0.47,0.86,0.39c0.43-0.08,0.72-0.38,0.67-0.67C94.35,634.46,93.97,634.28,93.54,634.36z"/>
<path id="netflix" class="st1" d="M291.03,955.14c1.01,0.08,2.02,0.16,3.03,0.25v-17.8h-3.03V955.14z M242.26,948.54l-3.95-10.94
	h-2.88v19.34c1.01-0.14,2.02-0.28,3.03-0.41V946l3.51,10.09c1.1-0.13,2.21-0.25,3.32-0.36v-18.13h-3.03V948.54z M248.2,955.44
	c2.79-0.25,5.6-0.46,8.42-0.62v-2.99c-1.8,0.1-3.6,0.23-5.39,0.37v-4.52c1.18-0.01,2.72-0.05,4.09-0.03v-2.99
	c-1.1,0-2.86,0.02-4.09,0.03v-4.08h5.39v-3.01h-8.42V955.44z M258.57,940.6h3.17v13.97c1.01-0.04,2.02-0.07,3.03-0.1V940.6h3.17
	v-3.01h-9.38V940.6z M269.89,954.4l3.03,0v-6.9h4.11v-2.99h-4.11v-3.91h5.43v-3.01h-8.46V954.4z M307.42,937.59h-3.33l-2.2,5.09
	l-1.97-5.09h-3.28l3.52,9.09l-3.85,8.92c1.06,0.1,2.13,0.21,3.19,0.33l2.24-5.19l2.22,5.72c1.15,0.15,2.31,0.3,3.45,0.47l0,0
	l-3.95-10.19L307.42,937.59z M283.33,937.59h-3.03v16.96c2.76,0.09,5.5,0.23,8.23,0.42v-2.99c-1.73-0.11-3.46-0.21-5.2-0.29V937.59z
	"/>
<path id="dropbox" class="st1" d="M88.8,913.79l-21.23,13.67l14.69,11.86l21.35-13.2L88.8,913.79z M67.57,950.91l21.23,13.95
	l14.81-12.33l-21.35-13.2L67.57,950.91z M103.61,952.52l14.81,12.33l21.15-13.79l-14.65-11.74L103.61,952.52z M139.57,927.58
	l-21.15-13.79l-14.81,12.33l21.31,13.2L139.57,927.58z M103.65,955.16L88.8,967.5l-6.38-4.14v4.65l21.23,12.73l21.19-12.73v-4.65
	l-6.34,4.14L103.65,955.16z"/>
<path id="airbnbn" class="st1" d="M271.42,630.38c-4.06-5.09-6.44-9.55-7.24-13.37c-0.8-3.1-0.48-5.57,0.87-7.4
	c1.43-2.15,3.58-3.18,6.36-3.18c2.78,0,4.93,1.03,6.36,3.18c1.35,1.83,1.67,4.29,0.87,7.4C277.79,620.91,275.4,625.37,271.42,630.38
	L271.42,630.38z M300.23,633.8c-0.56,3.74-3.1,6.84-6.6,8.35c-6.76,2.94-13.45-1.75-19.17-8.11c9.47-11.86,11.22-21.08,7.16-27.05
	c-2.39-3.42-5.8-5.09-10.19-5.09c-8.83,0-13.69,7.47-11.78,16.15c1.11,4.69,4.06,10.03,8.75,15.99c-2.94,3.26-5.73,5.57-8.19,7
	c-1.91,1.03-3.74,1.67-5.49,1.83c-8.03,1.19-14.32-6.6-11.46-14.64c0.4-1.03,1.19-2.94,2.54-5.88l0.08-0.16
	c4.37-9.55,9.71-20.37,15.83-32.38l0.16-0.4l1.75-3.34c1.35-2.47,1.91-3.58,4.06-4.93c1.03-0.64,2.31-0.95,3.74-0.95
	c2.86,0,5.09,1.67,6.04,3.02c0.48,0.72,1.03,1.67,1.75,2.86l1.67,3.26l0.24,0.48c6.12,12.02,11.46,22.83,15.83,32.38l0.08,0.08
	l1.59,3.66l0.95,2.31C300.31,630.07,300.47,631.9,300.23,633.8L300.23,633.8z M303.89,626.64c-0.56-1.75-1.51-3.82-2.7-6.28v-0.08
	c-5.65-12.02-10.9-22.83-15.91-32.54l-0.32-0.48c-3.58-7.32-6.12-11.7-13.53-11.7c-7.32,0-10.43,5.09-13.61,11.7l-0.24,0.48
	c-5.01,9.71-10.27,20.53-15.91,32.54v0.16l-1.67,3.66c-0.64,1.51-0.95,2.31-1.03,2.55c-4.06,11.14,4.29,20.92,14.4,20.92
	c0.08,0,0.4,0,0.79-0.08h1.11c5.25-0.64,10.66-3.98,16.15-9.95c5.49,5.96,10.9,9.31,16.15,9.95h1.11c0.4,0.08,0.72,0.08,0.8,0.08
	C299.59,647.57,307.94,637.78,303.89,626.64z"/>
<path class="st12" d="M188.4,528.54H18.75V378.89c0-11.05,8.95-20,20-20H188.4V528.54z"/>
<path class="st13" d="M186.6,528.54h169.65V378.89c0-11.05-8.95-20-20-20H186.6V528.54z"/>
<g>
	<g class="st14">
		<defs>
			<filter id="Adobe_OpacityMaskFilter" filterUnits="userSpaceOnUse" x="67.57" y="414.02" width="72" height="59.38">
				<feColorMatrix  type="matrix" values="1 0 0 0 0  0 1 0 0 0  0 0 1 0 0  0 0 0 1 0"/>
			</filter>
		</defs>
		<mask maskUnits="userSpaceOnUse" x="67.57" y="414.02" width="72" height="59.38" id="b_1_">
			<g class="st15">
				<path id="a_1_" class="st1" d="M103.57,473.4h-36v-59.38h72v59.38H103.57z"/>
			</g>
		</mask>
		<path class="st16" d="M103.58,414.02c-19.38,0-34.56,24.4-36,45.01c6.08,10.44,20.75,14.37,36,14.37c15.25,0,29.92-3.93,36-14.37
			C138.14,438.42,122.96,414.02,103.58,414.02"/>
	</g>
	<path class="st17" d="M97.67,450.44c-4.45,0-6.73-4.34-7.96-7.02c-1.11-2.41-1.31-6.23-4.46-6.34c0.31-0.12,0.61-0.19,0.89-0.19
		c4.96,0,7.05,6.98,11.09,6.98c4.03,0,12.82-15.4,15.97-15.4c0.59,0,1.26,0.21,1.98,0.57c-0.53-0.07-1.22-0.02-1.75,0.51
		C112.41,430.55,103.18,450.44,97.67,450.44"/>
	<path class="st1" d="M115.06,429c0.03,0.01,0.06,0.03,0.09,0.04c0.01,0,0.02,0,0.02,0C115.13,429.02,115.1,429.02,115.06,429z
		 M115.06,429c-0.29-0.14-0.57-0.26-0.84-0.34C114.49,428.74,114.77,428.86,115.06,429z M126.01,439.64L126.01,439.64
		c-3.47-4.43-7.71-9.04-10.86-10.6c-0.53-0.06-1.21-0.01-1.73,0.51c-1.02,1-10.24,20.89-15.75,20.89l0,0
		c-4.45,0-6.73-4.34-7.96-7.02c-1.11-2.41-1.31-6.23-4.46-6.34c0.27-0.1,0.52-0.16,0.77-0.18c-6.71,0.27-13.25,19.67-13.25,19.67
		s2.74,12.01,31.38,12.01c28.65,0,30.94-11.81,30.94-11.81S132.13,447.45,126.01,439.64z M91.85,458.49c-2,0-3.63-1.61-3.63-3.59
		c0-1.98,1.63-3.59,3.63-3.59c2.01,0,3.63,1.61,3.63,3.59C95.48,456.88,93.86,458.49,91.85,458.49z M111.02,460.11
		c-0.08,0.16-2.1,3.89-7.35,3.89c-5.09,0-7.4-3.67-7.49-3.82c-0.32-0.52-0.15-1.2,0.37-1.52c0.53-0.31,1.21-0.15,1.53,0.37
		c0.08,0.13,1.8,2.77,5.59,2.77c3.91,0,5.36-2.67,5.37-2.7c0.28-0.54,0.96-0.75,1.51-0.47C111.09,458.9,111.3,459.57,111.02,460.11z
		 M115.3,458.49c-2.01,0-3.63-1.61-3.63-3.59c0-1.98,1.62-3.59,3.63-3.59c2,0,3.63,1.61,3.63,3.59
		C118.93,456.88,117.3,458.49,115.3,458.49z M112.54,428.64c-0.9,0.43-2.08,1.61-3.41,3.14
		C110.45,430.25,111.63,429.07,112.54,428.64z M113.19,428.47c0.27,0,0.56,0.05,0.86,0.14
		C113.75,428.52,113.46,428.47,113.19,428.47z M95.18,443.25c-2.72-1.63-4.81-5.96-8.53-6.32
		C90.37,437.31,92.45,441.62,95.18,443.25z"/>
</g>
<path id="nubank_1_" class="st1" d="M290.73,471c2.89,0,4.67-0.46,5.81-1.31c1.15-0.85,1.45-2.1,1.43-3.15v-4.24h2.21
	c3.99,0,7.25-3.26,7.25-7.25l0-27.51c0-1.33-1.08-2.41-2.42-2.42h-5.94c-1.33,0-2.41,1.08-2.42,2.42v33.44h-5.55
	c-3.26-0.01-5.92-2.67-5.93-5.93v-27.51c0-1.33-1.08-2.41-2.42-2.42h-5.94c-1.33,0-2.41,1.08-2.42,2.42v27.51
	C274.4,463.87,281.72,470.99,290.73,471z M297.97,427.54c0-0.6,0.5-1.1,1.1-1.1h5.94c0.6,0,1.1,0.5,1.1,1.1v27.51
	c-0.01,3.26-2.67,5.92-5.93,5.93h-2.21V427.54z M275.72,427.54c0-0.6,0.5-1.1,1.1-1.1h5.94c0.6,0,1.1,0.5,1.1,1.1v27.51
	c0,3.99,3.26,7.24,7.25,7.25h5.55v4.24c-0.01,0.88-0.18,1.53-0.91,2.1c-0.74,0.57-2.26,1.05-5.01,1.04
	c-8.3,0-14.99-6.56-15.01-14.63V427.54z M237.84,462.3h5.94c1.33,0,2.41-1.08,2.42-2.42v-33.44h5.55c3.26,0.01,5.92,2.67,5.93,5.93
	v27.51c0,1.33,1.08,2.41,2.42,2.42h5.94c1.33,0,2.41-1.08,2.42-2.42v-27.51c0-8.82-7.32-15.94-16.33-15.95
	c-2.89,0-4.67,0.46-5.81,1.31c-1.15,0.85-1.45,2.1-1.44,3.15v4.24h-2.21c-3.99,0-7.24,3.26-7.25,7.25v27.51
	C235.43,461.22,236.51,462.3,237.84,462.3z M246.2,420.88c0.01-0.88,0.18-1.53,0.91-2.1c0.74-0.57,2.26-1.05,5.01-1.04
	c8.3,0,14.99,6.56,15.01,14.64h0l0,27.51c0,0.6-0.5,1.1-1.1,1.1h-5.94c-0.6,0-1.1-0.5-1.1-1.1v-27.51c0-3.99-3.26-7.25-7.25-7.25
	h-5.55V420.88z M236.74,432.37c0.01-3.26,2.67-5.92,5.93-5.93h2.21v33.44c0,0.6-0.5,1.1-1.1,1.1h-5.94c-0.6,0-1.1-0.5-1.1-1.1
	V432.37z"/>
</svg>
