<?xml version="1.0" encoding="utf-8"?>
<!-- Generator: Adobe Illustrator 24.1.2, SVG Export Plug-In . SVG Version: 6.00 Build 0)  -->
<svg version="1.1" id="Layer_1" xmlns="http://www.w3.org/2000/svg" xmlns:xlink="http://www.w3.org/1999/xlink" x="0px" y="0px"
	 viewBox="0 0 375 1000" style="enable-background:new 0 0 375 1000;" xml:space="preserve">
<style type="text/css">
	.st0{fill:#FFFFFF;}
	.st1{fill:url(#SVGID_1_);}
	.st2{fill:#6699FF;}
	.st3{fill:#99BBFF;}
	.st4{fill:#3377FF;}
	.st5{fill:#00B6FF;}
	.st6{fill:none;stroke:#00B6FF;stroke-width:3;stroke-miterlimit:10;}
	.st7{fill:none;stroke:#3377FF;stroke-width:2;stroke-miterlimit:10;}
	.st8{fill:#627380;}
</style>
<rect class="st0" width="375" height="1000"/>
<linearGradient id="SVGID_1_" gradientUnits="userSpaceOnUse" x1="-58.7495" y1="126.0829" x2="440.2798" y2="414.7371">
	<stop  offset="3.243946e-03" style="stop-color:#390097"/>
	<stop  offset="1" style="stop-color:#002A55"/>
</linearGradient>
<rect x="1" class="st1" width="375" height="538.2"/>
<g>
	<g>
		<g>
			<path class="st0" d="M59.6,71.3h9.5c5.5,0,8.6,3.4,8.6,8.2c0,4.8-3.2,8.1-8.8,8.1h-4.3v7.8h-5.1V71.3z M68.2,83.6
				c2.9,0,4.3-1.6,4.3-4c0-2.4-1.4-4-4.4-4h-3.4v8H68.2z"/>
			<path class="st0" d="M78.9,72.5c0-1.4,1.2-2.5,2.7-2.5c1.5,0,2.7,1.1,2.7,2.5c0,1.4-1.2,2.5-2.7,2.5C80.1,75,78.9,73.9,78.9,72.5
				z M79.1,77.4h5v18.1h-5V77.4z"/>
			<path class="st0" d="M96.3,81.1h-3.4v8.8c0,1.4,0.7,1.8,1.7,1.8c0.5,0,1-0.1,1.2-0.2l0.8,3.7c-0.5,0.2-1.4,0.4-2.7,0.5
				c-3.6,0.2-6.1-1.6-6-5.1v-9.4h-2.5v-3.8h2.5V73h5v4.3h3.4V81.1z"/>
			<path class="st0" d="M108.4,82.8c-0.2-1.2-1.3-2.1-3-2.1c-1.6,0-2.8,0.7-2.8,1.8c0,0.9,0.6,1.4,2.3,1.8l3.3,0.7
				c3.5,0.7,5.2,2.3,5.2,4.9c0,3.6-3.4,6-8.1,6c-4.8,0-7.7-2.1-8.2-5.6l4.9-0.3c0.3,1.5,1.5,2.2,3.3,2.2c1.8,0,2.9-0.8,2.9-1.8
				c0-0.9-0.7-1.5-2.3-1.8l-3.1-0.6c-3.5-0.7-5.2-2.5-5.2-5.2c0-3.5,3-5.6,7.7-5.6c4.6,0,7.3,2.1,7.7,5.4L108.4,82.8z"/>
			<path class="st0" d="M114.7,71.3h5v9.1h0.2c0.7-1.5,2.1-3.3,5.1-3.3c4,0,7.3,3.1,7.3,9.3c0,6.1-3.2,9.3-7.3,9.3
				c-2.9,0-4.4-1.7-5.1-3.2h-0.2v2.9h-4.9V71.3z M123.5,91.8c2.5,0,3.8-2.2,3.8-5.3c0-3.1-1.3-5.3-3.8-5.3c-2.4,0-3.8,2.1-3.8,5.3
				C119.7,89.6,121,91.8,123.5,91.8z"/>
			<path class="st0" d="M133.4,102l1.1-3.9c1.8,0.5,3,0.4,3.7-1.2l0.3-0.9L132,77.4h5.3l3.7,13.3h0.2l3.8-13.3h5.3l-7.1,20.2
				c-1,2.9-3.2,5-6.9,5C135,102.5,133.9,102.2,133.4,102z"/>
		</g>
	</g>
	<path class="st2" d="M20.3,78.3v7.4l8.3-8.3l-6.6-6.6C20.9,73.1,20.2,75.6,20.3,78.3z"/>
	<path class="st3" d="M22.1,70.8l6.6,6.6l8.3-8.3l-5.7-5.7C27.3,64.5,24,67.2,22.1,70.8z"/>
	<path class="st4" d="M34.6,62.9c-1.1,0-2.3,0.2-3.3,0.5l5.7,5.7l4.7-4.7C39.5,63.4,37.1,62.9,34.6,62.9z"/>
	<path class="st4" d="M22.3,83.8V92c0,0.2,0,0.4,0,0.6c0.1,2.1,1,4.1,2.4,5.5l6-6L22.3,83.8z"/>
	<polygon class="st4" points="22.3,83.8 22.3,83.8 30.6,92.1 38.9,83.8 30.6,75.5 	"/>
	<rect x="33" y="69.6" transform="matrix(0.707 -0.7072 0.7072 0.707 -41.9949 49.6308)" class="st2" width="11.8" height="11.8"/>
	<path class="st3" d="M43.6,62.5l-4.7,4.7l8.3,8.3l4-4C50,67.5,47.2,64.3,43.6,62.5z"/>
	<path class="st3" d="M28.7,94l-6,6c1.6,1.6,3.8,2.6,6.3,2.5c2.2-0.1,4.2-1,5.7-2.5L28.7,94z"/>
	<path class="st2" d="M42.1,90.9L37,85.7L28.7,94l6,6c1.5-1.6,2.4-3.7,2.4-6.1v-1.4C38.8,92.2,40.5,91.7,42.1,90.9z"/>
	<path class="st4" d="M49.5,81.6l-4.2-4.2L37,85.7l5.1,5.1C45.7,88.9,48.4,85.6,49.5,81.6z"/>
	<path class="st3" d="M49.5,81.6c0.4-1.4,0.6-2.9,0.5-4.4c0-1.3-0.3-2.6-0.7-3.8l-4,4L49.5,81.6z"/>
</g>
<g>
	<g>
		<path class="st0" d="M23,185.5h6.5v12.6h13.1v-12.6H49v30.5h-6.4v-12.6H29.4v12.6H23V185.5z"/>
		<path class="st0" d="M52.1,209.7c0-5.1,4.1-6.6,8.6-7.1c4-0.4,5.5-0.6,5.5-2.1v-0.1c0-1.9-1.2-3-3.4-3c-2.3,0-3.6,1.1-4.1,2.6
			l-5.9-0.5c0.9-4.2,4.5-6.8,10-6.8c5.1,0,9.7,2.3,9.7,7.8v15.4h-6v-3.2h-0.2c-1.1,2.1-3.3,3.6-6.7,3.6
			C55.3,216.5,52.1,214.2,52.1,209.7z M66.3,207.9v-2.4c-0.8,0.5-3,0.8-4.4,1c-2.2,0.3-3.7,1.2-3.7,3c0,1.7,1.4,2.7,3.4,2.7
			C64.3,212.1,66.3,210.3,66.3,207.9z"/>
		<path class="st0" d="M89,216.1h-7.2l-8-22.9h6.7l4.8,16.4h0.2l4.7-16.4H97L89,216.1z"/>
		<path class="st0" d="M97.5,204.7c0-7.1,4.4-11.9,11.1-11.9c6.1,0,10.8,3.8,10.8,11.6v1.7h-15.6v0c0,3.4,2,5.5,5.2,5.5
			c2.1,0,3.8-0.9,4.4-2.7l5.9,0.4c-0.9,4.2-4.7,7-10.4,7C101.8,216.5,97.5,212,97.5,204.7z M113.4,202.3c0-2.7-1.9-4.7-4.7-4.7
			c-2.8,0-4.8,2.1-4.9,4.7H113.4z"/>
		<path class="st0" d="M130.1,209.7c0-5.1,4.1-6.6,8.6-7.1c4-0.4,5.5-0.6,5.5-2.1v-0.1c0-1.9-1.2-3-3.4-3c-2.3,0-3.6,1.1-4.1,2.6
			l-5.9-0.5c0.9-4.2,4.5-6.8,10-6.8c5.1,0,9.7,2.3,9.7,7.8v15.4h-6v-3.2h-0.2c-1.1,2.1-3.3,3.6-6.7,3.6
			C133.3,216.5,130.1,214.2,130.1,209.7z M144.3,207.9v-2.4c-0.8,0.5-3,0.8-4.4,1c-2.2,0.3-3.7,1.2-3.7,3c0,1.7,1.4,2.7,3.4,2.7
			C142.3,212.1,144.3,210.3,144.3,207.9z"/>
		<path class="st0" d="M169.5,216.1h-6.4v-22.9h6.1v4h0.3c1-2.7,3.5-4.3,6.9-4.3c4.8,0,7.9,3.3,7.9,8.6v14.6h-6.4v-13.4
			c0-2.8-1.5-4.5-4.1-4.5c-2.6,0-4.3,1.7-4.3,4.7V216.1z"/>
		<path class="st0" d="M188,187c0-1.8,1.6-3.2,3.4-3.2c1.9,0,3.4,1.4,3.4,3.2c0,1.8-1.6,3.2-3.4,3.2C189.6,190.2,188,188.8,188,187z
			 M188.3,193.2h6.4v22.9h-6.4V193.2z"/>
		<path class="st0" d="M197.7,204.7c0-7,4.3-11.8,11.2-11.8c6,0,10,3.5,10.3,8.8h-6c-0.3-2.3-1.8-3.8-4.2-3.8c-3,0-4.9,2.5-4.9,6.8
			c0,4.4,1.9,6.9,4.9,6.9c2.2,0,3.8-1.4,4.2-3.8h6c-0.3,5.3-4.1,8.8-10.2,8.8C201.9,216.5,197.7,211.7,197.7,204.7z"/>
		<path class="st0" d="M221.3,204.7c0-7.1,4.4-11.9,11.1-11.9c6.1,0,10.8,3.8,10.8,11.6v1.7h-15.6v0c0,3.4,2,5.5,5.2,5.5
			c2.1,0,3.8-0.9,4.4-2.7l5.9,0.4c-0.9,4.2-4.7,7-10.4,7C225.6,216.5,221.3,212,221.3,204.7z M237.2,202.3c0-2.7-1.9-4.7-4.7-4.7
			c-2.8,0-4.8,2.1-4.9,4.7H237.2z"/>
		<path class="st0" d="M267.2,197.9h-4.3V209c0,1.8,0.9,2.2,2.1,2.2c0.6,0,1.3-0.1,1.6-0.2l1,4.7c-0.6,0.2-1.8,0.5-3.4,0.6
			c-4.6,0.2-7.7-2-7.6-6.5v-11.9h-3.1v-4.8h3.1v-5.5h6.4v5.5h4.3V197.9z"/>
		<path class="st0" d="M270,187c0-1.8,1.5-3.2,3.4-3.2c1.9,0,3.4,1.4,3.4,3.2c0,1.8-1.6,3.2-3.4,3.2C271.6,190.2,270,188.8,270,187z
			 M270.3,193.2h6.4v22.9h-6.4V193.2z"/>
		<path class="st0" d="M280.6,193.2h6.1v4h0.3c1-2.7,3.3-4.3,6.4-4.3c3.1,0,5.5,1.7,6.2,4.3h0.2c0.9-2.6,3.5-4.3,6.9-4.3
			c4.3,0,7.2,2.8,7.2,7.8v15.4h-6.3v-14.1c0-2.5-1.5-3.8-3.5-3.8c-2.3,0-3.7,1.6-3.7,4v14h-6.2v-14.3c0-2.3-1.4-3.7-3.5-3.7
			c-2.1,0-3.7,1.7-3.7,4.2v13.7h-6.4V193.2z"/>
		<path class="st0" d="M317,204.7c0-7.1,4.4-11.9,11.1-11.9c6.1,0,10.8,3.8,10.8,11.6v1.7h-15.6v0c0,3.4,2,5.5,5.2,5.5
			c2.1,0,3.8-0.9,4.4-2.7l5.9,0.4c-0.9,4.2-4.7,7-10.4,7C321.3,216.5,317,212,317,204.7z M332.9,202.3c0-2.7-1.9-4.7-4.7-4.7
			c-2.8,0-4.8,2.1-4.9,4.7H332.9z"/>
		<path class="st0" d="M22,246.7c0-7.9,4.2-11.8,9.3-11.8c3.8,0,5.7,2.3,6.5,4.1H38v-11.5h6.3v30.5h-6.3v-3.7h-0.3
			c-0.9,1.9-2.8,4-6.5,4C26.1,258.5,22,254.3,22,246.7z M38.1,246.6c0-4.1-1.7-6.7-4.8-6.7c-3.1,0-4.8,2.7-4.8,6.7
			c0,4,1.7,6.8,4.8,6.8C36.4,253.4,38.1,250.7,38.1,246.6z"/>
		<path class="st0" d="M47.6,246.7c0-7.1,4.3-11.8,11.3-11.8s11.3,4.7,11.3,11.8c0,7.1-4.3,11.8-11.3,11.8S47.6,253.8,47.6,246.7z
			 M63.7,246.7c0-4-1.6-6.9-4.8-6.9c-3.2,0-4.8,3-4.8,6.9c0,4,1.6,6.9,4.8,6.9C62,253.6,63.7,250.7,63.7,246.7z"/>
		<path class="st0" d="M72.3,246.7c0-7,4.3-11.8,11.2-11.8c6,0,10,3.5,10.3,8.8h-6c-0.3-2.3-1.8-3.8-4.2-3.8c-3,0-4.9,2.5-4.9,6.8
			c0,4.4,1.9,6.9,4.9,6.9c2.2,0,3.8-1.4,4.2-3.8h6c-0.3,5.3-4.1,8.8-10.2,8.8C76.5,258.5,72.3,253.7,72.3,246.7z"/>
		<path class="st0" d="M111.5,235.2h6.4v22.9h-6.1v-4.2h-0.2c-1,2.7-3.5,4.5-6.9,4.5c-4.6,0-7.7-3.3-7.8-8.6v-14.6h6.4v13.4
			c0,2.7,1.6,4.4,4,4.4c2.3,0,4.4-1.6,4.4-4.7V235.2z"/>
		<path class="st0" d="M121.9,235.2h6.1v4h0.3c1-2.7,3.3-4.3,6.4-4.3c3.1,0,5.5,1.7,6.2,4.3h0.2c0.9-2.6,3.5-4.3,6.9-4.3
			c4.3,0,7.2,2.8,7.2,7.8v15.4h-6.3v-14.1c0-2.5-1.5-3.8-3.5-3.8c-2.3,0-3.7,1.6-3.7,4v14h-6.2v-14.3c0-2.3-1.4-3.7-3.5-3.7
			c-2.1,0-3.7,1.7-3.7,4.2v13.7h-6.4V235.2z"/>
		<path class="st0" d="M158.2,246.7c0-7.1,4.4-11.9,11.1-11.9c6.1,0,10.8,3.8,10.8,11.6v1.7h-15.6v0c0,3.4,2,5.5,5.2,5.5
			c2.1,0,3.8-0.9,4.4-2.7l5.9,0.4c-0.9,4.2-4.7,7-10.4,7C162.5,258.5,158.2,254,158.2,246.7z M174.1,244.3c0-2.7-1.9-4.7-4.7-4.7
			c-2.8,0-4.8,2.1-4.9,4.7H174.1z"/>
		<path class="st0" d="M189.6,258.1h-6.4v-22.9h6.1v4h0.3c1-2.7,3.5-4.3,6.9-4.3c4.8,0,7.9,3.3,7.9,8.6v14.6H198v-13.4
			c0-2.8-1.5-4.5-4.1-4.5c-2.6,0-4.3,1.7-4.3,4.7V258.1z"/>
		<path class="st0" d="M220.5,239.9h-4.3V251c0,1.8,0.9,2.2,2.1,2.2c0.6,0,1.3-0.1,1.6-0.2l1,4.7c-0.6,0.2-1.8,0.5-3.4,0.6
			c-4.6,0.2-7.7-2-7.6-6.5v-11.9h-3.1v-4.8h3.1v-5.5h6.4v5.5h4.3V239.9z"/>
		<path class="st0" d="M223.3,229c0-1.8,1.5-3.2,3.4-3.2c1.9,0,3.4,1.4,3.4,3.2c0,1.8-1.6,3.2-3.4,3.2
			C224.9,232.2,223.3,230.8,223.3,229z M223.5,235.2h6.4v22.9h-6.4V235.2z"/>
		<path class="st0" d="M240.3,258.1h-6.4v-22.9h6.1v4h0.3c1-2.7,3.5-4.3,6.9-4.3c4.8,0,7.9,3.3,7.9,8.6v14.6h-6.4v-13.4
			c0-2.8-1.5-4.5-4.1-4.5c-2.6,0-4.3,1.7-4.3,4.7V258.1z"/>
		<path class="st0" d="M258.8,260.8l5.9-0.8c0.5,1.2,1.9,2.5,4.7,2.5c2.8,0,4.8-1.2,4.8-4.2V254H274c-0.8,1.9-2.9,3.7-6.5,3.7
			c-5.2,0-9.3-3.5-9.3-11.2c0-7.8,4.2-11.7,9.3-11.7c3.8,0,5.7,2.3,6.5,4.1h0.2v-3.8h6.3v23.1c0,5.7-4.7,8.7-11.2,8.7
			C263.1,267,259.6,264.2,258.8,260.8z M274.2,246.6c0-4-1.7-6.6-4.8-6.6c-3.1,0-4.8,2.7-4.8,6.6c0,4,1.7,6.4,4.8,6.4
			C272.5,253,274.2,250.6,274.2,246.6z"/>
		<path class="st0" d="M21.9,288.7c0-7,4.3-11.8,11.2-11.8c6,0,10,3.5,10.3,8.8h-6c-0.3-2.3-1.8-3.8-4.2-3.8c-3,0-4.9,2.5-4.9,6.8
			c0,4.4,1.9,6.9,4.9,6.9c2.2,0,3.8-1.4,4.2-3.8h6c-0.3,5.3-4.1,8.8-10.2,8.8C26.2,300.5,21.9,295.7,21.9,288.7z"/>
		<path class="st0" d="M45.6,288.7c0-7.1,4.3-11.8,11.3-11.8s11.3,4.7,11.3,11.8c0,7.1-4.3,11.8-11.3,11.8S45.6,295.8,45.6,288.7z
			 M61.6,288.7c0-4-1.6-6.9-4.8-6.9c-3.2,0-4.8,3-4.8,6.9c0,4,1.6,6.9,4.8,6.9C60,295.6,61.6,292.7,61.6,288.7z"/>
		<path class="st0" d="M71.2,277.2h6.1v4h0.3c1-2.7,3.3-4.3,6.4-4.3c3.1,0,5.5,1.7,6.2,4.3h0.2c0.9-2.6,3.5-4.3,6.9-4.3
			c4.3,0,7.2,2.8,7.2,7.8v15.4h-6.3v-14.1c0-2.5-1.5-3.8-3.5-3.8c-2.3,0-3.7,1.6-3.7,4v14h-6.2v-14.3c0-2.3-1.4-3.7-3.5-3.7
			c-2.1,0-3.7,1.7-3.7,4.2v13.7h-6.4V277.2z"/>
		<path class="st0" d="M108.5,277.2h6.3v3.8h0.3c0.8-1.9,2.7-4.1,6.5-4.1c5,0,9.3,3.9,9.3,11.8c0,7.7-4.1,11.8-9.3,11.8
			c-3.7,0-5.6-2.1-6.5-4h-0.2v12.3h-6.4V277.2z M119.5,295.4c3.1,0,4.8-2.8,4.8-6.8c0-4-1.7-6.7-4.8-6.7c-3.1,0-4.8,2.6-4.8,6.7
			S116.4,295.4,119.5,295.4z"/>
		<path class="st0" d="M133.1,288.7c0-7.1,4.3-11.8,11.3-11.8s11.3,4.7,11.3,11.8c0,7.1-4.3,11.8-11.3,11.8S133.1,295.8,133.1,288.7
			z M149.1,288.7c0-4-1.6-6.9-4.8-6.9c-3.2,0-4.8,3-4.8,6.9c0,4,1.6,6.9,4.8,6.9C147.5,295.6,149.1,292.7,149.1,288.7z"/>
		<path class="st0" d="M165,300.1h-6.4v-22.9h6.1v4h0.3c1-2.7,3.5-4.3,6.9-4.3c4.8,0,7.9,3.3,7.9,8.6v14.6h-6.4v-13.4
			c0-2.8-1.5-4.5-4.1-4.5c-2.6,0-4.3,1.7-4.3,4.7V300.1z"/>
		<path class="st0" d="M182.8,288.7c0-7.1,4.4-11.9,11.1-11.9c6.1,0,10.8,3.8,10.8,11.6v1.7h-15.6v0c0,3.4,2,5.5,5.2,5.5
			c2.1,0,3.8-0.9,4.4-2.7l5.9,0.4c-0.9,4.2-4.7,7-10.4,7C187.1,300.5,182.8,296,182.8,288.7z M198.7,286.3c0-2.7-1.9-4.7-4.7-4.7
			c-2.8,0-4.8,2.1-4.9,4.7H198.7z"/>
		<path class="st0" d="M214.2,300.1h-6.4v-22.9h6.1v4h0.3c1-2.7,3.5-4.3,6.9-4.3c4.8,0,7.9,3.3,7.9,8.6v14.6h-6.4v-13.4
			c0-2.8-1.5-4.5-4.1-4.5c-2.6,0-4.3,1.7-4.3,4.7V300.1z"/>
		<path class="st0" d="M245.1,281.9h-4.3V293c0,1.8,0.9,2.2,2.1,2.2c0.6,0,1.3-0.1,1.6-0.2l1,4.7c-0.6,0.2-1.8,0.5-3.4,0.6
			c-4.6,0.2-7.7-2-7.6-6.5v-11.9h-3.1v-4.8h3.1v-5.5h6.4v5.5h4.3V281.9z"/>
		<path class="st0" d="M261.1,284.1c-0.3-1.5-1.6-2.7-3.8-2.7c-2,0-3.5,0.9-3.5,2.3c0,1.1,0.8,1.8,2.9,2.3l4.1,0.8
			c4.4,0.9,6.6,2.9,6.6,6.2c0,4.5-4.3,7.5-10.2,7.5c-6.1,0-9.8-2.7-10.4-7.1l6.2-0.3c0.4,1.9,1.9,2.8,4.2,2.8c2.2,0,3.7-1,3.7-2.3
			c0-1.1-0.9-1.9-2.9-2.3l-4-0.8c-4.5-0.9-6.6-3.1-6.6-6.5c0-4.4,3.8-7.1,9.7-7.1c5.8,0,9.2,2.6,9.8,6.8L261.1,284.1z"/>
		<path class="st0" d="M270.5,296.9c0-2,1.6-3.5,3.6-3.5c1.9,0,3.6,1.6,3.6,3.5c0,2-1.7,3.6-3.6,3.6
			C272.1,300.5,270.5,298.9,270.5,296.9z"/>
	</g>
</g>
<g>
	<rect x="19.9" y="440.3" class="st2" width="2" height="46.5"/>
	<rect x="27.8" y="440.3" class="st2" width="2" height="46.5"/>
	<rect x="35.8" y="440.3" class="st2" width="2" height="46.5"/>
	<rect x="43.8" y="440.3" class="st2" width="2" height="46.5"/>
	<rect x="51.7" y="440.3" class="st2" width="2" height="46.5"/>
	<rect x="59.7" y="440.3" class="st2" width="2" height="46.5"/>
	<rect x="67.7" y="440.3" class="st2" width="2" height="46.5"/>
	<rect x="75.6" y="440.3" class="st2" width="2" height="46.5"/>
	<rect x="83.6" y="440.3" class="st2" width="2" height="46.5"/>
	<rect x="91.6" y="440.3" class="st2" width="2" height="46.5"/>
	<rect x="99.6" y="440.3" class="st2" width="2" height="46.5"/>
</g>
<g>
	<g>
		<path class="st5" d="M121.4,459.5h2.8v10.8h5.6v2.3h-8.4V459.5z"/>
		<path class="st5" d="M134,472.6h-2.8v-13.1h2.8V472.6z"/>
		<path class="st5" d="M141.3,469.4h0.1l3.2-9.9h3.1l-4.5,13.1h-3.6l-4.5-13.1h3.1L141.3,469.4z"/>
		<path class="st5" d="M148.8,459.5h8.8v2.3h-6.1v3.1h5.6v2.3h-5.6v3.1h6.1v2.3h-8.8V459.5z"/>
		<path class="st5" d="M163.1,472.6v-13.1h4.7c4,0,6.4,2.5,6.4,6.5c0,4.1-2.4,6.6-6.4,6.6H163.1z M167.6,470.2
			c2.5,0,3.8-1.3,3.8-4.2c0-2.9-1.3-4.2-3.8-4.2h-1.8v8.3H167.6z"/>
		<path class="st5" d="M175.8,459.5h8.8v2.3h-6.1v3.1h5.6v2.3h-5.6v3.1h6.1v2.3h-8.8V459.5z"/>
		<path class="st5" d="M189.8,459.5l3.6,8.8h0.2l3.6-8.8h3.4v13.1h-2.7V464h-0.1l-3.4,8.5h-1.8l-3.4-8.5H189v8.6h-2.7v-13.1H189.8z"
			/>
		<path class="st5" d="M208.4,472.7c-3.5,0-6.1-2.5-6.1-6.7c0-4.3,2.6-6.7,6.1-6.7c3.5,0,6.1,2.4,6.1,6.7S211.9,472.7,208.4,472.7z
			 M208.4,461.7c-2,0-3.3,1.5-3.3,4.3s1.3,4.3,3.3,4.3c2,0,3.3-1.5,3.3-4.3S210.4,461.7,208.4,461.7z"/>
	</g>
	<g>
		<g>
			<line class="st6" x1="250.7" y1="465.5" x2="230.7" y2="465.5"/>
			<polyline class="st6" points="241.8,456.6 250.7,465.5 241.8,474.4 			"/>
		</g>
	</g>
</g>
<g>
	<path class="st0" d="M27.5,335.6c-0.3-1.4-1.5-2.2-2.9-2.2c-1.9,0-3.3,1.4-3.3,4.1s1.5,4.1,3.3,4.1c1.4,0,2.6-0.8,2.9-2.2h1.2
		c-0.4,2.1-2,3.3-4.1,3.3c-2.6,0-4.5-2-4.5-5.2s1.9-5.2,4.5-5.2c2,0,3.7,1.2,4.1,3.3H27.5z"/>
	<path class="st0" d="M30.6,334.9h1.1v1.2h0.1c0.3-0.8,1.1-1.3,2-1.3c0.4,0,0.7,0.1,1,0.3l-0.4,1c-0.2-0.1-0.4-0.1-0.7-0.1
		c-1.1,0-1.9,0.8-1.9,1.8v4.8h-1.2V334.9z"/>
	<path class="st0" d="M35.4,338.8c0-2.3,1.4-4,3.4-4c1.6,0,3.3,1,3.3,3.8v0.5h-5.5c0.1,1.6,1,2.5,2.4,2.5c0.9,0,1.6-0.4,1.9-1.2
		l1.1,0.3c-0.4,1.2-1.5,1.9-3,1.9C36.7,342.7,35.4,341.2,35.4,338.8z M40.9,338.1c0-1.3-0.8-2.2-2.1-2.2c-1.3,0-2.2,1.1-2.3,2.2
		H40.9z"/>
	<path class="st0" d="M43.5,340.4c0-1.8,1.5-2.1,3-2.2c1.4-0.2,2-0.1,2-0.7v0c0-1-0.5-1.6-1.6-1.6c-1.1,0-1.7,0.6-2,1.2l-1.1-0.4
		c0.6-1.4,1.9-1.8,3.1-1.8c1,0,2.8,0.3,2.8,2.7v5h-1.2v-1h-0.1c-0.2,0.5-0.9,1.2-2.3,1.2C44.7,342.8,43.5,341.9,43.5,340.4z
		 M48.5,339.8v-1.1c-0.2,0.2-1.5,0.4-2,0.4c-0.9,0.1-1.7,0.4-1.7,1.3c0,0.8,0.7,1.2,1.6,1.2C47.7,341.7,48.5,340.8,48.5,339.8z"/>
	<path class="st0" d="M55.1,335.9h-1.6v4.5c0,1,0.5,1.2,1,1.2c0.3,0,0.4,0,0.5-0.1l0.2,1.1c-0.2,0.1-0.4,0.1-0.9,0.1
		c-1,0-2.1-0.6-2.1-2v-4.8h-1.2v-1h1.2v-1.8h1.2v1.8h1.6V335.9z"/>
	<path class="st0" d="M56.4,338.8c0-2.3,1.4-4,3.4-4c1.6,0,3.3,1,3.3,3.8v0.5h-5.5c0.1,1.6,1,2.5,2.4,2.5c0.9,0,1.6-0.4,1.9-1.2
		l1.1,0.3c-0.4,1.2-1.5,1.9-3,1.9C57.8,342.7,56.4,341.2,56.4,338.8z M62,338.1c0-1.3-0.8-2.2-2.1-2.2c-1.3,0-2.2,1.1-2.3,2.2H62z"
		/>
	<path class="st0" d="M69,332.4h1.2v3.8h0.1c0.3-0.4,0.7-1.3,2.2-1.3c1.9,0,3.3,1.5,3.3,3.9c0,2.4-1.3,4-3.2,4c-1.5,0-2-0.9-2.2-1.3
		h-0.1v1.2H69V332.4z M72.4,341.7c1.5,0,2.2-1.3,2.2-2.9c0-1.6-0.7-2.9-2.2-2.9c-1.4,0-2.2,1.2-2.2,2.9
		C70.2,340.5,71,341.7,72.4,341.7z"/>
	<path class="st0" d="M77.2,338.8c0-2.3,1.4-4,3.4-4c1.6,0,3.3,1,3.3,3.8v0.5h-5.5c0.1,1.6,1,2.5,2.4,2.5c0.9,0,1.6-0.4,1.9-1.2
		l1.1,0.3c-0.4,1.2-1.5,1.9-3,1.9C78.6,342.7,77.2,341.2,77.2,338.8z M82.7,338.1c0-1.3-0.8-2.2-2.1-2.2c-1.3,0-2.2,1.1-2.3,2.2
		H82.7z"/>
	<path class="st0" d="M85.4,340.4c0-1.8,1.5-2.1,3-2.2c1.4-0.2,2-0.1,2-0.7v0c0-1-0.5-1.6-1.6-1.6c-1.1,0-1.7,0.6-2,1.2l-1.1-0.4
		c0.6-1.4,1.9-1.8,3.1-1.8c1,0,2.8,0.3,2.8,2.7v5h-1.2v-1h-0.1c-0.2,0.5-0.9,1.2-2.3,1.2C86.5,342.8,85.4,341.9,85.4,340.4z
		 M90.3,339.8v-1.1c-0.2,0.2-1.5,0.4-2,0.4c-0.9,0.1-1.7,0.4-1.7,1.3c0,0.8,0.7,1.2,1.6,1.2C89.5,341.7,90.3,340.8,90.3,339.8z"/>
	<path class="st0" d="M98.4,334.9h1.2v7.6h-1.2v-1.3h-0.1c-0.4,0.8-1.1,1.4-2.3,1.4c-1.4,0-2.5-0.9-2.5-2.9v-4.9h1.2v4.8
		c0,1.1,0.7,1.8,1.7,1.8c0.9,0,2-0.7,2-2.1V334.9z"/>
	<path class="st0" d="M105.1,335.9h-1.6v4.5c0,1,0.5,1.2,1,1.2c0.3,0,0.4,0,0.5-0.1l0.2,1.1c-0.2,0.1-0.4,0.1-0.9,0.1
		c-1,0-2.1-0.6-2.1-2v-4.8h-1.2v-1h1.2v-1.8h1.2v1.8h1.6V335.9z"/>
	<path class="st0" d="M106.6,332.9c0-0.4,0.4-0.8,0.8-0.8s0.8,0.4,0.8,0.8s-0.4,0.8-0.8,0.8S106.6,333.3,106.6,332.9z M106.8,334.9
		h1.2v7.6h-1.2V334.9z"/>
	<path class="st0" d="M113.6,335.9h-1.7v6.6h-1.2v-6.6h-1.2v-1h1.2v-1.1c0-1.3,1.1-2,2.1-2c0.6,0,0.9,0.1,1.1,0.2l-0.3,1
		c-0.1,0-0.3-0.1-0.7-0.1c-0.8,0-1.1,0.4-1.1,1.2v0.8h1.7V335.9z"/>
	<path class="st0" d="M120,334.9h1.2v7.6H120v-1.3h-0.1c-0.4,0.8-1.1,1.4-2.3,1.4c-1.4,0-2.5-0.9-2.5-2.9v-4.9h1.2v4.8
		c0,1.1,0.7,1.8,1.7,1.8c0.9,0,2-0.7,2-2.1V334.9z"/>
	<path class="st0" d="M124.5,342.6h-1.2v-10.2h1.2V342.6z"/>
	<path class="st0" d="M130.2,338.8c0-2.4,1.3-3.9,3.3-3.9c1.5,0,1.9,0.9,2.2,1.3h0.1v-3.8h1.2v10.2h-1.1v-1.2h-0.1
		c-0.3,0.4-0.8,1.3-2.2,1.3C131.6,342.7,130.2,341.2,130.2,338.8z M135.8,338.8c0-1.7-0.8-2.9-2.2-2.9c-1.5,0-2.2,1.3-2.2,2.9
		c0,1.6,0.8,2.9,2.2,2.9C135.1,341.7,135.8,340.5,135.8,338.8z"/>
	<path class="st0" d="M138.9,338.8c0-2.4,1.4-4,3.5-4s3.5,1.6,3.5,4c0,2.4-1.4,3.9-3.5,3.9S138.9,341.2,138.9,338.8z M144.7,338.8
		c0-1.5-0.7-2.9-2.3-2.9c-1.6,0-2.3,1.4-2.3,2.9s0.7,2.9,2.3,2.9C144,341.7,144.7,340.3,144.7,338.8z"/>
	<path class="st0" d="M147.3,338.8c0-2.3,1.4-4,3.4-4c1.6,0,2.8,1,3,2.4h-1.2c-0.2-0.7-0.8-1.3-1.8-1.3c-1.4,0-2.3,1.1-2.3,2.9
		c0,1.8,0.9,2.9,2.3,2.9c0.9,0,1.6-0.5,1.8-1.3h1.2c-0.2,1.4-1.3,2.4-3,2.4C148.6,342.7,147.3,341.1,147.3,338.8z"/>
	<path class="st0" d="M160.3,334.9h1.2v7.6h-1.2v-1.3h-0.1c-0.4,0.8-1.1,1.4-2.3,1.4c-1.4,0-2.5-0.9-2.5-2.9v-4.9h1.2v4.8
		c0,1.1,0.7,1.8,1.7,1.8c0.9,0,2-0.7,2-2.1V334.9z"/>
	<path class="st0" d="M163.6,334.9h1.1v1.2h0.1c0.3-0.8,1.1-1.3,2-1.3c1,0,1.7,0.5,2,1.3h0.1c0.4-0.8,1.2-1.3,2.3-1.3
		c1.4,0,2.3,0.8,2.3,2.6v5.1h-1.2v-5.1c0-1.1-0.7-1.6-1.6-1.6c-1.1,0-1.7,0.7-1.7,1.7v5H168v-5.2c0-0.9-0.6-1.5-1.5-1.5
		c-0.9,0-1.7,0.8-1.7,1.9v4.8h-1.2V334.9z"/>
	<path class="st0" d="M175.4,338.8c0-2.3,1.4-4,3.4-4c1.6,0,3.3,1,3.3,3.8v0.5h-5.5c0.1,1.6,1,2.5,2.4,2.5c0.9,0,1.6-0.4,1.9-1.2
		l1.1,0.3c-0.4,1.2-1.5,1.9-3,1.9C176.8,342.7,175.4,341.2,175.4,338.8z M180.9,338.1c0-1.3-0.8-2.2-2.1-2.2c-1.3,0-2.2,1.1-2.3,2.2
		H180.9z"/>
	<path class="st0" d="M185.1,342.6h-1.2v-7.6h1.1v1.2h0.1c0.4-0.8,1.1-1.3,2.2-1.3c1.5,0,2.6,0.9,2.6,2.9v4.9h-1.2v-4.8
		c0-1.2-0.7-1.9-1.8-1.9c-1.1,0-1.9,0.8-1.9,2.1V342.6z"/>
	<path class="st0" d="M195.4,335.9h-1.6v4.5c0,1,0.5,1.2,1,1.2c0.3,0,0.4,0,0.5-0.1l0.2,1.1c-0.2,0.1-0.4,0.1-0.9,0.1
		c-1,0-2.1-0.6-2.1-2v-4.8h-1.2v-1h1.2v-1.8h1.2v1.8h1.6V335.9z"/>
	<path class="st0" d="M196.8,340.4c0-1.8,1.5-2.1,3-2.2c1.4-0.2,2-0.1,2-0.7v0c0-1-0.5-1.6-1.6-1.6c-1.1,0-1.7,0.6-2,1.2l-1.1-0.4
		c0.6-1.4,1.9-1.8,3.1-1.8c1,0,2.8,0.3,2.8,2.7v5h-1.2v-1h-0.1c-0.2,0.5-0.9,1.2-2.3,1.2C198,342.8,196.8,341.9,196.8,340.4z
		 M201.8,339.8v-1.1c-0.2,0.2-1.5,0.4-2,0.4c-0.9,0.1-1.7,0.4-1.7,1.3c0,0.8,0.7,1.2,1.6,1.2C201,341.7,201.8,340.8,201.8,339.8z"/>
	<path class="st0" d="M208.4,335.9h-1.6v4.5c0,1,0.5,1.2,1,1.2c0.3,0,0.4,0,0.5-0.1l0.2,1.1c-0.2,0.1-0.4,0.1-0.9,0.1
		c-1,0-2.1-0.6-2.1-2v-4.8h-1.2v-1h1.2v-1.8h1.2v1.8h1.6V335.9z"/>
	<path class="st0" d="M209.9,332.9c0-0.4,0.4-0.8,0.8-0.8c0.5,0,0.8,0.4,0.8,0.8s-0.4,0.8-0.8,0.8
		C210.3,333.7,209.9,333.3,209.9,332.9z M210.2,334.9h1.2v7.6h-1.2V334.9z"/>
	<path class="st0" d="M213.1,338.8c0-2.4,1.4-4,3.5-4s3.5,1.6,3.5,4c0,2.4-1.4,3.9-3.5,3.9S213.1,341.2,213.1,338.8z M218.9,338.8
		c0-1.5-0.7-2.9-2.3-2.9c-1.6,0-2.3,1.4-2.3,2.9s0.7,2.9,2.3,2.9C218.2,341.7,218.9,340.3,218.9,338.8z"/>
	<path class="st0" d="M223,342.6h-1.2v-7.6h1.1v1.2h0.1c0.4-0.8,1.1-1.3,2.2-1.3c1.5,0,2.6,0.9,2.6,2.9v4.9h-1.2v-4.8
		c0-1.2-0.7-1.9-1.8-1.9c-1.1,0-1.9,0.8-1.9,2.1V342.6z"/>
	<path class="st0" d="M237.4,335.9h-1.7v6.6h-1.2v-6.6h-1.2v-1h1.2v-1.1c0-1.3,1.1-2,2.1-2c0.6,0,0.9,0.1,1.1,0.2l-0.3,1
		c-0.1,0-0.3-0.1-0.7-0.1c-0.8,0-1.1,0.4-1.1,1.2v0.8h1.7V335.9z"/>
	<path class="st0" d="M238.4,338.8c0-2.4,1.4-4,3.5-4s3.5,1.6,3.5,4c0,2.4-1.4,3.9-3.5,3.9S238.4,341.2,238.4,338.8z M244.1,338.8
		c0-1.5-0.7-2.9-2.3-2.9c-1.6,0-2.3,1.4-2.3,2.9s0.7,2.9,2.3,2.9C243.4,341.7,244.1,340.3,244.1,338.8z"/>
	<path class="st0" d="M247.1,334.9h1.1v1.2h0.1c0.3-0.8,1.1-1.3,2-1.3c0.4,0,0.7,0.1,1,0.3l-0.4,1c-0.2-0.1-0.4-0.1-0.7-0.1
		c-1.1,0-1.9,0.8-1.9,1.8v4.8h-1.2V334.9z"/>
	<path class="st0" d="M256.2,345.4l0.3-1c0.9,0.2,1.4,0.1,1.8-1l0.3-0.7l-2.8-7.7h1.3l2.1,6.1h0.1l2.1-6.1h1.3l-3.3,8.9
		c-0.4,1.2-1.2,1.7-2.2,1.7C256.7,345.5,256.4,345.5,256.2,345.4z"/>
	<path class="st0" d="M263.5,338.8c0-2.4,1.4-4,3.5-4s3.5,1.6,3.5,4c0,2.4-1.4,3.9-3.5,3.9S263.5,341.2,263.5,338.8z M269.3,338.8
		c0-1.5-0.7-2.9-2.3-2.9c-1.6,0-2.3,1.4-2.3,2.9s0.7,2.9,2.3,2.9C268.6,341.7,269.3,340.3,269.3,338.8z"/>
	<path class="st0" d="M277.1,334.9h1.2v7.6h-1.2v-1.3H277c-0.4,0.8-1.1,1.4-2.3,1.4c-1.4,0-2.5-0.9-2.5-2.9v-4.9h1.2v4.8
		c0,1.1,0.7,1.8,1.7,1.8c0.9,0,2-0.7,2-2.1V334.9z"/>
	<path class="st0" d="M280.4,334.9h1.1v1.2h0.1c0.3-0.8,1.1-1.3,2-1.3c0.4,0,0.7,0.1,1,0.3l-0.4,1c-0.2-0.1-0.4-0.1-0.7-0.1
		c-1.1,0-1.9,0.8-1.9,1.8v4.8h-1.2V334.9z"/>
	<path class="st0" d="M20.1,358.8c0-2.3,1.4-4,3.4-4c1.6,0,2.8,1,3,2.4h-1.2c-0.2-0.7-0.8-1.3-1.8-1.3c-1.4,0-2.3,1.1-2.3,2.9
		c0,1.8,0.9,2.9,2.3,2.9c0.9,0,1.6-0.5,1.8-1.3h1.2c-0.2,1.4-1.3,2.4-3,2.4C21.4,362.7,20.1,361.1,20.1,358.8z"/>
	<path class="st0" d="M27.9,358.8c0-2.4,1.4-4,3.5-4s3.5,1.6,3.5,4c0,2.4-1.4,3.9-3.5,3.9S27.9,361.2,27.9,358.8z M33.6,358.8
		c0-1.5-0.7-2.9-2.3-2.9c-1.6,0-2.3,1.4-2.3,2.9s0.7,2.9,2.3,2.9C32.9,361.7,33.6,360.3,33.6,358.8z"/>
	<path class="st0" d="M36.6,354.9h1.1v1.2h0.1c0.3-0.8,1.1-1.3,2-1.3c1,0,1.7,0.5,2,1.3H42c0.4-0.8,1.2-1.3,2.3-1.3
		c1.4,0,2.3,0.8,2.3,2.6v5.1h-1.2v-5.1c0-1.1-0.7-1.6-1.6-1.6c-1.1,0-1.7,0.7-1.7,1.7v5H41v-5.2c0-0.9-0.6-1.5-1.5-1.5
		c-0.9,0-1.7,0.8-1.7,1.9v4.8h-1.2V354.9z"/>
	<path class="st0" d="M48.7,354.9h1.1v1.2H50c0.3-0.4,0.7-1.3,2.2-1.3c1.9,0,3.3,1.5,3.3,3.9c0,2.4-1.3,4-3.2,4
		c-1.5,0-2-0.9-2.2-1.3h-0.1v4h-1.2V354.9z M52.1,361.7c1.5,0,2.2-1.3,2.2-2.9c0-1.6-0.7-2.9-2.2-2.9c-1.4,0-2.2,1.2-2.2,2.9
		C49.9,360.5,50.7,361.7,52.1,361.7z"/>
	<path class="st0" d="M56.9,358.8c0-2.4,1.4-4,3.5-4s3.5,1.6,3.5,4c0,2.4-1.4,3.9-3.5,3.9S56.9,361.2,56.9,358.8z M62.7,358.8
		c0-1.5-0.7-2.9-2.3-2.9c-1.6,0-2.3,1.4-2.3,2.9s0.7,2.9,2.3,2.9C62,361.7,62.7,360.3,62.7,358.8z"/>
	<path class="st0" d="M66.8,362.6h-1.2v-7.6h1.1v1.2h0.1c0.4-0.8,1.1-1.3,2.2-1.3c1.5,0,2.6,0.9,2.6,2.9v4.9h-1.2v-4.8
		c0-1.2-0.7-1.9-1.8-1.9c-1.1,0-1.9,0.8-1.9,2.1V362.6z"/>
	<path class="st0" d="M73.5,358.8c0-2.3,1.4-4,3.4-4c1.6,0,3.3,1,3.3,3.8v0.5h-5.5c0.1,1.6,1,2.5,2.4,2.5c0.9,0,1.6-0.4,1.9-1.2
		l1.1,0.3c-0.4,1.2-1.5,1.9-3,1.9C74.8,362.7,73.5,361.2,73.5,358.8z M79,358.1c0-1.3-0.8-2.2-2.1-2.2c-1.3,0-2.2,1.1-2.3,2.2H79z"
		/>
	<path class="st0" d="M83.2,362.6H82v-7.6h1.1v1.2h0.1c0.4-0.8,1.1-1.3,2.2-1.3c1.5,0,2.6,0.9,2.6,2.9v4.9h-1.2v-4.8
		c0-1.2-0.7-1.9-1.8-1.9c-1.1,0-1.9,0.8-1.9,2.1V362.6z"/>
	<path class="st0" d="M93.5,355.9h-1.6v4.5c0,1,0.5,1.2,1,1.2c0.3,0,0.4,0,0.5-0.1l0.2,1.1c-0.2,0.1-0.4,0.1-0.9,0.1
		c-1,0-2.1-0.6-2.1-2v-4.8h-1.2v-1h1.2v-1.8h1.2v1.8h1.6V355.9z"/>
	<path class="st0" d="M99.5,356.9c-0.2-0.5-0.6-1.1-1.7-1.1c-0.9,0-1.6,0.5-1.6,1.1c0,0.6,0.4,0.9,1.3,1.1l1.1,0.3
		c1.4,0.3,2,1,2,2.1c0,1.3-1.2,2.3-3,2.3c-1.6,0-2.6-0.7-2.9-2l1.1-0.3c0.2,0.8,0.8,1.2,1.8,1.2c1.1,0,1.8-0.5,1.8-1.2
		c0-0.5-0.4-0.9-1.1-1.1l-1.3-0.3c-1.4-0.3-2-1-2-2.1c0-1.3,1.2-2.2,2.8-2.2c1.5,0,2.3,0.7,2.7,1.8L99.5,356.9z"/>
	<path class="st0" d="M104.1,361.7c-0.2,1.1-0.7,2.7-0.9,3.3h-0.9c0.1-0.6,0.4-2,0.6-3.3l0.1-0.6h1.3L104.1,361.7z"/>
	<path class="st0" d="M109.7,354.9h1.2l1.7,5.8h0.1l1.6-5.8h1.3l1.6,5.8h0.1l1.7-5.8h1.2l-2.3,7.6h-1.2l-1.7-5.9h-0.1l-1.7,5.9H112
		L109.7,354.9z"/>
	<path class="st0" d="M121.7,354.9h1.1v1.2h0.1c0.3-0.8,1.1-1.3,2-1.3c0.2,0,0.5,0,0.6,0v1.2c-0.1,0-0.4-0.1-0.7-0.1
		c-1.1,0-1.9,0.8-1.9,1.8v4.8h-1.2V354.9z"/>
	<path class="st0" d="M126.6,352.9c0-0.4,0.4-0.8,0.8-0.8s0.8,0.4,0.8,0.8s-0.4,0.8-0.8,0.8S126.6,353.3,126.6,352.9z M126.9,354.9
		h1.2v7.6h-1.2V354.9z"/>
	<path class="st0" d="M133.5,355.9h-1.6v4.5c0,1,0.5,1.2,1,1.2c0.3,0,0.4,0,0.5-0.1l0.2,1.1c-0.2,0.1-0.4,0.1-0.9,0.1
		c-1,0-2.1-0.6-2.1-2v-4.8h-1.2v-1h1.2v-1.8h1.2v1.8h1.6V355.9z"/>
	<path class="st0" d="M135.1,352.9c0-0.4,0.4-0.8,0.8-0.8s0.8,0.4,0.8,0.8s-0.4,0.8-0.8,0.8S135.1,353.3,135.1,352.9z M135.3,354.9
		h1.2v7.6h-1.2V354.9z"/>
	<path class="st0" d="M139.8,362.6h-1.2v-7.6h1.1v1.2h0.1c0.4-0.8,1.1-1.3,2.2-1.3c1.5,0,2.6,0.9,2.6,2.9v4.9h-1.2v-4.8
		c0-1.2-0.7-1.9-1.8-1.9c-1.1,0-1.9,0.8-1.9,2.1V362.6z"/>
	<path class="st0" d="M146.8,364.1l0.9-0.7c0.3,0.4,0.8,1.2,2.2,1.2c1.2,0,2.1-0.6,2.1-1.8v-1.6h-0.1c-0.3,0.4-0.7,1.3-2.2,1.3
		c-1.9,0-3.2-1.4-3.2-3.7c0-2.3,1.3-3.9,3.3-3.9c1.5,0,2,0.9,2.2,1.3h0.1v-1.2h1.1v7.9c0,2-1.5,2.8-3.3,2.8
		C148.2,365.6,147.2,364.9,146.8,364.1z M152,358.7c0-1.7-0.8-2.8-2.2-2.8c-1.5,0-2.2,1.3-2.2,2.8c0,1.6,0.8,2.7,2.2,2.7
		C151.3,361.4,152,360.4,152,358.7z"/>
	<path class="st0" d="M158.9,358.8c0-2.4,1.3-3.9,3.3-3.9c1.5,0,2,0.9,2.2,1.3h0.1v-3.8h1.2v10.2h-1.1v-1.2h-0.1
		c-0.3,0.4-0.8,1.3-2.2,1.3C160.2,362.7,158.9,361.2,158.9,358.8z M164.5,358.8c0-1.7-0.8-2.9-2.2-2.9c-1.5,0-2.2,1.3-2.2,2.9
		c0,1.6,0.8,2.9,2.2,2.9C163.7,361.7,164.5,360.5,164.5,358.8z"/>
	<path class="st0" d="M167.6,358.8c0-2.3,1.4-4,3.4-4c1.6,0,3.3,1,3.3,3.8v0.5h-5.5c0.1,1.6,1,2.5,2.4,2.5c0.9,0,1.6-0.4,1.9-1.2
		l1.1,0.3c-0.4,1.2-1.5,1.9-3,1.9C169,362.7,167.6,361.2,167.6,358.8z M173.1,358.1c0-1.3-0.8-2.2-2.1-2.2c-1.3,0-2.2,1.1-2.3,2.2
		H173.1z"/>
	<path class="st0" d="M175.8,360.4c0-1.8,1.5-2.1,3-2.2c1.4-0.2,2-0.1,2-0.7v0c0-1-0.5-1.6-1.6-1.6c-1.1,0-1.7,0.6-2,1.2l-1.1-0.4
		c0.6-1.4,1.9-1.8,3.1-1.8c1,0,2.8,0.3,2.8,2.7v5h-1.2v-1h-0.1c-0.2,0.5-0.9,1.2-2.3,1.2C176.9,362.8,175.8,361.9,175.8,360.4z
		 M180.7,359.8v-1.1c-0.2,0.2-1.5,0.4-2,0.4c-0.9,0.1-1.7,0.4-1.7,1.3c0,0.8,0.7,1.2,1.6,1.2C179.9,361.7,180.7,360.8,180.7,359.8z"
		/>
	<path class="st0" d="M183.7,358.8c0-2.4,1.3-3.9,3.3-3.9c1.5,0,2,0.9,2.2,1.3h0.1v-3.8h1.2v10.2h-1.1v-1.2h-0.1
		c-0.3,0.4-0.8,1.3-2.2,1.3C185,362.7,183.7,361.2,183.7,358.8z M189.2,358.8c0-1.7-0.8-2.9-2.2-2.9c-1.5,0-2.2,1.3-2.2,2.9
		c0,1.6,0.8,2.9,2.2,2.9C188.5,361.7,189.2,360.5,189.2,358.8z"/>
	<path class="st0" d="M201,356.9c-0.2-0.5-0.6-1.1-1.7-1.1c-0.9,0-1.6,0.5-1.6,1.1c0,0.6,0.4,0.9,1.3,1.1l1.1,0.3c1.4,0.3,2,1,2,2.1
		c0,1.3-1.2,2.3-3,2.3c-1.6,0-2.6-0.7-2.9-2l1.1-0.3c0.2,0.8,0.8,1.2,1.8,1.2c1.1,0,1.8-0.5,1.8-1.2c0-0.5-0.4-0.9-1.1-1.1l-1.3-0.3
		c-1.4-0.3-2-1-2-2.1c0-1.3,1.2-2.2,2.8-2.2c1.5,0,2.3,0.7,2.7,1.8L201,356.9z"/>
	<path class="st0" d="M203.7,352.9c0-0.4,0.4-0.8,0.8-0.8c0.5,0,0.8,0.4,0.8,0.8s-0.4,0.8-0.8,0.8
		C204.1,353.7,203.7,353.3,203.7,352.9z M204,354.9h1.2v7.6H204V354.9z"/>
	<path class="st0" d="M207.3,354.9h1.1v1.2h0.1c0.3-0.8,1.1-1.3,2-1.3c1,0,1.7,0.5,2,1.3h0.1c0.4-0.8,1.2-1.3,2.3-1.3
		c1.4,0,2.3,0.8,2.3,2.6v5.1h-1.2v-5.1c0-1.1-0.7-1.6-1.6-1.6c-1.1,0-1.7,0.7-1.7,1.7v5h-1.2v-5.2c0-0.9-0.6-1.5-1.5-1.5
		c-0.9,0-1.7,0.8-1.7,1.9v4.8h-1.2V354.9z"/>
	<path class="st0" d="M219.5,354.9h1.1v1.2h0.1c0.3-0.4,0.7-1.3,2.2-1.3c1.9,0,3.3,1.5,3.3,3.9c0,2.4-1.3,4-3.2,4
		c-1.5,0-2-0.9-2.2-1.3h-0.1v4h-1.2V354.9z M222.8,361.7c1.5,0,2.2-1.3,2.2-2.9c0-1.6-0.7-2.9-2.2-2.9c-1.4,0-2.2,1.2-2.2,2.9
		C220.6,360.5,221.4,361.7,222.8,361.7z"/>
	<path class="st0" d="M229.2,362.6H228v-10.2h1.2V362.6z"/>
	<path class="st0" d="M230.9,358.8c0-2.3,1.4-4,3.4-4c1.6,0,3.3,1,3.3,3.8v0.5h-5.5c0.1,1.6,1,2.5,2.4,2.5c0.9,0,1.6-0.4,1.9-1.2
		l1.1,0.3c-0.4,1.2-1.5,1.9-3,1.9C232.3,362.7,230.9,361.2,230.9,358.8z M236.5,358.1c0-1.3-0.8-2.2-2.1-2.2c-1.3,0-2.2,1.1-2.3,2.2
		H236.5z"/>
	<path class="st0" d="M246.8,355.9h-1.7v6.6h-1.2v-6.6h-1.2v-1h1.2v-1.1c0-1.3,1.1-2,2.1-2c0.6,0,0.9,0.1,1.1,0.2l-0.3,1
		c-0.1,0-0.3-0.1-0.7-0.1c-0.8,0-1.1,0.4-1.1,1.2v0.8h1.7V355.9z"/>
	<path class="st0" d="M248.2,352.9c0-0.4,0.4-0.8,0.8-0.8c0.5,0,0.8,0.4,0.8,0.8s-0.4,0.8-0.8,0.8
		C248.6,353.7,248.2,353.3,248.2,352.9z M248.4,354.9h1.2v7.6h-1.2V354.9z"/>
	<path class="st0" d="M252.9,362.6h-1.2v-10.2h1.2V362.6z"/>
	<path class="st0" d="M254.7,358.8c0-2.3,1.4-4,3.4-4c1.6,0,3.3,1,3.3,3.8v0.5h-5.5c0.1,1.6,1,2.5,2.4,2.5c0.9,0,1.6-0.4,1.9-1.2
		l1.1,0.3c-0.4,1.2-1.5,1.9-3,1.9C256.1,362.7,254.7,361.2,254.7,358.8z M260.3,358.1c0-1.3-0.8-2.2-2.1-2.2c-1.3,0-2.2,1.1-2.3,2.2
		H260.3z"/>
	<path class="st0" d="M267.6,356.9c-0.2-0.5-0.6-1.1-1.7-1.1c-0.9,0-1.6,0.5-1.6,1.1c0,0.6,0.4,0.9,1.3,1.1l1.1,0.3
		c1.4,0.3,2,1,2,2.1c0,1.3-1.2,2.3-3,2.3c-1.6,0-2.6-0.7-2.9-2l1.1-0.3c0.2,0.8,0.8,1.2,1.8,1.2c1.1,0,1.8-0.5,1.8-1.2
		c0-0.5-0.4-0.9-1.1-1.1l-1.3-0.3c-1.4-0.3-2-1-2-2.1c0-1.3,1.2-2.2,2.8-2.2c1.5,0,2.3,0.7,2.7,1.8L267.6,356.9z"/>
	<path class="st0" d="M270.5,361.8c0-0.5,0.4-0.9,0.9-0.9s0.9,0.4,0.9,0.9c0,0.5-0.4,0.9-0.9,0.9S270.5,362.3,270.5,361.8z"/>
</g>
<g>
	<polygon class="st7" points="206,713.1 190.3,713.1 193.6,694.2 169,715.1 184.7,715.1 181.4,734 	"/>
	<g>
		<path class="st4" d="M100.1,757h3.7v14.4h7.5v3h-11.2V757z"/>
		<path class="st4" d="M112.9,757.9c0-1,0.9-1.8,2-1.8c1.1,0,2,0.8,2,1.8c0,1-0.9,1.8-2,1.8C113.8,759.7,112.9,758.9,112.9,757.9z
			 M113,761.4h3.6v13.1H113V761.4z"/>
		<path class="st4" d="M118.9,776l3.4-0.5c0.3,0.7,1.1,1.4,2.7,1.4c1.6,0,2.7-0.7,2.7-2.4v-2.4h-0.2c-0.5,1.1-1.6,2.1-3.7,2.1
			c-3,0-5.3-2-5.3-6.4c0-4.5,2.4-6.7,5.3-6.7c2.2,0,3.3,1.3,3.7,2.4h0.1v-2.2h3.6v13.2c0,3.3-2.7,5-6.4,5
			C121.3,779.6,119.3,778,118.9,776z M127.7,767.9c0-2.3-1-3.8-2.8-3.8c-1.8,0-2.8,1.6-2.8,3.8c0,2.3,1,3.7,2.8,3.7
			C126.7,771.6,127.7,770.2,127.7,767.9z"/>
		<path class="st4" d="M137.2,774.5h-3.6V757h3.5v6.7h0.2c0.6-1.5,1.9-2.5,3.9-2.5c2.7,0,4.5,1.9,4.5,4.9v8.3h-3.6v-7.7
			c0-1.6-0.9-2.6-2.3-2.6c-1.5,0-2.5,1-2.5,2.7V774.5z"/>
		<path class="st4" d="M154.9,764.1h-2.5v6.3c0,1,0.5,1.3,1.2,1.3c0.3,0,0.7-0.1,0.9-0.1l0.6,2.7c-0.4,0.1-1,0.3-2,0.3
			c-2.6,0.1-4.4-1.2-4.4-3.7v-6.8H147v-2.7h1.8v-3.1h3.6v3.1h2.5V764.1z"/>
		<path class="st4" d="M160.3,774.5h-3.6v-13.1h3.5v2.3h0.2c0.6-1.5,2-2.5,3.9-2.5c2.7,0,4.5,1.9,4.5,4.9v8.3h-3.6v-7.7
			c0-1.6-0.9-2.6-2.3-2.6c-1.5,0-2.5,1-2.5,2.7V774.5z"/>
		<path class="st4" d="M170.9,757.9c0-1,0.9-1.8,2-1.8c1.1,0,2,0.8,2,1.8c0,1-0.9,1.8-2,1.8C171.7,759.7,170.9,758.9,170.9,757.9z
			 M171,761.4h3.6v13.1H171V761.4z"/>
		<path class="st4" d="M180.5,774.5h-3.6v-13.1h3.5v2.3h0.2c0.6-1.5,2-2.5,3.9-2.5c2.7,0,4.5,1.9,4.5,4.9v8.3h-3.6v-7.7
			c0-1.6-0.9-2.6-2.3-2.6c-1.5,0-2.5,1-2.5,2.7V774.5z"/>
		<path class="st4" d="M191.2,776l3.4-0.5c0.3,0.7,1.1,1.4,2.7,1.4c1.6,0,2.7-0.7,2.7-2.4v-2.4h-0.2c-0.5,1.1-1.6,2.1-3.7,2.1
			c-3,0-5.3-2-5.3-6.4c0-4.5,2.4-6.7,5.3-6.7c2.2,0,3.3,1.3,3.7,2.4h0.1v-2.2h3.6v13.2c0,3.3-2.7,5-6.4,5
			C193.6,779.6,191.6,778,191.2,776z M200,767.9c0-2.3-1-3.8-2.8-3.8c-1.8,0-2.8,1.6-2.8,3.8c0,2.3,1,3.7,2.8,3.7
			C199,771.6,200,770.2,200,767.9z"/>
		<path class="st4" d="M217.4,759.9c-1.8,0-2.8,0.8-2.8,2c0,1.3,1.2,1.8,2.8,2.2l1.6,0.4c3,0.7,5.2,2.2,5.2,5.1
			c0,3.2-2.5,5.2-6.8,5.2c-4.2,0-6.9-2-7-5.7h3.6c0.1,1.7,1.5,2.6,3.4,2.6c1.9,0,3.1-0.9,3.1-2.1c0-1.2-1.1-1.7-3-2.2l-1.9-0.5
			c-3-0.7-4.8-2.2-4.8-4.8c0-3.2,2.8-5.3,6.6-5.3c3.9,0,6.4,2.1,6.5,5.3h-3.5C220.2,760.7,219.1,759.9,217.4,759.9z"/>
		<path class="st4" d="M225.4,768c0-4,2.5-6.8,6.4-6.8c3.5,0,6.2,2.2,6.2,6.7v1H229v0c0,2,1.2,3.2,3,3.2c1.2,0,2.1-0.5,2.5-1.5
			l3.4,0.2c-0.5,2.4-2.7,4-5.9,4C227.9,774.8,225.4,772.2,225.4,768z M234.5,766.6c0-1.6-1.1-2.7-2.7-2.7c-1.6,0-2.7,1.2-2.8,2.7
			H234.5z"/>
		<path class="st4" d="M246.6,764.1h-2.5v6.3c0,1,0.5,1.3,1.2,1.3c0.3,0,0.7-0.1,0.9-0.1l0.6,2.7c-0.4,0.1-1,0.3-2,0.3
			c-2.6,0.1-4.4-1.2-4.4-3.7v-6.8h-1.8v-2.7h1.8v-3.1h3.6v3.1h2.5V764.1z"/>
		<path class="st4" d="M256.8,761.4h3.6v13.1h-3.5v-2.4h-0.1c-0.6,1.5-2,2.5-4,2.5c-2.6,0-4.4-1.9-4.4-4.9v-8.3h3.6v7.7
			c0,1.5,0.9,2.5,2.3,2.5c1.3,0,2.5-0.9,2.5-2.7V761.4z"/>
		<path class="st4" d="M262.7,761.4h3.6v2.2h0.2c0.5-1.1,1.5-2.4,3.7-2.4c2.9,0,5.3,2.2,5.3,6.7c0,4.4-2.3,6.7-5.3,6.7
			c-2.1,0-3.2-1.2-3.7-2.3h-0.1v7h-3.6V761.4z M269,771.8c1.8,0,2.8-1.6,2.8-3.9c0-2.3-1-3.8-2.8-3.8c-1.8,0-2.8,1.5-2.8,3.8
			C266.3,770.3,267.3,771.8,269,771.8z"/>
	</g>
	<g>
		<g>
			<path class="st8" d="M80.1,818.3h-1.4l-6.3-9.1h-0.1v9.1h-1.4v-11.6h1.4l6.4,9.2h0.1v-9.2h1.4V818.3z"/>
			<path class="st8" d="M82.4,814c0-2.7,1.6-4.5,4-4.5s4,1.8,4,4.5c0,2.7-1.6,4.5-4,4.5S82.4,816.7,82.4,814z M88.9,814
				c0-1.7-0.8-3.3-2.6-3.3s-2.6,1.6-2.6,3.3s0.8,3.3,2.6,3.3S88.9,815.7,88.9,814z"/>
			<path class="st8" d="M96.8,809.6h1.3v1.3h0.1c0.3-0.9,1.2-1.5,2.3-1.5c0.2,0,0.6,0,0.7,0v1.4c-0.1,0-0.5-0.1-0.8-0.1
				c-1.3,0-2.2,0.9-2.2,2v5.5h-1.3V809.6z"/>
			<path class="st8" d="M108.3,809.6h1.3v8.7h-1.3v-1.5h-0.1c-0.4,0.9-1.3,1.6-2.6,1.6c-1.6,0-2.8-1.1-2.8-3.3v-5.5h1.3v5.4
				c0,1.3,0.8,2.1,1.9,2.1c1,0,2.2-0.7,2.2-2.4V809.6z"/>
			<path class="st8" d="M113.4,818.3h-1.3v-11.6h1.3V818.3z"/>
			<path class="st8" d="M115.5,814c0-2.7,1.6-4.5,3.9-4.5c1.8,0,3.7,1.1,3.7,4.4v0.6h-6.3c0.1,1.9,1.1,2.9,2.7,2.9
				c1.1,0,1.8-0.5,2.2-1.4l1.3,0.4c-0.4,1.3-1.7,2.2-3.5,2.2C117,818.5,115.5,816.7,115.5,814z M121.8,813.2c0-1.5-0.9-2.6-2.4-2.6
				c-1.5,0-2.5,1.2-2.6,2.6H121.8z"/>
			<path class="st8" d="M130.2,811.9c-0.2-0.6-0.7-1.2-1.9-1.2c-1.1,0-1.9,0.5-1.9,1.3c0,0.7,0.5,1,1.5,1.3l1.3,0.3
				c1.6,0.4,2.3,1.1,2.3,2.4c0,1.5-1.4,2.6-3.4,2.6c-1.8,0-3-0.8-3.3-2.3l1.3-0.3c0.2,0.9,0.9,1.4,2,1.4c1.2,0,2-0.6,2-1.4
				c0-0.6-0.4-1-1.3-1.2l-1.5-0.3c-1.6-0.4-2.3-1.2-2.3-2.4c0-1.5,1.4-2.5,3.2-2.5c1.7,0,2.7,0.8,3.1,2.1L130.2,811.9z"/>
			<path class="st8" d="M133.5,817.3c0-0.6,0.5-1,1-1c0.6,0,1,0.5,1,1s-0.5,1-1,1C134,818.4,133.5,817.9,133.5,817.3z"/>
			<path class="st8" d="M151.9,818.3h-1.4l-6.3-9.1H144v9.1h-1.4v-11.6h1.4l6.4,9.2h0.1v-9.2h1.4V818.3z"/>
			<path class="st8" d="M154.1,814c0-2.7,1.6-4.5,4-4.5s4,1.8,4,4.5c0,2.7-1.6,4.5-4,4.5S154.1,816.7,154.1,814z M160.7,814
				c0-1.7-0.8-3.3-2.6-3.3s-2.6,1.6-2.6,3.3s0.8,3.3,2.6,3.3S160.7,815.7,160.7,814z"/>
			<path class="st8" d="M169.9,818.3h-1.3v-11.6h1.3V818.3z"/>
			<path class="st8" d="M171.9,814c0-2.7,1.6-4.5,4-4.5s4,1.8,4,4.5c0,2.7-1.6,4.5-4,4.5S171.9,816.7,171.9,814z M178.5,814
				c0-1.7-0.8-3.3-2.6-3.3s-2.6,1.6-2.6,3.3s0.8,3.3,2.6,3.3S178.5,815.7,178.5,814z"/>
			<path class="st8" d="M181.5,815.8c0-2,1.8-2.4,3.4-2.6c1.6-0.2,2.2-0.1,2.2-0.8v0c0-1.1-0.6-1.8-1.8-1.8c-1.3,0-2,0.7-2.3,1.3
				l-1.3-0.5c0.7-1.6,2.2-2,3.5-2c1.1,0,3.2,0.3,3.2,3.1v5.7h-1.3v-1.2H187c-0.3,0.6-1.1,1.4-2.6,1.4
				C182.8,818.5,181.5,817.5,181.5,815.8z M187.1,815.1v-1.2c-0.2,0.3-1.7,0.4-2.3,0.5c-1,0.1-2,0.5-2,1.5c0,0.9,0.8,1.4,1.8,1.4
				C186.2,817.3,187.1,816.2,187.1,815.1z"/>
			<path class="st8" d="M190.5,813.9c0-2.7,1.5-4.5,3.7-4.5c1.7,0,2.2,1,2.5,1.5h0.1v-4.3h1.3v11.6h-1.3v-1.3h-0.2
				c-0.3,0.5-0.9,1.5-2.5,1.5C192,818.5,190.5,816.7,190.5,813.9z M196.9,813.9c0-2-0.9-3.3-2.5-3.3c-1.7,0-2.5,1.4-2.5,3.3
				c0,1.9,0.9,3.3,2.5,3.3C196,817.3,196.9,815.9,196.9,813.9z"/>
			<path class="st8" d="M200.4,814c0-2.7,1.6-4.5,3.9-4.5c1.8,0,3.7,1.1,3.7,4.4v0.6h-6.3c0.1,1.9,1.1,2.9,2.7,2.9
				c1,0,1.8-0.5,2.2-1.4l1.3,0.4c-0.4,1.3-1.7,2.2-3.5,2.2C202,818.5,200.4,816.7,200.4,814z M206.7,813.2c0-1.5-0.9-2.6-2.4-2.6
				c-1.5,0-2.5,1.2-2.6,2.6H206.7z"/>
			<path class="st8" d="M210.2,809.6h1.3v1.3h0.1c0.3-0.9,1.2-1.5,2.3-1.5c0.5,0,0.8,0.1,1.1,0.3l-0.5,1.1c-0.2-0.1-0.4-0.2-0.8-0.2
				c-1.3,0-2.2,0.9-2.2,2v5.5h-1.3V809.6z"/>
			<path class="st8" d="M221.3,811.9c-0.2-0.6-0.7-1.2-1.9-1.2c-1.1,0-1.9,0.5-1.9,1.3c0,0.7,0.5,1,1.5,1.3l1.3,0.3
				c1.6,0.4,2.3,1.1,2.3,2.4c0,1.5-1.4,2.6-3.4,2.6c-1.8,0-3-0.8-3.3-2.3l1.3-0.3c0.2,0.9,0.9,1.4,2,1.4c1.2,0,2-0.6,2-1.4
				c0-0.6-0.4-1-1.3-1.2l-1.5-0.3c-1.6-0.4-2.3-1.2-2.3-2.4c0-1.5,1.4-2.5,3.2-2.5c1.7,0,2.7,0.8,3.1,2.1L221.3,811.9z"/>
			<path class="st8" d="M224.6,817.3c0-0.6,0.5-1,1-1s1,0.5,1,1s-0.5,1-1,1S224.6,817.9,224.6,817.3z"/>
			<path class="st8" d="M243,818.3h-1.4l-6.3-9.1h-0.1v9.1h-1.4v-11.6h1.4l6.4,9.2h0.1v-9.2h1.4V818.3z"/>
			<path class="st8" d="M245.2,814c0-2.7,1.6-4.5,4-4.5s4,1.8,4,4.5c0,2.7-1.6,4.5-4,4.5S245.2,816.7,245.2,814z M251.8,814
				c0-1.7-0.8-3.3-2.6-3.3s-2.6,1.6-2.6,3.3s0.8,3.3,2.6,3.3S251.8,815.7,251.8,814z"/>
			<path class="st8" d="M259.7,809.6h1.3v1.3h0.1c0.3-0.9,1.2-1.5,2.3-1.5c0.5,0,0.8,0.1,1.1,0.3l-0.5,1.1c-0.2-0.1-0.4-0.2-0.8-0.2
				c-1.3,0-2.2,0.9-2.2,2v5.5h-1.3V809.6z"/>
			<path class="st8" d="M265.1,814c0-2.7,1.6-4.5,3.9-4.5c1.8,0,3.7,1.1,3.7,4.4v0.6h-6.3c0.1,1.9,1.1,2.9,2.7,2.9
				c1,0,1.8-0.5,2.2-1.4l1.3,0.4c-0.4,1.3-1.7,2.2-3.5,2.2C266.7,818.5,265.1,816.7,265.1,814z M271.4,813.2c0-1.5-0.9-2.6-2.4-2.6
				c-1.5,0-2.5,1.2-2.6,2.6H271.4z"/>
			<path class="st8" d="M274.8,820l1.1-0.7c0.4,0.5,0.9,1.3,2.5,1.3c1.4,0,2.4-0.7,2.4-2.1v-1.8h-0.1c-0.3,0.5-0.8,1.5-2.5,1.5
				c-2.1,0-3.7-1.5-3.7-4.3c0-2.7,1.5-4.4,3.7-4.4c1.7,0,2.2,1,2.5,1.5h0.1v-1.4h1.3v9c0,2.2-1.7,3.2-3.8,3.2
				C276.4,821.7,275.3,820.9,274.8,820z M280.8,813.8c0-1.9-0.9-3.2-2.5-3.2c-1.7,0-2.5,1.4-2.5,3.2c0,1.8,0.9,3.1,2.5,3.1
				C279.9,816.9,280.8,815.8,280.8,813.8z"/>
			<path class="st8" d="M284.2,814c0-2.7,1.6-4.5,3.9-4.5c1.8,0,3.7,1.1,3.7,4.4v0.6h-6.3c0.1,1.9,1.1,2.9,2.7,2.9
				c1,0,1.8-0.5,2.2-1.4l1.3,0.4c-0.4,1.3-1.7,2.2-3.5,2.2C285.7,818.5,284.2,816.7,284.2,814z M290.5,813.2c0-1.5-0.9-2.6-2.4-2.6
				c-1.5,0-2.5,1.2-2.6,2.6H290.5z"/>
			<path class="st8" d="M296.8,813.1l2.1-3.6h1.5l-2.8,4.4l2.8,4.4h-1.5l-2.1-3.4l-2.1,3.4h-1.5l2.8-4.4l-2.8-4.4h1.5L296.8,813.1z"
				/>
			<path class="st8" d="M302.3,817.3c0-0.6,0.5-1,1-1s1,0.5,1,1s-0.5,1-1,1S302.3,817.9,302.3,817.3z"/>
			<path class="st8" d="M73.8,828.7c-1.5,0-2.6,0.8-2.6,1.9c0,1.2,1.4,1.7,2.2,1.9l1.2,0.3c1.2,0.3,3.3,1,3.3,3.2
				c0,1.9-1.5,3.4-4.2,3.4c-2.5,0-4-1.3-4.2-3.2H71c0.1,1.3,1.3,1.9,2.7,1.9c1.6,0,2.8-0.8,2.8-2.1c0-1.2-1.1-1.6-2.3-1.9l-1.4-0.4
				c-1.8-0.5-3-1.5-3-3c0-2,1.7-3.2,4-3.2c2.2,0,3.9,1.3,3.9,3.1h-1.4C76.2,829.4,75.2,828.7,73.8,828.7z"/>
			<path class="st8" d="M81.4,839.3H80v-11.6h1.3v4.3h0.1c0.4-0.9,1.2-1.5,2.6-1.5c1.8,0,3,1,3,3.3v5.5h-1.3v-5.4
				c0-1.4-0.8-2.2-2-2.2c-1.3,0-2.3,0.9-2.3,2.4V839.3z"/>
			<path class="st8" d="M89.2,828.2c0-0.5,0.4-0.9,1-0.9s1,0.4,1,0.9c0,0.5-0.4,0.9-1,0.9S89.2,828.7,89.2,828.2z M89.5,830.6h1.3
				v8.7h-1.3V830.6z"/>
			<path class="st8" d="M93.3,830.6h1.3v1.4h0.2c0.3-0.5,0.8-1.5,2.5-1.5c2.2,0,3.7,1.7,3.7,4.5c0,2.8-1.5,4.5-3.7,4.5
				c-1.7,0-2.2-1-2.5-1.5h-0.1v4.6h-1.3V830.6z M97.1,838.3c1.7,0,2.5-1.5,2.5-3.3c0-1.8-0.8-3.3-2.5-3.3c-1.6,0-2.5,1.3-2.5,3.3
				C94.6,836.9,95.5,838.3,97.1,838.3z"/>
			<path class="st8" d="M107.4,842.5l0.3-1.2c1,0.2,1.6,0.1,2.1-1.2l0.3-0.8l-3.2-8.8h1.5l2.4,6.9h0.1l2.4-6.9h1.5l-3.7,10.1
				c-0.5,1.3-1.3,2-2.6,2C107.9,842.7,107.5,842.6,107.4,842.5z"/>
			<path class="st8" d="M115.7,835c0-2.7,1.6-4.5,4-4.5s4,1.8,4,4.5c0,2.7-1.6,4.5-4,4.5S115.7,837.7,115.7,835z M122.3,835
				c0-1.7-0.8-3.3-2.6-3.3s-2.6,1.6-2.6,3.3s0.8,3.3,2.6,3.3S122.3,836.7,122.3,835z"/>
			<path class="st8" d="M131.2,830.6h1.3v8.7h-1.3v-1.5h-0.1c-0.4,0.9-1.3,1.6-2.6,1.6c-1.6,0-2.8-1.1-2.8-3.3v-5.5h1.3v5.4
				c0,1.3,0.8,2.1,1.9,2.1c1,0,2.2-0.7,2.2-2.4V830.6z"/>
			<path class="st8" d="M135,830.6h1.3v1.3h0.1c0.3-0.9,1.2-1.5,2.3-1.5c0.5,0,0.8,0.1,1.1,0.3l-0.5,1.1c-0.2-0.1-0.4-0.2-0.8-0.2
				c-1.3,0-2.2,0.9-2.2,2v5.5H135V830.6z"/>
			<path class="st8" d="M145.2,834.9c0-2.7,1.5-4.5,3.7-4.5c1.7,0,2.2,1,2.5,1.5h0.1v-4.3h1.3v11.6h-1.3v-1.3h-0.2
				c-0.3,0.5-0.9,1.5-2.5,1.5C146.7,839.5,145.2,837.7,145.2,834.9z M151.6,834.9c0-2-0.9-3.3-2.5-3.3c-1.7,0-2.5,1.4-2.5,3.3
				c0,1.9,0.9,3.3,2.5,3.3C150.7,838.3,151.6,836.9,151.6,834.9z"/>
			<path class="st8" d="M155.1,835c0-2.7,1.6-4.5,4-4.5s4,1.8,4,4.5c0,2.7-1.6,4.5-4,4.5S155.1,837.7,155.1,835z M161.7,835
				c0-1.7-0.8-3.3-2.6-3.3s-2.6,1.6-2.6,3.3s0.8,3.3,2.6,3.3S161.7,836.7,161.7,835z"/>
			<path class="st8" d="M164.7,835c0-2.7,1.6-4.5,3.9-4.5c1.8,0,3.2,1.1,3.5,2.7h-1.3c-0.2-0.8-0.9-1.5-2.1-1.5
				c-1.6,0-2.6,1.3-2.6,3.3c0,2,1,3.3,2.6,3.3c1,0,1.8-0.6,2.1-1.5h1.3c-0.2,1.5-1.5,2.7-3.4,2.7C166.2,839.5,164.7,837.6,164.7,835
				z"/>
			<path class="st8" d="M179,832.9c-0.2-0.6-0.7-1.2-1.9-1.2c-1.1,0-1.9,0.5-1.9,1.3c0,0.7,0.5,1,1.5,1.3l1.3,0.3
				c1.6,0.4,2.3,1.1,2.3,2.4c0,1.5-1.4,2.6-3.4,2.6c-1.8,0-3-0.8-3.3-2.3l1.3-0.3c0.2,0.9,0.9,1.4,2,1.4c1.2,0,2-0.6,2-1.4
				c0-0.6-0.4-1-1.3-1.2l-1.5-0.3c-1.6-0.4-2.3-1.2-2.3-2.4c0-1.5,1.4-2.5,3.2-2.5c1.7,0,2.7,0.8,3.1,2.1L179,832.9z"/>
			<path class="st8" d="M186.2,830.6h1.4l1.9,6.7h0.1l1.9-6.7h1.4l1.8,6.7h0.1l1.9-6.7h1.4l-2.7,8.7h-1.3l-1.9-6.7h-0.1l-1.9,6.7
				h-1.3L186.2,830.6z"/>
			<path class="st8" d="M199.6,828.2c0-0.5,0.4-0.9,1-0.9c0.5,0,1,0.4,1,0.9c0,0.5-0.4,0.9-1,0.9C200,829.1,199.6,828.7,199.6,828.2
				z M199.9,830.6h1.3v8.7h-1.3V830.6z"/>
			<path class="st8" d="M207.5,831.7h-1.9v5.1c0,1.1,0.6,1.3,1.2,1.3c0.3,0,0.5,0,0.6-0.1l0.3,1.2c-0.2,0.1-0.5,0.2-1,0.2
				c-1.1,0-2.4-0.7-2.4-2.2v-5.4H203v-1.1h1.3v-2.1h1.3v2.1h1.9V831.7z"/>
			<path class="st8" d="M211,839.3h-1.3v-11.6h1.3v4.3h0.1c0.4-0.9,1.2-1.5,2.6-1.5c1.8,0,3,1,3,3.3v5.5h-1.3v-5.4
				c0-1.4-0.8-2.2-2-2.2c-1.3,0-2.3,0.9-2.3,2.4V839.3z"/>
			<path class="st8" d="M223.2,836.8c0-2,1.8-2.4,3.4-2.6c1.6-0.2,2.2-0.1,2.2-0.8v0c0-1.1-0.6-1.8-1.8-1.8c-1.3,0-2,0.7-2.3,1.3
				l-1.3-0.5c0.7-1.6,2.2-2,3.5-2c1.1,0,3.2,0.3,3.2,3.1v5.7h-1.3v-1.2h-0.1c-0.3,0.6-1.1,1.4-2.6,1.4
				C224.5,839.5,223.2,838.5,223.2,836.8z M228.9,836.1v-1.2c-0.2,0.3-1.7,0.4-2.3,0.5c-1,0.1-2,0.5-2,1.5c0,0.9,0.8,1.4,1.8,1.4
				C228,838.3,228.9,837.2,228.9,836.1z"/>
			<path class="st8" d="M236.7,835c0-2.7,1.6-4.5,3.9-4.5c1.8,0,3.2,1.1,3.5,2.7h-1.3c-0.2-0.8-0.9-1.5-2.1-1.5
				c-1.6,0-2.6,1.3-2.6,3.3c0,2,1,3.3,2.6,3.3c1,0,1.8-0.6,2.1-1.5h1.3c-0.2,1.5-1.5,2.7-3.4,2.7C238.2,839.5,236.7,837.6,236.7,835
				z"/>
			<path class="st8" d="M245.7,835c0-2.7,1.6-4.5,4-4.5s4,1.8,4,4.5c0,2.7-1.6,4.5-4,4.5S245.7,837.7,245.7,835z M252.2,835
				c0-1.7-0.8-3.3-2.6-3.3c-1.8,0-2.6,1.6-2.6,3.3s0.8,3.3,2.6,3.3C251.4,838.3,252.2,836.7,252.2,835z"/>
			<path class="st8" d="M261.1,830.6h1.3v8.7h-1.3v-1.5H261c-0.4,0.9-1.3,1.6-2.6,1.6c-1.6,0-2.8-1.1-2.8-3.3v-5.5h1.3v5.4
				c0,1.3,0.8,2.1,1.9,2.1c1,0,2.2-0.7,2.2-2.4V830.6z"/>
			<path class="st8" d="M264.9,830.6h1.3v1.4h0.2c0.3-0.5,0.8-1.5,2.5-1.5c2.2,0,3.7,1.7,3.7,4.5c0,2.8-1.5,4.5-3.7,4.5
				c-1.7,0-2.2-1-2.5-1.5h-0.1v4.6h-1.3V830.6z M268.7,838.3c1.7,0,2.5-1.5,2.5-3.3c0-1.8-0.8-3.3-2.5-3.3c-1.6,0-2.5,1.3-2.5,3.3
				C266.2,836.9,267.1,838.3,268.7,838.3z"/>
			<path class="st8" d="M276,839.3h-1.3v-11.6h1.3V839.3z"/>
			<path class="st8" d="M278.1,835c0-2.7,1.6-4.5,3.9-4.5c1.8,0,3.7,1.1,3.7,4.4v0.6h-6.3c0.1,1.9,1.1,2.9,2.7,2.9
				c1,0,1.8-0.5,2.2-1.4l1.3,0.4c-0.4,1.3-1.7,2.2-3.5,2.2C279.6,839.5,278.1,837.7,278.1,835z M284.4,834.2c0-1.5-0.9-2.6-2.4-2.6
				c-1.5,0-2.5,1.2-2.6,2.6H284.4z"/>
			<path class="st8" d="M291.9,835c0-2.7,1.6-4.5,4-4.5s4,1.8,4,4.5c0,2.7-1.6,4.5-4,4.5S291.9,837.7,291.9,835z M298.4,835
				c0-1.7-0.8-3.3-2.6-3.3c-1.8,0-2.6,1.6-2.6,3.3s0.8,3.3,2.6,3.3C297.6,838.3,298.4,836.7,298.4,835z"/>
			<path class="st8" d="M305.7,831.7h-2v7.6h-1.3v-7.6H301v-1.1h1.4v-1.2c0-1.5,1.2-2.2,2.5-2.2c0.7,0,1.1,0.1,1.3,0.2l-0.4,1.2
				c-0.1,0-0.4-0.1-0.7-0.1c-0.9,0-1.2,0.5-1.2,1.3v0.9h2V831.7z"/>
			<path class="st8" d="M94.6,853.9c-0.2-0.6-0.7-1.2-1.9-1.2c-1.1,0-1.9,0.5-1.9,1.3c0,0.7,0.5,1,1.5,1.3l1.3,0.3
				c1.6,0.4,2.3,1.1,2.3,2.4c0,1.5-1.4,2.6-3.4,2.6c-1.8,0-3-0.8-3.3-2.3l1.3-0.3c0.2,0.9,0.9,1.4,2,1.4c1.2,0,2-0.6,2-1.4
				c0-0.6-0.4-1-1.3-1.2l-1.5-0.3c-1.6-0.4-2.3-1.2-2.3-2.4c0-1.5,1.4-2.5,3.2-2.5c1.7,0,2.7,0.8,3.1,2.1L94.6,853.9z"/>
			<path class="st8" d="M103.5,851.6h1.3v8.7h-1.3v-1.5h-0.1c-0.4,0.9-1.3,1.6-2.6,1.6c-1.6,0-2.8-1.1-2.8-3.3v-5.5h1.3v5.4
				c0,1.3,0.8,2.1,1.9,2.1c1,0,2.2-0.7,2.2-2.4V851.6z"/>
			<path class="st8" d="M107.3,851.6h1.3v1.4h0.2c0.3-0.5,0.8-1.5,2.5-1.5c2.2,0,3.7,1.7,3.7,4.5c0,2.8-1.5,4.5-3.7,4.5
				c-1.7,0-2.2-1-2.5-1.5h-0.1v4.6h-1.3V851.6z M111.1,859.3c1.7,0,2.5-1.5,2.5-3.3c0-1.8-0.8-3.3-2.5-3.3c-1.6,0-2.5,1.3-2.5,3.3
				C108.6,857.9,109.5,859.3,111.1,859.3z"/>
			<path class="st8" d="M116.6,856c0-2.7,1.6-4.5,3.9-4.5c1.8,0,3.7,1.1,3.7,4.4v0.6h-6.3c0.1,1.9,1.1,2.9,2.7,2.9
				c1,0,1.8-0.5,2.2-1.4l1.3,0.4c-0.4,1.3-1.7,2.2-3.5,2.2C118.1,860.5,116.6,858.7,116.6,856z M122.9,855.2c0-1.5-0.9-2.6-2.4-2.6
				c-1.5,0-2.5,1.2-2.6,2.6H122.9z"/>
			<path class="st8" d="M126.3,851.6h1.3v1.3h0.1c0.3-0.9,1.2-1.5,2.3-1.5c0.5,0,0.8,0.1,1.1,0.3l-0.5,1.1c-0.2-0.1-0.4-0.2-0.8-0.2
				c-1.3,0-2.2,0.9-2.2,2v5.5h-1.3V851.6z"/>
			<path class="st8" d="M141.9,853.9c-0.2-0.6-0.7-1.2-1.9-1.2c-1.1,0-1.9,0.5-1.9,1.3c0,0.7,0.5,1,1.5,1.3l1.3,0.3
				c1.6,0.4,2.3,1.1,2.3,2.4c0,1.5-1.4,2.6-3.4,2.6c-1.8,0-3-0.8-3.3-2.3l1.3-0.3c0.2,0.9,0.9,1.4,2,1.4c1.2,0,2-0.6,2-1.4
				c0-0.6-0.4-1-1.3-1.2l-1.5-0.3c-1.6-0.4-2.3-1.2-2.3-2.4c0-1.5,1.4-2.5,3.2-2.5c1.7,0,2.7,0.8,3.1,2.1L141.9,853.9z"/>
			<path class="st8" d="M145.1,849.2c0-0.5,0.4-0.9,1-0.9s1,0.4,1,0.9c0,0.5-0.4,0.9-1,0.9S145.1,849.7,145.1,849.2z M145.3,851.6
				h1.3v8.7h-1.3V851.6z"/>
			<path class="st8" d="M149.1,851.6h1.3v1.4h0.1c0.4-0.9,1.2-1.5,2.3-1.5c1.1,0,1.9,0.5,2.3,1.5h0.1c0.4-0.9,1.4-1.5,2.6-1.5
				c1.6,0,2.7,0.9,2.7,3v5.8h-1.3v-5.8c0-1.3-0.8-1.8-1.8-1.8c-1.2,0-1.9,0.8-1.9,2v5.7h-1.4v-6c0-1-0.7-1.7-1.7-1.7
				c-1,0-2,0.9-2,2.2v5.4h-1.3V851.6z"/>
			<path class="st8" d="M163,851.6h1.3v1.4h0.2c0.3-0.5,0.8-1.5,2.5-1.5c2.2,0,3.7,1.7,3.7,4.5c0,2.8-1.5,4.5-3.7,4.5
				c-1.7,0-2.2-1-2.5-1.5h-0.1v4.6H163V851.6z M166.8,859.3c1.7,0,2.5-1.5,2.5-3.3c0-1.8-0.8-3.3-2.5-3.3c-1.6,0-2.5,1.3-2.5,3.3
				C164.4,857.9,165.2,859.3,166.8,859.3z"/>
			<path class="st8" d="M174.1,860.3h-1.3v-11.6h1.3V860.3z"/>
			<path class="st8" d="M176.2,856c0-2.7,1.6-4.5,3.9-4.5c1.8,0,3.7,1.1,3.7,4.4v0.6h-6.3c0.1,1.9,1.1,2.9,2.7,2.9
				c1,0,1.8-0.5,2.2-1.4l1.3,0.4c-0.4,1.3-1.7,2.2-3.5,2.2C177.7,860.5,176.2,858.7,176.2,856z M182.5,855.2c0-1.5-0.9-2.6-2.4-2.6
				c-1.5,0-2.5,1.2-2.6,2.6H182.5z"/>
			<path class="st8" d="M190,855.9c0-2.7,1.5-4.5,3.7-4.5c1.7,0,2.2,1,2.5,1.5h0.1v-4.3h1.3v11.6h-1.3v-1.3h-0.2
				c-0.3,0.5-0.9,1.5-2.5,1.5C191.5,860.5,190,858.7,190,855.9z M196.4,855.9c0-2-0.9-3.3-2.5-3.3c-1.7,0-2.5,1.4-2.5,3.3
				c0,1.9,0.9,3.3,2.5,3.3C195.5,859.3,196.4,857.9,196.4,855.9z"/>
			<path class="st8" d="M199.9,856c0-2.7,1.6-4.5,3.9-4.5c1.8,0,3.7,1.1,3.7,4.4v0.6h-6.3c0.1,1.9,1.1,2.9,2.7,2.9
				c1,0,1.8-0.5,2.2-1.4l1.3,0.4c-0.4,1.3-1.7,2.2-3.5,2.2C201.5,860.5,199.9,858.7,199.9,856z M206.2,855.2c0-1.5-0.9-2.6-2.4-2.6
				c-1.5,0-2.5,1.2-2.6,2.6H206.2z"/>
			<path class="st8" d="M209.2,856c0-2.7,1.6-4.5,3.9-4.5c1.8,0,3.2,1.1,3.5,2.7h-1.3c-0.2-0.8-0.9-1.5-2.1-1.5
				c-1.6,0-2.6,1.3-2.6,3.3c0,2,1,3.3,2.6,3.3c1,0,1.8-0.6,2.1-1.5h1.3c-0.2,1.5-1.5,2.7-3.4,2.7C210.7,860.5,209.2,858.6,209.2,856
				z"/>
			<path class="st8" d="M219.9,860.3h-1.3v-11.6h1.3V860.3z"/>
			<path class="st8" d="M222,857.8c0-2,1.8-2.4,3.4-2.6c1.6-0.2,2.2-0.1,2.2-0.8v0c0-1.1-0.6-1.8-1.8-1.8c-1.3,0-2,0.7-2.3,1.3
				l-1.3-0.5c0.7-1.6,2.2-2,3.5-2c1.1,0,3.2,0.3,3.2,3.1v5.7h-1.3v-1.2h-0.1c-0.3,0.6-1.1,1.4-2.6,1.4
				C223.3,860.5,222,859.5,222,857.8z M227.6,857.1v-1.2c-0.2,0.3-1.7,0.4-2.3,0.5c-1,0.1-2,0.5-2,1.5c0,0.9,0.8,1.4,1.8,1.4
				C226.7,859.3,227.6,858.2,227.6,857.1z"/>
			<path class="st8" d="M231.4,851.6h1.3v1.3h0.1c0.3-0.9,1.2-1.5,2.3-1.5c0.5,0,0.8,0.1,1.1,0.3l-0.5,1.1c-0.2-0.1-0.4-0.2-0.8-0.2
				c-1.3,0-2.2,0.9-2.2,2v5.5h-1.3V851.6z"/>
			<path class="st8" d="M237.1,857.8c0-2,1.8-2.4,3.4-2.6c1.6-0.2,2.2-0.1,2.2-0.8v0c0-1.1-0.6-1.8-1.8-1.8c-1.3,0-2,0.7-2.3,1.3
				l-1.3-0.5c0.7-1.6,2.2-2,3.5-2c1.1,0,3.2,0.3,3.2,3.1v5.7h-1.3v-1.2h-0.1c-0.3,0.6-1.1,1.4-2.6,1.4
				C238.4,860.5,237.1,859.5,237.1,857.8z M242.8,857.1v-1.2c-0.2,0.3-1.7,0.4-2.3,0.5c-1,0.1-2,0.5-2,1.5c0,0.9,0.8,1.4,1.8,1.4
				C241.9,859.3,242.8,858.2,242.8,857.1z"/>
			<path class="st8" d="M250.3,852.7h-1.9v5.1c0,1.1,0.6,1.3,1.2,1.3c0.3,0,0.5,0,0.6-0.1l0.3,1.2c-0.2,0.1-0.5,0.2-1,0.2
				c-1.1,0-2.4-0.7-2.4-2.2v-5.4h-1.3v-1.1h1.3v-2.1h1.3v2.1h1.9V852.7z"/>
			<path class="st8" d="M252.1,849.2c0-0.5,0.4-0.9,1-0.9c0.5,0,1,0.4,1,0.9c0,0.5-0.4,0.9-1,0.9
				C252.5,850.1,252.1,849.7,252.1,849.2z M252.4,851.6h1.3v8.7h-1.3V851.6z"/>
			<path class="st8" d="M255.8,856c0-2.7,1.6-4.5,4-4.5s4,1.8,4,4.5c0,2.7-1.6,4.5-4,4.5S255.8,858.7,255.8,856z M262.3,856
				c0-1.7-0.8-3.3-2.6-3.3c-1.8,0-2.6,1.6-2.6,3.3s0.8,3.3,2.6,3.3C261.5,859.3,262.3,857.7,262.3,856z"/>
			<path class="st8" d="M267.1,860.3h-1.3v-8.7h1.3v1.4h0.1c0.4-0.9,1.2-1.5,2.5-1.5c1.8,0,3,1.1,3,3.3v5.5h-1.3v-5.4
				c0-1.4-0.8-2.2-2-2.2c-1.3,0-2.2,0.9-2.2,2.4V860.3z"/>
			<path class="st8" d="M280.1,853.9c-0.2-0.6-0.7-1.2-1.9-1.2c-1.1,0-1.9,0.5-1.9,1.3c0,0.7,0.5,1,1.5,1.3l1.3,0.3
				c1.6,0.4,2.3,1.1,2.3,2.4c0,1.5-1.4,2.6-3.4,2.6c-1.8,0-3-0.8-3.3-2.3l1.3-0.3c0.2,0.9,0.9,1.4,2,1.4c1.2,0,2-0.6,2-1.4
				c0-0.6-0.4-1-1.3-1.2l-1.5-0.3c-1.6-0.4-2.3-1.2-2.3-2.4c0-1.5,1.4-2.5,3.2-2.5c1.7,0,2.7,0.8,3.1,2.1L280.1,853.9z"/>
			<path class="st8" d="M283.4,859.3c0-0.6,0.5-1,1-1s1,0.5,1,1s-0.5,1-1,1S283.4,859.9,283.4,859.3z"/>
		</g>
	</g>
</g>
<g>
	<rect x="322.2" y="72.9" class="st0" width="23.7" height="3"/>
	<rect x="322.2" y="80.8" class="st0" width="23.7" height="3"/>
	<rect x="322.2" y="88.7" class="st0" width="23.7" height="3"/>
</g>
<g>
	<g>
		<path class="st8" d="M117.6,597.6h17.3v4.6h-11.8v6.2h10.7v4.6h-10.7v10.8h-5.5V597.6z"/>
		<path class="st8" d="M135.4,614c0-6.1,3.7-10.2,9.5-10.2c5.2,0,9.2,3.3,9.2,10v1.5h-13.4v0c0,2.9,1.7,4.7,4.4,4.7
			c1.8,0,3.2-0.8,3.8-2.3l5,0.3c-0.8,3.6-4,6-8.9,6C139.1,624.2,135.4,620.3,135.4,614z M149,612c0-2.3-1.6-4-4-4
			c-2.4,0-4.1,1.8-4.2,4H149z"/>
		<path class="st8" d="M155.9,618.3c0-4.4,3.5-5.7,7.4-6c3.4-0.3,4.8-0.5,4.8-1.8v-0.1c0-1.6-1.1-2.5-2.9-2.5c-2,0-3.1,1-3.5,2.3
			l-5-0.4c0.8-3.6,3.8-5.8,8.6-5.8c4.4,0,8.3,2,8.3,6.6v13.2h-5.2V621h-0.2c-1,1.8-2.8,3.1-5.7,3.1
			C158.7,624.1,155.9,622.2,155.9,618.3z M168.1,616.7v-2.1c-0.7,0.4-2.6,0.7-3.8,0.9c-1.9,0.3-3.2,1-3.2,2.6c0,1.5,1.2,2.3,2.9,2.3
			C166.4,620.4,168.1,618.8,168.1,616.7z"/>
		<path class="st8" d="M187.3,608.2h-3.7v9.5c0,1.5,0.8,1.9,1.8,1.9c0.5,0,1.1-0.1,1.4-0.2l0.9,4.1c-0.5,0.2-1.5,0.5-3,0.5
			c-4,0.2-6.6-1.7-6.5-5.6v-10.2h-2.7v-4.1h2.7v-4.7h5.4v4.7h3.7V608.2z"/>
		<path class="st8" d="M202.5,604.1h5.4v19.6h-5.2v-3.6h-0.2c-0.9,2.3-3,3.8-6,3.8c-4,0-6.6-2.8-6.6-7.4v-12.5h5.4v11.5
			c0,2.3,1.3,3.8,3.4,3.8c2,0,3.8-1.4,3.7-4V604.1z"/>
		<path class="st8" d="M211.4,604.1h5.3v3.4h0.2c0.7-2.4,2.5-3.7,4.7-3.7c1,0,2,0.3,2.7,0.7l-1.6,4.5c-0.5-0.3-1.1-0.5-1.9-0.5
			c-2.2,0-3.9,1.6-4,4.1v11.1h-5.4V604.1z"/>
		<path class="st8" d="M224.2,614c0-6.1,3.7-10.2,9.5-10.2c5.2,0,9.2,3.3,9.2,10v1.5h-13.4v0c0,2.9,1.7,4.7,4.4,4.7
			c1.8,0,3.2-0.8,3.8-2.3l5,0.3c-0.8,3.6-4,6-8.9,6C227.9,624.2,224.2,620.3,224.2,614z M237.8,612c0-2.3-1.6-4-4-4
			c-2.4,0-4.1,1.8-4.2,4H237.8z"/>
		<path class="st8" d="M257,610c-0.3-1.3-1.4-2.3-3.3-2.3c-1.7,0-3,0.8-3,1.9c0,0.9,0.7,1.6,2.5,2l3.6,0.7c3.8,0.8,5.7,2.5,5.7,5.3
			c0,3.9-3.7,6.5-8.7,6.5c-5.2,0-8.4-2.3-8.9-6.1l5.4-0.3c0.3,1.6,1.6,2.4,3.6,2.4c1.9,0,3.2-0.8,3.2-2c0-1-0.8-1.6-2.5-2l-3.4-0.7
			c-3.8-0.8-5.7-2.7-5.7-5.6c0-3.8,3.3-6.1,8.3-6.1c5,0,7.9,2.2,8.4,5.9L257,610z"/>
	</g>
	<rect x="164" y="639.5" class="st4" width="50" height="3"/>
</g>
</svg>
