<?xml version="1.0" encoding="utf-8"?>
<!-- Generator: Adobe Illustrator 23.0.6, SVG Export Plug-In . SVG Version: 6.00 Build 0)  -->
<svg version="1.1" id="Layer_1" xmlns="http://www.w3.org/2000/svg" xmlns:xlink="http://www.w3.org/1999/xlink" x="0px" y="0px"
	 viewBox="0 0 600 200" style="enable-background:new 0 0 600 200;" xml:space="preserve">
<style type="text/css">
	.st0{display:none;}
	.st1{display:inline;}
	.st2{fill:#FFFFFF;}
	.st3{fill:#DEDEDE;}
	.st4{fill:#EEEEEE;}
	.st5{fill:#CCCCCC;}
	.st6{display:inline;fill:#999999;}
	.st7{display:inline;fill:#85DEAA;}
	.st8{fill:#85DEAA;}
	.st9{fill:#FF9794;}
	.st10{display:inline;fill:#FF9794;}
	.st11{fill:#E6E6E6;}
	.st12{fill:none;stroke:#A0BAA0;stroke-dasharray:2,2;}
	.st13{fill:#D6D6D6;}
	.st14{fill:none;stroke:#FFFFFF;}
	.st15{display:inline;fill:none;stroke:#FFFFFF;}
	.st16{display:inline;fill:#FFFFFF;stroke:#FFFFFF;}
	.st17{fill:#999999;}
	.st18{fill:#FFCC99;}
	.st19{display:inline;fill:none;stroke:#A0BAA0;stroke-dasharray:2,2;}
	.st20{fill:none;stroke:#A0BAA0;stroke-dasharray:2,3;}
	.st21{fill:#77C4FF;}
	.st22{fill:#5AA8DB;stroke:#A8D2EC;}
	.st23{fill:#95D1FF;}
	.st24{fill:none;stroke:#FFFFFF;stroke-width:2;}
	.st25{fill:#A0D6FF;}
	.st26{fill:#00B26F;}
	.st27{fill:#40DCA1;}
	.st28{fill:#C52B40;}
	.st29{fill:#EF7989;}
</style>
<g class="st0">
	<g id="browser_1_" class="st1">
		<g>
			<path class="st2" d="M288.6,142.5c0,5.5-4.5,10-10,10h-100c-5.5,0-10-4.5-10-10v-85c0-5.5,4.5-10,10-10h100c5.5,0,10,4.5,10,10
				V142.5z"/>
		</g>
		<path class="st3" d="M282.6,47.5h-108c-3.3,0-6,2.7-6,6v3h120v-3C288.6,50.2,285.9,47.5,282.6,47.5z"/>
		<g>
			<path class="st4" d="M252.6,52c0,1.32-1.8,2.4-4,2.4h-40c-2.2,0-4-1.08-4-2.4s1.8-2.4,4-2.4h40C250.8,49.6,252.6,50.68,252.6,52z
				"/>
		</g>
		<circle class="st5" cx="174" cy="52" r="1.8"/>
		<circle class="st5" cx="178.77" cy="52" r="1.8"/>
		<circle class="st5" cx="183.54" cy="52" r="1.8"/>
	</g>
	<rect x="168.6" y="56.5" class="st6" width="120" height="7.2"/>
	<path class="st7" d="M182.7,60.45l-1.56-1.56l-1.56,1.56c-0.47,0.47-0.31,0.85,0.35,0.85h2.41
		C183.01,61.3,183.17,60.92,182.7,60.45z"/>
	<g class="st1">
		<g>
			<path class="st8" d="M234.93,60.1c0,0.66-0.9,1.2-2,1.2h-8c-1.1,0-2-0.54-2-1.2s0.9-1.2,2-1.2h8
				C234.03,58.9,234.93,59.44,234.93,60.1z"/>
		</g>
		<path class="st8" d="M239.85,60.45l-1.56-1.56l-1.56,1.56c-0.47,0.47-0.31,0.85,0.35,0.85h2.41
			C240.16,61.3,240.31,60.92,239.85,60.45z"/>
	</g>
	<g class="st1">
		<g>
			<path class="st8" d="M263.5,60.1c0,0.66-0.9,1.2-2,1.2h-8c-1.1,0-2-0.54-2-1.2s0.9-1.2,2-1.2h8
				C262.6,58.9,263.5,59.44,263.5,60.1z"/>
		</g>
		<path class="st8" d="M268.42,60.45l-1.56-1.56l-1.56,1.56c-0.47,0.47-0.31,0.85,0.35,0.85h2.41
			C268.73,61.3,268.88,60.92,268.42,60.45z"/>
	</g>
	<g class="st1">
		<g>
			<path class="st9" d="M206.36,60.1c0,0.66-0.9,1.2-2,1.2h-8c-1.1,0-2-0.54-2-1.2s0.9-1.2,2-1.2h8
				C205.46,58.9,206.36,59.44,206.36,60.1z"/>
		</g>
		<path class="st9" d="M208.16,59.75l1.56,1.56l1.56-1.56c0.47-0.47,0.31-0.85-0.35-0.85h-2.41
			C207.85,58.9,207.69,59.28,208.16,59.75z"/>
	</g>
	<path class="st7" d="M176.59,58.9h-7.99v2.4h7.99c0.66,0,1.2-0.54,1.2-1.2C177.79,59.44,177.25,58.9,176.59,58.9z"/>
	<path class="st10" d="M288.6,58.9h-7.33c-0.66,0-1.2,0.54-1.2,1.2c0,0.66,0.54,1.2,1.2,1.2h7.33V58.9z"/>
	<g class="st1">
		<path class="st11" d="M270.6,113c0,2.75-2.25,5-5,5h-74c-2.75,0-5-2.25-5-5V87c0-2.75,2.25-5,5-5h74c2.75,0,5,2.25,5,5V113z"/>
	</g>
	<g class="st1">
		<path class="st11" d="M225.6,138.5c0,2.75-2.25,5-5,5h-29c-2.75,0-5-2.25-5-5v-8c0-2.75,2.25-5,5-5h29c2.75,0,5,2.25,5,5V138.5z"
			/>
	</g>
	<g class="st1">
		<path class="st12" d="M231.6,138.5c0,2.75,2.25,5,5,5h29c2.75,0,5-2.25,5-5v-8c0-2.75-2.25-5-5-5h-29c-2.75,0-5,2.25-5,5V138.5z"
			/>
	</g>
	<g class="st1">
		<g>
			<circle class="st13" cx="270.6" cy="100" r="4.8"/>
		</g>
		<polyline class="st14" points="269.85,98.2 271.65,100 269.85,101.8 		"/>
	</g>
	<g class="st1">
		<g>
			<circle class="st13" cx="186.6" cy="100" r="4.8"/>
		</g>
		<polyline class="st14" points="187.35,98.2 185.55,100 187.35,101.8 		"/>
	</g>
	<circle class="st15" cx="224.1" cy="113.2" r="1.2"/>
	<circle class="st16" cx="230.1" cy="113.2" r="1.2"/>
	<circle class="st15" cx="236.1" cy="113.2" r="1.2"/>
	<g class="st1">
		<g>
			<path class="st8" d="M217.23,129.47c0,0.66-0.9,1.2-2,1.2h-14c-1.1,0-2-0.54-2-1.2c0-0.66,0.9-1.2,2-1.2h14
				C216.33,128.27,217.23,128.81,217.23,129.47z"/>
		</g>
		<path class="st8" d="M222.14,129.82l-1.56-1.56l-1.56,1.56c-0.47,0.47-0.31,0.85,0.35,0.85h2.41
			C222.45,130.67,222.61,130.29,222.14,129.82z"/>
	</g>
	<g class="st1">
		<path class="st13" d="M196.27,129.47c0,0.66-0.9,1.2-2,1.2h-2c-1.1,0-2-0.54-2-1.2c0-0.66,0.9-1.2,2-1.2h2
			C195.37,128.27,196.27,128.81,196.27,129.47z"/>
	</g>
	<g class="st1">
		<path class="st13" d="M196.27,134.5c0,0.66-0.9,1.2-2,1.2h-2c-1.1,0-2-0.54-2-1.2s0.9-1.2,2-1.2h2
			C195.37,133.3,196.27,133.84,196.27,134.5z"/>
	</g>
	<g class="st1">
		<path class="st13" d="M196.27,139.53c0,0.66-0.9,1.2-2,1.2h-2c-1.1,0-2-0.54-2-1.2s0.9-1.2,2-1.2h2
			C195.37,138.33,196.27,138.87,196.27,139.53z"/>
	</g>
	<g class="st1">
		<g>
			<path class="st8" d="M217.23,134.5c0,0.66-0.9,1.2-2,1.2h-14c-1.1,0-2-0.54-2-1.2s0.9-1.2,2-1.2h14
				C216.33,133.3,217.23,133.84,217.23,134.5z"/>
		</g>
		<path class="st8" d="M222.14,134.85l-1.56-1.56l-1.56,1.56c-0.47,0.47-0.31,0.85,0.35,0.85h2.41
			C222.45,135.7,222.61,135.32,222.14,134.85z"/>
	</g>
	<g class="st1">
		<g>
			<path class="st9" d="M217.23,139.53c0-0.66-0.9-1.2-2-1.2h-14c-1.1,0-2,0.54-2,1.2s0.9,1.2,2,1.2h14
				C216.33,140.73,217.23,140.19,217.23,139.53z"/>
		</g>
		<path class="st9" d="M222.14,139.18l-1.56,1.56l-1.56-1.56c-0.47-0.47-0.31-0.85,0.35-0.85h2.41
			C222.45,138.33,222.61,138.71,222.14,139.18z"/>
	</g>
	<g class="st1">
		<path class="st17" d="M202.87,71.16c0-0.68-0.01-0.82-0.35-0.86l-0.14-0.01c-0.07-0.04-0.07-0.25,0.01-0.25
			c0.6-0.04,1.17-0.06,1.93-0.06c0.59,0,1.18,0.06,1.68,0.24c0.94,0.34,1.46,1.19,1.46,2.09c0,0.97-0.46,1.74-1.29,2.15
			c-0.49,0.25-1.08,0.34-1.82,0.34c-0.34,0-0.7-0.04-0.96-0.04c-0.35,0-0.71,0.01-1.12,0.02c-0.06-0.04-0.06-0.22,0-0.25l0.22-0.04
			c0.32-0.05,0.37-0.11,0.37-0.77V71.16z M203.9,73.45c0,0.4,0.01,0.66,0.14,0.81c0.13,0.14,0.34,0.21,0.6,0.21
			c1.25,0,1.67-1.11,1.67-2.09c0-1.3-0.68-2.07-1.99-2.07c-0.19,0-0.33,0.04-0.37,0.09s-0.05,0.19-0.05,0.42V73.45z"/>
		<path class="st17" d="M210.21,73.76c-0.03,0.49,0.18,0.62,0.32,0.62c0.09,0,0.16-0.02,0.27-0.09c0.06,0.01,0.11,0.1,0.09,0.17
			c-0.09,0.12-0.42,0.39-0.83,0.39c-0.25,0-0.41-0.09-0.61-0.25c-0.05-0.04-0.08-0.06-0.12-0.06c-0.04,0-0.08,0.03-0.15,0.08
			c-0.13,0.09-0.35,0.23-0.61,0.23c-0.42,0-0.81-0.25-0.81-0.76c0-0.37,0.22-0.59,0.75-0.75c0.27-0.09,0.48-0.14,0.68-0.2
			c0.13-0.04,0.17-0.09,0.17-0.14c0.01-0.08,0.01-0.16,0.01-0.25c0-0.27-0.11-0.62-0.42-0.62c-0.17,0-0.32,0.1-0.38,0.41
			c-0.01,0.12-0.06,0.18-0.12,0.23c-0.11,0.08-0.39,0.17-0.52,0.17c-0.12,0-0.17-0.08-0.17-0.18c0-0.19,0.17-0.42,0.35-0.55
			c0.25-0.19,0.7-0.44,1.21-0.44c0.61,0,0.96,0.3,0.92,1.04L210.21,73.76z M209.34,73.58c0.01-0.12,0-0.14-0.05-0.13
			c-0.32,0.04-0.6,0.17-0.6,0.5c0,0.23,0.17,0.43,0.37,0.43c0.22,0,0.27-0.13,0.27-0.35L209.34,73.58z"/>
		<path class="st17" d="M212.08,73.92c0,0.5,0.03,0.57,0.27,0.59l0.14,0.01c0.06,0.04,0.06,0.21-0.01,0.25
			c-0.25-0.01-0.53-0.02-0.86-0.02c-0.32,0-0.63,0.01-0.86,0.02c-0.06-0.04-0.06-0.21-0.01-0.25l0.14-0.01
			c0.24-0.02,0.27-0.09,0.27-0.59v-1.09c0-0.29,0-0.37-0.14-0.46l-0.1-0.06c-0.05-0.04-0.05-0.17,0-0.22
			c0.34-0.09,0.85-0.29,1.07-0.42c0.06,0,0.1,0.02,0.13,0.06c-0.01,0.22-0.02,0.53-0.02,0.86V73.92z M212.14,70.66
			c0,0.35-0.27,0.53-0.54,0.53c-0.32,0-0.5-0.22-0.5-0.51c0-0.32,0.25-0.53,0.54-0.53C211.94,70.15,212.14,70.37,212.14,70.66z"/>
		<path class="st17" d="M212.97,70.75c0-0.29,0-0.37-0.14-0.45l-0.12-0.07c-0.05-0.04-0.05-0.17,0-0.22c0.31-0.07,0.74-0.25,1.1-0.4
			c0.04,0,0.09,0.01,0.12,0.05c-0.01,0.3-0.02,0.6-0.02,1.05v3.21c0,0.5,0.03,0.56,0.28,0.59l0.12,0.01
			c0.06,0.04,0.06,0.21-0.01,0.25c-0.24-0.01-0.54-0.02-0.86-0.02c-0.31,0-0.61,0.01-0.86,0.02c-0.06-0.04-0.06-0.21-0.01-0.25
			l0.14-0.01c0.24-0.02,0.27-0.09,0.27-0.59V70.75z"/>
		<path class="st17" d="M214.2,72.1c-0.05-0.05-0.05-0.22,0.02-0.25c0.26,0.01,0.57,0.02,0.95,0.02c0.27,0,0.54-0.01,0.81-0.02
			c0.07,0.03,0.08,0.2,0.02,0.25l-0.14,0.03c-0.2,0.04-0.22,0.07-0.22,0.14c0,0.09,0.08,0.27,0.22,0.64
			c0.08,0.2,0.24,0.64,0.32,0.82c0.08-0.15,0.15-0.32,0.22-0.48l0.13-0.3c0.15-0.35,0.27-0.65,0.27-0.73c0-0.05-0.07-0.09-0.16-0.1
			l-0.14-0.03c-0.06-0.05-0.06-0.23,0.02-0.25c0.16,0.01,0.37,0.02,0.7,0.02c0.19,0,0.37-0.01,0.56-0.02
			c0.07,0.03,0.08,0.21,0.01,0.25l-0.14,0.01c-0.14,0.01-0.27,0.07-0.33,0.16c-0.09,0.12-0.27,0.42-0.42,0.76l-0.38,0.78
			c-0.25,0.52-0.84,1.74-1.09,2.27c-0.15,0.32-0.35,0.47-0.62,0.48c-0.39,0.01-0.46-0.24-0.46-0.43c0-0.22,0.16-0.37,0.41-0.37h0.17
			c0.17,0,0.28-0.06,0.35-0.15c0.08-0.11,0.14-0.24,0.21-0.4c0.04-0.09,0.1-0.22,0.1-0.3c0-0.09-0.02-0.23-0.14-0.53l-0.69-1.74
			c-0.14-0.35-0.2-0.48-0.43-0.51L214.2,72.1z"/>
		<path class="st17" d="M223.63,70.07c0,0.13,0.02,0.71,0.09,1.12c-0.03,0.09-0.22,0.12-0.27,0.05c-0.19-0.67-0.66-1.03-1.35-1.03
			c-0.8,0-1.66,0.68-1.66,2.12s0.83,2.2,1.69,2.2c0.87,0,1.27-0.63,1.47-1.12c0.06-0.06,0.23-0.04,0.27,0.05
			c-0.05,0.53-0.17,0.97-0.27,1.13c-0.39,0.11-0.9,0.27-1.46,0.27c-0.71,0-1.43-0.17-1.94-0.55c-0.52-0.4-0.91-0.99-0.91-1.89
			c0-0.88,0.37-1.5,0.87-1.91c0.51-0.42,1.25-0.64,2-0.64C222.88,69.88,223.41,70.05,223.63,70.07z"/>
		<path class="st17" d="M223.99,73.37c-0.01-1.03,0.81-1.6,1.66-1.6c0.85,0,1.61,0.52,1.61,1.53c0,1.05-0.77,1.55-1.66,1.55
			C224.75,74.85,224,74.36,223.99,73.37z M225.03,73.21c0,0.76,0.24,1.31,0.66,1.31c0.41,0,0.55-0.47,0.54-1.12
			c-0.01-0.7-0.21-1.3-0.62-1.3C225.29,72.1,225.03,72.42,225.03,73.21z"/>
		<path class="st17" d="M227.91,72.83c0-0.29,0-0.37-0.14-0.46l-0.1-0.06c-0.05-0.04-0.05-0.17,0-0.22
			c0.33-0.09,0.84-0.29,1.07-0.42c0.06,0,0.1,0.02,0.13,0.06c0,0.1-0.02,0.27-0.02,0.32c0,0.04,0.01,0.06,0.04,0.06
			s0.09-0.04,0.14-0.06c0.16-0.09,0.48-0.29,0.83-0.29c0.26,0,0.48,0.09,0.65,0.27c0.09,0.1,0.13,0.13,0.17,0.13
			c0.03,0,0.09-0.05,0.23-0.12c0.16-0.09,0.43-0.28,0.82-0.28c0.57,0,0.87,0.41,0.87,0.91v1.24c0,0.5,0.03,0.56,0.27,0.59l0.12,0.01
			c0.06,0.04,0.06,0.21-0.01,0.25c-0.22-0.01-0.5-0.02-0.84-0.02c-0.29,0-0.59,0.01-0.79,0.02c-0.06-0.04-0.06-0.21-0.01-0.25
			l0.12-0.01c0.18-0.02,0.21-0.09,0.21-0.48V72.8c0-0.27-0.15-0.5-0.48-0.5c-0.2,0-0.35,0.09-0.4,0.18
			c-0.03,0.04-0.05,0.12-0.05,0.22v1.33c0,0.4,0.03,0.46,0.19,0.48l0.12,0.01c0.06,0.04,0.06,0.21-0.01,0.25
			c-0.22-0.01-0.45-0.02-0.78-0.02c-0.29,0-0.58,0.01-0.76,0.02c-0.06-0.04-0.06-0.21-0.01-0.25l0.12-0.01
			c0.17-0.02,0.19-0.09,0.19-0.48V72.8c0-0.27-0.14-0.5-0.49-0.5c-0.19,0-0.33,0.09-0.39,0.17c-0.04,0.05-0.06,0.14-0.06,0.27v1.29
			c0,0.4,0.03,0.46,0.21,0.48l0.12,0.01c0.06,0.04,0.06,0.21-0.01,0.25c-0.22-0.01-0.45-0.02-0.8-0.02c-0.32,0-0.6,0.01-0.82,0.02
			c-0.07-0.04-0.07-0.21-0.01-0.25l0.12-0.01c0.24-0.03,0.27-0.09,0.27-0.59V72.83z"/>
		<path class="st17" d="M233.48,72.83c0-0.29,0-0.37-0.14-0.46l-0.1-0.06c-0.05-0.04-0.05-0.17,0-0.22c0.3-0.09,0.84-0.32,1.04-0.45
			c0.05-0.01,0.12,0.02,0.15,0.09c-0.01,0.09-0.01,0.17-0.01,0.24c0,0.05,0.03,0.09,0.06,0.1c0.22-0.11,0.53-0.29,0.91-0.29
			c0.76,0,1.22,0.6,1.22,1.38c0,1.01-0.71,1.71-1.76,1.71c-0.1,0-0.26-0.01-0.32-0.02c-0.06,0.01-0.11,0.06-0.11,0.21v0.71
			c0,0.5,0.03,0.56,0.27,0.58l0.24,0.02c0.06,0.04,0.06,0.21-0.01,0.25c-0.36-0.01-0.65-0.02-0.99-0.02c-0.32,0-0.6,0.01-0.86,0.02
			c-0.06-0.04-0.06-0.21-0.01-0.25l0.14-0.01c0.24-0.02,0.27-0.09,0.27-0.59V72.83z M234.42,73.94c0,0.16,0.06,0.31,0.17,0.42
			c0.09,0.1,0.23,0.17,0.35,0.17c0.45,0,0.69-0.48,0.69-1.15c0-0.71-0.35-1.11-0.82-1.11c-0.12,0-0.24,0.03-0.3,0.1
			c-0.04,0.04-0.08,0.14-0.08,0.42V73.94z"/>
		<path class="st17" d="M236.88,73.37c-0.01-1.03,0.81-1.6,1.66-1.6c0.85,0,1.61,0.52,1.61,1.53c0,1.05-0.77,1.55-1.66,1.55
			C237.64,74.85,236.89,74.36,236.88,73.37z M237.92,73.21c0,0.76,0.24,1.31,0.66,1.31c0.41,0,0.55-0.47,0.54-1.12
			c-0.01-0.7-0.21-1.3-0.62-1.3C238.18,72.1,237.92,72.42,237.92,73.21z"/>
		<path class="st17" d="M240.8,72.83c0-0.29,0-0.37-0.14-0.46l-0.1-0.06c-0.05-0.04-0.05-0.17,0-0.22c0.34-0.09,0.86-0.29,1.07-0.42
			c0.06,0,0.1,0.02,0.13,0.06c0,0.1-0.02,0.27-0.02,0.32c0,0.04,0.01,0.06,0.04,0.06s0.09-0.04,0.14-0.06
			c0.16-0.09,0.5-0.29,0.83-0.29c0.6,0,0.9,0.41,0.9,0.91v1.24c0,0.5,0.03,0.56,0.29,0.59l0.12,0.01c0.06,0.04,0.06,0.21-0.01,0.25
			c-0.22-0.01-0.53-0.02-0.87-0.02c-0.29,0-0.57,0.01-0.78,0.02c-0.06-0.04-0.06-0.21-0.01-0.25l0.13-0.02
			c0.17-0.03,0.19-0.08,0.19-0.48v-1.22c0-0.28-0.14-0.51-0.5-0.51c-0.2,0-0.35,0.09-0.4,0.17c-0.04,0.05-0.06,0.14-0.06,0.27v1.29
			c0,0.4,0.03,0.46,0.21,0.48l0.12,0.01c0.06,0.04,0.06,0.21-0.01,0.25c-0.22-0.01-0.45-0.02-0.8-0.02c-0.3,0-0.6,0.01-0.85,0.02
			c-0.06-0.04-0.06-0.21-0.01-0.25l0.12-0.01c0.26-0.03,0.29-0.09,0.29-0.59V72.83z"/>
		<path class="st17" d="M245.27,73.04c-0.17,0-0.18,0.01-0.18,0.13c0,0.54,0.35,1.07,1.02,1.07c0.2,0,0.48-0.04,0.67-0.37
			c0.08-0.01,0.19,0.04,0.19,0.17c-0.3,0.61-0.83,0.82-1.26,0.82c-0.97,0-1.5-0.68-1.5-1.47c0-0.91,0.66-1.61,1.56-1.61
			c0.75,0,1.15,0.48,1.15,1.04c0,0.14-0.04,0.24-0.26,0.24H245.27z M245.74,72.73c0.1,0,0.22-0.01,0.3-0.06
			c0.04-0.02,0.05-0.09,0.05-0.17c0-0.24-0.14-0.4-0.38-0.4c-0.3,0-0.56,0.29-0.56,0.52c0,0.1,0.1,0.11,0.33,0.11H245.74z"/>
		<path class="st17" d="M247.42,72.83c0-0.29,0-0.37-0.14-0.46l-0.1-0.06c-0.05-0.04-0.05-0.17,0-0.22
			c0.34-0.09,0.86-0.29,1.07-0.42c0.06,0,0.1,0.02,0.13,0.06c0,0.1-0.02,0.27-0.02,0.32c0,0.04,0.01,0.06,0.04,0.06
			s0.09-0.04,0.14-0.06c0.16-0.09,0.5-0.29,0.83-0.29c0.6,0,0.9,0.41,0.9,0.91v1.24c0,0.5,0.03,0.56,0.29,0.59l0.12,0.01
			c0.06,0.04,0.06,0.21-0.01,0.25c-0.22-0.01-0.53-0.02-0.87-0.02c-0.29,0-0.57,0.01-0.78,0.02c-0.06-0.04-0.06-0.21-0.01-0.25
			l0.13-0.02c0.17-0.03,0.19-0.08,0.19-0.48v-1.22c0-0.28-0.14-0.51-0.5-0.51c-0.2,0-0.35,0.09-0.4,0.17
			c-0.04,0.05-0.06,0.14-0.06,0.27v1.29c0,0.4,0.03,0.46,0.21,0.48l0.12,0.01c0.06,0.04,0.06,0.21-0.01,0.25
			c-0.22-0.01-0.45-0.02-0.8-0.02c-0.3,0-0.6,0.01-0.85,0.02c-0.06-0.04-0.06-0.21-0.01-0.25l0.12-0.01
			c0.26-0.03,0.29-0.09,0.29-0.59V72.83z"/>
		<path class="st17" d="M252.19,72.26c-0.09,0-0.1,0.01-0.1,0.17v1.08c0,0.4,0,0.85,0.5,0.85c0.1,0,0.22-0.05,0.3-0.11
			c0.07,0.02,0.12,0.1,0.1,0.19c-0.2,0.22-0.59,0.42-1.04,0.42c-0.6,0-0.81-0.35-0.81-0.82v-1.61c0-0.15-0.01-0.17-0.14-0.17h-0.22
			c-0.08-0.03-0.1-0.17-0.04-0.22c0.22-0.08,0.42-0.21,0.6-0.32c0.13-0.09,0.31-0.25,0.53-0.56c0.05-0.03,0.18-0.02,0.22,0.04v0.54
			c0,0.14,0.01,0.14,0.14,0.14h0.64c0.04,0.03,0.06,0.07,0.06,0.14c0,0.08-0.02,0.21-0.09,0.25H252.19z"/>
		<path class="st17" d="M253.03,74.63c-0.08-0.14-0.13-0.49-0.12-0.81c0.04-0.07,0.2-0.08,0.24-0.01c0.09,0.3,0.37,0.72,0.73,0.72
			c0.22,0,0.37-0.13,0.37-0.37c0-0.27-0.23-0.42-0.48-0.54c-0.43-0.22-0.74-0.48-0.74-0.91c0-0.63,0.53-0.93,1.15-0.93
			c0.37,0,0.69,0.09,0.77,0.15c0.07,0.16,0.11,0.45,0.11,0.72c-0.03,0.08-0.21,0.08-0.25,0.03c-0.14-0.42-0.32-0.57-0.56-0.57
			c-0.21,0-0.36,0.12-0.36,0.32c0,0.17,0.14,0.3,0.46,0.46c0.49,0.24,0.79,0.54,0.79,1.01c-0.01,0.64-0.55,0.96-1.23,0.96
			C253.51,74.85,253.22,74.78,253.03,74.63z"/>
	</g>
	<g class="st1">
		<g id="browser_2_">
			<g>
				<path class="st2" d="M431.4,142.5c0,5.5-4.5,10-10,10h-100c-5.5,0-10-4.5-10-10v-85c0-5.5,4.5-10,10-10h100c5.5,0,10,4.5,10,10
					V142.5z"/>
			</g>
			<path class="st3" d="M425.4,47.5h-108c-3.3,0-6,2.7-6,6v3h120v-3C431.4,50.2,428.7,47.5,425.4,47.5z"/>
			<g>
				<path class="st4" d="M395.4,52c0,1.32-1.8,2.4-4,2.4h-40c-2.2,0-4-1.08-4-2.4s1.8-2.4,4-2.4h40C393.6,49.6,395.4,50.68,395.4,52
					z"/>
			</g>
			<circle class="st5" cx="316.8" cy="52" r="1.8"/>
			<circle class="st5" cx="321.57" cy="52" r="1.8"/>
			<circle class="st5" cx="326.34" cy="52" r="1.8"/>
		</g>
		<rect x="311.4" y="56.5" class="st17" width="120" height="7.2"/>
		<path class="st8" d="M325.5,60.45l-1.56-1.56l-1.56,1.56c-0.47,0.47-0.31,0.85,0.35,0.85h2.41
			C325.81,61.3,325.97,60.92,325.5,60.45z"/>
		<g>
			<g>
				<path class="st8" d="M377.73,60.1c0,0.66-0.9,1.2-2,1.2h-8c-1.1,0-2-0.54-2-1.2s0.9-1.2,2-1.2h8
					C376.83,58.9,377.73,59.44,377.73,60.1z"/>
			</g>
			<path class="st8" d="M382.65,60.45l-1.56-1.56l-1.56,1.56c-0.47,0.47-0.31,0.85,0.35,0.85h2.41
				C382.96,61.3,383.11,60.92,382.65,60.45z"/>
		</g>
		<g>
			<g>
				<path class="st8" d="M406.3,60.1c0,0.66-0.9,1.2-2,1.2h-8c-1.1,0-2-0.54-2-1.2s0.9-1.2,2-1.2h8
					C405.4,58.9,406.3,59.44,406.3,60.1z"/>
			</g>
			<path class="st8" d="M411.22,60.45l-1.56-1.56l-1.56,1.56c-0.47,0.47-0.31,0.85,0.35,0.85h2.41
				C411.53,61.3,411.68,60.92,411.22,60.45z"/>
		</g>
		<g>
			<g>
				<path class="st9" d="M349.16,60.1c0,0.66-0.9,1.2-2,1.2h-8c-1.1,0-2-0.54-2-1.2s0.9-1.2,2-1.2h8
					C348.26,58.9,349.16,59.44,349.16,60.1z"/>
			</g>
			<path class="st9" d="M350.96,59.75l1.56,1.56l1.56-1.56c0.47-0.47,0.31-0.85-0.35-0.85h-2.41
				C350.65,58.9,350.49,59.28,350.96,59.75z"/>
		</g>
		<path class="st8" d="M319.39,58.9h-7.99v2.4h7.99c0.66,0,1.2-0.54,1.2-1.2C320.59,59.44,320.05,58.9,319.39,58.9z"/>
		<path class="st9" d="M431.4,58.9h-7.33c-0.66,0-1.2,0.54-1.2,1.2c0,0.66,0.54,1.2,1.2,1.2h7.33V58.9z"/>
		<g>
			<path class="st11" d="M368.4,138.5c0,2.75-2.25,5-5,5h-29c-2.75,0-5-2.25-5-5v-8c0-2.75,2.25-5,5-5h29c2.75,0,5,2.25,5,5V138.5z"
				/>
		</g>
		<g>
			<g>
				<path class="st18" d="M359.51,133.8c0,2.55-2.07,4.62-4.62,4.62c-2.55,0-4.62-2.07-4.62-4.62c0-2.55,2.07-4.62,4.62-4.62
					C357.44,129.18,359.51,131.25,359.51,133.8z"/>
			</g>
			<path class="st2" d="M360.94,136.09c-0.22-0.81-0.95-1.41-1.83-1.41c-0.52,0-1,0.21-1.34,0.56c-0.34-0.34-0.82-0.56-1.34-0.56
				c-0.88,0-1.61,0.6-1.83,1.41c-0.81,0.22-1.41,0.95-1.41,1.83c0,1.05,0.85,1.9,1.9,1.9h5.37c1.05,0,1.9-0.85,1.9-1.9
				C362.36,137.04,361.76,136.31,360.94,136.09z"/>
		</g>
		<g>
			<g>
				<path class="st9" d="M336.7,136.43c-0.27-0.33-0.4-0.72-0.4-1.19h0.66c0.03,0.33,0.09,0.56,0.18,0.71
					c0.16,0.26,0.46,0.4,0.89,0.4c0.33,0,0.6-0.09,0.8-0.27c0.2-0.18,0.3-0.41,0.3-0.69c0-0.35-0.11-0.59-0.32-0.73
					c-0.21-0.14-0.51-0.21-0.88-0.21c-0.04,0-0.08,0-0.13,0c-0.04,0-0.09,0-0.13,0v-0.56c0.07,0.01,0.12,0.01,0.17,0.01
					c0.04,0,0.09,0,0.14,0c0.24,0,0.43-0.04,0.58-0.11c0.27-0.13,0.4-0.37,0.4-0.7c0-0.25-0.09-0.44-0.27-0.58
					c-0.18-0.14-0.38-0.2-0.62-0.2c-0.42,0-0.71,0.14-0.88,0.42c-0.09,0.15-0.14,0.38-0.15,0.66h-0.63c0-0.38,0.08-0.69,0.23-0.96
					c0.26-0.47,0.71-0.7,1.36-0.7c0.51,0,0.91,0.11,1.19,0.34s0.42,0.56,0.42,0.99c0,0.31-0.08,0.56-0.25,0.75
					c-0.1,0.12-0.24,0.21-0.4,0.28c0.26,0.07,0.47,0.21,0.62,0.42c0.15,0.21,0.22,0.46,0.22,0.76c0,0.48-0.16,0.87-0.47,1.17
					s-0.76,0.45-1.35,0.45C337.4,136.92,336.97,136.76,336.7,136.43z"/>
				<path class="st9" d="M340.7,136.43c-0.27-0.33-0.4-0.72-0.4-1.19h0.66c0.03,0.33,0.09,0.56,0.18,0.71
					c0.16,0.26,0.46,0.4,0.89,0.4c0.33,0,0.6-0.09,0.8-0.27c0.2-0.18,0.3-0.41,0.3-0.69c0-0.35-0.11-0.59-0.32-0.73
					c-0.21-0.14-0.51-0.21-0.88-0.21c-0.04,0-0.08,0-0.13,0c-0.04,0-0.09,0-0.13,0v-0.56c0.07,0.01,0.12,0.01,0.17,0.01
					c0.04,0,0.09,0,0.14,0c0.24,0,0.43-0.04,0.58-0.11c0.27-0.13,0.4-0.37,0.4-0.7c0-0.25-0.09-0.44-0.27-0.58s-0.39-0.2-0.62-0.2
					c-0.42,0-0.71,0.14-0.88,0.42c-0.09,0.15-0.14,0.38-0.15,0.66h-0.63c0-0.38,0.08-0.69,0.22-0.96c0.26-0.47,0.71-0.7,1.36-0.7
					c0.51,0,0.91,0.11,1.19,0.34s0.42,0.56,0.42,0.99c0,0.31-0.08,0.56-0.25,0.75c-0.1,0.12-0.24,0.21-0.4,0.28
					c0.26,0.07,0.47,0.21,0.62,0.42c0.15,0.21,0.22,0.46,0.22,0.76c0,0.48-0.16,0.87-0.47,1.17s-0.77,0.45-1.35,0.45
					C341.4,136.92,340.97,136.76,340.7,136.43z"/>
			</g>
			<g>
				<path class="st9" d="M344.6,133.34c-0.18,0-0.38-0.09-0.38-0.39s0.2-0.4,0.38-0.4c0.18,0,0.38,0.09,0.38,0.4
					S344.77,133.34,344.6,133.34z M344.6,132.67c-0.19,0-0.22,0.17-0.22,0.27c0,0.1,0.03,0.27,0.22,0.27c0.19,0,0.22-0.17,0.22-0.27
					C344.81,132.85,344.78,132.67,344.6,132.67z"/>
				<path class="st9" d="M346.41,133.11c-0.06-0.3-0.31-0.36-0.48-0.36c-0.31,0-0.56,0.23-0.56,0.68c0,0.4,0.14,0.71,0.57,0.71
					c0.15,0,0.41-0.07,0.49-0.47h0.22c-0.1,0.65-0.62,0.67-0.75,0.67c-0.39,0-0.77-0.25-0.77-0.91c0-0.53,0.3-0.89,0.8-0.89
					c0.44,0,0.67,0.27,0.7,0.56H346.41z"/>
			</g>
		</g>
		<g>
			<path class="st17" d="M409.69,85.97c0,0.66-0.9,1.2-2,1.2h-27.61c-1.1,0-2-0.54-2-1.2c0-0.66,0.9-1.2,2-1.2h27.61
				C408.79,84.77,409.69,85.31,409.69,85.97z"/>
		</g>
		<g>
			<path class="st17" d="M398.74,91c0,0.66-0.9,1.2-2,1.2h-16.66c-1.1,0-2-0.54-2-1.2s0.9-1.2,2-1.2h16.66
				C397.84,89.8,398.74,90.34,398.74,91z"/>
		</g>
		<g>
			<path class="st13" d="M409.69,96.03c0,0.66-0.9,1.2-2,1.2h-27.61c-1.1,0-2-0.54-2-1.2c0-0.66,0.9-1.2,2-1.2h27.61
				C408.79,94.83,409.69,95.37,409.69,96.03z"/>
		</g>
		<g>
			<path class="st13" d="M409.69,101.01c0,0.66-0.9,1.2-2,1.2h-27.61c-1.1,0-2-0.54-2-1.2s0.9-1.2,2-1.2h27.61
				C408.79,99.81,409.69,100.35,409.69,101.01z"/>
		</g>
		<g>
			<path class="st13" d="M409.69,105.99c0,0.66-0.9,1.2-2,1.2h-27.61c-1.1,0-2-0.54-2-1.2c0-0.66,0.9-1.2,2-1.2h27.61
				C408.79,104.79,409.69,105.33,409.69,105.99z"/>
		</g>
		<g>
			<path class="st13" d="M409.69,110.98c0,0.66-0.9,1.2-2,1.2h-27.61c-1.1,0-2-0.54-2-1.2c0-0.66,0.9-1.2,2-1.2h27.61
				C408.79,109.78,409.69,110.32,409.69,110.98z"/>
		</g>
		<g>
			<path class="st13" d="M409.69,115.96c0,0.66-0.9,1.2-2,1.2h-27.61c-1.1,0-2-0.54-2-1.2c0-0.66,0.9-1.2,2-1.2h27.61
				C408.79,114.76,409.69,115.3,409.69,115.96z"/>
		</g>
		<g>
			<path class="st13" d="M409.69,120.94c0,0.66-0.9,1.2-2,1.2h-27.61c-1.1,0-2-0.54-2-1.2c0-0.66,0.9-1.2,2-1.2h27.61
				C408.79,119.74,409.69,120.28,409.69,120.94z"/>
		</g>
		<g>
			<path class="st13" d="M409.69,125.92c0,0.66-0.9,1.2-2,1.2h-27.61c-1.1,0-2-0.54-2-1.2c0-0.66,0.9-1.2,2-1.2h27.61
				C408.79,124.72,409.69,125.26,409.69,125.92z"/>
		</g>
		<g>
			<path class="st13" d="M409.69,130.9c0,0.66-0.9,1.2-2,1.2h-27.61c-1.1,0-2-0.54-2-1.2s0.9-1.2,2-1.2h27.61
				C408.79,129.7,409.69,130.24,409.69,130.9z"/>
		</g>
		<g>
			<path class="st13" d="M409.69,135.88c0,0.66-0.9,1.2-2,1.2h-27.61c-1.1,0-2-0.54-2-1.2c0-0.66,0.9-1.2,2-1.2h27.61
				C408.79,134.68,409.69,135.22,409.69,135.88z"/>
		</g>
		<g>
			<path class="st13" d="M402.31,140.87c0,0.66-0.9,1.2-2,1.2h-20.24c-1.1,0-2-0.54-2-1.2s0.9-1.2,2-1.2h20.24
				C401.41,139.67,402.31,140.21,402.31,140.87z"/>
		</g>
		<g>
			<path class="st13" d="M364.69,85.97c0,0.66-0.9,1.2-2,1.2h-27.61c-1.1,0-2-0.54-2-1.2c0-0.66,0.9-1.2,2-1.2h27.61
				C363.79,84.77,364.69,85.31,364.69,85.97z"/>
		</g>
		<g>
			<path class="st17" d="M364.69,85.97c0,0.66-0.9,1.2-2,1.2h-27.61c-1.1,0-2-0.54-2-1.2c0-0.66,0.9-1.2,2-1.2h27.61
				C363.79,84.77,364.69,85.31,364.69,85.97z"/>
		</g>
		<g>
			<path class="st13" d="M364.69,91c0,0.66-0.9,1.2-2,1.2h-27.61c-1.1,0-2-0.54-2-1.2s0.9-1.2,2-1.2h27.61
				C363.79,89.8,364.69,90.34,364.69,91z"/>
		</g>
		<g>
			<path class="st13" d="M360.75,96.03c0,0.66-0.9,1.2-2,1.2h-23.68c-1.1,0-2-0.54-2-1.2c0-0.66,0.9-1.2,2-1.2h23.68
				C359.85,94.83,360.75,95.37,360.75,96.03z"/>
		</g>
		<g>
			<g>
				<path class="st17" d="M360.3,108.25c0,0.66-0.9,1.2-2,1.2h-23.23c-1.1,0-2-0.54-2-1.2c0-0.66,0.9-1.2,2-1.2h23.23
					C359.4,107.05,360.3,107.59,360.3,108.25z"/>
			</g>
			<g>
				<path class="st13" d="M364.69,113.28c0,0.66-0.9,1.2-2,1.2h-27.61c-1.1,0-2-0.54-2-1.2c0-0.66,0.9-1.2,2-1.2h27.61
					C363.79,112.08,364.69,112.62,364.69,113.28z"/>
			</g>
			<g>
				<path class="st13" d="M352.48,118.31c0,0.66-0.9,1.2-2,1.2h-15.41c-1.1,0-2-0.54-2-1.2c0-0.66,0.9-1.2,2-1.2h15.41
					C351.58,117.11,352.48,117.65,352.48,118.31z"/>
			</g>
		</g>
	</g>
	<line class="st19" x1="270.6" y1="134.5" x2="329.4" y2="134.5"/>
	<g class="st1">
		<path class="st17" d="M345.67,71.16c0-0.68-0.01-0.82-0.35-0.86l-0.14-0.01c-0.07-0.04-0.07-0.25,0.01-0.25
			c0.6-0.04,1.17-0.06,1.93-0.06c0.59,0,1.18,0.06,1.68,0.24c0.94,0.34,1.46,1.19,1.46,2.09c0,0.97-0.46,1.74-1.29,2.15
			c-0.49,0.25-1.08,0.34-1.82,0.34c-0.34,0-0.7-0.04-0.96-0.04c-0.35,0-0.71,0.01-1.12,0.02c-0.06-0.04-0.06-0.22,0-0.25l0.22-0.04
			c0.32-0.05,0.37-0.11,0.37-0.77V71.16z M346.7,73.45c0,0.4,0.01,0.66,0.14,0.81c0.13,0.14,0.34,0.21,0.6,0.21
			c1.25,0,1.67-1.11,1.67-2.09c0-1.3-0.68-2.07-1.99-2.07c-0.19,0-0.33,0.04-0.38,0.09s-0.05,0.19-0.05,0.42V73.45z"/>
		<path class="st17" d="M353,73.76c-0.03,0.49,0.18,0.62,0.32,0.62c0.09,0,0.16-0.02,0.27-0.09c0.07,0.01,0.11,0.1,0.09,0.17
			c-0.09,0.12-0.42,0.39-0.84,0.39c-0.25,0-0.41-0.09-0.6-0.25c-0.05-0.04-0.08-0.06-0.12-0.06s-0.08,0.03-0.15,0.08
			c-0.13,0.09-0.35,0.23-0.61,0.23c-0.42,0-0.81-0.25-0.81-0.76c0-0.37,0.22-0.59,0.75-0.75c0.27-0.09,0.48-0.14,0.68-0.2
			c0.13-0.04,0.17-0.09,0.17-0.14c0.01-0.08,0.01-0.16,0.01-0.25c0-0.27-0.11-0.62-0.42-0.62c-0.17,0-0.32,0.1-0.37,0.41
			c-0.01,0.12-0.06,0.18-0.12,0.23c-0.11,0.08-0.39,0.17-0.52,0.17c-0.12,0-0.17-0.08-0.17-0.18c0-0.19,0.17-0.42,0.35-0.55
			c0.25-0.19,0.7-0.44,1.21-0.44c0.6,0,0.96,0.3,0.92,1.04L353,73.76z M352.14,73.58c0.01-0.12,0-0.14-0.05-0.13
			c-0.32,0.04-0.61,0.17-0.61,0.5c0,0.23,0.17,0.43,0.37,0.43c0.22,0,0.27-0.13,0.27-0.35L352.14,73.58z"/>
		<path class="st17" d="M354.88,73.92c0,0.5,0.03,0.57,0.27,0.59l0.14,0.01c0.06,0.04,0.06,0.21-0.01,0.25
			c-0.25-0.01-0.53-0.02-0.86-0.02c-0.32,0-0.63,0.01-0.86,0.02c-0.06-0.04-0.06-0.21-0.01-0.25l0.14-0.01
			c0.24-0.02,0.27-0.09,0.27-0.59v-1.09c0-0.29,0-0.37-0.14-0.46l-0.1-0.06c-0.05-0.04-0.05-0.17,0-0.22
			c0.34-0.09,0.85-0.29,1.07-0.42c0.06,0,0.1,0.02,0.13,0.06c-0.01,0.22-0.02,0.53-0.02,0.86V73.92z M354.94,70.66
			c0,0.35-0.27,0.53-0.54,0.53c-0.32,0-0.5-0.22-0.5-0.51c0-0.32,0.25-0.53,0.54-0.53C354.74,70.15,354.94,70.37,354.94,70.66z"/>
		<path class="st17" d="M355.77,70.75c0-0.29,0-0.37-0.14-0.45l-0.12-0.07c-0.05-0.04-0.05-0.17,0-0.22c0.31-0.07,0.74-0.25,1.1-0.4
			c0.04,0,0.09,0.01,0.12,0.05c-0.01,0.3-0.02,0.6-0.02,1.05v3.21c0,0.5,0.03,0.56,0.28,0.59l0.12,0.01
			c0.06,0.04,0.06,0.21-0.01,0.25c-0.24-0.01-0.54-0.02-0.86-0.02c-0.31,0-0.61,0.01-0.86,0.02c-0.07-0.04-0.07-0.21-0.01-0.25
			l0.14-0.01c0.24-0.02,0.27-0.09,0.27-0.59V70.75z"/>
		<path class="st17" d="M357,72.1c-0.05-0.05-0.05-0.22,0.02-0.25c0.26,0.01,0.57,0.02,0.95,0.02c0.27,0,0.54-0.01,0.81-0.02
			c0.07,0.03,0.08,0.2,0.02,0.25l-0.14,0.03c-0.2,0.04-0.22,0.07-0.22,0.14c0,0.09,0.08,0.27,0.22,0.64
			c0.08,0.2,0.24,0.64,0.32,0.82c0.08-0.15,0.15-0.32,0.22-0.48l0.13-0.3c0.15-0.35,0.27-0.65,0.27-0.73c0-0.05-0.07-0.09-0.16-0.1
			l-0.14-0.03c-0.06-0.05-0.06-0.23,0.02-0.25c0.16,0.01,0.37,0.02,0.7,0.02c0.19,0,0.37-0.01,0.56-0.02
			c0.07,0.03,0.08,0.21,0.01,0.25l-0.14,0.01c-0.14,0.01-0.27,0.07-0.33,0.16c-0.09,0.12-0.27,0.42-0.43,0.76l-0.38,0.78
			c-0.25,0.52-0.84,1.74-1.1,2.27c-0.15,0.32-0.35,0.47-0.62,0.48c-0.39,0.01-0.46-0.24-0.46-0.43c0-0.22,0.16-0.37,0.41-0.37h0.17
			c0.17,0,0.28-0.06,0.35-0.15c0.08-0.11,0.14-0.24,0.21-0.4c0.04-0.09,0.1-0.22,0.1-0.3c0-0.09-0.02-0.23-0.14-0.53l-0.69-1.74
			c-0.14-0.35-0.2-0.48-0.43-0.51L357,72.1z"/>
		<path class="st17" d="M366.43,70.07c0,0.13,0.02,0.71,0.09,1.12c-0.03,0.09-0.22,0.12-0.27,0.05c-0.19-0.67-0.66-1.03-1.35-1.03
			c-0.8,0-1.66,0.68-1.66,2.12s0.83,2.2,1.69,2.2c0.87,0,1.28-0.63,1.47-1.12c0.06-0.06,0.23-0.04,0.27,0.05
			c-0.05,0.53-0.17,0.97-0.27,1.13c-0.39,0.11-0.9,0.27-1.46,0.27c-0.71,0-1.43-0.17-1.94-0.55c-0.52-0.4-0.92-0.99-0.92-1.89
			c0-0.88,0.37-1.5,0.87-1.91c0.51-0.42,1.25-0.64,2-0.64C365.68,69.88,366.21,70.05,366.43,70.07z"/>
		<path class="st17" d="M366.79,73.37c-0.01-1.03,0.81-1.6,1.66-1.6s1.61,0.52,1.61,1.53c0,1.05-0.77,1.55-1.66,1.55
			C367.55,74.85,366.8,74.36,366.79,73.37z M367.83,73.21c0,0.76,0.24,1.31,0.66,1.31c0.41,0,0.55-0.47,0.54-1.12
			c-0.01-0.7-0.21-1.3-0.62-1.3C368.09,72.1,367.83,72.42,367.83,73.21z"/>
		<path class="st17" d="M370.71,72.83c0-0.29,0-0.37-0.14-0.46l-0.1-0.06c-0.05-0.04-0.05-0.17,0-0.22
			c0.33-0.09,0.84-0.29,1.07-0.42c0.06,0,0.1,0.02,0.13,0.06c0,0.1-0.02,0.27-0.02,0.32c0,0.04,0.01,0.06,0.04,0.06
			s0.09-0.04,0.14-0.06c0.16-0.09,0.48-0.29,0.83-0.29c0.26,0,0.48,0.09,0.65,0.27c0.09,0.1,0.13,0.13,0.17,0.13
			c0.03,0,0.09-0.05,0.23-0.12c0.16-0.09,0.43-0.28,0.82-0.28c0.57,0,0.87,0.41,0.87,0.91v1.24c0,0.5,0.03,0.56,0.27,0.59l0.12,0.01
			c0.06,0.04,0.06,0.21-0.01,0.25c-0.22-0.01-0.5-0.02-0.84-0.02c-0.29,0-0.59,0.01-0.79,0.02c-0.06-0.04-0.06-0.21-0.01-0.25
			l0.12-0.01c0.18-0.02,0.21-0.09,0.21-0.48V72.8c0-0.27-0.15-0.5-0.48-0.5c-0.2,0-0.35,0.09-0.4,0.18
			c-0.03,0.04-0.05,0.12-0.05,0.22v1.33c0,0.4,0.03,0.46,0.19,0.48l0.12,0.01c0.06,0.04,0.06,0.21-0.01,0.25
			c-0.22-0.01-0.45-0.02-0.78-0.02c-0.29,0-0.58,0.01-0.76,0.02c-0.06-0.04-0.06-0.21-0.01-0.25l0.12-0.01
			c0.17-0.02,0.19-0.09,0.19-0.48V72.8c0-0.27-0.14-0.5-0.49-0.5c-0.19,0-0.33,0.09-0.39,0.17c-0.04,0.05-0.06,0.14-0.06,0.27v1.29
			c0,0.4,0.03,0.46,0.21,0.48l0.12,0.01c0.06,0.04,0.06,0.21-0.01,0.25c-0.22-0.01-0.45-0.02-0.8-0.02c-0.32,0-0.6,0.01-0.82,0.02
			c-0.07-0.04-0.07-0.21-0.01-0.25l0.12-0.01c0.24-0.03,0.27-0.09,0.27-0.59V72.83z"/>
		<path class="st17" d="M376.28,72.83c0-0.29,0-0.37-0.14-0.46l-0.1-0.06c-0.05-0.04-0.05-0.17,0-0.22c0.3-0.09,0.84-0.32,1.04-0.45
			c0.05-0.01,0.12,0.02,0.15,0.09c-0.01,0.09-0.01,0.17-0.01,0.24c0,0.05,0.03,0.09,0.06,0.1c0.22-0.11,0.53-0.29,0.91-0.29
			c0.76,0,1.22,0.6,1.22,1.38c0,1.01-0.71,1.71-1.76,1.71c-0.1,0-0.26-0.01-0.32-0.02c-0.06,0.01-0.11,0.06-0.11,0.21v0.71
			c0,0.5,0.03,0.56,0.27,0.58l0.24,0.02c0.06,0.04,0.06,0.21-0.01,0.25c-0.36-0.01-0.65-0.02-0.99-0.02c-0.32,0-0.6,0.01-0.86,0.02
			c-0.07-0.04-0.07-0.21-0.01-0.25l0.14-0.01c0.24-0.02,0.27-0.09,0.27-0.59V72.83z M377.22,73.94c0,0.16,0.06,0.31,0.17,0.42
			c0.09,0.1,0.23,0.17,0.35,0.17c0.45,0,0.69-0.48,0.69-1.15c0-0.71-0.35-1.11-0.82-1.11c-0.12,0-0.25,0.03-0.3,0.1
			c-0.04,0.04-0.08,0.14-0.08,0.42V73.94z"/>
		<path class="st17" d="M379.68,73.37c-0.01-1.03,0.81-1.6,1.66-1.6s1.61,0.52,1.61,1.53c0,1.05-0.77,1.55-1.66,1.55
			C380.44,74.85,379.69,74.36,379.68,73.37z M380.72,73.21c0,0.76,0.24,1.31,0.66,1.31c0.41,0,0.55-0.47,0.54-1.12
			c-0.01-0.7-0.21-1.3-0.62-1.3C380.98,72.1,380.72,72.42,380.72,73.21z"/>
		<path class="st17" d="M383.6,72.83c0-0.29,0-0.37-0.14-0.46l-0.1-0.06c-0.05-0.04-0.05-0.17,0-0.22c0.34-0.09,0.86-0.29,1.07-0.42
			c0.06,0,0.1,0.02,0.13,0.06c0,0.1-0.02,0.27-0.02,0.32c0,0.04,0.01,0.06,0.04,0.06s0.09-0.04,0.14-0.06
			c0.16-0.09,0.5-0.29,0.83-0.29c0.6,0,0.9,0.41,0.9,0.91v1.24c0,0.5,0.03,0.56,0.29,0.59l0.12,0.01c0.06,0.04,0.06,0.21-0.01,0.25
			c-0.22-0.01-0.53-0.02-0.87-0.02c-0.29,0-0.57,0.01-0.78,0.02c-0.06-0.04-0.06-0.21-0.01-0.25l0.13-0.02
			c0.17-0.03,0.2-0.08,0.2-0.48v-1.22c0-0.28-0.14-0.51-0.5-0.51c-0.2,0-0.35,0.09-0.4,0.17c-0.04,0.05-0.06,0.14-0.06,0.27v1.29
			c0,0.4,0.03,0.46,0.21,0.48l0.12,0.01c0.06,0.04,0.06,0.21-0.01,0.25c-0.22-0.01-0.45-0.02-0.8-0.02c-0.3,0-0.6,0.01-0.85,0.02
			c-0.07-0.04-0.07-0.21-0.01-0.25l0.12-0.01c0.26-0.03,0.29-0.09,0.29-0.59V72.83z"/>
		<path class="st17" d="M388.07,73.04c-0.17,0-0.18,0.01-0.18,0.13c0,0.54,0.35,1.07,1.02,1.07c0.2,0,0.48-0.04,0.67-0.37
			c0.08-0.01,0.19,0.04,0.19,0.17c-0.3,0.61-0.83,0.82-1.26,0.82c-0.97,0-1.5-0.68-1.5-1.47c0-0.91,0.66-1.61,1.56-1.61
			c0.75,0,1.15,0.48,1.15,1.04c0,0.14-0.04,0.24-0.26,0.24H388.07z M388.54,72.73c0.1,0,0.22-0.01,0.3-0.06
			c0.04-0.02,0.05-0.09,0.05-0.17c0-0.24-0.14-0.4-0.38-0.4c-0.3,0-0.56,0.29-0.56,0.52c0,0.1,0.1,0.11,0.33,0.11H388.54z"/>
		<path class="st17" d="M390.22,72.83c0-0.29,0-0.37-0.14-0.46l-0.1-0.06c-0.05-0.04-0.05-0.17,0-0.22
			c0.34-0.09,0.86-0.29,1.07-0.42c0.06,0,0.1,0.02,0.13,0.06c0,0.1-0.02,0.27-0.02,0.32c0,0.04,0.01,0.06,0.04,0.06
			s0.09-0.04,0.14-0.06c0.16-0.09,0.5-0.29,0.83-0.29c0.6,0,0.9,0.41,0.9,0.91v1.24c0,0.5,0.03,0.56,0.29,0.59l0.12,0.01
			c0.06,0.04,0.06,0.21-0.01,0.25c-0.22-0.01-0.53-0.02-0.87-0.02c-0.29,0-0.57,0.01-0.78,0.02c-0.06-0.04-0.06-0.21-0.01-0.25
			l0.13-0.02c0.17-0.03,0.19-0.08,0.19-0.48v-1.22c0-0.28-0.14-0.51-0.5-0.51c-0.2,0-0.35,0.09-0.4,0.17
			c-0.04,0.05-0.06,0.14-0.06,0.27v1.29c0,0.4,0.03,0.46,0.21,0.48l0.12,0.01c0.06,0.04,0.06,0.21-0.01,0.25
			c-0.22-0.01-0.45-0.02-0.8-0.02c-0.3,0-0.6,0.01-0.85,0.02c-0.06-0.04-0.06-0.21-0.01-0.25l0.12-0.01
			c0.26-0.03,0.29-0.09,0.29-0.59V72.83z"/>
		<path class="st17" d="M394.99,72.26c-0.09,0-0.1,0.01-0.1,0.17v1.08c0,0.4,0,0.85,0.5,0.85c0.1,0,0.22-0.05,0.3-0.11
			c0.07,0.02,0.12,0.1,0.1,0.19c-0.2,0.22-0.59,0.42-1.04,0.42c-0.6,0-0.81-0.35-0.81-0.82v-1.61c0-0.15-0.01-0.17-0.14-0.17h-0.22
			c-0.08-0.03-0.1-0.17-0.04-0.22c0.22-0.08,0.42-0.21,0.6-0.32c0.13-0.09,0.31-0.25,0.53-0.56c0.05-0.03,0.18-0.02,0.22,0.04v0.54
			c0,0.14,0.01,0.14,0.14,0.14h0.64c0.04,0.03,0.06,0.07,0.06,0.14c0,0.08-0.02,0.21-0.09,0.25H394.99z"/>
		<path class="st17" d="M395.83,74.63c-0.08-0.14-0.13-0.49-0.12-0.81c0.04-0.07,0.2-0.08,0.25-0.01c0.09,0.3,0.37,0.72,0.73,0.72
			c0.22,0,0.37-0.13,0.37-0.37c0-0.27-0.23-0.42-0.47-0.54c-0.43-0.22-0.74-0.48-0.74-0.91c0-0.63,0.53-0.93,1.15-0.93
			c0.37,0,0.69,0.09,0.77,0.15c0.07,0.16,0.11,0.45,0.11,0.72c-0.03,0.08-0.21,0.08-0.25,0.03c-0.14-0.42-0.32-0.57-0.56-0.57
			c-0.21,0-0.36,0.12-0.36,0.32c0,0.17,0.14,0.3,0.46,0.46c0.49,0.24,0.79,0.54,0.79,1.01c-0.01,0.64-0.55,0.96-1.23,0.96
			C396.31,74.85,396.02,74.78,395.83,74.63z"/>
	</g>
</g>
<g>
	<g>
		
			<ellipse transform="matrix(0.8901 -0.4557 0.4557 0.8901 -20.9541 80.3391)" class="st2" cx="156.12" cy="83.62" rx="36.12" ry="36.12"/>
	</g>
	<g>
		
			<ellipse transform="matrix(0.7071 -0.7071 0.7071 0.7071 61.0281 314.5759)" class="st2" cx="410.24" cy="83.62" rx="36.12" ry="36.12"/>
	</g>
	<g>
		<path class="st20" d="M181.5,101.25h95.66c8.25,0,16.17,6.65,17.6,14.77l3.47,19.65c1.43,8.12,6.29,14.77,10.8,14.77
			s7.03-6.65,5.6-14.77l-12.14-68.85c-1.43-8.12,1.09-14.77,5.59-14.77c4.51,0,9.37,6.65,10.8,14.77l3.47,19.65
			c1.43,8.12,9.35,14.77,17.6,14.77h88.52"/>
	</g>
	<g>
		<polygon class="st21" points="435.62,101.25 480,75.63 480,126.88 435.62,152.5 		"/>
		<polygon class="st21" points="391.24,75.63 435.62,101.25 435.62,152.5 391.24,126.88 		"/>
		<polygon class="st21" points="391.24,75.63 435.62,50 457.81,62.82 413.43,88.44 		"/>
		<polygon class="st21" points="413.43,88.44 457.81,62.82 480,75.63 435.62,101.25 		"/>
		<g>
			<polygon class="st22" points="435.62,101.25 450.21,92.83 450.21,109.68 435.62,118.1 			"/>
			<polygon class="st22" points="421.03,92.83 435.62,101.25 435.62,118.1 421.03,109.68 			"/>
			<polygon class="st22" points="435.62,84.4 421.03,92.83 435.62,101.25 450.21,92.83 			"/>
		</g>
		<path class="st23" d="M402.25,118.12l1.6,2.99l0.72-0.39l0,0l-2.37-4.43c-0.06-0.1-0.15-0.18-0.27-0.21
			c-0.11-0.03-0.24,0-0.33,0.07l-1.99,1.42l-2.15-4.02c-0.05-0.1-0.15-0.18-0.27-0.21c-0.11-0.03-0.24,0-0.33,0.07l-2.37,1.69
			l0.48,0.67l1.72-1.23v9.37l-1.76-1.01l-0.41,0.71l4.74,2.74l0.16-0.27l-0.16,0.27l4.74,2.74l0.41-0.71l-2.16-1.25V118.12z
			 M397.51,124.39v-9l1.6,2.99c0.06,0.1,0.15,0.18,0.27,0.2c0.12,0.03,0.23,0,0.33-0.07l1.72-1.23v9.36l-1.76-1.01l0,0
			L397.51,124.39z"/>
		<g>
			<line class="st24" x1="391.24" y1="75.63" x2="435.62" y2="101.25"/>
			<line class="st24" x1="480" y1="75.63" x2="435.62" y2="101.25"/>
			<line class="st24" x1="435.62" y1="101.25" x2="435.62" y2="152.5"/>
		</g>
		<polygon class="st23" points="409.92,86.41 409.92,96.95 411.67,96.21 413.43,98.98 415.19,98.24 416.94,101.01 416.94,90.47 		
			"/>
		<polygon class="st23" points="454.3,60.79 461.33,64.84 416.94,90.47 409.92,86.41 		"/>
		<polygon class="st25" points="457.39,62.59 458.22,63.05 413.84,88.68 413.01,88.19 		"/>
		<g>
			<g>
				<path class="st26" d="M470.89,119.98V81.72l-9.23,5.33v38.26c0,0.49,0.4,0.66,0.89,0.37l7.46-4.31
					C470.49,121.1,470.89,120.47,470.89,119.98z"/>
				<g>
					<path class="st13" d="M468.98,85.66c0,0.37-0.06,0.74-0.19,1.13c-0.13,0.38-0.31,0.76-0.55,1.12c-0.24,0.36-0.52,0.7-0.86,1.02
						c-0.33,0.32-0.7,0.59-1.11,0.83c-0.4,0.23-0.77,0.38-1.1,0.45c-0.33,0.07-0.62,0.06-0.86-0.03c-0.24-0.09-0.42-0.25-0.56-0.48
						c-0.13-0.23-0.2-0.53-0.2-0.91c0-0.37,0.07-0.75,0.2-1.14c0.13-0.38,0.32-0.76,0.55-1.12c0.24-0.36,0.52-0.7,0.86-1.02
						c0.33-0.32,0.7-0.59,1.11-0.82c0.41-0.24,0.78-0.39,1.11-0.45c0.33-0.07,0.62-0.06,0.86,0.03c0.24,0.09,0.42,0.25,0.55,0.49
						C468.92,84.99,468.98,85.29,468.98,85.66z M464.43,88.28c0,0.22,0.04,0.41,0.13,0.54c0.08,0.14,0.2,0.23,0.36,0.28
						c0.16,0.04,0.35,0.04,0.58-0.02c0.23-0.06,0.49-0.17,0.77-0.33c0.29-0.17,0.55-0.36,0.78-0.56c0.23-0.21,0.42-0.42,0.57-0.65
						c0.16-0.23,0.27-0.45,0.36-0.69c0.08-0.23,0.12-0.46,0.12-0.68c0-0.22-0.04-0.4-0.12-0.54c-0.08-0.14-0.2-0.23-0.36-0.28
						c-0.16-0.05-0.35-0.04-0.58,0.01c-0.23,0.06-0.48,0.17-0.77,0.33c-0.29,0.17-0.55,0.35-0.77,0.56
						c-0.23,0.21-0.42,0.42-0.58,0.65c-0.16,0.23-0.28,0.46-0.36,0.69C464.47,87.83,464.43,88.06,464.43,88.28z"/>
					<path class="st13" d="M466.3,94.83c-1.77,1.02-2.66,0.64-2.66-1.15v-1.73l5.26-3.03v1.73C468.9,92.44,468.03,93.83,466.3,94.83
						z M466.3,93.83c0.27-0.15,0.5-0.32,0.71-0.49c0.21-0.17,0.39-0.37,0.53-0.58c0.15-0.21,0.26-0.45,0.33-0.71
						c0.08-0.26,0.12-0.56,0.12-0.89v-0.74l-3.45,1.99v0.74c0,0.33,0.04,0.58,0.12,0.75c0.08,0.17,0.2,0.28,0.34,0.32
						c0.15,0.04,0.33,0.03,0.55-0.04C465.77,94.11,466.02,93.99,466.3,93.83z"/>
					<path class="st13" d="M463.56,99.21c0-0.33,0.03-0.63,0.1-0.9c0.07-0.27,0.16-0.52,0.27-0.74c0.11-0.22,0.24-0.42,0.4-0.6
						c0.15-0.18,0.32-0.34,0.49-0.48c0.17-0.15,0.35-0.28,0.53-0.39c0.18-0.12,0.36-0.23,0.54-0.33l3.01-1.74V95l-3,1.73
						c-0.3,0.17-0.54,0.34-0.73,0.5c-0.19,0.16-0.33,0.32-0.44,0.47c-0.11,0.16-0.18,0.32-0.21,0.48c-0.04,0.16-0.06,0.33-0.06,0.51
						c0,0.18,0.02,0.33,0.06,0.45c0.04,0.12,0.11,0.19,0.22,0.23c0.11,0.03,0.25,0.02,0.44-0.04c0.19-0.06,0.43-0.18,0.73-0.35
						l3-1.73v0.99l-3.01,1.74c-0.37,0.21-0.69,0.37-0.98,0.47c-0.29,0.1-0.53,0.13-0.73,0.09c-0.2-0.04-0.35-0.17-0.46-0.38
						C463.61,99.94,463.56,99.63,463.56,99.21z"/>
					<path class="st13" d="M467.08,103.59c0.16-0.1,0.3-0.22,0.42-0.36c0.13-0.14,0.23-0.28,0.32-0.44c0.09-0.16,0.16-0.32,0.2-0.48
						c0.05-0.17,0.07-0.33,0.07-0.49c0-0.23-0.04-0.41-0.12-0.54c-0.08-0.13-0.2-0.22-0.35-0.26c-0.16-0.04-0.35-0.03-0.58,0.04
						c-0.23,0.06-0.49,0.18-0.79,0.35c-0.29,0.17-0.56,0.36-0.78,0.56c-0.23,0.2-0.42,0.41-0.58,0.63
						c-0.16,0.22-0.28,0.44-0.36,0.66c-0.08,0.23-0.12,0.45-0.12,0.67c0,0.17,0.02,0.31,0.07,0.42c0.05,0.11,0.12,0.19,0.21,0.24
						c0.09,0.05,0.21,0.07,0.34,0.05c0.14-0.02,0.29-0.07,0.47-0.15v1c-0.31,0.15-0.59,0.24-0.84,0.26
						c-0.24,0.02-0.45-0.02-0.62-0.11c-0.17-0.1-0.29-0.25-0.38-0.45c-0.09-0.2-0.13-0.45-0.13-0.75c0-0.38,0.06-0.76,0.19-1.13
						c0.13-0.38,0.31-0.74,0.55-1.09c0.24-0.35,0.52-0.68,0.86-0.99c0.33-0.31,0.71-0.58,1.12-0.82c0.41-0.24,0.79-0.4,1.12-0.47
						c0.33-0.08,0.62-0.08,0.86,0c0.24,0.08,0.42,0.23,0.55,0.46c0.13,0.23,0.19,0.53,0.19,0.9c0,0.28-0.04,0.58-0.14,0.88
						c-0.09,0.3-0.22,0.6-0.39,0.89c-0.17,0.29-0.37,0.57-0.6,0.83c-0.23,0.26-0.49,0.49-0.78,0.68V103.59z"/>
					<path class="st13" d="M467.99,108.59v-1.63l-4.35,2.51v-0.98l4.35-2.51v-1.63l0.9-0.52v4.24L467.99,108.59z"/>
					<path class="st13" d="M463.64,112.57v-0.98l5.26-3.03v0.98L463.64,112.57z"/>
					<path class="st13" d="M468.98,112.63c0,0.37-0.06,0.74-0.19,1.13c-0.13,0.38-0.31,0.76-0.55,1.12
						c-0.24,0.36-0.52,0.7-0.86,1.02c-0.33,0.32-0.7,0.59-1.11,0.83c-0.4,0.23-0.77,0.38-1.1,0.45c-0.33,0.07-0.62,0.06-0.86-0.03
						c-0.24-0.09-0.42-0.25-0.56-0.48c-0.13-0.23-0.2-0.53-0.2-0.91c0-0.37,0.07-0.75,0.2-1.14c0.13-0.38,0.32-0.76,0.55-1.12
						c0.24-0.36,0.52-0.7,0.86-1.02c0.33-0.32,0.7-0.59,1.11-0.82c0.41-0.24,0.78-0.39,1.11-0.46c0.33-0.07,0.62-0.06,0.86,0.03
						c0.24,0.09,0.42,0.25,0.55,0.49C468.92,111.96,468.98,112.26,468.98,112.63z M464.43,115.25c0,0.22,0.04,0.41,0.13,0.54
						c0.08,0.14,0.2,0.23,0.36,0.27c0.16,0.04,0.35,0.04,0.58-0.02c0.23-0.06,0.49-0.17,0.77-0.33c0.29-0.17,0.55-0.36,0.78-0.56
						c0.23-0.21,0.42-0.42,0.57-0.65c0.16-0.23,0.27-0.45,0.36-0.69s0.12-0.46,0.12-0.68c0-0.22-0.04-0.4-0.12-0.54
						c-0.08-0.14-0.2-0.23-0.36-0.28c-0.16-0.05-0.35-0.04-0.58,0.01c-0.23,0.06-0.48,0.16-0.77,0.33
						c-0.29,0.17-0.55,0.35-0.77,0.56c-0.23,0.21-0.42,0.42-0.58,0.65c-0.16,0.23-0.28,0.46-0.36,0.69
						C464.47,114.8,464.43,115.03,464.43,115.25z"/>
					<path class="st13" d="M463.64,123.13v-0.92l3.52-4.37l-3.52,2.03v-0.95l5.26-3.03v0.93l-3.52,4.37l3.52-2.03v0.95
						L463.64,123.13z"/>
				</g>
			</g>
			<g>
				<path class="st27" d="M470.89,81.72l-8.67-5.01c-0.42-0.24-1.17-0.21-1.65,0.07l-7.46,4.31c-0.49,0.28-0.54,0.71-0.12,0.95
					l8.67,5.01L470.89,81.72z"/>
				<g>
					<path class="st2" d="M460.9,78.25l1.75,1.01c0.16,0.09,0.3,0.18,0.43,0.28c0.13,0.1,0.24,0.2,0.32,0.3
						c0.08,0.1,0.14,0.21,0.18,0.32c0.03,0.11,0.03,0.22-0.01,0.34c-0.04,0.11-0.12,0.23-0.23,0.35c-0.12,0.12-0.28,0.24-0.49,0.36
						c-0.56,0.32-1.12,0.48-1.7,0.47c-0.57-0.01-1.15-0.18-1.73-0.51l-0.94-0.54l-1.98,1.14l-0.85-0.49L460.9,78.25z M459.37,80.12
						l0.95,0.55c0.16,0.09,0.3,0.16,0.45,0.2c0.14,0.04,0.28,0.07,0.41,0.07c0.13,0,0.26-0.01,0.39-0.05
						c0.13-0.04,0.25-0.09,0.38-0.16c0.15-0.09,0.25-0.17,0.29-0.25c0.04-0.08,0.05-0.16,0.02-0.24c-0.03-0.08-0.09-0.15-0.18-0.22
						c-0.09-0.07-0.19-0.14-0.31-0.21l-0.93-0.54L459.37,80.12z"/>
					<path class="st2" d="M463.64,85.9l-0.91-0.53l1-1.08c0.07-0.08,0.12-0.15,0.15-0.23c0.03-0.08,0.04-0.15,0.03-0.23
						c-0.01-0.07-0.04-0.15-0.09-0.21c-0.05-0.07-0.12-0.13-0.21-0.18l-0.91-0.53l-2.11,1.22l-0.85-0.49l5.26-3.03l2.04,1.18
						c0.12,0.07,0.24,0.14,0.34,0.21c0.11,0.07,0.2,0.14,0.27,0.21c0.08,0.07,0.14,0.15,0.18,0.23c0.04,0.08,0.07,0.17,0.07,0.27
						c0,0.09-0.02,0.17-0.05,0.26c-0.04,0.08-0.08,0.17-0.15,0.25c-0.06,0.08-0.14,0.16-0.23,0.23c-0.09,0.07-0.19,0.14-0.3,0.2
						c-0.32,0.19-0.66,0.31-1.03,0.36c-0.36,0.06-0.73,0.05-1.08-0.02c0.02,0.21-0.09,0.46-0.34,0.74L463.64,85.9z M463.59,82.39
						l1.13,0.65c0.15,0.09,0.29,0.16,0.43,0.21c0.13,0.05,0.26,0.08,0.39,0.08c0.12,0.01,0.25-0.01,0.37-0.04
						c0.12-0.03,0.25-0.09,0.38-0.16c0.23-0.13,0.34-0.27,0.33-0.41c-0.02-0.14-0.16-0.28-0.42-0.43l-1.22-0.7L463.59,82.39z"/>
				</g>
			</g>
		</g>
	</g>
	<g>
		<polygon class="st21" points="181.5,101.25 225.88,75.63 225.88,126.88 181.5,152.5 		"/>
		<polygon class="st21" points="137.11,75.63 181.5,101.25 181.5,152.5 137.11,126.88 		"/>
		<polygon class="st21" points="137.11,75.63 181.5,50 203.69,62.82 159.31,88.44 		"/>
		<polygon class="st21" points="159.31,88.44 203.69,62.82 225.88,75.63 181.5,101.25 		"/>
		<g>
			<polygon class="st22" points="181.5,101.25 196.09,92.83 196.09,109.68 181.5,118.1 			"/>
			<polygon class="st22" points="166.91,92.83 181.5,101.25 181.5,118.1 166.91,109.68 			"/>
			<polygon class="st22" points="181.5,84.4 166.91,92.83 181.5,101.25 196.09,92.83 			"/>
		</g>
		<path class="st23" d="M148.12,118.12l1.6,2.99l0.72-0.39l0,0l-2.37-4.43c-0.06-0.1-0.15-0.18-0.27-0.21
			c-0.11-0.03-0.24,0-0.33,0.07l-1.99,1.42l-2.15-4.02c-0.06-0.1-0.15-0.18-0.27-0.21c-0.11-0.03-0.24,0-0.33,0.07l-2.37,1.69
			l0.48,0.67l1.72-1.23v9.37l-1.76-1.01l-0.41,0.71l4.74,2.74l0.16-0.27l-0.16,0.27l4.74,2.74l0.41-0.71l-2.16-1.25V118.12z
			 M143.38,124.39v-9l1.6,2.99c0.06,0.1,0.15,0.18,0.27,0.2c0.12,0.03,0.23,0,0.33-0.07l1.72-1.23v9.36l-1.76-1.01l0,0
			L143.38,124.39z"/>
		<g>
			<line class="st24" x1="137.11" y1="75.63" x2="181.5" y2="101.25"/>
			<line class="st24" x1="225.88" y1="75.63" x2="181.5" y2="101.25"/>
			<line class="st24" x1="181.5" y1="101.25" x2="181.5" y2="152.5"/>
		</g>
		<polygon class="st23" points="155.79,86.41 155.79,96.95 157.55,96.21 159.31,98.98 161.06,98.24 162.82,101.01 162.82,90.47 		
			"/>
		<polygon class="st23" points="200.17,60.79 207.2,64.84 162.82,90.47 155.79,86.41 		"/>
		<polygon class="st25" points="203.26,62.59 204.09,63.05 159.72,88.68 158.88,88.19 		"/>
		<g>
			<g>
				<path class="st28" d="M216.77,108.32V81.72l-7.99,4.62v26.61c0,0.49,0.35,0.69,0.77,0.44l6.46-3.73
					C216.42,109.41,216.77,108.81,216.77,108.32z"/>
				<g>
					<path class="st13" d="M215.23,88.18l-4.96,0.63v-0.99l4.96-5.09v1.15l-3.7,3.71l3.7-0.56V88.18z"/>
					<path class="st13" d="M210.27,95.74v-4.38l4.96-2.86v4.25l-0.85,0.49v-3.19l-1.12,0.65v2.98l-0.85,0.49V91.2l-1.29,0.74v3.31
						L210.27,95.74z"/>
					<path class="st13" d="M210.27,100.18v-3.69l4.96-2.86v1.07l-4.11,2.37v2.63L210.27,100.18z"/>
					<path class="st13" d="M215.31,100.34c0,0.4-0.06,0.8-0.18,1.21c-0.12,0.41-0.29,0.8-0.52,1.17c-0.22,0.37-0.49,0.72-0.81,1.04
						c-0.31,0.32-0.66,0.59-1.05,0.81c-0.38,0.22-0.73,0.35-1.04,0.4c-0.31,0.05-0.58,0.01-0.81-0.1c-0.23-0.11-0.4-0.3-0.53-0.57
						c-0.12-0.27-0.19-0.6-0.19-1.01c0-0.41,0.06-0.81,0.19-1.22c0.12-0.41,0.3-0.8,0.52-1.17c0.22-0.37,0.49-0.72,0.81-1.03
						c0.32-0.32,0.66-0.58,1.04-0.8c0.39-0.22,0.74-0.36,1.05-0.4c0.32-0.04,0.58-0.01,0.81,0.11c0.22,0.12,0.4,0.31,0.52,0.58
						C215.25,99.61,215.31,99.94,215.31,100.34z M211.02,102.82c0,0.24,0.04,0.45,0.12,0.6c0.08,0.16,0.2,0.27,0.34,0.33
						c0.15,0.06,0.33,0.07,0.54,0.03c0.21-0.04,0.46-0.14,0.73-0.3c0.28-0.16,0.52-0.34,0.73-0.55c0.21-0.21,0.4-0.43,0.54-0.66
						c0.15-0.23,0.26-0.47,0.34-0.72c0.08-0.25,0.12-0.49,0.12-0.73c0-0.24-0.04-0.44-0.12-0.6c-0.08-0.16-0.19-0.27-0.34-0.34
						c-0.15-0.06-0.33-0.08-0.54-0.03c-0.21,0.04-0.46,0.14-0.73,0.3c-0.27,0.16-0.52,0.34-0.73,0.55c-0.21,0.21-0.4,0.43-0.54,0.66
						c-0.15,0.23-0.26,0.47-0.34,0.72C211.06,102.33,211.02,102.57,211.02,102.82z"/>
					<path class="st13" d="M215.23,103.88v2.2c0,0.2-0.01,0.39-0.03,0.59c-0.02,0.2-0.05,0.39-0.1,0.59
						c-0.04,0.19-0.11,0.38-0.18,0.56c-0.07,0.18-0.17,0.36-0.28,0.52c-0.11,0.17-0.25,0.32-0.4,0.47
						c-0.15,0.14-0.33,0.27-0.53,0.39c-0.53,0.31-0.92,0.35-1.19,0.13c-0.27-0.22-0.4-0.69-0.4-1.42v-1.18l-1.87,1.08v-1.07
						L215.23,103.88z M212.99,106.24v1.2c0,0.2,0.02,0.35,0.05,0.47c0.03,0.12,0.08,0.21,0.14,0.26c0.06,0.05,0.13,0.07,0.22,0.06
						c0.09-0.01,0.19-0.05,0.31-0.12c0.14-0.08,0.26-0.18,0.34-0.29c0.09-0.11,0.16-0.23,0.2-0.36c0.05-0.13,0.08-0.27,0.1-0.41
						c0.02-0.14,0.02-0.29,0.02-0.44v-1.17L212.99,106.24z"/>
				</g>
			</g>
			<g>
				<path class="st29" d="M216.77,81.72l-10.8-6.23c-0.49-0.28-1.23-0.31-1.65-0.07l-6.46,3.73c-0.42,0.24-0.37,0.67,0.12,0.95
					l10.8,6.23L216.77,81.72z"/>
				<path class="st2" d="M207.68,81.08c-1.67,0.96-3.48,0.88-5.43-0.24l-1.89-1.09l4.96-2.86l1.89,1.09
					C209.16,79.1,209.31,80.13,207.68,81.08z M206.59,80.45c0.25-0.14,0.45-0.29,0.59-0.44c0.14-0.15,0.21-0.3,0.21-0.46
					c0-0.16-0.09-0.33-0.25-0.51c-0.16-0.18-0.42-0.37-0.78-0.58l-0.81-0.47l-3.26,1.88l0.81,0.47c0.36,0.21,0.69,0.36,1,0.45
					c0.31,0.09,0.61,0.14,0.89,0.14c0.28,0,0.55-0.04,0.82-0.13C206.07,80.71,206.33,80.6,206.59,80.45z"/>
				<path class="st2" d="M210.29,85.48l-4.38-2.53l4.96-2.86l4.25,2.46l-0.85,0.49l-3.19-1.84l-1.12,0.65l2.98,1.72l-0.85,0.49
					l-2.98-1.72l-1.29,0.74l3.31,1.91L210.29,85.48z"/>
			</g>
		</g>
	</g>
</g>
</svg>
