<?xml version="1.0" encoding="utf-8"?>
<!-- Generator: Adobe Illustrator 24.0.1, SVG Export Plug-In . SVG Version: 6.00 Build 0)  -->
<svg version="1.1" id="Layer_1" xmlns="http://www.w3.org/2000/svg" xmlns:xlink="http://www.w3.org/1999/xlink" x="0px" y="0px"
	 viewBox="0 0 600 200" style="enable-background:new 0 0 600 200;" xml:space="preserve">
<style type="text/css">
	.st0{fill:#D8C4FF;stroke:#8C73C8;stroke-width:2;stroke-linecap:round;stroke-linejoin:round;}
	.st1{fill:#FFFFFF;stroke:#C3A6FF;stroke-width:2;}
	.st2{fill:#FFFFFF;stroke:#8C73C8;stroke-width:2;stroke-linecap:round;stroke-linejoin:round;}
	.st3{fill:none;stroke:#8C73C8;stroke-width:2;stroke-linecap:round;stroke-linejoin:round;}
	.st4{fill:#8C73C8;}
	.st5{fill:#C3A6FF;}
	.st6{fill:none;stroke:#FFFFFF;}
	.st7{fill:none;stroke:#69A3FF;stroke-width:2;stroke-linecap:round;stroke-linejoin:round;}
	.st8{fill:#BFD9FF;}
	.st9{display:none;}
	.st10{display:inline;fill:none;stroke:#E6E600;stroke-width:2;stroke-linecap:round;stroke-linejoin:round;}
	.st11{fill:#69A3FF;}
	.st12{fill:#FFFFC8;}
	.st13{fill:#FFFFC8;stroke:#E6E600;stroke-width:2;stroke-linecap:round;stroke-linejoin:round;}
	.st14{display:none;fill:none;stroke:#E6E600;stroke-width:2;stroke-linecap:round;stroke-linejoin:round;}
	.st15{fill:none;stroke:#E6E600;stroke-width:2;stroke-linecap:round;stroke-linejoin:round;}
	.st16{fill:#C3A6FF;stroke:#8C73C8;stroke-width:2;stroke-linecap:round;stroke-linejoin:round;}
	.st17{fill:#C8FFC8;}
	.st18{fill:none;stroke:#00D082;stroke-width:2;}
	.st19{fill:#FFC8C8;}
	.st20{fill:none;stroke:#FFCCCC;stroke-width:2;stroke-linecap:round;stroke-linejoin:round;stroke-dasharray:3,6,6,3,8,4;}
	.st21{display:none;fill:none;stroke:#8C73C8;stroke-width:2;stroke-linecap:round;stroke-linejoin:round;}
	.st22{display:inline;}
	.st23{fill:none;}
	.st24{fill:#C3A6FF;stroke:#8C73C8;stroke-width:2;stroke-linecap:round;stroke-linejoin:round;stroke-miterlimit:4;}
	.st25{display:inline;fill:#FFC8C8;}
	.st26{display:inline;fill:none;stroke:#E6464B;stroke-width:2;}
	.st27{fill:#FFC8C8;stroke:#E6464B;stroke-width:2;stroke-linecap:round;stroke-linejoin:round;}
	.st28{fill:none;stroke:#E6464B;stroke-width:2;stroke-linecap:round;stroke-linejoin:round;}
	.st29{fill:#FFFFFF;}
	.st30{fill:#DEDEDE;}
	.st31{fill:#EEEEEE;}
	.st32{fill:#CCCCCC;}
	.st33{fill:#999999;}
	.st34{fill:#85DEAA;}
	.st35{fill:#FF9794;}
	.st36{fill:#E6E6E6;}
	.st37{fill:none;stroke:#A0BAA0;stroke-dasharray:2,3;}
	.st38{fill:#D6D6D6;}
	.st39{fill:#FFFFFF;stroke:#FFFFFF;}
	.st40{fill:#FFCC99;}
	.st41{fill:none;stroke:#C8C8C8;stroke-width:0.5;}
	.st42{fill:#787878;}
	.st43{fill:none;stroke:#787878;stroke-linecap:round;stroke-linejoin:round;}
	.st44{fill:#787878;stroke:#787878;stroke-width:0.5;stroke-linecap:round;stroke-linejoin:round;}
	.st45{fill:none;stroke:#787878;stroke-width:0.5;stroke-linecap:round;stroke-linejoin:round;}
	.st46{fill:none;stroke:#787878;stroke-width:0.5;stroke-linecap:round;stroke-linejoin:round;stroke-dasharray:1,1;}
	.st47{fill:none;stroke:#C8C8C8;stroke-width:0.5;stroke-linecap:round;stroke-linejoin:round;}
	.st48{display:none;fill:none;stroke:#FFFFFF;stroke-width:2;}
	.st49{display:none;fill:url(#SVGID_1_);}
	.st50{fill:#646464;}
	.st51{fill:none;stroke:#969696;stroke-width:0.5;stroke-linecap:round;stroke-linejoin:round;}
	.st52{fill:#505050;}
	.st53{fill:#3FA9FF;}
	.st54{fill:#FF5FE3;}
	.st55{fill:#B0FF5F;}
	.st56{fill:#FFDD3F;}
	.st57{fill:#FFC29F;}
	.st58{fill:#787878;stroke:#787878;stroke-width:0.25;stroke-linecap:round;stroke-linejoin:round;}
	.st59{fill:none;stroke:#787878;stroke-width:0.25;stroke-linecap:round;stroke-linejoin:round;}
	.st60{fill:url(#SVGID_2_);}
	.st61{fill:none;stroke:#FFFFFF;stroke-linecap:round;stroke-linejoin:round;}
	.st62{fill:url(#SVGID_3_);}
	.st63{display:none;fill:#FFFFFF;}
	.st64{fill:#FFFFFF;stroke:#A0BAA0;stroke-dasharray:2,2;}
	.st65{fill:#63006F;}
	.st66{fill:#E300FF;}
	.st67{fill:#007A45;}
	.st68{fill:#00E681;}
	.st69{fill:#0034AD;}
	.st70{fill:#47ACFF;}
	.st71{fill:#FF1E81;}
	.st72{fill:#38D87F;}
</style>
<g>
	<g>
		<path class="st0" d="M-344.5-394.5h62.3c5.8,0,10.4-4.7,10.4-10.4s-4.7-10.4-10.4-10.4h-62.3V-394.5z"/>
		<g>
			<path class="st1" d="M-326.9-405c0,3-2.4,5.4-5.4,5.4c-3,0-5.4-2.4-5.4-5.4c0-3,2.4-5.4,5.4-5.4
				C-329.3-410.4-326.9-408-326.9-405z"/>
			<path class="st1" d="M-310.8-405c0,3-2.4,5.4-5.4,5.4s-5.4-2.4-5.4-5.4c0-3,2.4-5.4,5.4-5.4C-313.2-410.4-310.8-408-310.8-405z"
				/>
			<path class="st1" d="M-294.7-405c0,3-2.4,5.4-5.4,5.4c-3,0-5.4-2.4-5.4-5.4c0-3,2.4-5.4,5.4-5.4S-294.7-408-294.7-405z"/>
			<path class="st1" d="M-278.6-405c0,3-2.4,5.4-5.4,5.4s-5.4-2.4-5.4-5.4c0-3,2.4-5.4,5.4-5.4C-281-410.4-278.6-408-278.6-405z"/>
		</g>
	</g>
	<g>
		<path class="st0" d="M-503.1-394.5h-62.3c-5.8,0-10.4-4.7-10.4-10.4s4.7-10.4,10.4-10.4h62.3L-503.1-394.5L-503.1-394.5z"/>
		<path class="st1" d="M-558.5-405c0,3-2.4,5.4-5.4,5.4c-3,0-5.4-2.4-5.4-5.4c0-3,2.4-5.4,5.4-5.4C-560.9-410.4-558.5-408-558.5-405
			z"/>
		<path class="st1" d="M-542.4-405c0,3-2.4,5.4-5.4,5.4c-3,0-5.4-2.4-5.4-5.4c0-3,2.4-5.4,5.4-5.4S-542.4-408-542.4-405z"/>
		<path class="st1" d="M-526.3-405c0,3-2.4,5.4-5.4,5.4s-5.4-2.4-5.4-5.4c0-3,2.4-5.4,5.4-5.4S-526.3-408-526.3-405z"/>
		<path class="st1" d="M-510.1-405c0,3-2.4,5.4-5.4,5.4c-3,0-5.4-2.4-5.4-5.4c0-3,2.4-5.4,5.4-5.4S-510.1-408-510.1-405z"/>
	</g>
	<polygon class="st0" points="-344.5,-464.3 -503.1,-464.3 -497.3,-490.6 -350.3,-490.6 	"/>
	<g>
		<g>
			<path class="st2" d="M-442.6-477.9c0,2.8,2.2,5,5,5c2.8,0,5-2.2,5-5c0-2.8-2.2-5-5-5C-440.4-482.9-442.6-480.6-442.6-477.9z"/>
			<line class="st3" x1="-437.6" y1="-477.9" x2="-437.6" y2="-472.8"/>
		</g>
		<g>
			<path class="st2" d="M-487.7-477.9c0,2.8,2.2,5,5,5c2.8,0,5-2.2,5-5c0-2.8-2.2-5-5-5C-485.4-482.9-487.7-480.6-487.7-477.9z"/>
			<line class="st3" x1="-482.7" y1="-477.9" x2="-482.7" y2="-472.8"/>
		</g>
		<g>
			<path class="st2" d="M-449.1-481.4c-2-2-5.2-2-7.1,0c-2,2-2,5.2,0,7.1c2,2,5.2,2,7.1,0C-447.1-476.3-447.1-479.5-449.1-481.4z"/>
			<line class="st3" x1="-452.6" y1="-477.9" x2="-456.2" y2="-481.4"/>
		</g>
		<g>
			<path class="st2" d="M-471.3-481.4c-2,2-2,5.2,0,7.1c2,2,5.2,2,7.1,0c2-2,2-5.2,0-7.1C-466.1-483.4-469.3-483.4-471.3-481.4z"/>
			<line class="st3" x1="-467.7" y1="-477.9" x2="-471.3" y2="-474.3"/>
		</g>
	</g>
	<g>
		<rect x="-375.3" y="-480.7" class="st2" width="6.4" height="6.4"/>
		<rect x="-385.5" y="-480.7" class="st2" width="6.4" height="6.4"/>
		<rect x="-395.8" y="-480.7" class="st2" width="6.4" height="6.4"/>
	</g>
	<rect x="-503.1" y="-464.3" class="st0" width="158.7" height="69.8"/>
	<circle class="st2" cx="-477.9" cy="-430" r="14.1"/>
	<path class="st4" d="M-476.8-430c0,0.6-0.5,1.2-1.2,1.2s-1.2-0.5-1.2-1.2s0.5-1.2,1.2-1.2S-476.8-430.7-476.8-430z"/>
	<path class="st4" d="M-476.8-439.4c0,0.6-0.5,1.2-1.2,1.2s-1.2-0.5-1.2-1.2s0.5-1.2,1.2-1.2S-476.8-440-476.8-439.4z"/>
	<path class="st4" d="M-476.8-434.7c0,0.6-0.5,1.2-1.2,1.2s-1.2-0.5-1.2-1.2s0.5-1.2,1.2-1.2C-477.3-435.9-476.8-435.3-476.8-434.7z
		"/>
	<path class="st4" d="M-476.8-425.3c0,0.6-0.5,1.2-1.2,1.2s-1.2-0.5-1.2-1.2s0.5-1.2,1.2-1.2S-476.8-426-476.8-425.3z"/>
	<path class="st4" d="M-476.8-420.7c0,0.6-0.5,1.2-1.2,1.2s-1.2-0.5-1.2-1.2s0.5-1.2,1.2-1.2C-477.3-421.8-476.8-421.3-476.8-420.7z
		"/>
	<path class="st4" d="M-483.7-437.5c0.5,0.5,0.5,1.2,0,1.6s-1.2,0.5-1.6,0s-0.5-1.2,0-1.6S-484.2-437.9-483.7-437.5z"/>
	<path class="st4" d="M-480.4-434.1c0.5,0.5,0.5,1.2,0,1.6s-1.2,0.5-1.6,0c-0.5-0.5-0.5-1.2,0-1.6
		C-481.6-434.6-480.9-434.6-480.4-434.1z"/>
	<path class="st4" d="M-473.8-427.5c0.5,0.5,0.5,1.2,0,1.6s-1.2,0.5-1.6,0s-0.5-1.2,0-1.6C-475-428-474.2-428-473.8-427.5z"/>
	<path class="st4" d="M-470.5-424.2c0.5,0.5,0.5,1.2,0,1.6s-1.2,0.5-1.6,0s-0.5-1.2,0-1.6C-471.7-424.7-470.9-424.7-470.5-424.2z"/>
	<path class="st4" d="M-487.3-431.2c0.6,0,1.2,0.5,1.2,1.2s-0.5,1.2-1.2,1.2s-1.2-0.5-1.2-1.2S-487.9-431.2-487.3-431.2z"/>
	<path class="st4" d="M-482.6-431.2c0.6,0,1.2,0.5,1.2,1.2s-0.5,1.2-1.2,1.2s-1.2-0.5-1.2-1.2S-483.2-431.2-482.6-431.2z"/>
	<path class="st4" d="M-473.2-431.2c0.6,0,1.2,0.5,1.2,1.2s-0.5,1.2-1.2,1.2s-1.2-0.5-1.2-1.2S-473.9-431.2-473.2-431.2z"/>
	<path class="st4" d="M-468.5-431.2c0.6,0,1.2,0.5,1.2,1.2s-0.5,1.2-1.2,1.2s-1.2-0.5-1.2-1.2S-469.2-431.2-468.5-431.2z"/>
	<path class="st4" d="M-485.4-424.2c0.5-0.5,1.2-0.5,1.6,0s0.5,1.2,0,1.6s-1.2,0.5-1.6,0C-485.8-423-485.8-423.8-485.4-424.2z"/>
	<path class="st4" d="M-482-427.5c0.5-0.5,1.2-0.5,1.6,0s0.5,1.2,0,1.6c-0.5,0.5-1.2,0.5-1.6,0C-482.5-426.4-482.5-427.1-482-427.5z
		"/>
	<path class="st4" d="M-475.4-434.1c0.5-0.5,1.2-0.5,1.6,0s0.5,1.2,0,1.6s-1.2,0.5-1.6,0C-475.9-433-475.9-433.7-475.4-434.1z"/>
	<path class="st4" d="M-472.1-437.5c0.5-0.5,1.2-0.5,1.6,0s0.5,1.2,0,1.6c-0.5,0.5-1.2,0.5-1.6,0
		C-472.6-436.3-472.6-437-472.1-437.5z"/>
	<rect x="-453.9" y="-444.4" class="st2" width="5.4" height="5.4"/>
	<rect x="-453.9" y="-432.2" class="st2" width="5.4" height="5.4"/>
	<rect x="-399.2" y="-444.4" class="st2" width="5.4" height="5.4"/>
	<rect x="-399.2" y="-432.2" class="st2" width="5.4" height="5.4"/>
	<line class="st3" x1="-443" y1="-415.6" x2="-419.3" y2="-415.6"/>
	<line class="st3" x1="-411.7" y1="-415.6" x2="-404.7" y2="-415.6"/>
	<path class="st2" d="M-411.7-415.7c0,2.1-1.7,3.8-3.8,3.8s-3.8-1.7-3.8-3.8s1.7-3.8,3.8-3.8C-413.4-419.5-411.7-417.8-411.7-415.7z
		"/>
	<path class="st3" d="M-512.2-452.8c1.3,0,2.3-1,2.3-2.3s-1-2.3-2.3-2.3h-10.9c-1.3,0-2.3,1-2.3,2.3s1,2.3,2.3,2.3h5.5"/>
	<path class="st3" d="M-522.3-452.8c0,0,0,4.6,0,7.5c0,5.4-5.8,13.2-9.7,17.8l0,0c-1.3,1.3-2.1,3.1-2.1,5c0,3.9,3.2,7.1,7.1,7.1
		h18.6c2,0,3.7-0.8,5-2.1v-10l0,0c-3.8-4.6-9.7-12.4-9.7-17.8c0-2.9,0-7.5,0-7.5h0.8c1.3,0,2.3-1,2.3-2.3s-1-2.3-2.3-2.3h-10.9
		c-1.3,0-2.3,1-2.3,2.3s1,2.3,2.3,2.3h5.5"/>
	<g>
		<rect x="-443" y="-446.9" class="st5" width="38.3" height="22.6"/>
		<g>
			<line class="st6" x1="-433.4" y1="-446.9" x2="-433.4" y2="-424.3"/>
			<line class="st6" x1="-423.8" y1="-446.9" x2="-423.8" y2="-424.3"/>
			<line class="st6" x1="-414.2" y1="-446.9" x2="-414.2" y2="-424.3"/>
			<line class="st6" x1="-443" y1="-439.4" x2="-404.7" y2="-439.4"/>
			<line class="st6" x1="-443" y1="-431.9" x2="-404.7" y2="-431.9"/>
		</g>
		<rect x="-443" y="-446.9" class="st3" width="38.3" height="22.6"/>
	</g>
	<rect x="-380.4" y="-441" class="st2" width="22" height="22"/>
	<rect x="-375.8" y="-435.2" class="st5" width="12.8" height="10.4"/>
	<line class="st3" x1="-375.8" y1="-441" x2="-375.8" y2="-438"/>
	<line class="st3" x1="-369.4" y1="-441" x2="-369.4" y2="-438"/>
	<line class="st3" x1="-363" y1="-441" x2="-363" y2="-438"/>
	<line class="st3" x1="-375.8" y1="-422" x2="-375.8" y2="-419"/>
	<line class="st3" x1="-369.4" y1="-422" x2="-369.4" y2="-419"/>
	<line class="st3" x1="-363" y1="-422" x2="-363" y2="-419"/>
	<g>
		<line class="st7" x1="-295.9" y1="-480.7" x2="-302.6" y2="-474.1"/>
		<line class="st7" x1="-302.6" y1="-480.7" x2="-295.9" y2="-474.1"/>
	</g>
	<polyline class="st7" points="-306.6,-485.4 -317,-475.1 -322.7,-480.8 	"/>
	<path class="st8" d="M-292.4-422.5c0-2-0.8-3.7-2.1-5l0,0c-1.9-2.3-4.4-5.5-6.4-8.7h-16c-2,3.2-4.4,6.4-6.4,8.7l0,0
		c-1.3,1.3-2.1,3.1-2.1,5c0,3.9,3.2,7.1,7.1,7.1h18.6C-295.6-415.4-292.4-418.6-292.4-422.5z"/>
	<path class="st3" d="M-313.5-452.8c0,0,0,4.6,0,7.5c0,5.4-5.8,13.2-9.7,17.8l0,0c-1.3,1.3-2.1,3.1-2.1,5c0,3.9,3.2,7.1,7.1,7.1
		h18.6c3.9,0,7.1-3.2,7.1-7.1c0-2-0.8-3.7-2.1-5l0,0c-3.8-4.6-9.7-12.4-9.7-17.8c0-2.9,0-7.5,0-7.5h0.8c1.3,0,2.3-1,2.3-2.3
		s-1-2.3-2.3-2.3h-10.9c-1.3,0-2.3,1-2.3,2.3s1,2.3,2.3,2.3h5.5"/>
	<g class="st9">
		<line class="st10" x1="-407.7" y1="-544.8" x2="-402.2" y2="-550.3"/>
		<line class="st10" x1="-439.9" y1="-544.8" x2="-444.7" y2="-549.7"/>
		<line class="st10" x1="-424.8" y1="-548.7" x2="-424.8" y2="-556.7"/>
	</g>
	<g>
		<line class="st3" x1="-532" y1="-427.5" x2="-520.7" y2="-427.5"/>
		<line class="st3" x1="-528.2" y1="-431.5" x2="-520.7" y2="-431.5"/>
		<line class="st3" x1="-526.1" y1="-435.5" x2="-520.7" y2="-435.5"/>
	</g>
	<g>
		<line class="st3" x1="-323.2" y1="-427.5" x2="-311.9" y2="-427.5"/>
		<line class="st3" x1="-319.4" y1="-431.5" x2="-311.9" y2="-431.5"/>
		<line class="st3" x1="-317.3" y1="-435.5" x2="-311.9" y2="-435.5"/>
	</g>
	<g>
		<path class="st11" d="M-307.7-463.4c0,0.6-0.5,1.2-1.2,1.2s-1.2-0.5-1.2-1.2s0.5-1.2,1.2-1.2S-307.7-464.1-307.7-463.4z"/>
		<path class="st11" d="M-307.7-471.8c0,0.6-0.5,1.2-1.2,1.2s-1.2-0.5-1.2-1.2s0.5-1.2,1.2-1.2S-307.7-472.4-307.7-471.8z"/>
		<line class="st7" x1="-312.2" y1="-467.6" x2="-305.5" y2="-467.6"/>
	</g>
	<path class="st12" d="M-446.5-519.3h45.3c0.1-0.7,0.2-1.3,0.2-2h-45.7C-446.6-520.6-446.6-519.9-446.5-519.3z M-423.8-545.3
		c-3.3,0-6.5,0.7-9.4,2h18.7C-417.3-544.6-420.5-545.3-423.8-545.3z M-445.6-515.3h43.5c0.2-0.7,0.4-1.3,0.5-2h-44.6
		C-446-516.6-445.8-515.9-445.6-515.3z M-436.4-503.3h25.1c0.9-0.6,1.8-1.3,2.6-2H-439C-438.2-504.6-437.3-503.9-436.4-503.3z
		 M-441-507.3h34.3c0.6-0.6,1.1-1.3,1.6-2h-37.5C-442.1-508.6-441.5-507.9-441-507.3z M-443.8-511.3h40c0.4-0.6,0.7-1.3,1-2h-42
		C-444.5-512.6-444.2-511.9-443.8-511.3z M-406.4-537.3h-34.7c-0.5,0.6-1.1,1.3-1.5,2h37.8C-405.4-536-405.9-536.7-406.4-537.3z
		 M-410.9-541.3h-25.8c-0.9,0.6-1.7,1.3-2.5,2h30.9C-409.2-540-410-540.7-410.9-541.3z M-423.8-499.5c3.1,0,6.1-0.6,8.8-1.8h-17.6
		C-429.9-500.1-426.9-499.5-423.8-499.5z M-402-529.3h-43.6c-0.2,0.7-0.4,1.3-0.5,2h44.7C-401.6-528-401.8-528.6-402-529.3z
		 M-401.1-525.3h-45.4c-0.1,0.7-0.1,1.3-0.2,2h45.7C-401-524-401-524.6-401.1-525.3z M-403.7-533.3h-40.3c-0.4,0.7-0.7,1.3-1,2h42.2
		C-403-532-403.3-532.6-403.7-533.3z"/>
	<g>
		<path class="st13" d="M-423.8-536.7c-9.5,0-16.7,8.5-15.2,17.8c0.3,1.8,9.1,22.4,8,22.4h14.3c-1.1,0,7.7-20.6,8-22.4
			C-407.1-528.2-414.3-536.7-423.8-536.7z"/>
		<path class="st14" d="M-435.2-524.1C-435.4-523.5-435.1-524.8-435.2-524.1"/>
		<path class="st14" d="M-423.2-533.3c-4.6,0-8.5,2.4-10.6,6"/>
		<path class="st14" d="M-425.9-496.4c0,0,0.3-13.1-5.2-20.2c1.1-3.5,2.4-6.4,2.4-6.4l2.4,6.4l2.4-6.4l2.4,6.4l2.4-6.4
			c0,0,1.3,2.9,2.4,6.4c-5.5,7-5.2,20.1-5.2,20.1"/>
		<path class="st15" d="M-425.7-496.4c0,0,0.4-22.8-5-22.8c-1.2,0-2.1,0.8-2.1,2.6s1.8,4.4,9,4.4c7.1,0,9-2.6,9-4.4
			s-0.9-2.6-2.1-2.6c-5.3,0-5,22.8-5,22.8"/>
		<rect x="-431.4" y="-496.4" class="st16" width="14.7" height="5.8"/>
	</g>
</g>
<g>
	<g>
		<g>
			<g>
				<path class="st8" d="M-81.5-415.7v3.6c0,1.6,1.3,2.9,2.8,2.9s2.8-1.3,2.8-2.9v-3.6H-81.5z"/>
				<path class="st3" d="M-81.5-438v25.9c0,1.6,1.3,2.9,2.8,2.9s2.8-1.3,2.8-2.9V-438H-81.5z"/>
				<line class="st3" x1="-82.8" y1="-438" x2="-74.4" y2="-438"/>
			</g>
			<g>
				<path class="st8" d="M-69.1-433.1v21c0,1.6,1.3,2.9,2.8,2.9c1.6,0,2.8-1.3,2.8-2.9v-21H-69.1z"/>
				<path class="st3" d="M-69.1-438v25.9c0,1.6,1.3,2.9,2.8,2.9c1.6,0,2.8-1.3,2.8-2.9V-438H-69.1z"/>
				<line class="st3" x1="-70.4" y1="-438" x2="-62.1" y2="-438"/>
			</g>
			<g>
				<path class="st8" d="M-56.7-415.7v3.6c0,1.6,1.3,2.9,2.8,2.9c1.6,0,2.8-1.3,2.8-2.9v-3.6H-56.7z"/>
				<path class="st3" d="M-56.7-438v25.9c0,1.6,1.3,2.9,2.8,2.9c1.6,0,2.8-1.3,2.8-2.9V-438H-56.7z"/>
				<line class="st3" x1="-58" y1="-438" x2="-49.7" y2="-438"/>
			</g>
		</g>
		<g>
			<path class="st8" d="M-63.6-444.7c0,1.5-1.3,2.8-2.8,2.8c-1.6,0-2.8-1.3-2.8-2.8c0-1.5,1.3-2.8,2.8-2.8
				C-64.8-447.5-63.6-446.2-63.6-444.7z"/>
			<path class="st8" d="M-67.1-450.2c0,1.1-0.9,2-1.9,2c-1.1,0-1.9-0.9-1.9-2s0.9-2,1.9-2C-67.9-452.2-67.1-451.3-67.1-450.2z"/>
			<path class="st8" d="M-64.7-453.7c0,0.7-0.6,1.3-1.3,1.3c-0.7,0-1.3-0.6-1.3-1.3c0-0.7,0.6-1.3,1.3-1.3
				C-65.2-455-64.7-454.4-64.7-453.7z"/>
		</g>
		<path class="st0" d="M-42.3-425.1h-47.8c-1.5,0-2.9,0.5-4.1,1.4v5.4v4.4v8.4h5v-12.8h46v12.8h5v-8.8v-4v-5.4
			C-39.4-424.6-40.8-425.1-42.3-425.1z"/>
	</g>
	<g>
		<rect x="7.8" y="-545.3" class="st0" width="12" height="32.7"/>
		<rect x="9.7" y="-553.5" class="st16" width="8.2" height="8.2"/>
		<line class="st3" x1="19.8" y1="-553.5" x2="7.8" y2="-553.5"/>
		<rect x="9.9" y="-512.6" class="st0" width="7.7" height="4"/>
		<path class="st0" d="M19.8-530.4v-9.7c15.7,0,28.5,12.8,28.5,28.5h-9.7C38.6-522,30.2-530.4,19.8-530.4z"/>
		<rect x="38.6" y="-511.6" class="st16" width="9.7" height="12.1"/>
		<rect x="1.8" y="-499.5" class="st0" width="51.2" height="6.3"/>
		<polygon class="st16" points="47.2,-486.9 53.1,-486.9 53.1,-493.2 45.5,-493.2 		"/>
		<polygon class="st16" points="7.7,-486.9 1.8,-486.9 1.8,-493.2 9.4,-493.2 		"/>
		<path class="st16" d="M23.8-538.2c0,2.9,2.4,5.2,5.2,5.2s5.2-2.3,5.2-5.2s-2.4-5.2-5.2-5.2S23.8-541.2,23.8-538.2z"/>
	</g>
	<g>
		<path class="st8" d="M-144.8-405.6h10c3.7,0,6.6-3,6.6-6.6h-23.3C-151.4-408.5-148.5-405.6-144.8-405.6z"/>
		<path class="st3" d="M-151.4-431.8v19.6c0,3.7,3,6.6,6.6,6.6h10c3.7,0,6.6-3,6.6-6.6v-19.6H-151.4z"/>
		<line class="st3" x1="-151.4" y1="-426.8" x2="-144.7" y2="-426.8"/>
		<line class="st3" x1="-151.4" y1="-421.8" x2="-144.7" y2="-421.8"/>
		<line class="st3" x1="-151.4" y1="-416.8" x2="-144.7" y2="-416.8"/>
	</g>
	<g>
		<rect x="-201.5" y="-486.9" class="st0" width="286.9" height="9.3"/>
		<polygon class="st0" points="-154.3,-460.5 -161.3,-460.5 -163,-477.6 -152.6,-477.6 		"/>
		<polygon class="st0" points="45.1,-460.5 38.1,-460.5 36.4,-477.6 46.8,-477.6 		"/>
	</g>
	<g>
		<rect x="-201.5" y="-405.6" class="st0" width="286.9" height="9.3"/>
		<polygon class="st0" points="-154.3,-379.2 -161.3,-379.2 -163,-396.3 -152.6,-396.3 		"/>
		<polygon class="st0" points="45.1,-379.2 38.1,-379.2 36.4,-396.3 46.8,-396.3 		"/>
	</g>
	<g>
		<path class="st8" d="M30.9-405.6l4.9-4.9v-20.5c0-3.2-0.8-6.2-2.1-8.9H-2.4c-1.3,2.7-2.1,5.7-2.1,8.9v20.5l4.9,4.9H30.9z"/>
		<path class="st3" d="M21.3-449.1h2.8c6.9,3.2,11.7,10.1,11.7,18.2v20.5l-4.3,4.9H-0.2l-4.3-4.9v-20.5c0-8.1,4.8-15,11.6-18.2h5.6"
			/>
		<rect x="4" y="-460.9" class="st0" width="23.3" height="5.9"/>
		<line class="st3" x1="7.2" y1="-449.1" x2="7.2" y2="-455"/>
		<line class="st3" x1="24.1" y1="-449.1" x2="24.1" y2="-455"/>
		<line class="st3" x1="-4.4" y1="-410.5" x2="35.8" y2="-410.5"/>
	</g>
	<g>
		<path class="st8" d="M-137.1-493.9c0-2-0.8-3.7-2.1-5l0,0c-1.9-2.3-4.4-5.5-6.4-8.7h-16c-1.9,3.2-4.4,6.4-6.4,8.7l0,0
			c-1.3,1.3-2.1,3-2.1,5c0,3.9,3.2,7.1,7.1,7.1h18.6C-140.2-486.9-137.1-490-137.1-493.9z"/>
		<g>
			<line class="st3" x1="-167.8" y1="-499" x2="-156.5" y2="-499"/>
			<line class="st3" x1="-164" y1="-502.9" x2="-156.5" y2="-502.9"/>
			<line class="st3" x1="-161.9" y1="-506.9" x2="-156.5" y2="-506.9"/>
		</g>
		<g>
			
				<rect x="-143.8" y="-564.3" transform="matrix(9.819675e-02 -0.9952 0.9952 9.819675e-02 426.1014 -627.7438)" class="st17" width="20.9" height="30.6"/>
			<polyline class="st18" points="-124.8,-553.4 -136.1,-544.1 -141.3,-550.3 			"/>
			<line class="st18" x1="-147.5" y1="-560.9" x2="-154.8" y2="-487"/>
		</g>
		<path class="st3" d="M-158.1-524.2c0,0,0,4.7,0,7.5c0,5.4-5.8,13.2-9.7,17.8l0,0c-1.3,1.3-2.1,3-2.1,5c0,3.9,3.2,7.1,7.1,7.1h18.6
			c3.9,0,7.1-3.2,7.1-7.1c0-2-0.8-3.7-2.1-5l0,0c-3.8-4.5-9.7-12.4-9.7-17.8c0-2.9,0-7.5,0-7.5h0.8c1.3,0,2.3-1,2.3-2.3
			c0-1.3-1-2.3-2.3-2.3h-10.9c-1.3,0-2.3,1-2.3,2.3c0,1.3,1.1,2.3,2.3,2.3h3.7"/>
	</g>
	<g>
		<path class="st8" d="M-88.8-493.9c0-2-0.8-3.7-2.1-5l0,0c-1.9-2.3-4.4-5.5-6.3-8.7h-16c-1.9,3.2-4.4,6.4-6.3,8.7l0,0
			c-1.3,1.3-2.1,3-2.1,5c0,3.9,3.2,7.1,7.1,7.1H-96C-92-486.9-88.8-490-88.8-493.9z"/>
		<g>
			<line class="st3" x1="-119.6" y1="-499" x2="-108.3" y2="-499"/>
			<line class="st3" x1="-115.8" y1="-502.9" x2="-108.3" y2="-502.9"/>
			<line class="st3" x1="-113.7" y1="-506.9" x2="-108.3" y2="-506.9"/>
		</g>
		<g>
			
				<rect x="-95.6" y="-564.3" transform="matrix(9.819675e-02 -0.9952 0.9952 9.819675e-02 469.5708 -579.7827)" class="st17" width="20.9" height="30.6"/>
			<polyline class="st18" points="-76.6,-553.4 -87.9,-544.1 -93.1,-550.3 			"/>
			<line class="st18" x1="-99.3" y1="-560.9" x2="-106.6" y2="-487"/>
		</g>
		<path class="st3" d="M-109.9-524.2c0,0,0,4.7,0,7.5c0,5.4-5.8,13.2-9.7,17.8l0,0c-1.3,1.3-2.1,3-2.1,5c0,3.9,3.2,7.1,7.1,7.1h18.6
			c3.9,0,7.1-3.2,7.1-7.1c0-2-0.8-3.7-2.1-5l0,0c-3.8-4.5-9.7-12.4-9.7-17.8c0-2.9,0-7.5,0-7.5h0.8c1.3,0,2.3-1,2.3-2.3
			c0-1.3-1-2.3-2.3-2.3h-10.9c-1.3,0-2.3,1-2.3,2.3c0,1.3,1.1,2.3,2.3,2.3h3.7"/>
	</g>
	<g>
		<path class="st8" d="M-40.7-493.9c0-2-0.8-3.7-2.1-5l0,0c-1.9-2.3-4.4-5.5-6.3-8.7h-16c-1.9,3.2-4.4,6.4-6.3,8.7l0,0
			c-1.3,1.3-2.1,3-2.1,5c0,3.9,3.2,7.1,7.1,7.1h18.6C-43.8-486.9-40.7-490-40.7-493.9z"/>
		<g>
			<line class="st3" x1="-71.4" y1="-499" x2="-60.1" y2="-499"/>
			<line class="st3" x1="-67.6" y1="-502.9" x2="-60.1" y2="-502.9"/>
			<line class="st3" x1="-65.5" y1="-506.9" x2="-60.1" y2="-506.9"/>
		</g>
		<g>
			
				<rect x="-47.4" y="-564.3" transform="matrix(9.819675e-02 -0.9952 0.9952 9.819675e-02 513.0399 -531.8216)" class="st17" width="20.9" height="30.6"/>
			<polyline class="st18" points="-28.4,-553.4 -39.7,-544.1 -44.9,-550.3 			"/>
			<line class="st18" x1="-51.1" y1="-560.9" x2="-58.4" y2="-487"/>
		</g>
		<path class="st3" d="M-61.7-524.2c0,0,0,4.7,0,7.5c0,5.4-5.8,13.2-9.7,17.8l0,0c-1.3,1.3-2.1,3-2.1,5c0,3.9,3.2,7.1,7.1,7.1h18.6
			c3.9,0,7.1-3.2,7.1-7.1c0-2-0.8-3.7-2.1-5l0,0c-3.8-4.5-9.7-12.4-9.7-17.8c0-2.9,0-7.5,0-7.5h0.8c1.3,0,2.3-1,2.3-2.3
			c0-1.3-1-2.3-2.3-2.3h-10.9c-1.3,0-2.3,1-2.3,2.3c0,1.3,1,2.3,2.3,2.3h3.7"/>
	</g>
</g>
<g>
	<rect x="208" y="-403.7" class="st0" width="29" height="7"/>
	<rect x="219.6" y="-415.4" class="st0" width="5.8" height="11.7"/>
	<path class="st19" d="M222.5-432.2c-1.8,0-3.2,5.5-3.2,7.9c0,1.8,0.8,3.4,1.9,4.1c-0.2-0.5-0.4-1.1-0.4-1.8c0-1.5,0.8-4.9,1.7-4.9
		s1.7,3.4,1.7,4.9c0,0.7-0.2,1.3-0.4,1.8c1.1-0.7,1.9-2.2,1.9-4.1C225.7-426.8,224.3-432.2,222.5-432.2z"/>
	<g>
		<path class="st20" d="M259.3-510.3l11.8-11.8l-0.1,0.1c1.5-1.5,3.5-2.5,5.8-2.5c4.5,0,8.1,3.6,8.1,8.1v11.6c0,4.5,3.6,8.1,8.1,8.1
			h41.5c4.5,0,8.1,3.6,8.1,8.1l0,0c0,4.5-3.7,8.1-8.1,8.1H293c-4.5,0-8.1,3.7-8.1,8.1l0,0c0,4.5,3.7,8.1,8.1,8.1h41.5
			c4.5,0,8.1,3.7,8.1,8.1l0,0c0,4.5-3.7,8.1-8.1,8.1H293c-4.5,0-8.1,3.6-8.1,8.1l0,0c0,4.5,3.7,8.1,8.1,8.1h41.5
			c4.5,0,8.1,3.7,8.1,8.1l0,0c0,4.5-3.7,8.1-8.1,8.1H293c-4.5,0-8.1,3.7-8.1,8.1l0,0c0,4.5,3.7,8.1,8.1,8.1h83.6
			c4.5,0,8.1-3.6,8.1-8.1v-45.4"/>
		<path class="st3" d="M293-396.8c-5.8,0-10.4-4.7-10.4-10.4l0,0c0-5.8,4.7-10.4,10.4-10.4l0,0h41.5c3.2,0,5.8-2.6,5.8-5.8l0,0
			c0-3.2-2.6-5.8-5.8-5.8l0,0H293c-5.8,0-10.4-4.7-10.4-10.4l0,0c0-5.8,4.7-10.4,10.4-10.4l0,0h41.5c3.2,0,5.8-2.6,5.8-5.8l0,0
			c0-3.2-2.6-5.8-5.8-5.8l0,0H293c-5.8,0-10.4-4.7-10.4-10.4l0,0c0-5.8,4.7-10.4,10.4-10.4l0,0h41.5c3.2,0,5.8-2.6,5.8-5.8l0,0
			c0-3.2-2.6-5.8-5.8-5.8l0,0H293c-5.8,0-10.4-4.7-10.4-10.4l0,0v-11.7c0-3.2-2.6-5.8-5.8-5.8l0,0c-1.6,0-3,0.6-4,1.6l0,0l0,0
			l-11.8,11.8l-3.3-3.3l11.6-11.6l0,0c1.9-1.9,4.5-3.2,7.5-3.2l0,0c5.8,0,10.4,4.7,10.4,10.4l0,0v11.6c0,3.2,2.6,5.8,5.8,5.8l0,0
			h41.5c5.8,0,10.4,4.7,10.4,10.4l0,0c0,5.8-4.7,10.4-10.4,10.4l0,0H293c-3.2,0-5.8,2.6-5.8,5.8l0,0c0,3.2,2.6,5.8,5.8,5.8l0,0h41.5
			c5.8,0,10.4,4.7,10.4,10.5l0,0c0,5.8-4.7,10.4-10.4,10.4l0,0H293c-3.2,0-5.8,2.6-5.8,5.8l0,0c0,3.2,2.6,5.8,5.8,5.8l0,0h41.5
			c5.8,0,10.4,4.7,10.4,10.4l0,0c0,5.8-4.7,10.4-10.4,10.4l0,0H293c-3.2,0-5.8,2.6-5.8,5.8l0,0c0,3.2,2.6,5.8,5.8,5.8l0,0h83.6
			c3.2,0,5.8-2.6,5.8-5.8l0,0v-57h4.6v57c0,5.8-4.7,10.4-10.4,10.4l0,0L293-396.8L293-396.8z M260.9-508.7L260.9-508.7L260.9-508.7
			L260.9-508.7L260.9-508.7z"/>
	</g>
	<path class="st21" d="M259.3-510.3l11.8-11.8l-0.1,0.1c1.5-1.5,3.5-2.5,5.8-2.5c4.5,0,8.1,3.6,8.1,8.1v11.6c0,4.5,3.6,8.1,8.1,8.1
		h41.5c4.5,0,8.1,3.6,8.1,8.1l0,0c0,4.5-3.7,8.1-8.1,8.1H293c-4.5,0-8.1,3.7-8.1,8.1l0,0c0,4.5,3.7,8.1,8.1,8.1h41.5
		c4.5,0,8.1,3.7,8.1,8.1l0,0c0,4.5-3.7,8.1-8.1,8.1H293c-4.5,0-8.1,3.6-8.1,8.1l0,0c0,4.5,3.7,8.1,8.1,8.1h41.5
		c4.5,0,8.1,3.7,8.1,8.1l0,0c0,4.5-3.7,8.1-8.1,8.1H293c-4.5,0-8.1,3.7-8.1,8.1l0,0c0,4.5,3.7,8.1,8.1,8.1h83.6
		c4.5,0,8.1-3.6,8.1-8.1v-45.4"/>
	<g class="st9">
		<g class="st22">
			<path class="st23" d="M244.6-495.3l26.5-26.8l-0.1,0.1c1.5-1.5,3.5-2.5,5.8-2.5c4.5,0,8.1,3.6,8.1,8.1v11.6
				c0,4.5,3.6,8.1,8.1,8.1h41.5c4.5,0,8.1,3.6,8.1,8.1l0,0c0,4.5-3.7,8.1-8.1,8.1H293c-4.5,0-8.1,3.7-8.1,8.1l0,0
				c0,4.5,3.7,8.1,8.1,8.1h41.5c4.5,0,8.1,3.7,8.1,8.1l0,0c0,4.5-3.7,8.1-8.1,8.1H293c-4.5,0-8.1,3.6-8.1,8.1l0,0
				c0,4.5,3.7,8.1,8.1,8.1h41.5c4.5,0,8.1,3.7,8.1,8.1l0,0c0,4.5-3.7,8.1-8.1,8.1H293c-4.5,0-8.1,3.7-8.1,8.1l0,0
				c0,4.5,3.7,8.1,8.1,8.1h83.6c4.5,0,8.1-3.6,8.1-8.1v-45.4"/>
			<g>
				<path class="st19" d="M384.2-441.5c0.5,0,1,0.5,1,1s-0.5,1-1,1s-1-0.5-1-1S383.7-441.5,384.2-441.5z M385.4-443.9
					c0.4,0,0.8,0.3,0.8,0.8s-0.3,0.8-0.8,0.8s-0.8-0.3-0.8-0.8S384.9-443.9,385.4-443.9z M385.4-447.6c0.4,0,0.8,0.3,0.8,0.8
					s-0.3,0.8-0.8,0.8s-0.8-0.3-0.8-0.8S384.9-447.6,385.4-447.6z M385.4-452.1c0.5,0,0.9,0.4,0.9,0.9c0,0.5-0.4,0.9-0.9,0.9
					s-0.9-0.4-0.9-0.9C384.5-451.7,384.9-452.1,385.4-452.1z M384.6-446.1c0,0.3-0.2,0.5-0.5,0.5s-0.5-0.2-0.5-0.5s0.2-0.5,0.5-0.5
					C384.4-446.6,384.6-446.4,384.6-446.1z M383.6-449c0.3,0,0.5,0.2,0.5,0.5s-0.2,0.5-0.5,0.5s-0.5-0.2-0.5-0.5
					S383.4-449,383.6-449z"/>
			</g>
			<g>
				<path class="st19" d="M384.2-429c0.5,0,1,0.5,1,1s-0.5,1-1,1s-1-0.5-1-1C383.2-428.6,383.7-429,384.2-429z M385.4-431.4
					c0.4,0,0.8,0.3,0.8,0.8s-0.3,0.8-0.8,0.8s-0.8-0.3-0.8-0.8C384.6-431.1,384.9-431.4,385.4-431.4z M385.4-435.1
					c0.4,0,0.8,0.3,0.8,0.8s-0.3,0.8-0.8,0.8s-0.8-0.3-0.8-0.8S384.9-435.1,385.4-435.1z M385.4-439.5c0.5,0,0.9,0.4,0.9,0.9
					c0,0.5-0.4,0.9-0.9,0.9s-0.9-0.4-0.9-0.9C384.5-439.1,384.9-439.5,385.4-439.5z M384.6-433.6c0,0.3-0.2,0.5-0.5,0.5
					s-0.5-0.2-0.5-0.5s0.2-0.5,0.5-0.5C384.4-434.1,384.6-433.9,384.6-433.6z M383.6-436.5c0.3,0,0.5,0.2,0.5,0.5s-0.2,0.5-0.5,0.5
					s-0.5-0.2-0.5-0.5S383.4-436.5,383.6-436.5z"/>
			</g>
			<g>
				<path class="st19" d="M384.2-416.5c0.5,0,1,0.5,1,1s-0.5,1-1,1s-1-0.5-1-1S383.7-416.5,384.2-416.5z M385.4-418.9
					c0.4,0,0.8,0.3,0.8,0.8s-0.3,0.8-0.8,0.8s-0.8-0.3-0.8-0.8C384.6-418.6,384.9-418.9,385.4-418.9z M385.4-422.5
					c0.4,0,0.8,0.3,0.8,0.8s-0.3,0.8-0.8,0.8s-0.8-0.3-0.8-0.8S384.9-422.5,385.4-422.5z M385.4-427c0.5,0,0.9,0.4,0.9,0.9
					c0,0.5-0.4,0.9-0.9,0.9s-0.9-0.4-0.9-0.9C384.5-426.6,384.9-427,385.4-427z M384.6-421.1c0,0.3-0.2,0.5-0.5,0.5
					s-0.5-0.2-0.5-0.5s0.2-0.5,0.5-0.5C384.4-421.6,384.6-421.4,384.6-421.1z M383.6-424c0.3,0,0.5,0.2,0.5,0.5s-0.2,0.5-0.5,0.5
					s-0.5-0.2-0.5-0.5S383.4-424,383.6-424z"/>
			</g>
			<g>
				<path class="st19" d="M384.2-404c0.5,0,1,0.5,1,1s-0.5,1-1,1s-1-0.5-1-1S383.7-404,384.2-404z M385.4-406.4
					c0.4,0,0.8,0.3,0.8,0.8s-0.3,0.8-0.8,0.8s-0.8-0.3-0.8-0.8C384.6-406,384.9-406.4,385.4-406.4z M385.4-410
					c0.4,0,0.8,0.3,0.8,0.8s-0.3,0.8-0.8,0.8s-0.8-0.3-0.8-0.8C384.6-409.7,384.9-410,385.4-410z M385.4-414.5
					c0.5,0,0.9,0.4,0.9,0.9c0,0.5-0.4,0.9-0.9,0.9s-0.9-0.4-0.9-0.9C384.5-414.1,384.9-414.5,385.4-414.5z M384.6-408.6
					c0,0.3-0.2,0.5-0.5,0.5s-0.5-0.2-0.5-0.5s0.2-0.5,0.5-0.5C384.4-409.1,384.6-408.9,384.6-408.6z M383.6-411.5
					c0.3,0,0.5,0.2,0.5,0.5s-0.2,0.5-0.5,0.5s-0.5-0.2-0.5-0.5S383.4-411.5,383.6-411.5z"/>
			</g>
			<g>
				<path class="st19" d="M373.3-398.2c0.2,0.5,0,1.1-0.5,1.3s-1.1,0-1.3-0.5s0-1.1,0.5-1.3C372.5-399,373.1-398.8,373.3-398.2z
					 M376-398.1c0.2,0.4,0,0.8-0.4,1c-0.4,0.2-0.8,0-1-0.4c-0.2-0.4,0-0.8,0.4-1S375.8-398.5,376-398.1z M379.4-399.5
					c0.2,0.4,0,0.8-0.4,1c-0.4,0.2-0.8,0-1-0.4c-0.2-0.4,0-0.8,0.4-1C378.8-400.1,379.2-399.9,379.4-399.5z M383.5-401.2
					c0.2,0.5,0,1-0.5,1.1c-0.5,0.2-1,0-1.1-0.5c-0.2-0.5,0-1,0.5-1.1C382.8-401.9,383.3-401.7,383.5-401.2z M377.7-399.6
					c-0.3,0.1-0.5,0-0.6-0.3c-0.1-0.2,0-0.5,0.3-0.6c0.2-0.1,0.5,0,0.6,0.3C378.1-400,378-399.7,377.7-399.6z M380-401.6
					c0.1,0.2,0,0.5-0.3,0.6c-0.2,0.1-0.5,0-0.6-0.3c-0.1-0.2,0-0.5,0.3-0.6C379.6-402,379.9-401.9,380-401.6z"/>
			</g>
			<g>
				<path class="st19" d="M360.7-399.6c0,0.5-0.5,1-1,1s-1-0.5-1-1s0.5-1,1-1C360.3-400.6,360.7-400.1,360.7-399.6z M363.1-398.4
					c0,0.4-0.3,0.8-0.8,0.8s-0.8-0.3-0.8-0.8s0.3-0.8,0.8-0.8S363.1-398.8,363.1-398.4z M366.8-398.4c0,0.4-0.3,0.8-0.8,0.8
					s-0.8-0.3-0.8-0.8s0.3-0.8,0.8-0.8S366.8-398.8,366.8-398.4z M371.3-398.4c0,0.5-0.4,0.9-0.9,0.9c-0.5,0-0.9-0.4-0.9-0.9
					s0.4-0.9,0.9-0.9C370.9-399.3,371.3-398.9,371.3-398.4z M365.3-399.1c-0.3,0-0.5-0.2-0.5-0.5s0.2-0.5,0.5-0.5s0.5,0.2,0.5,0.5
					S365.6-399.1,365.3-399.1z M368.2-400.1c0,0.3-0.2,0.5-0.5,0.5s-0.5-0.2-0.5-0.5s0.2-0.5,0.5-0.5
					C368-400.6,368.2-400.4,368.2-400.1z"/>
			</g>
			<g>
				<path class="st19" d="M348.2-399.6c0,0.5-0.5,1-1,1s-1-0.5-1-1s0.5-1,1-1C347.8-400.6,348.2-400.1,348.2-399.6z M350.6-398.4
					c0,0.4-0.3,0.8-0.8,0.8s-0.8-0.3-0.8-0.8s0.3-0.8,0.8-0.8S350.6-398.8,350.6-398.4z M354.3-398.4c0,0.4-0.3,0.8-0.8,0.8
					s-0.8-0.3-0.8-0.8s0.3-0.8,0.8-0.8S354.3-398.8,354.3-398.4z M358.7-398.4c0,0.5-0.4,0.9-0.9,0.9c-0.5,0-0.9-0.4-0.9-0.9
					s0.4-0.9,0.9-0.9C358.3-399.3,358.7-398.9,358.7-398.4z M352.8-399.1c-0.3,0-0.5-0.2-0.5-0.5s0.2-0.5,0.5-0.5s0.5,0.2,0.5,0.5
					S353.1-399.1,352.8-399.1z M355.7-400.1c0,0.3-0.2,0.5-0.5,0.5s-0.5-0.2-0.5-0.5s0.2-0.5,0.5-0.5
					C355.5-400.6,355.7-400.4,355.7-400.1z"/>
			</g>
			<g>
				<path class="st19" d="M335.7-399.6c0,0.5-0.5,1-1,1s-1-0.5-1-1s0.5-1,1-1C335.2-400.6,335.7-400.1,335.7-399.6z M338.1-398.4
					c0,0.4-0.3,0.8-0.8,0.8s-0.8-0.3-0.8-0.8s0.3-0.8,0.8-0.8S338.1-398.8,338.1-398.4z M341.8-398.4c0,0.4-0.3,0.8-0.8,0.8
					s-0.8-0.3-0.8-0.8s0.3-0.8,0.8-0.8S341.8-398.8,341.8-398.4z M346.2-398.4c0,0.5-0.4,0.9-0.9,0.9c-0.5,0-0.9-0.4-0.9-0.9
					s0.4-0.9,0.9-0.9C345.8-399.3,346.2-398.9,346.2-398.4z M340.3-399.1c-0.3,0-0.5-0.2-0.5-0.5s0.2-0.5,0.5-0.5s0.5,0.2,0.5,0.5
					S340.6-399.1,340.3-399.1z M343.2-400.1c0,0.3-0.2,0.5-0.5,0.5s-0.5-0.2-0.5-0.5s0.2-0.5,0.5-0.5S343.2-400.4,343.2-400.1z"/>
			</g>
			<g>
				<path class="st19" d="M323.2-399.6c0,0.5-0.5,1-1,1s-1-0.5-1-1s0.5-1,1-1S323.2-400.1,323.2-399.6z M325.6-398.4
					c0,0.4-0.3,0.8-0.8,0.8s-0.8-0.3-0.8-0.8s0.3-0.8,0.8-0.8S325.6-398.8,325.6-398.4z M329.2-398.4c0,0.4-0.3,0.8-0.8,0.8
					s-0.8-0.3-0.8-0.8s0.3-0.8,0.8-0.8S329.2-398.8,329.2-398.4z M333.7-398.4c0,0.5-0.4,0.9-0.9,0.9s-0.9-0.4-0.9-0.9
					s0.4-0.9,0.9-0.9S333.7-398.9,333.7-398.4z M327.8-399.1c-0.3,0-0.5-0.2-0.5-0.5s0.2-0.5,0.5-0.5s0.5,0.2,0.5,0.5
					S328-399.1,327.8-399.1z M330.6-400.1c0,0.3-0.2,0.5-0.5,0.5s-0.5-0.2-0.5-0.5s0.2-0.5,0.5-0.5S330.6-400.4,330.6-400.1z"/>
			</g>
			<g>
				<path class="st19" d="M310.6-399.6c0,0.5-0.5,1-1,1s-1-0.5-1-1s0.5-1,1-1C310.2-400.6,310.6-400.1,310.6-399.6z M313-398.4
					c0,0.4-0.3,0.8-0.8,0.8s-0.8-0.3-0.8-0.8s0.3-0.8,0.8-0.8C312.7-399.2,313-398.8,313-398.4z M316.7-398.4c0,0.4-0.3,0.8-0.8,0.8
					s-0.8-0.3-0.8-0.8s0.3-0.8,0.8-0.8S316.7-398.8,316.7-398.4z M321.2-398.4c0,0.5-0.4,0.9-0.9,0.9c-0.5,0-0.9-0.4-0.9-0.9
					s0.4-0.9,0.9-0.9S321.2-398.9,321.2-398.4z M315.2-399.1c-0.3,0-0.5-0.2-0.5-0.5s0.2-0.5,0.5-0.5s0.5,0.2,0.5,0.5
					S315.5-399.1,315.2-399.1z M318.1-400.1c0,0.3-0.2,0.5-0.5,0.5s-0.5-0.2-0.5-0.5s0.2-0.5,0.5-0.5S318.1-400.4,318.1-400.1z"/>
			</g>
			<g>
				<path class="st19" d="M298.1-399.6c0,0.5-0.5,1-1,1s-1-0.5-1-1s0.5-1,1-1S298.1-400.1,298.1-399.6z M300.5-398.4
					c0,0.4-0.3,0.8-0.8,0.8s-0.8-0.3-0.8-0.8s0.3-0.8,0.8-0.8C300.2-399.2,300.5-398.8,300.5-398.4z M304.2-398.4
					c0,0.4-0.3,0.8-0.8,0.8s-0.8-0.3-0.8-0.8s0.3-0.8,0.8-0.8C303.9-399.2,304.2-398.8,304.2-398.4z M308.6-398.4
					c0,0.5-0.4,0.9-0.9,0.9s-0.9-0.4-0.9-0.9s0.4-0.9,0.9-0.9S308.6-398.9,308.6-398.4z M302.7-399.1c-0.3,0-0.5-0.2-0.5-0.5
					s0.2-0.5,0.5-0.5s0.5,0.2,0.5,0.5S303-399.1,302.7-399.1z M305.6-400.1c0,0.3-0.2,0.5-0.5,0.5s-0.5-0.2-0.5-0.5s0.2-0.5,0.5-0.5
					S305.6-400.4,305.6-400.1z"/>
			</g>
			<g>
				<path class="st19" d="M286.4-402.4c-0.2,0.5-0.8,0.8-1.3,0.5s-0.8-0.8-0.5-1.3s0.8-0.8,1.3-0.5
					C286.3-403.5,286.6-402.9,286.4-402.4z M288.1-400.4c-0.2,0.4-0.6,0.6-1,0.4s-0.6-0.6-0.4-1s0.6-0.6,1-0.4
					C288.1-401.2,288.3-400.8,288.1-400.4z M291.5-399c-0.2,0.4-0.6,0.6-1,0.4s-0.6-0.6-0.4-1s0.6-0.6,1-0.4
					C291.5-399.8,291.7-399.4,291.5-399z M295.6-397.3c-0.2,0.5-0.7,0.7-1.1,0.5c-0.5-0.2-0.7-0.7-0.5-1.1c0.2-0.5,0.7-0.7,1.1-0.5
					C295.6-398.2,295.8-397.7,295.6-397.3z M290.4-400.2c-0.2-0.1-0.4-0.4-0.3-0.6c0.1-0.3,0.4-0.4,0.6-0.3c0.3,0.1,0.4,0.4,0.3,0.6
					C291-400.2,290.7-400.1,290.4-400.2z M293.5-400c-0.1,0.2-0.4,0.4-0.6,0.3c-0.2-0.1-0.4-0.4-0.3-0.6c0.1-0.3,0.4-0.4,0.6-0.3
					C293.5-400.5,293.6-400.3,293.5-400z"/>
			</g>
			<g>
				<path class="st19" d="M288.2-413.9c-0.5-0.2-0.8-0.8-0.5-1.3s0.8-0.8,1.3-0.5s0.8,0.8,0.5,1.3
					C289.3-414,288.7-413.7,288.2-413.9z M286.2-412.2c-0.4-0.2-0.6-0.6-0.4-1s0.6-0.6,1-0.4c0.4,0.2,0.6,0.6,0.4,1
					C287-412.2,286.6-412,286.2-412.2z M284.8-408.8c-0.4-0.2-0.6-0.6-0.4-1s0.6-0.6,1-0.4s0.6,0.6,0.4,1S285.2-408.6,284.8-408.8z
					 M283.1-404.6c-0.5-0.2-0.7-0.7-0.5-1.1c0.2-0.5,0.7-0.7,1.1-0.5c0.5,0.2,0.7,0.7,0.5,1.1C284.1-404.7,283.5-404.5,283.1-404.6z
					 M286-409.9c0.1-0.2,0.4-0.4,0.6-0.3c0.3,0.1,0.4,0.4,0.3,0.6c-0.1,0.2-0.4,0.4-0.6,0.3C286-409.3,285.9-409.6,286-409.9z
					 M285.9-406.8c-0.2-0.1-0.4-0.4-0.3-0.6c0.1-0.2,0.4-0.4,0.6-0.3c0.3,0.1,0.4,0.4,0.3,0.6C286.4-406.8,286.1-406.7,285.9-406.8z
					"/>
			</g>
			<g>
				<path class="st19" d="M300.6-414.8c0-0.5,0.5-1,1-1s1,0.5,1,1s-0.5,1-1,1S300.6-414.3,300.6-414.8z M298.2-416
					c0-0.4,0.3-0.8,0.8-0.8s0.8,0.3,0.8,0.8s-0.3,0.8-0.8,0.8S298.2-415.6,298.2-416z M294.5-416c0-0.4,0.3-0.8,0.8-0.8
					s0.8,0.3,0.8,0.8s-0.3,0.8-0.8,0.8S294.5-415.6,294.5-416z M290.1-416c0-0.5,0.4-0.9,0.9-0.9c0.5,0,0.9,0.4,0.9,0.9
					c0,0.5-0.4,0.9-0.9,0.9C290.5-415.1,290.1-415.5,290.1-416z M296-415.3c0.3,0,0.5,0.2,0.5,0.5s-0.2,0.5-0.5,0.5
					s-0.5-0.2-0.5-0.5S295.7-415.3,296-415.3z M293.1-414.3c0-0.3,0.2-0.5,0.5-0.5s0.5,0.2,0.5,0.5s-0.2,0.5-0.5,0.5
					S293.1-414,293.1-414.3z"/>
			</g>
			<g>
				<path class="st19" d="M313.1-414.8c0-0.5,0.5-1,1-1s1,0.5,1,1s-0.5,1-1,1S313.1-414.3,313.1-414.8z M310.7-416
					c0-0.4,0.3-0.8,0.8-0.8s0.8,0.3,0.8,0.8s-0.3,0.8-0.8,0.8S310.7-415.6,310.7-416z M307-416c0-0.4,0.3-0.8,0.8-0.8
					s0.8,0.3,0.8,0.8s-0.3,0.8-0.8,0.8S307-415.6,307-416z M302.6-416c0-0.5,0.4-0.9,0.9-0.9s0.9,0.4,0.9,0.9c0,0.5-0.4,0.9-0.9,0.9
					S302.6-415.5,302.6-416z M308.5-415.3c0.3,0,0.5,0.2,0.5,0.5s-0.2,0.5-0.5,0.5s-0.5-0.2-0.5-0.5S308.2-415.3,308.5-415.3z
					 M305.6-414.3c0-0.3,0.2-0.5,0.5-0.5s0.5,0.2,0.5,0.5s-0.2,0.5-0.5,0.5C305.9-413.8,305.6-414,305.6-414.3z"/>
			</g>
			<g>
				<path class="st19" d="M325.6-414.8c0-0.5,0.5-1,1-1s1,0.5,1,1s-0.5,1-1,1C326.1-413.8,325.6-414.3,325.6-414.8z M323.2-416
					c0-0.4,0.3-0.8,0.8-0.8s0.8,0.3,0.8,0.8s-0.3,0.8-0.8,0.8S323.2-415.6,323.2-416z M319.6-416c0-0.4,0.3-0.8,0.8-0.8
					s0.8,0.3,0.8,0.8s-0.3,0.8-0.8,0.8S319.6-415.6,319.6-416z M315.1-416c0-0.5,0.4-0.9,0.9-0.9c0.5,0,0.9,0.4,0.9,0.9
					c0,0.5-0.4,0.9-0.9,0.9S315.1-415.5,315.1-416z M321-415.3c0.3,0,0.5,0.2,0.5,0.5s-0.2,0.5-0.5,0.5s-0.5-0.2-0.5-0.5
					S320.8-415.3,321-415.3z M318.2-414.3c0-0.3,0.2-0.5,0.5-0.5s0.5,0.2,0.5,0.5s-0.2,0.5-0.5,0.5S318.2-414,318.2-414.3z"/>
			</g>
			<g>
				<path class="st19" d="M338.1-414.8c0-0.5,0.5-1,1-1s1,0.5,1,1s-0.5,1-1,1S338.1-414.3,338.1-414.8z M335.8-416
					c0-0.4,0.3-0.8,0.8-0.8s0.8,0.3,0.8,0.8s-0.3,0.8-0.8,0.8C336.1-415.2,335.8-415.6,335.8-416z M332.1-416c0-0.4,0.3-0.8,0.8-0.8
					s0.8,0.3,0.8,0.8s-0.3,0.8-0.8,0.8C332.4-415.2,332.1-415.6,332.1-416z M327.6-416c0-0.5,0.4-0.9,0.9-0.9c0.5,0,0.9,0.4,0.9,0.9
					c0,0.5-0.4,0.9-0.9,0.9C328-415.1,327.6-415.5,327.6-416z M333.5-415.3c0.3,0,0.5,0.2,0.5,0.5s-0.2,0.5-0.5,0.5
					s-0.5-0.2-0.5-0.5S333.3-415.3,333.5-415.3z M330.7-414.3c0-0.3,0.2-0.5,0.5-0.5s0.5,0.2,0.5,0.5s-0.2,0.5-0.5,0.5
					S330.7-414,330.7-414.3z"/>
			</g>
			<g>
				<path class="st19" d="M344.5-426.7c-0.5-0.2-0.8-0.8-0.5-1.3s0.8-0.8,1.3-0.5s0.8,0.8,0.5,1.3
					C345.6-426.7,345-426.5,344.5-426.7z M342.5-424.9c-0.4-0.2-0.6-0.6-0.4-1s0.6-0.6,1-0.4s0.6,0.6,0.4,1
					C343.4-425,342.9-424.8,342.5-424.9z M341.1-421.5c-0.4-0.2-0.6-0.6-0.4-1s0.6-0.6,1-0.4s0.6,0.6,0.4,1
					C342-421.6,341.5-421.4,341.1-421.5z M339.4-417.4c-0.5-0.2-0.7-0.7-0.5-1.1c0.2-0.5,0.7-0.7,1.1-0.5c0.5,0.2,0.7,0.7,0.5,1.1
					C340.4-417.5,339.9-417.2,339.4-417.4z M342.3-422.6c0.1-0.2,0.4-0.4,0.6-0.3c0.2,0.1,0.4,0.4,0.3,0.6c-0.1,0.3-0.4,0.4-0.6,0.3
					C342.4-422.1,342.2-422.4,342.3-422.6z M342.2-419.6c-0.2-0.1-0.4-0.4-0.3-0.6c0.1-0.2,0.4-0.4,0.6-0.3c0.2,0.1,0.4,0.4,0.3,0.6
					C342.7-419.6,342.4-419.5,342.2-419.6z"/>
			</g>
			<g>
				<path class="st19" d="M331.2-433.5c-0.2,0.5-0.8,0.8-1.3,0.5s-0.8-0.8-0.5-1.3s0.8-0.8,1.3-0.5
					C331.1-434.6,331.4-434,331.2-433.5z M332.9-431.5c-0.2,0.4-0.6,0.6-1,0.4c-0.4-0.2-0.6-0.6-0.4-1s0.6-0.6,1-0.4
					C332.9-432.3,333.1-431.9,332.9-431.5z M336.3-430.1c-0.2,0.4-0.6,0.6-1,0.4s-0.6-0.6-0.4-1s0.6-0.6,1-0.4
					C336.3-430.9,336.5-430.5,336.3-430.1z M340.4-428.4c-0.2,0.5-0.7,0.7-1.1,0.5c-0.5-0.2-0.7-0.7-0.5-1.1
					c0.2-0.5,0.7-0.7,1.1-0.5C340.4-429.3,340.6-428.8,340.4-428.4z M335.2-431.3c-0.2-0.1-0.4-0.4-0.3-0.6c0.1-0.2,0.4-0.4,0.6-0.3
					c0.3,0.1,0.4,0.4,0.3,0.6C335.8-431.3,335.5-431.2,335.2-431.3z M338.3-431.1c-0.1,0.2-0.4,0.4-0.6,0.3
					c-0.2-0.1-0.4-0.4-0.3-0.6c0.1-0.2,0.4-0.4,0.6-0.3C338.3-431.7,338.4-431.4,338.3-431.1z"/>
			</g>
			<g>
				<path class="st19" d="M318.2-432c0,0.5-0.5,1-1,1s-1-0.5-1-1s0.5-1,1-1S318.2-432.6,318.2-432z M320.6-430.9
					c0,0.4-0.3,0.8-0.8,0.8s-0.8-0.3-0.8-0.8s0.3-0.8,0.8-0.8S320.6-431.3,320.6-430.9z M324.2-430.9c0,0.4-0.3,0.8-0.8,0.8
					s-0.8-0.3-0.8-0.8s0.3-0.8,0.8-0.8S324.2-431.3,324.2-430.9z M328.7-430.9c0,0.5-0.4,0.9-0.9,0.9s-0.9-0.4-0.9-0.9
					c0-0.5,0.4-0.9,0.9-0.9S328.7-431.4,328.7-430.9z M322.8-431.6c-0.3,0-0.5-0.2-0.5-0.5s0.2-0.5,0.5-0.5s0.5,0.2,0.5,0.5
					S323-431.6,322.8-431.6z M325.6-432.6c0,0.3-0.2,0.5-0.5,0.5s-0.5-0.2-0.5-0.5s0.2-0.5,0.5-0.5
					C325.4-433.1,325.6-432.9,325.6-432.6z"/>
			</g>
			<g>
				<path class="st19" d="M305.6-432c0,0.5-0.5,1-1,1s-1-0.5-1-1s0.5-1,1-1C305.2-433,305.6-432.6,305.6-432z M308-430.9
					c0,0.4-0.3,0.8-0.8,0.8s-0.8-0.3-0.8-0.8s0.3-0.8,0.8-0.8S308-431.3,308-430.9z M311.7-430.9c0,0.4-0.3,0.8-0.8,0.8
					s-0.8-0.3-0.8-0.8s0.3-0.8,0.8-0.8C311.4-431.6,311.7-431.3,311.7-430.9z M316.2-430.9c0,0.5-0.4,0.9-0.9,0.9
					c-0.5,0-0.9-0.4-0.9-0.9c0-0.5,0.4-0.9,0.9-0.9C315.8-431.8,316.2-431.4,316.2-430.9z M310.2-431.6c-0.3,0-0.5-0.2-0.5-0.5
					s0.2-0.5,0.5-0.5s0.5,0.2,0.5,0.5S310.5-431.6,310.2-431.6z M313.1-432.6c0,0.3-0.2,0.5-0.5,0.5s-0.5-0.2-0.5-0.5
					s0.2-0.5,0.5-0.5C312.9-433.1,313.1-432.9,313.1-432.6z"/>
			</g>
			<g>
				<path class="st19" d="M293.1-432c0,0.5-0.5,1-1,1s-1-0.5-1-1s0.5-1,1-1C292.7-433,293.1-432.6,293.1-432z M295.5-430.9
					c0,0.4-0.3,0.8-0.8,0.8s-0.8-0.3-0.8-0.8s0.3-0.8,0.8-0.8S295.5-431.3,295.5-430.9z M299.2-430.9c0,0.4-0.3,0.8-0.8,0.8
					s-0.8-0.3-0.8-0.8s0.3-0.8,0.8-0.8S299.2-431.3,299.2-430.9z M303.6-430.9c0,0.5-0.4,0.9-0.9,0.9c-0.5,0-0.9-0.4-0.9-0.9
					c0-0.5,0.4-0.9,0.9-0.9C303.2-431.8,303.6-431.4,303.6-430.9z M297.7-431.6c-0.3,0-0.5-0.2-0.5-0.5s0.2-0.5,0.5-0.5
					s0.5,0.2,0.5,0.5S298-431.6,297.7-431.6z M300.6-432.6c0,0.3-0.2,0.5-0.5,0.5s-0.5-0.2-0.5-0.5s0.2-0.5,0.5-0.5
					S300.6-432.9,300.6-432.6z"/>
			</g>
			<g>
				<path class="st19" d="M285.3-439.9c-0.5,0.2-1.1,0-1.3-0.5s0-1.1,0.5-1.3s1.1,0,1.3,0.5C286.1-440.6,285.8-440.1,285.3-439.9z
					 M285.2-437.2c-0.4,0.2-0.8,0-1-0.4s0-0.8,0.4-1s0.8,0,1,0.4C285.8-437.8,285.6-437.4,285.2-437.2z M286.6-433.8
					c-0.4,0.2-0.8,0-1-0.4s0-0.8,0.4-1s0.8,0,1,0.4C287.2-434.4,287-434,286.6-433.8z M288.3-429.7c-0.5,0.2-1,0-1.1-0.5
					c-0.2-0.5,0-1,0.5-1.1c0.5-0.2,1,0,1.1,0.5C289-430.4,288.8-429.9,288.3-429.7z M286.7-435.4c-0.1-0.2,0-0.5,0.3-0.6
					c0.3-0.1,0.5,0,0.6,0.3c0.1,0.2,0,0.5-0.3,0.6C287.1-435,286.8-435.2,286.7-435.4z M288.7-433.2c-0.2,0.1-0.5,0-0.6-0.3
					c-0.1-0.2,0-0.5,0.3-0.6c0.3-0.1,0.5,0,0.6,0.3C289.1-433.6,289-433.3,288.7-433.2z"/>
			</g>
			<g>
				<path class="st19" d="M293.2-447.4c-0.2-0.5,0-1.1,0.5-1.3s1.1,0,1.3,0.5s0,1.1-0.5,1.3C294-446.6,293.5-446.9,293.2-447.4z
					 M290.6-447.5c-0.2-0.4,0-0.8,0.4-1s0.8,0,1,0.4s0,0.8-0.4,1C291.2-447,290.8-447.1,290.6-447.5z M287.2-446.1
					c-0.2-0.4,0-0.8,0.4-1s0.8,0,1,0.4s0,0.8-0.4,1S287.4-445.7,287.2-446.1z M283.1-444.4c-0.2-0.5,0-1,0.5-1.1
					c0.5-0.2,1,0,1.1,0.5c0.2,0.5,0,1-0.5,1.1C283.8-443.8,283.3-444,283.1-444.4z M288.8-446c0.2-0.1,0.5,0,0.6,0.3
					c0.1,0.2,0,0.5-0.3,0.6c-0.3,0.1-0.5,0-0.6-0.3C288.5-445.6,288.6-445.9,288.8-446z M286.6-444c-0.1-0.2,0-0.5,0.3-0.6
					c0.2-0.1,0.5,0,0.6,0.3c0.1,0.2,0,0.5-0.3,0.6C287-443.6,286.7-443.8,286.6-444z"/>
			</g>
			<g>
				<path class="st19" d="M305.6-447.3c0-0.5,0.5-1,1-1s1,0.5,1,1s-0.5,1-1,1S305.6-446.8,305.6-447.3z M303.2-448.5
					c0-0.4,0.3-0.8,0.8-0.8s0.8,0.3,0.8,0.8s-0.3,0.8-0.8,0.8C303.5-447.7,303.2-448.1,303.2-448.5z M299.5-448.5
					c0-0.4,0.3-0.8,0.8-0.8s0.8,0.3,0.8,0.8s-0.3,0.8-0.8,0.8C299.9-447.7,299.5-448.1,299.5-448.5z M295.1-448.5
					c0-0.5,0.4-0.9,0.9-0.9s0.9,0.4,0.9,0.9c0,0.5-0.4,0.9-0.9,0.9S295.1-448,295.1-448.5z M301-447.8c0.3,0,0.5,0.2,0.5,0.5
					s-0.2,0.5-0.5,0.5s-0.5-0.2-0.5-0.5S300.7-447.8,301-447.8z M298.1-446.8c0-0.3,0.2-0.5,0.5-0.5s0.5,0.2,0.5,0.5
					s-0.2,0.5-0.5,0.5C298.4-446.3,298.1-446.5,298.1-446.8z"/>
			</g>
			<g>
				<path class="st19" d="M318.1-447.3c0-0.5,0.5-1,1-1s1,0.5,1,1s-0.5,1-1,1C318.6-446.3,318.1-446.8,318.1-447.3z M315.7-448.5
					c0-0.4,0.3-0.8,0.8-0.8s0.8,0.3,0.8,0.8s-0.3,0.8-0.8,0.8S315.7-448.1,315.7-448.5z M312.1-448.5c0-0.4,0.3-0.8,0.8-0.8
					s0.8,0.3,0.8,0.8s-0.3,0.8-0.8,0.8S312.1-448.1,312.1-448.5z M307.6-448.5c0-0.5,0.4-0.9,0.9-0.9c0.5,0,0.9,0.4,0.9,0.9
					c0,0.5-0.4,0.9-0.9,0.9C308-447.6,307.6-448,307.6-448.5z M313.5-447.8c0.3,0,0.5,0.2,0.5,0.5s-0.2,0.5-0.5,0.5
					s-0.5-0.2-0.5-0.5S313.2-447.8,313.5-447.8z M310.6-446.8c0-0.3,0.2-0.5,0.5-0.5s0.5,0.2,0.5,0.5s-0.2,0.5-0.5,0.5
					C310.9-446.3,310.6-446.5,310.6-446.8z"/>
			</g>
			<g>
				<path class="st19" d="M330.6-447.3c0-0.5,0.5-1,1-1s1,0.5,1,1s-0.5,1-1,1C331.1-446.3,330.6-446.8,330.6-447.3z M328.2-448.5
					c0-0.4,0.3-0.8,0.8-0.8s0.8,0.3,0.8,0.8s-0.3,0.8-0.8,0.8S328.2-448.1,328.2-448.5z M324.6-448.5c0-0.4,0.3-0.8,0.8-0.8
					s0.8,0.3,0.8,0.8s-0.3,0.8-0.8,0.8C324.9-447.7,324.6-448.1,324.6-448.5z M320.1-448.5c0-0.5,0.4-0.9,0.9-0.9
					c0.5,0,0.9,0.4,0.9,0.9c0,0.5-0.4,0.9-0.9,0.9S320.1-448,320.1-448.5z M326-447.8c0.3,0,0.5,0.2,0.5,0.5s-0.2,0.5-0.5,0.5
					s-0.5-0.2-0.5-0.5S325.8-447.8,326-447.8z M323.2-446.8c0-0.3,0.2-0.5,0.5-0.5s0.5,0.2,0.5,0.5s-0.2,0.5-0.5,0.5
					S323.2-446.5,323.2-446.8z"/>
			</g>
			<g>
				<path class="st19" d="M342.7-450.7c-0.2-0.5,0-1.1,0.5-1.3s1.1,0,1.3,0.5s0,1.1-0.5,1.3C343.5-449.9,342.9-450.2,342.7-450.7z
					 M340-450.8c-0.2-0.4,0-0.8,0.4-1s0.8,0,1,0.4s0,0.8-0.4,1S340.2-450.4,340-450.8z M336.6-449.4c-0.2-0.4,0-0.8,0.4-1
					s0.8,0,1,0.4s0,0.8-0.4,1S336.8-449,336.6-449.4z M332.5-447.7c-0.2-0.5,0-1,0.5-1.1c0.5-0.2,1,0,1.1,0.5c0.2,0.5,0,1-0.5,1.1
					C333.2-447,332.7-447.2,332.5-447.7z M338.3-449.3c0.2-0.1,0.5,0,0.6,0.3c0.1,0.2,0,0.5-0.3,0.6c-0.2,0.1-0.5,0-0.6-0.3
					C337.9-448.9,338-449.2,338.3-449.3z M336-447.3c-0.1-0.2,0-0.5,0.3-0.6c0.2-0.1,0.5,0,0.6,0.3c0.1,0.2,0,0.5-0.3,0.6
					S336.1-447,336-447.3z"/>
			</g>
			<g>
				<path class="st19" d="M339.7-464.2c-0.5,0.2-1.1,0-1.3-0.5c-0.2-0.5,0-1.1,0.5-1.3s1.1,0,1.3,0.5
					C340.5-465,340.2-464.4,339.7-464.2z M339.6-461.5c-0.4,0.2-0.8,0-1-0.4s0-0.8,0.4-1s0.8,0,1,0.4S340-461.7,339.6-461.5z
					 M341-458.1c-0.4,0.2-0.8,0-1-0.4s0-0.8,0.4-1s0.8,0,1,0.4S341.4-458.3,341-458.1z M342.7-454c-0.5,0.2-1,0-1.1-0.5
					c-0.2-0.5,0-1,0.5-1.1c0.5-0.2,1,0,1.1,0.5C343.4-454.7,343.1-454.2,342.7-454z M341.1-459.8c-0.1-0.2,0-0.5,0.3-0.6
					c0.2-0.1,0.5,0,0.6,0.3c0.1,0.2,0,0.5-0.3,0.6C341.5-459.4,341.2-459.5,341.1-459.8z M343.1-457.5c-0.2,0.1-0.5,0-0.6-0.3
					c-0.1-0.2,0-0.5,0.3-0.6c0.3-0.1,0.5,0,0.6,0.3C343.5-457.9,343.4-457.6,343.1-457.5z"/>
			</g>
			<g>
				<path class="st19" d="M325.7-464.5c0,0.5-0.5,1-1,1s-1-0.5-1-1s0.5-1,1-1C325.2-465.5,325.7-465.1,325.7-464.5z M328.1-463.4
					c0,0.4-0.3,0.8-0.8,0.8s-0.8-0.3-0.8-0.8s0.3-0.8,0.8-0.8C327.7-464.1,328.1-463.8,328.1-463.4z M331.7-463.4
					c0,0.4-0.3,0.8-0.8,0.8s-0.8-0.3-0.8-0.8s0.3-0.8,0.8-0.8C331.4-464.1,331.7-463.8,331.7-463.4z M336.2-463.4
					c0,0.5-0.4,0.9-0.9,0.9c-0.5,0-0.9-0.4-0.9-0.9s0.4-0.9,0.9-0.9S336.2-463.9,336.2-463.4z M330.3-464.1c-0.3,0-0.5-0.2-0.5-0.5
					s0.2-0.5,0.5-0.5s0.5,0.2,0.5,0.5S330.6-464.1,330.3-464.1z M333.1-465.1c0,0.3-0.2,0.5-0.5,0.5s-0.5-0.2-0.5-0.5
					s0.2-0.5,0.5-0.5S333.1-465.4,333.1-465.1z"/>
			</g>
			<g>
				<path class="st19" d="M313.2-464.5c0,0.5-0.5,1-1,1s-1-0.5-1-1s0.5-1,1-1S313.2-465.1,313.2-464.5z M315.5-463.4
					c0,0.4-0.3,0.8-0.8,0.8s-0.8-0.3-0.8-0.8s0.3-0.8,0.8-0.8S315.5-463.8,315.5-463.4z M319.2-463.4c0,0.4-0.3,0.8-0.8,0.8
					s-0.8-0.3-0.8-0.8s0.3-0.8,0.8-0.8C318.9-464.1,319.2-463.8,319.2-463.4z M323.7-463.4c0,0.5-0.4,0.9-0.9,0.9s-0.9-0.4-0.9-0.9
					s0.4-0.9,0.9-0.9S323.7-463.9,323.7-463.4z M317.8-464.1c-0.3,0-0.5-0.2-0.5-0.5s0.2-0.5,0.5-0.5s0.5,0.2,0.5,0.5
					S318-464.1,317.8-464.1z M320.6-465.1c0,0.3-0.2,0.5-0.5,0.5s-0.5-0.2-0.5-0.5s0.2-0.5,0.5-0.5S320.6-465.4,320.6-465.1z"/>
			</g>
			<g>
				<path class="st19" d="M300.6-464.5c0,0.5-0.5,1-1,1s-1-0.5-1-1s0.5-1,1-1S300.6-465.1,300.6-464.5z M303-463.4
					c0,0.4-0.3,0.8-0.8,0.8s-0.8-0.3-0.8-0.8s0.3-0.8,0.8-0.8C302.7-464.1,303-463.8,303-463.4z M306.7-463.4c0,0.4-0.3,0.8-0.8,0.8
					s-0.8-0.3-0.8-0.8s0.3-0.8,0.8-0.8C306.4-464.1,306.7-463.8,306.7-463.4z M311.2-463.4c0,0.5-0.4,0.9-0.9,0.9
					c-0.5,0-0.9-0.4-0.9-0.9s0.4-0.9,0.9-0.9S311.2-463.9,311.2-463.4z M305.2-464.1c-0.3,0-0.5-0.2-0.5-0.5s0.2-0.5,0.5-0.5
					s0.5,0.2,0.5,0.5S305.5-464.1,305.2-464.1z M308.1-465.1c0,0.3-0.2,0.5-0.5,0.5s-0.5-0.2-0.5-0.5s0.2-0.5,0.5-0.5
					C307.9-465.6,308.1-465.4,308.1-465.1z"/>
			</g>
			<g>
				<path class="st19" d="M288.3-465.6c-0.1,0.5-0.6,0.9-1.2,0.8c-0.5-0.1-0.9-0.6-0.8-1.2c0.1-0.5,0.6-0.9,1.2-0.8
					C288.1-466.7,288.5-466.1,288.3-465.6z M290.5-464c-0.1,0.4-0.5,0.7-0.9,0.6c-0.4-0.1-0.7-0.5-0.6-0.9c0.1-0.4,0.5-0.7,0.9-0.6
					C290.3-464.8,290.5-464.4,290.5-464z M294-463.3c-0.1,0.4-0.5,0.7-0.9,0.6c-0.4-0.1-0.7-0.5-0.6-0.9c0.1-0.4,0.5-0.7,0.9-0.6
					C293.9-464.1,294.1-463.7,294-463.3z M298.4-462.4c-0.1,0.5-0.6,0.8-1,0.7s-0.8-0.6-0.7-1s0.6-0.8,1-0.7
					C298.2-463.3,298.5-462.9,298.4-462.4z M292.8-464.3c-0.3,0-0.5-0.3-0.4-0.6c0-0.3,0.3-0.5,0.6-0.4c0.3,0,0.5,0.3,0.4,0.6
					C293.3-464.4,293-464.2,292.8-464.3z M295.8-464.7c0,0.3-0.3,0.5-0.6,0.4c-0.3,0-0.5-0.3-0.4-0.6c0-0.3,0.3-0.5,0.6-0.4
					C295.7-465.2,295.8-465,295.8-464.7z"/>
			</g>
			<g>
				<path class="st19" d="M283.2-476.6c-0.5,0.3-1.1,0.2-1.4-0.3c-0.3-0.5-0.2-1.1,0.3-1.4c0.5-0.3,1.1-0.2,1.4,0.3
					C283.8-477.6,283.6-477,283.2-476.6z M283.6-474c-0.3,0.2-0.8,0.1-1-0.2c-0.2-0.3-0.1-0.8,0.2-1c0.3-0.2,0.8-0.1,1,0.2
					C284-474.7,283.9-474.2,283.6-474z M285.6-471c-0.3,0.2-0.8,0.1-1-0.2c-0.2-0.3-0.1-0.8,0.2-1c0.3-0.2,0.8-0.1,1,0.2
					C286-471.7,285.9-471.2,285.6-471z M288.1-467.3c-0.4,0.3-1,0.2-1.2-0.2c-0.3-0.4-0.2-1,0.2-1.2c0.4-0.3,1-0.2,1.2,0.2
					C288.6-468.1,288.5-467.5,288.1-467.3z M285.4-472.6c-0.1-0.2-0.1-0.5,0.1-0.7s0.5-0.1,0.7,0.1s0.1,0.5-0.1,0.7
					C285.8-472.3,285.5-472.4,285.4-472.6z M287.8-470.7c-0.2,0.1-0.5,0.1-0.7-0.1s-0.1-0.5,0.1-0.7s0.5-0.1,0.7,0.1
					C288.1-471.2,288-470.9,287.8-470.7z"/>
			</g>
			<g>
				<path class="st19" d="M298.1-480.7c-0.1-0.5,0.2-1.1,0.8-1.2c0.5-0.1,1.1,0.2,1.2,0.8c0.1,0.5-0.2,1.1-0.8,1.2
					C298.7-479.8,298.2-480.1,298.1-480.7z M295.5-481.3c-0.1-0.4,0.2-0.8,0.6-0.9c0.4-0.1,0.8,0.2,0.9,0.6c0.1,0.4-0.2,0.8-0.6,0.9
					C296-480.6,295.6-480.9,295.5-481.3z M291.9-480.6c-0.1-0.4,0.2-0.8,0.6-0.9c0.4-0.1,0.8,0.2,0.9,0.6c0.1,0.4-0.2,0.8-0.6,0.9
					C292.4-479.9,292-480.2,291.9-480.6z M287.5-479.7c-0.1-0.5,0.2-0.9,0.7-1c0.5-0.1,0.9,0.2,1,0.7c0.1,0.5-0.2,0.9-0.7,1
					C288.1-478.9,287.6-479.2,287.5-479.7z M293.5-480.2c0.3,0,0.5,0.1,0.6,0.4c0,0.3-0.1,0.5-0.4,0.6c-0.3,0-0.5-0.1-0.6-0.4
					C293-479.9,293.2-480.1,293.5-480.2z M290.9-478.6c0-0.3,0.1-0.5,0.4-0.6c0.3,0,0.5,0.1,0.6,0.4c0,0.3-0.1,0.5-0.4,0.6
					C291.2-478.2,290.9-478.4,290.9-478.6z"/>
			</g>
			<g>
				<path class="st19" d="M310.6-479.8c0-0.5,0.5-1,1-1s1,0.5,1,1s-0.5,1-1,1C311-478.8,310.6-479.3,310.6-479.8z M308.2-481
					c0-0.4,0.3-0.8,0.8-0.8s0.8,0.3,0.8,0.8s-0.3,0.8-0.8,0.8C308.5-480.2,308.2-480.5,308.2-481z M304.5-481c0-0.4,0.3-0.8,0.8-0.8
					s0.8,0.3,0.8,0.8s-0.3,0.8-0.8,0.8S304.5-480.5,304.5-481z M300.1-481c0-0.5,0.4-0.9,0.9-0.9c0.5,0,0.9,0.4,0.9,0.9
					c0,0.5-0.4,0.9-0.9,0.9S300.1-480.5,300.1-481z M306-480.2c0.3,0,0.5,0.2,0.5,0.5s-0.2,0.5-0.5,0.5s-0.5-0.2-0.5-0.5
					S305.7-480.2,306-480.2z M303.1-479.2c0-0.3,0.2-0.5,0.5-0.5s0.5,0.2,0.5,0.5s-0.2,0.5-0.5,0.5S303.1-479,303.1-479.2z"/>
			</g>
			<g>
				<path class="st19" d="M323.1-479.8c0-0.5,0.5-1,1-1s1,0.5,1,1s-0.5,1-1,1S323.1-479.3,323.1-479.8z M320.7-481
					c0-0.4,0.3-0.8,0.8-0.8s0.8,0.3,0.8,0.8s-0.3,0.8-0.8,0.8C321.1-480.2,320.7-480.5,320.7-481z M317.1-481c0-0.4,0.3-0.8,0.8-0.8
					s0.8,0.3,0.8,0.8s-0.3,0.8-0.8,0.8C317.4-480.2,317.1-480.5,317.1-481z M312.6-481c0-0.5,0.4-0.9,0.9-0.9c0.5,0,0.9,0.4,0.9,0.9
					c0,0.5-0.4,0.9-0.9,0.9C313-480.1,312.6-480.5,312.6-481z M318.5-480.2c0.3,0,0.5,0.2,0.5,0.5s-0.2,0.5-0.5,0.5
					s-0.5-0.2-0.5-0.5S318.2-480.2,318.5-480.2z M315.6-479.2c0-0.3,0.2-0.5,0.5-0.5s0.5,0.2,0.5,0.5s-0.2,0.5-0.5,0.5
					S315.6-479,315.6-479.2z"/>
			</g>
			<g>
				<path class="st19" d="M335.6-479.8c0-0.5,0.5-1,1-1s1,0.5,1,1s-0.5,1-1,1C336.1-478.8,335.6-479.3,335.6-479.8z M333.2-481
					c0-0.4,0.3-0.8,0.8-0.8s0.8,0.3,0.8,0.8s-0.3,0.8-0.8,0.8C333.6-480.2,333.2-480.5,333.2-481z M329.6-481c0-0.4,0.3-0.8,0.8-0.8
					s0.8,0.3,0.8,0.8s-0.3,0.8-0.8,0.8C329.9-480.2,329.6-480.5,329.6-481z M325.1-481c0-0.5,0.4-0.9,0.9-0.9s0.9,0.4,0.9,0.9
					c0,0.5-0.4,0.9-0.9,0.9S325.1-480.5,325.1-481z M331-480.2c0.3,0,0.5,0.2,0.5,0.5s-0.2,0.5-0.5,0.5s-0.5-0.2-0.5-0.5
					S330.8-480.2,331-480.2z M328.2-479.2c0-0.3,0.2-0.5,0.5-0.5s0.5,0.2,0.5,0.5s-0.2,0.5-0.5,0.5S328.2-479,328.2-479.2z"/>
			</g>
			<g>
				<path class="st19" d="M343.5-489.4c-0.5-0.2-0.8-0.8-0.5-1.3s0.8-0.8,1.3-0.5s0.8,0.8,0.5,1.3
					C344.6-489.4,344.1-489.1,343.5-489.4z M341.6-487.6c-0.4-0.2-0.6-0.6-0.4-1s0.6-0.6,1-0.4c0.4,0.2,0.6,0.6,0.4,1
					C342.4-487.6,342-487.4,341.6-487.6z M340.2-484.2c-0.4-0.2-0.6-0.6-0.4-1s0.6-0.6,1-0.4s0.6,0.6,0.4,1
					C341-484.2,340.5-484,340.2-484.2z M338.5-480.1c-0.5-0.2-0.7-0.7-0.5-1.1c0.2-0.5,0.7-0.7,1.1-0.5c0.5,0.2,0.7,0.7,0.5,1.1
					C339.4-480.1,338.9-479.9,338.5-480.1z M341.4-485.3c0.1-0.2,0.4-0.4,0.6-0.3c0.3,0.1,0.4,0.4,0.3,0.6c-0.1,0.2-0.4,0.4-0.6,0.3
					C341.4-484.7,341.3-485,341.4-485.3z M341.2-482.2c-0.2-0.1-0.4-0.4-0.3-0.6c0.1-0.2,0.4-0.4,0.6-0.3c0.3,0.1,0.4,0.4,0.3,0.6
					C341.8-482.3,341.5-482.1,341.2-482.2z"/>
			</g>
			<g>
				<path class="st19" d="M333.5-497.5c-0.2,0.5-0.8,0.8-1.3,0.5s-0.8-0.8-0.5-1.3s0.8-0.8,1.3-0.5
					C333.5-498.6,333.7-498,333.5-497.5z M335.2-495.5c-0.2,0.4-0.6,0.6-1,0.4s-0.6-0.6-0.4-1s0.6-0.6,1-0.4
					C335.2-496.3,335.4-495.9,335.2-495.5z M338.6-494.1c-0.2,0.4-0.6,0.6-1,0.4s-0.6-0.6-0.4-1c0.2-0.4,0.6-0.6,1-0.4
					C338.6-494.9,338.8-494.5,338.6-494.1z M342.8-492.4c-0.2,0.5-0.7,0.7-1.1,0.5c-0.5-0.2-0.7-0.7-0.5-1.1
					c0.2-0.5,0.7-0.7,1.1-0.5C342.7-493.4,342.9-492.8,342.8-492.4z M337.6-495.3c-0.2-0.1-0.4-0.4-0.3-0.6c0.1-0.2,0.4-0.4,0.6-0.3
					c0.2,0.1,0.4,0.4,0.3,0.6C338.1-495.3,337.8-495.2,337.6-495.3z M340.6-495.1c-0.1,0.2-0.4,0.4-0.6,0.3
					c-0.2-0.1-0.4-0.4-0.3-0.6c0.1-0.2,0.4-0.4,0.6-0.3C340.6-495.7,340.7-495.4,340.6-495.1z"/>
			</g>
			<g>
				<path class="st19" d="M320.7-497c0,0.5-0.5,1-1,1s-1-0.5-1-1s0.5-1,1-1C320.2-498,320.7-497.6,320.7-497z M323.1-495.9
					c0,0.4-0.3,0.8-0.8,0.8s-0.8-0.3-0.8-0.8s0.3-0.8,0.8-0.8S323.1-496.3,323.1-495.9z M326.7-495.9c0,0.4-0.3,0.8-0.8,0.8
					s-0.8-0.3-0.8-0.8s0.3-0.8,0.8-0.8S326.7-496.3,326.7-495.9z M331.2-495.9c0,0.5-0.4,0.9-0.9,0.9c-0.5,0-0.9-0.4-0.9-0.9
					s0.4-0.9,0.9-0.9C330.8-496.7,331.2-496.4,331.2-495.9z M325.3-496.6c-0.3,0-0.5-0.2-0.5-0.5s0.2-0.5,0.5-0.5s0.5,0.2,0.5,0.5
					C325.8-496.8,325.5-496.6,325.3-496.6z M328.1-497.6c0,0.3-0.2,0.5-0.5,0.5s-0.5-0.2-0.5-0.5s0.2-0.5,0.5-0.5
					S328.1-497.9,328.1-497.6z"/>
			</g>
			<g>
				<path class="st19" d="M308.1-497c0,0.5-0.5,1-1,1s-1-0.5-1-1s0.5-1,1-1C307.7-498,308.1-497.6,308.1-497z M310.5-495.9
					c0,0.4-0.3,0.8-0.8,0.8s-0.8-0.3-0.8-0.8s0.3-0.8,0.8-0.8S310.5-496.3,310.5-495.9z M314.2-495.9c0,0.4-0.3,0.8-0.8,0.8
					s-0.8-0.3-0.8-0.8s0.3-0.8,0.8-0.8S314.2-496.3,314.2-495.9z M318.7-495.9c0,0.5-0.4,0.9-0.9,0.9c-0.5,0-0.9-0.4-0.9-0.9
					s0.4-0.9,0.9-0.9C318.3-496.7,318.7-496.4,318.7-495.9z M312.8-496.6c-0.3,0-0.5-0.2-0.5-0.5s0.2-0.5,0.5-0.5s0.5,0.2,0.5,0.5
					C313.2-496.8,313-496.6,312.8-496.6z M315.6-497.6c0,0.3-0.2,0.5-0.5,0.5s-0.5-0.2-0.5-0.5s0.2-0.5,0.5-0.5
					S315.6-497.9,315.6-497.6z"/>
			</g>
			<g>
				<path class="st19" d="M295.6-497c0,0.5-0.5,1-1,1s-1-0.5-1-1s0.5-1,1-1S295.6-497.6,295.6-497z M298-495.9
					c0,0.4-0.3,0.8-0.8,0.8s-0.8-0.3-0.8-0.8s0.3-0.8,0.8-0.8C297.7-496.6,298-496.3,298-495.9z M301.7-495.9c0,0.4-0.3,0.8-0.8,0.8
					s-0.8-0.3-0.8-0.8s0.3-0.8,0.8-0.8C301.4-496.6,301.7-496.3,301.7-495.9z M306.1-495.9c0,0.5-0.4,0.9-0.9,0.9
					c-0.5,0-0.9-0.4-0.9-0.9s0.4-0.9,0.9-0.9C305.8-496.7,306.1-496.4,306.1-495.9z M300.2-496.6c-0.3,0-0.5-0.2-0.5-0.5
					s0.2-0.5,0.5-0.5s0.5,0.2,0.5,0.5C300.7-496.8,300.5-496.6,300.2-496.6z M303.1-497.6c0,0.3-0.2,0.5-0.5,0.5s-0.5-0.2-0.5-0.5
					s0.2-0.5,0.5-0.5S303.1-497.9,303.1-497.6z"/>
			</g>
			<g>
				<path class="st19" d="M284-500.8c-0.2,0.5-0.8,0.8-1.3,0.5s-0.8-0.8-0.5-1.3s0.8-0.8,1.3-0.5C284-501.9,284.3-501.3,284-500.8z
					 M285.8-498.8c-0.2,0.4-0.6,0.6-1,0.4c-0.4-0.2-0.6-0.6-0.4-1c0.2-0.4,0.6-0.6,1-0.4C285.8-499.6,286-499.2,285.8-498.8z
					 M289.2-497.4c-0.2,0.4-0.6,0.6-1,0.4c-0.4-0.2-0.6-0.6-0.4-1c0.2-0.4,0.6-0.6,1-0.4C289.2-498.2,289.4-497.8,289.2-497.4z
					 M293.3-495.7c-0.2,0.5-0.7,0.7-1.1,0.5c-0.5-0.2-0.7-0.7-0.5-1.1c0.2-0.5,0.7-0.7,1.1-0.5C293.3-496.6,293.5-496.1,293.3-495.7
					z M288.1-498.6c-0.2-0.1-0.4-0.4-0.3-0.6c0.1-0.3,0.4-0.4,0.6-0.3c0.3,0.1,0.4,0.4,0.3,0.6C288.7-498.6,288.4-498.5,288.1-498.6
					z M291.2-498.4c-0.1,0.2-0.4,0.4-0.6,0.3c-0.2-0.1-0.4-0.4-0.3-0.6c0.1-0.2,0.4-0.4,0.6-0.3C291.1-499,291.3-498.7,291.2-498.4z
					"/>
			</g>
			<g>
				<path class="st19" d="M285.4-514.6c-0.5,0-1-0.5-1-1s0.5-1,1-1s1,0.5,1,1C286.4-515.1,285.9-514.6,285.4-514.6z M284.2-512.2
					c-0.4,0-0.8-0.3-0.8-0.8s0.3-0.8,0.8-0.8s0.8,0.3,0.8,0.8S284.6-512.2,284.2-512.2z M284.2-508.6c-0.4,0-0.8-0.3-0.8-0.8
					s0.3-0.8,0.8-0.8s0.8,0.3,0.8,0.8C285-508.9,284.6-508.6,284.2-508.6z M284.2-504.1c-0.5,0-0.9-0.4-0.9-0.9
					c0-0.5,0.4-0.9,0.9-0.9c0.5,0,0.9,0.4,0.9,0.9S284.7-504.1,284.2-504.1z M284.9-510c0-0.3,0.2-0.5,0.5-0.5s0.5,0.2,0.5,0.5
					s-0.2,0.5-0.5,0.5S284.9-509.8,284.9-510z M285.9-507.2c-0.3,0-0.5-0.2-0.5-0.5s0.2-0.5,0.5-0.5s0.5,0.2,0.5,0.5
					C286.4-507.4,286.2-507.2,285.9-507.2z"/>
			</g>
			<g>
				<path class="st19" d="M279.5-525.5c-0.4,0.4-1,0.4-1.4,0s-0.4-1,0-1.4c0.4-0.4,1-0.4,1.4,0C279.9-526.6,279.9-525.9,279.5-525.5
					z M280.4-523c-0.3,0.3-0.8,0.3-1.1,0s-0.3-0.8,0-1.1s0.8-0.3,1.1,0C280.7-523.8,280.7-523.3,280.4-523z M283-520.5
					c-0.3,0.3-0.8,0.3-1.1,0s-0.3-0.8,0-1.1s0.8-0.3,1.1,0C283.2-521.2,283.2-520.8,283-520.5z M286.1-517.3c-0.3,0.3-0.9,0.3-1.2,0
					s-0.3-0.9,0-1.2c0.3-0.3,0.9-0.3,1.2,0C286.5-518.2,286.5-517.6,286.1-517.3z M282.4-522c-0.2-0.2-0.2-0.5,0-0.7s0.5-0.2,0.7,0
					c0.2,0.2,0.2,0.5,0,0.7C282.9-521.8,282.6-521.8,282.4-522z M285.2-520.7c-0.2,0.2-0.5,0.2-0.7,0c-0.2-0.2-0.2-0.5,0-0.7
					c0.2-0.2,0.5-0.2,0.7,0C285.4-521.2,285.4-520.8,285.2-520.7z"/>
			</g>
			<g>
				<path class="st19" d="M273.6-518.6c0.4-0.4,1-0.4,1.4,0c0.4,0.4,0.4,1,0,1.4c-0.4,0.4-1,0.4-1.4,0
					C273.2-517.6,273.2-518.2,273.6-518.6z M272.8-521.1c0.3-0.3,0.8-0.3,1.1,0s0.3,0.8,0,1.1c-0.3,0.3-0.8,0.3-1.1,0
					C272.5-520.4,272.5-520.8,272.8-521.1z M270.2-523.7c0.3-0.3,0.8-0.3,1.1,0c0.3,0.3,0.3,0.8,0,1.1c-0.3,0.3-0.8,0.3-1.1,0
					C269.9-523,269.9-523.5,270.2-523.7z M267.1-526.9c0.4-0.3,0.9-0.3,1.2,0s0.3,0.9,0,1.2c-0.4,0.3-0.9,0.3-1.2,0
					C266.7-526,266.7-526.6,267.1-526.9z M270.7-522.2c0.2,0.2,0.2,0.5,0,0.7c-0.2,0.2-0.5,0.2-0.7,0c-0.2-0.2-0.2-0.5,0-0.7
					C270.2-522.4,270.5-522.4,270.7-522.2z M268-523.6c0.2-0.2,0.5-0.2,0.7,0c0.2,0.2,0.2,0.5,0,0.7c-0.2,0.2-0.5,0.2-0.7,0
					C267.8-523,267.8-523.4,268-523.6z"/>
			</g>
			<g>
				<path class="st19" d="M258.8-510.4c0.4,0.4,0.4,1,0,1.4c-0.4,0.4-1,0.4-1.4,0c-0.4-0.4-0.4-1,0-1.4S258.4-510.8,258.8-510.4z
					 M261.3-511.3c0.3,0.3,0.3,0.8,0,1.1c-0.3,0.3-0.8,0.3-1.1,0c-0.3-0.3-0.3-0.8,0-1.1S261-511.6,261.3-511.3z M263.9-513.9
					c0.3,0.3,0.3,0.8,0,1.1c-0.3,0.3-0.8,0.3-1.1,0s-0.3-0.8,0-1.1C263.1-514.2,263.6-514.2,263.9-513.9z M267-517.1
					c0.3,0.3,0.4,0.9,0,1.2c-0.3,0.3-0.9,0.3-1.2,0c-0.3-0.3-0.4-0.9,0-1.2C266.1-517.4,266.7-517.4,267-517.1z M262.4-513.4
					c-0.2,0.2-0.5,0.2-0.7,0c-0.2-0.2-0.2-0.5,0-0.7c0.2-0.2,0.5-0.2,0.7,0C262.6-513.9,262.6-513.6,262.4-513.4z M263.7-516.1
					c0.2,0.2,0.2,0.5,0,0.7c-0.2,0.2-0.5,0.2-0.7,0c-0.2-0.2-0.2-0.5,0-0.7S263.5-516.3,263.7-516.1z"/>
			</g>
			<g>
				<path class="st19" d="M250-501.5c0.4,0.4,0.4,1,0,1.4s-1,0.4-1.4,0c-0.4-0.4-0.4-1,0-1.4C249-501.9,249.6-501.9,250-501.5z
					 M252.5-502.4c0.3,0.3,0.3,0.8,0,1.1c-0.3,0.3-0.8,0.3-1.1,0c-0.3-0.3-0.3-0.8,0-1.1C251.7-502.7,252.2-502.7,252.5-502.4z
					 M255.1-505c0.3,0.3,0.3,0.8,0,1.1c-0.3,0.3-0.8,0.3-1.1,0c-0.3-0.3-0.3-0.8,0-1.1C254.3-505.3,254.8-505.3,255.1-505z
					 M258.2-508.2c0.3,0.3,0.4,0.9,0,1.2c-0.3,0.3-0.9,0.4-1.2,0c-0.3-0.3-0.4-0.9,0-1.2C257.3-508.5,257.9-508.5,258.2-508.2z
					 M253.6-504.5c-0.2,0.2-0.5,0.2-0.7,0c-0.2-0.2-0.2-0.5,0-0.7c0.2-0.2,0.5-0.2,0.7,0C253.8-505,253.8-504.7,253.6-504.5z
					 M254.9-507.2c0.2,0.2,0.2,0.5,0,0.7c-0.2,0.2-0.5,0.2-0.7,0c-0.2-0.2-0.2-0.5,0-0.7C254.4-507.4,254.7-507.4,254.9-507.2z"/>
			</g>
			<g>
				<path class="st19" d="M241.2-492.6c0.4,0.4,0.4,1,0,1.4s-1,0.4-1.4,0c-0.4-0.4-0.4-1,0-1.4C240.2-493,240.8-493,241.2-492.6z
					 M243.7-493.5c0.3,0.3,0.3,0.8,0,1.1c-0.3,0.3-0.8,0.3-1.1,0c-0.3-0.3-0.3-0.8,0-1.1C242.9-493.8,243.4-493.8,243.7-493.5z
					 M246.3-496.1c0.3,0.3,0.3,0.8,0,1.1c-0.3,0.3-0.8,0.3-1.1,0c-0.3-0.3-0.3-0.8,0-1.1C245.5-496.4,246-496.4,246.3-496.1z
					 M249.4-499.3c0.3,0.3,0.4,0.9,0,1.2c-0.3,0.3-0.9,0.4-1.2,0c-0.3-0.3-0.4-0.9,0-1.2C248.5-499.6,249.1-499.6,249.4-499.3z
					 M244.8-495.6c-0.2,0.2-0.5,0.2-0.7,0c-0.2-0.2-0.2-0.5,0-0.7c0.2-0.2,0.5-0.2,0.7,0C244.9-496.1,244.9-495.8,244.8-495.6z
					 M246.1-498.3c0.2,0.2,0.2,0.5,0,0.7c-0.2,0.2-0.5,0.2-0.7,0c-0.2-0.2-0.2-0.5,0-0.7C245.6-498.5,245.9-498.5,246.1-498.3z"/>
			</g>
		</g>
	</g>
	<path class="st19" d="M187.3-467.5c1.2,7.1,4.5,13.9,9.9,19.3c13.9,13.9,36.4,13.9,50.2,0c5.5-5.5,8.7-12.3,9.9-19.3H187.3z"/>
	<path class="st3" d="M247-508l-5,5c-13.8-9.1-32.6-7.6-44.7,4.5c-13.9,13.9-13.9,36.4,0,50.2s36.4,13.9,50.2,0
		c12.1-12.1,13.6-30.7,4.7-44.5l5.1-5.1"/>
	<g>
		<path class="st3" d="M248.2-506.8l-3.1-3.1c-1.4-1.4-1.4-3.6,0-4.9l0,0c1.4-1.3,3.6-1.3,4.9,0l13.9,14c1.4,1.4,1.4,3.6,0,4.9l0,0
			c-1.4,1.4-3.6,1.4-4.9,0l-3.6-3.6"/>
	</g>
	
		<rect x="256.6" y="-515.6" transform="matrix(0.7072 -0.707 0.707 0.7072 435.4556 33.5576)" class="st24" width="3.4" height="13.3"/>
	<rect x="167" y="-464.6" class="st0" width="4.6" height="60.9"/>
	<rect x="156.5" y="-455.1" class="st0" width="104.4" height="4.6"/>
	<path class="st0" d="M174-452.8c0,2.6-2.1,4.6-4.6,4.6s-4.6-2.1-4.6-4.6s2.1-4.6,4.6-4.6S174-455.4,174-452.8z"/>
	<rect x="156.5" y="-403.7" class="st0" width="34.8" height="7"/>
	<rect x="417.7" y="-464.6" class="st0" width="4.6" height="60.9"/>
	<rect x="373.7" y="-455.1" class="st0" width="59.2" height="4.6"/>
	<path class="st0" d="M415.4-452.8c0,2.6,2.1,4.6,4.6,4.6s4.6-2.1,4.6-4.6s-2.1-4.6-4.6-4.6S415.4-455.4,415.4-452.8z"/>
	<rect x="398.1" y="-403.7" class="st0" width="34.8" height="7"/>
	<g class="st9">
		<path class="st25" d="M389.3-459.8c0,1.1-0.9,2-2,2H382c-1.1,0-2-0.9-2-2v-0.6c0-1.1,0.9-2,2-2h5.3c1.1,0,2,0.9,2,2V-459.8z"/>
		<path class="st26" d="M389.3-459.8c0,1.1-0.9,2-2,2H382c-1.1,0-2-0.9-2-2v-0.6c0-1.1,0.9-2,2-2h5.3c1.1,0,2,0.9,2,2V-459.8z"/>
	</g>
	<g>
		<path class="st27" d="M403.3-526.4c-6.3-1.7-12.9,0-18.6,4.3c-5.8-4.2-12.3-6-18.6-4.3c-30,11.8,5.7,47.8,16.3,58.4l0,0v6.8h4.6
			v-6.8l0,0C397.6-478.6,433.3-514.6,403.3-526.4z"/>
		<g>
			<path class="st19" d="M389.3-463.5c0,1.2-1,2.2-2.3,2.2h-4.6c-1.3,0-2.3-1-2.3-2.2l0,0c0-1.2,1-2.2,2.3-2.2h4.6
				C388.3-465.7,389.3-464.7,389.3-463.5L389.3-463.5z"/>
			<path class="st28" d="M385.7-465.7h1.3c1.3,0,2.3,1,2.3,2.2l0,0c0,1.2-1,2.2-2.3,2.2h-4.6c-1.3,0-2.3-1-2.3-2.2l0,0
				c0-1.2,1-2.2,2.3-2.2"/>
		</g>
	</g>
	<g>
		<path class="st19" d="M235.5-480.4c-2,2-5.2,2-7.2,0c-2-2-2-5.2,0-7.2c2-2,5.2-2,7.2,0C237.5-485.6,237.5-482.3,235.5-480.4z"/>
		<path class="st19" d="M244.8-481.6c-1.3,1.3-3.4,1.3-4.8,0c-1.3-1.3-1.3-3.4,0-4.8c1.3-1.3,3.4-1.3,4.8,0
			C246.1-485,246.1-482.9,244.8-481.6z"/>
		<path class="st19" d="M244.1-490.8c-0.9,0.9-2.3,0.9-3.2,0c-0.9-0.9-0.9-2.3,0-3.2c0.9-0.9,2.3-0.9,3.2,0
			C244.9-493.1,244.9-491.6,244.1-490.8z"/>
	</g>
</g>
<g>
	<g>
		<g id="browser_1_">
			<g>
				<path class="st29" d="M760-400c0,5.5-4.5,10-10,10H570c-5.5,0-10-4.5-10-10v-155c0-5.5,4.5-10,10-10h180c5.5,0,10,4.5,10,10
					V-400z"/>
			</g>
			<path class="st30" d="M750-565H570c-5.5,0-10,4.5-10,10v5h200v-5C760-560.5,755.5-565,750-565z"/>
			<g>
				<path class="st31" d="M700-557.5c0,2.2-1.8,4-4,4h-72c-2.2,0-4-1.8-4-4l0,0c0-2.2,1.8-4,4-4h72C698.2-561.5,700-559.7,700-557.5
					L700-557.5z"/>
			</g>
			<circle class="st32" cx="569" cy="-557.5" r="3"/>
			<circle class="st32" cx="577" cy="-557.5" r="3"/>
			<circle class="st32" cx="584.9" cy="-557.5" r="3"/>
		</g>
		<rect x="560" y="-550" class="st33" width="200" height="12"/>
		<path class="st34" d="M583.5-543.4l-2.6-2.6l-2.6,2.6c-0.8,0.8-0.5,1.4,0.6,1.4h4C584-542,584.3-542.6,583.5-543.4z"/>
		<g>
			<g>
				<path class="st34" d="M670.5-544c0,1.1-0.9,2-2,2h-16c-1.1,0-2-0.9-2-2l0,0c0-1.1,0.9-2,2-2h16C669.7-546,670.5-545.1,670.5-544
					L670.5-544z"/>
			</g>
			<path class="st34" d="M678.7-543.4l-2.6-2.6l-2.6,2.6c-0.8,0.8-0.5,1.4,0.6,1.4h4C679.3-542,679.5-542.6,678.7-543.4z"/>
		</g>
		<g>
			<g>
				<path class="st34" d="M718.2-544c0,1.1-0.9,2-2,2h-16c-1.1,0-2-0.9-2-2l0,0c0-1.1,0.9-2,2-2h16C717.3-546,718.2-545.1,718.2-544
					L718.2-544z"/>
			</g>
			<path class="st34" d="M726.4-543.4l-2.6-2.6l-2.6,2.6c-0.8,0.8-0.5,1.4,0.6,1.4h4C726.9-542,727.1-542.6,726.4-543.4z"/>
		</g>
		<g>
			<g>
				<path class="st35" d="M622.9-544c0,1.1-0.9,2-2,2h-16c-1.1,0-2-0.9-2-2l0,0c0-1.1,0.9-2,2-2h16C622-546,622.9-545.1,622.9-544
					L622.9-544z"/>
			</g>
			<path class="st35" d="M625.9-544.6l2.6,2.6l2.6-2.6c0.8-0.8,0.5-1.4-0.6-1.4h-4C625.4-546,625.2-545.4,625.9-544.6z"/>
		</g>
		<path class="st34" d="M573.3-546H560v4h13.3c1.1,0,2-0.9,2-2S574.4-546,573.3-546z"/>
		<path class="st35" d="M760-546h-12.2c-1.1,0-2,0.9-2,2s0.9,2,2,2H760V-546z"/>
		<text transform="matrix(1 0 0 1 614.334 -518.8384)" class="st33" style="font-family:'ArialMT'; font-size:12px;">Daily Components</text>
		<g>
			<path class="st36" d="M730-452.5c0,2.8-2.2,5-5,5H595c-2.8,0-5-2.2-5-5v-50c0-2.8,2.2-5,5-5h130c2.8,0,5,2.2,5,5V-452.5z"/>
		</g>
		<g>
			<path class="st36" d="M655-410c0,2.8-2.2,5-5,5h-55c-2.8,0-5-2.2-5-5v-20c0-2.8,2.2-5,5-5h55c2.8,0,5,2.2,5,5V-410z"/>
		</g>
		<g>
			<path class="st37" d="M665-410c0,2.8,2.2,5,5,5h55c2.8,0,5-2.2,5-5v-20c0-2.8-2.2-5-5-5h-55c-2.8,0-5,2.2-5,5V-410z"/>
		</g>
		<g>
			<g>
				<circle class="st38" cx="730" cy="-477.5" r="8"/>
			</g>
			<polyline class="st6" points="728.8,-480.5 731.8,-477.5 728.8,-474.5 			"/>
		</g>
		<g>
			<g>
				<circle class="st38" cx="590" cy="-477.5" r="8"/>
			</g>
			<polyline class="st6" points="591.2,-480.5 588.2,-477.5 591.2,-474.5 			"/>
		</g>
		<circle class="st6" cx="652.5" cy="-455.5" r="2"/>
		<circle class="st39" cx="662.5" cy="-455.5" r="2"/>
		<circle class="st6" cx="672.5" cy="-455.5" r="2"/>
		<g>
			<g>
				<path class="st34" d="M641-428.4c0,1.1-0.9,2-2,2h-26c-1.1,0-2-0.9-2-2l0,0c0-1.1,0.9-2,2-2h26C640.2-430.4,641-429.5,641-428.4
					L641-428.4z"/>
			</g>
			<path class="st34" d="M649.2-427.8l-2.6-2.6l-2.6,2.6c-0.8,0.8-0.5,1.4,0.6,1.4h4C649.8-426.4,650-427,649.2-427.8z"/>
		</g>
		<g>
			<path class="st38" d="M606.1-428.4c0,1.1-0.9,2-2,2h-6c-1.1,0-2-0.9-2-2l0,0c0-1.1,0.9-2,2-2h6
				C605.2-430.4,606.1-429.5,606.1-428.4L606.1-428.4z"/>
		</g>
		<g>
			<path class="st38" d="M606.1-420c0,1.1-0.9,2-2,2h-6c-1.1,0-2-0.9-2-2l0,0c0-1.1,0.9-2,2-2h6C605.2-422,606.1-421.1,606.1-420
				L606.1-420z"/>
		</g>
		<g>
			<path class="st38" d="M606.1-411.6c0,1.1-0.9,2-2,2h-6c-1.1,0-2-0.9-2-2l0,0c0-1.1,0.9-2,2-2h6
				C605.2-413.6,606.1-412.7,606.1-411.6L606.1-411.6z"/>
		</g>
		<g>
			<g>
				<path class="st34" d="M641-420c0,1.1-0.9,2-2,2h-26c-1.1,0-2-0.9-2-2l0,0c0-1.1,0.9-2,2-2h26C640.2-422,641-421.1,641-420
					L641-420z"/>
			</g>
			<path class="st34" d="M649.2-419.4l-2.6-2.6l-2.6,2.6c-0.8,0.8-0.5,1.4,0.6,1.4h4C649.8-418,650-418.6,649.2-419.4z"/>
		</g>
		<g>
			<g>
				<path class="st35" d="M641-411.6c0-1.1-0.9-2-2-2h-26c-1.1,0-2,0.9-2,2l0,0c0,1.1,0.9,2,2,2h26C640.2-409.6,641-410.5,641-411.6
					L641-411.6z"/>
			</g>
			<path class="st35" d="M649.2-412.2l-2.6,2.6l-2.6-2.6c-0.8-0.8-0.5-1.4,0.6-1.4h4C649.8-413.6,650-413,649.2-412.2z"/>
		</g>
	</g>
	<g>
		<g id="browser_2_">
			<g>
				<path class="st29" d="M998-400c0,5.5-4.5,10-10,10H808c-5.5,0-10-4.5-10-10v-155c0-5.5,4.5-10,10-10h180c5.5,0,10,4.5,10,10
					V-400z"/>
			</g>
			<path class="st30" d="M988-565H808c-5.5,0-10,4.5-10,10v5h200v-5C998-560.5,993.5-565,988-565z"/>
			<g>
				<path class="st31" d="M938-557.5c0,2.2-1.8,4-4,4h-72c-2.2,0-4-1.8-4-4l0,0c0-2.2,1.8-4,4-4h72C936.2-561.5,938-559.7,938-557.5
					L938-557.5z"/>
			</g>
			<circle class="st32" cx="807" cy="-557.5" r="3"/>
			<circle class="st32" cx="815" cy="-557.5" r="3"/>
			<circle class="st32" cx="822.9" cy="-557.5" r="3"/>
		</g>
		<rect x="798" y="-550" class="st33" width="200" height="12"/>
		<path class="st34" d="M821.5-543.4l-2.6-2.6l-2.6,2.6c-0.8,0.8-0.5,1.4,0.6,1.4h4C822-542,822.3-542.6,821.5-543.4z"/>
		<g>
			<g>
				<path class="st34" d="M908.5-544c0,1.1-0.9,2-2,2h-16c-1.1,0-2-0.9-2-2l0,0c0-1.1,0.9-2,2-2h16C907.7-546,908.5-545.1,908.5-544
					L908.5-544z"/>
			</g>
			<path class="st34" d="M916.7-543.4l-2.6-2.6l-2.6,2.6c-0.8,0.8-0.5,1.4,0.6,1.4h4C917.3-542,917.5-542.6,916.7-543.4z"/>
		</g>
		<g>
			<g>
				<path class="st34" d="M956.2-544c0,1.1-0.9,2-2,2h-16c-1.1,0-2-0.9-2-2l0,0c0-1.1,0.9-2,2-2h16C955.3-546,956.2-545.1,956.2-544
					L956.2-544z"/>
			</g>
			<path class="st34" d="M964.4-543.4l-2.6-2.6l-2.6,2.6c-0.8,0.8-0.5,1.4,0.6,1.4h4C964.9-542,965.1-542.6,964.4-543.4z"/>
		</g>
		<g>
			<g>
				<path class="st35" d="M860.9-544c0,1.1-0.9,2-2,2h-16c-1.1,0-2-0.9-2-2l0,0c0-1.1,0.9-2,2-2h16C860-546,860.9-545.1,860.9-544
					L860.9-544z"/>
			</g>
			<path class="st35" d="M863.9-544.6l2.6,2.6l2.6-2.6c0.8-0.8,0.5-1.4-0.6-1.4h-4C863.4-546,863.2-545.4,863.9-544.6z"/>
		</g>
		<path class="st34" d="M811.3-546H798v4h13.3c1.1,0,2-0.9,2-2S812.4-546,811.3-546z"/>
		<path class="st35" d="M998-546h-12.2c-1.1,0-2,0.9-2,2s0.9,2,2,2H998V-546z"/>
		<text transform="matrix(1 0 0 1 852.334 -518.8384)" class="st33" style="font-family:'ArialMT'; font-size:12px;">Daily Components</text>
		<g>
			<path class="st36" d="M893-410c0,2.8-2.2,5-5,5h-55c-2.8,0-5-2.2-5-5v-20c0-2.8,2.2-5,5-5h55c2.8,0,5,2.2,5,5V-410z"/>
		</g>
		<g>
			<g>
				<path class="st40" d="M878.2-421.2c0,4.3-3.5,7.7-7.7,7.7s-7.7-3.5-7.7-7.7c0-4.3,3.5-7.7,7.7-7.7S878.2-425.4,878.2-421.2z"/>
			</g>
			<path class="st29" d="M880.6-417.4c-0.4-1.4-1.6-2.4-3-2.4c-0.9,0-1.7,0.4-2.2,0.9c-0.6-0.6-1.4-0.9-2.2-0.9c-1.5,0-2.7,1-3,2.4
				c-1.3,0.4-2.4,1.6-2.4,3c0,1.8,1.4,3.2,3.2,3.2h9c1.8,0,3.2-1.4,3.2-3.2C882.9-415.8,881.9-417,880.6-417.4z"/>
		</g>
		<g>
			<text transform="matrix(1 0 0 1 839.2036 -416.1963)" class="st35" style="font-family:'Helvetica'; font-size:12px;">33</text>
			<g>
				<path class="st35" d="M853.3-421.9c-0.3,0-0.6-0.1-0.6-0.7s0.3-0.7,0.6-0.7c0.3,0,0.6,0.1,0.6,0.7
					C854-422.1,853.6-421.9,853.3-421.9z M853.3-423c-0.3,0-0.4,0.3-0.4,0.5s0,0.5,0.4,0.5s0.4-0.3,0.4-0.5S853.6-423,853.3-423z"/>
				<path class="st35" d="M856.3-422.3c-0.1-0.5-0.5-0.6-0.8-0.6c-0.5,0-0.9,0.4-0.9,1.1c0,0.7,0.2,1.2,0.9,1.2
					c0.2,0,0.7-0.1,0.8-0.8h0.4c-0.2,1.1-1,1.1-1.2,1.1c-0.7,0-1.3-0.4-1.3-1.5c0-0.9,0.5-1.5,1.3-1.5c0.7,0,1.1,0.5,1.2,0.9H856.3z
					"/>
			</g>
		</g>
		<g>
			<path class="st33" d="M961.8-500.9c0,1.1-0.9,2-2,2h-48.7c-1.1,0-2-0.9-2-2l0,0c0-1.1,0.9-2,2-2h48.7
				C960.9-502.9,961.8-502,961.8-500.9L961.8-500.9z"/>
		</g>
		<g>
			<path class="st33" d="M943.6-492.5c0,1.1-0.9,2-2,2h-30.4c-1.1,0-2-0.9-2-2l0,0c0-1.1,0.9-2,2-2h30.4
				C942.7-494.5,943.6-493.6,943.6-492.5L943.6-492.5z"/>
		</g>
		<g>
			<path class="st38" d="M961.8-484.1c0,1.1-0.9,2-2,2h-48.7c-1.1,0-2-0.9-2-2l0,0c0-1.1,0.9-2,2-2h48.7
				C960.9-486.1,961.8-485.2,961.8-484.1L961.8-484.1z"/>
		</g>
		<g>
			<path class="st38" d="M961.8-475.8c0,1.1-0.9,2-2,2h-48.7c-1.1,0-2-0.9-2-2l0,0c0-1.1,0.9-2,2-2h48.7
				C960.9-477.8,961.8-476.9,961.8-475.8L961.8-475.8z"/>
		</g>
		<g>
			<path class="st38" d="M961.8-467.5c0,1.1-0.9,2-2,2h-48.7c-1.1,0-2-0.9-2-2l0,0c0-1.1,0.9-2,2-2h48.7
				C960.9-469.5,961.8-468.6,961.8-467.5L961.8-467.5z"/>
		</g>
		<g>
			<path class="st38" d="M961.8-459.2c0,1.1-0.9,2-2,2h-48.7c-1.1,0-2-0.9-2-2l0,0c0-1.1,0.9-2,2-2h48.7
				C960.9-461.2,961.8-460.3,961.8-459.2L961.8-459.2z"/>
		</g>
		<g>
			<path class="st38" d="M961.8-450.9c0,1.1-0.9,2-2,2h-48.7c-1.1,0-2-0.9-2-2l0,0c0-1.1,0.9-2,2-2h48.7
				C960.9-452.9,961.8-452,961.8-450.9L961.8-450.9z"/>
		</g>
		<g>
			<path class="st38" d="M961.8-442.6c0,1.1-0.9,2-2,2h-48.7c-1.1,0-2-0.9-2-2l0,0c0-1.1,0.9-2,2-2h48.7
				C960.9-444.6,961.8-443.7,961.8-442.6L961.8-442.6z"/>
		</g>
		<g>
			<path class="st38" d="M961.8-434.3c0,1.1-0.9,2-2,2h-48.7c-1.1,0-2-0.9-2-2l0,0c0-1.1,0.9-2,2-2h48.7
				C960.9-436.3,961.8-435.4,961.8-434.3L961.8-434.3z"/>
		</g>
		<g>
			<path class="st38" d="M961.8-426c0,1.1-0.9,2-2,2h-48.7c-1.1,0-2-0.9-2-2l0,0c0-1.1,0.9-2,2-2h48.7
				C960.9-428,961.8-427.1,961.8-426L961.8-426z"/>
		</g>
		<g>
			<path class="st38" d="M961.8-417.7c0,1.1-0.9,2-2,2h-48.7c-1.1,0-2-0.9-2-2l0,0c0-1.1,0.9-2,2-2h48.7
				C960.9-419.7,961.8-418.8,961.8-417.7L961.8-417.7z"/>
		</g>
		<g>
			<path class="st38" d="M949.5-409.4c0,1.1-0.9,2-2,2h-36.4c-1.1,0-2-0.9-2-2l0,0c0-1.1,0.9-2,2-2h36.4
				C948.6-411.4,949.5-410.5,949.5-409.4L949.5-409.4z"/>
		</g>
		<g>
			<path class="st38" d="M886.8-500.9c0,1.1-0.9,2-2,2h-48.7c-1.1,0-2-0.9-2-2l0,0c0-1.1,0.9-2,2-2h48.7
				C885.9-502.9,886.8-502,886.8-500.9L886.8-500.9z"/>
		</g>
		<g>
			<path class="st33" d="M886.8-500.9c0,1.1-0.9,2-2,2h-48.7c-1.1,0-2-0.9-2-2l0,0c0-1.1,0.9-2,2-2h48.7
				C885.9-502.9,886.8-502,886.8-500.9L886.8-500.9z"/>
		</g>
		<g>
			<path class="st38" d="M886.8-492.5c0,1.1-0.9,2-2,2h-48.7c-1.1,0-2-0.9-2-2l0,0c0-1.1,0.9-2,2-2h48.7
				C885.9-494.5,886.8-493.6,886.8-492.5L886.8-492.5z"/>
		</g>
		<g>
			<path class="st38" d="M880.2-484.1c0,1.1-0.9,2-2,2h-42.1c-1.1,0-2-0.9-2-2l0,0c0-1.1,0.9-2,2-2h42.1
				C879.3-486.1,880.2-485.2,880.2-484.1L880.2-484.1z"/>
		</g>
		<g>
			<g>
				<path class="st33" d="M879.5-463.8c0,1.1-0.9,2-2,2h-41.4c-1.1,0-2-0.9-2-2l0,0c0-1.1,0.9-2,2-2h41.4
					C878.6-465.8,879.5-464.9,879.5-463.8L879.5-463.8z"/>
			</g>
			<g>
				<path class="st38" d="M886.8-455.4c0,1.1-0.9,2-2,2h-48.7c-1.1,0-2-0.9-2-2l0,0c0-1.1,0.9-2,2-2h48.7
					C885.9-457.4,886.8-456.5,886.8-455.4L886.8-455.4z"/>
			</g>
			<g>
				<path class="st38" d="M866.5-447c0,1.1-0.9,2-2,2h-28.3c-1.1,0-2-0.9-2-2l0,0c0-1.1,0.9-2,2-2h28.3
					C865.6-449,866.5-448.1,866.5-447L866.5-447z"/>
			</g>
		</g>
	</g>
	<line class="st37" x1="730" y1="-420" x2="828" y2="-420"/>
</g>
<g>
	<path class="st31" d="M-428.6,86.6c0,2.2-1.8,4-4,4h-12c-2.2,0-4-1.8-4-4v-92c0-2.2,1.8-4,4-4h12c2.2,0,4,1.8,4,4V86.6z"/>
	<path class="st41" d="M-428.6,86.6c0,2.2-1.8,4-4,4h-12c-2.2,0-4-1.8-4-4v-92c0-2.2,1.8-4,4-4h12c2.2,0,4,1.8,4,4V86.6z"/>
</g>
<polygon class="st42" points="-441,2.4 -439.4,1.8 -437.8,4.8 -436.6,4.4 -438.3,1.4 -436.3,1.4 -441,-3.7 "/>
<polygon class="st42" points="-430.6,8.6 -432.6,8.6 -430.6,6.6 "/>
<polygon class="st42" points="-430.6,28.6 -432.6,28.6 -430.6,26.6 "/>
<polygon class="st42" points="-430.6,48.6 -432.6,48.6 -430.6,46.6 "/>
<g>
	<path class="st42" d="M-435.4,36.6l0.1,1.9h-0.2c0-0.3-0.1-0.6-0.2-0.7c-0.1-0.2-0.3-0.4-0.5-0.5s-0.5-0.2-0.8-0.2h-1.1v6.1
		c0,0.5,0,0.8,0.2,0.9c0.1,0.2,0.4,0.2,0.7,0.2h0.3v0.2h-3.4v-0.2h0.3c0.3,0,0.6-0.1,0.7-0.3c0.1-0.1,0.1-0.4,0.1-0.9v-6.1h-1
		c-0.4,0-0.6,0-0.8,0.1c-0.2,0.1-0.4,0.2-0.5,0.4c-0.1,0.2-0.2,0.5-0.3,0.9h-0.2l0.1-1.9L-435.4,36.6L-435.4,36.6z"/>
</g>
<line class="st43" x1="-443.2" y1="56" x2="-434.1" y2="65.1"/>
<polygon class="st44" points="-434.7,24 -438.1,20.6 -434.7,17.1 "/>
<polygon class="st45" points="-441.5,24 -438.1,20.6 -441.5,17.1 "/>
<line class="st46" x1="-438.1" y1="14.2" x2="-438.1" y2="26.9"/>
<rect x="-443.2" y="75.3" class="st44" width="6.4" height="6.4"/>
<rect x="-440" y="78.5" class="st45" width="5.9" height="5.9"/>
<line class="st47" x1="-448.6" y1="68.6" x2="-428.6" y2="68.6"/>
<path class="st48" d="M155.5,98.5c-13.9,0-25.2,9.1-25.2,20.2c0,4,1.5,7.8,4,10.9c0.1,0.1,0.4,0.5,0.5,0.6c0,0-0.1-0.2-0.1-0.2l0,0
	l0,0l0,0c0.3,0.4,0.5,0.9,0.5,1.5c0,0.2-2.4,7.6-2.4,7.6l0,0c-0.2,0.6,0.3,1.2,1,1.3c0.1,0,0.2,0,0.3,0c0.2,0,0.3,0,0.5-0.1l0.2-0.1
	l6.6-2.9c0.1-0.1,1.2-0.5,1.3-0.5l0.1,0c0,0,0,0-0.1,0c0.4-0.2,0.9-0.2,1.5-0.2c0.5,0,0.9,0.1,1.4,0.2c0,0,0,0,0,0
	c0.1,0,0.1,0,0.2,0.1c3,1,6.4,1.4,9.9,1.4c13.9,0,25.1-8.4,25.1-19.6C180.7,107.6,169.4,98.5,155.5,98.5L155.5,98.5z"/>
<linearGradient id="SVGID_1_" gradientUnits="userSpaceOnUse" x1="146.1831" y1="107.3678" x2="73.298" y2="46.2099" gradientTransform="matrix(1 0 0 -1 0 202)">
	<stop  offset="0" style="stop-color:#ADFF78"/>
	<stop  offset="0.1015" style="stop-color:#AEFF88"/>
	<stop  offset="0.2996" style="stop-color:#AFFFA0"/>
	<stop  offset="0.5082" style="stop-color:#AFFFB1"/>
	<stop  offset="0.7325" style="stop-color:#B0FFBC"/>
	<stop  offset="1" style="stop-color:#B0FFBF"/>
</linearGradient>
<path class="st49" d="M115,85.5c-24.4,0-44.2,15.9-44.2,35.5c0,7.1,2.6,13.6,7,19.2c0.2,0.2,0.7,0.9,0.8,1.1c0,0-0.2-0.4-0.2-0.4
	l0,0l0,0l0,0c0.5,0.8,0.8,1.6,0.8,2.6c0,0.3-4.1,13.4-4.1,13.4l0,0c-0.3,1,0.5,2.1,1.8,2.3c0.2,0.1,0.4,0.1,0.6,0.1
	c0.3,0,0.6-0.1,0.8-0.1l0.4-0.1l11.7-5.1c0.2-0.1,2.1-0.8,2.3-0.9l0.1-0.1c0,0,0,0-0.1,0.1c0.8-0.3,1.7-0.4,2.6-0.4
	c0.8,0,1.6,0.1,2.4,0.4c0,0,0.1,0,0.1,0c0.1,0.1,0.2,0.1,0.3,0.1c5.3,1.8,11.2,2.4,17.3,2.4c24.4,0,44-14.8,44-34.4
	C159.2,101.4,139.4,85.5,115,85.5L115,85.5z"/>
<g>
	<path class="st37" d="M-6.1-118.8h65.8c8.2,0,16.2,6.7,17.6,14.8l1.1,6.4c1.4,8.1,5.3,14.8,8.6,14.8s4.8-6.6,3.4-14.8L83-140
		c-1.4-8.1,0.1-14.8,3.4-14.8s7.2,6.6,8.6,14.8l1.1,6.4c1.4,8.1,9.4,14.8,17.6,14.8h60.6"/>
</g>
<g id="browser_3_">
	<path class="st30" d="M248.2-171.5H140.4c-3.3,0-6,2.7-6,6v3h119.8v-3C254.2-168.9,251.5-171.5,248.2-171.5z"/>
	<circle class="st32" cx="139.8" cy="-167.1" r="1.8"/>
	<circle class="st32" cx="144.6" cy="-167.1" r="1.8"/>
	<circle class="st32" cx="149.3" cy="-167.1" r="1.8"/>
	<path class="st50" d="M134.4-162.6v89.8c0,3.3,2.7,6,6,6h107.8c3.3,0,6-2.7,6-6v-89.8H134.4z"/>
	<g>
		<path class="st50" d="M175.1-166.6c-0.3-0.6-1.1-1-1.8-1h-14.6c-0.7,0-1.5,0.5-1.8,1l-2.4,4h23L175.1-166.6z"/>
	</g>
	<g>
		<line class="st51" x1="171.8" y1="-165.8" x2="173.3" y2="-164.3"/>
		<line class="st51" x1="173.3" y1="-165.8" x2="171.8" y2="-164.3"/>
	</g>
	<path class="st52" d="M140.4-66.7h14.1v-95.8h-20.1v89.8C134.4-69.4,137.1-66.7,140.4-66.7z"/>
	<g>
		<path class="st50" d="M151.6-156.9c0,0.6-0.9,1.1-2,1.1h-10.3c-1.1,0-2-0.5-2-1.1c0-0.6,0.9-1.1,2-1.1h10.3
			C150.7-158,151.6-157.5,151.6-156.9z"/>
	</g>
	<g>
		<path class="st53" d="M171-156.9c0,0.6-0.9,1.1-2,1.1h-7.3c-1.1,0-2-0.5-2-1.1c0-0.6,0.9-1.1,2-1.1h7.3
			C170.1-158,171-157.5,171-156.9z"/>
	</g>
	<g>
		<path class="st54" d="M174-149.4c0,0.6-0.9,1.1-2,1.1h-4.3c-1.1,0-2-0.5-2-1.1s0.9-1.1,2-1.1h4.3C173.1-150.5,174-150,174-149.4z"
			/>
	</g>
	<g>
		<path class="st54" d="M168-153.2c0,0.6-0.9,1.1-2,1.1h-4.3c-1.1,0-2-0.5-2-1.1s0.9-1.1,2-1.1h4.3C167.1-154.3,168-153.8,168-153.2
			z"/>
	</g>
	<g>
		<path class="st55" d="M186.9-149.4c0,0.6-0.9,1.1-2,1.1h-7.3c-1.1,0-2-0.5-2-1.1s0.9-1.1,2-1.1h7.3
			C186-150.5,186.9-150,186.9-149.4z"/>
	</g>
	<g>
		<path class="st56" d="M193.8-149.4c0,0.6-0.9,1.1-2,1.1h-1.3c-1.1,0-2-0.5-2-1.1s0.9-1.1,2-1.1h1.3
			C192.9-150.5,193.8-150,193.8-149.4z"/>
	</g>
	<g>
		<path class="st57" d="M192.8-141.9c0,0.6-0.9,1.1-2,1.1h-1.3c-1.1,0-2-0.5-2-1.1s0.9-1.1,2-1.1h1.3
			C191.9-143,192.8-142.5,192.8-141.9z"/>
	</g>
	<g>
		<path class="st54" d="M203.7-149.4c0,0.6-0.9,1.1-2,1.1h-4.3c-1.1,0-2-0.5-2-1.1s0.9-1.1,2-1.1h4.3
			C202.8-150.5,203.7-150,203.7-149.4z"/>
	</g>
	<g>
		<path class="st54" d="M180-145.6c0,0.6-0.9,1.1-2,1.1h-4.3c-1.1,0-2-0.5-2-1.1c0-0.6,0.9-1.1,2-1.1h4.3
			C179.1-146.7,180-146.2,180-145.6z"/>
	</g>
	<g>
		<path class="st54" d="M186-141.9c0,0.6-0.9,1.1-2,1.1h-4.3c-1.1,0-2-0.5-2-1.1s0.9-1.1,2-1.1h4.3C185.1-143,186-142.5,186-141.9z"
			/>
	</g>
	<g>
		<path class="st54" d="M202.5-141.9c0,0.6-0.9,1.1-2,1.1h-4.3c-1.1,0-2-0.5-2-1.1s0.9-1.1,2-1.1h4.3
			C201.6-143,202.5-142.5,202.5-141.9z"/>
	</g>
	<g>
		<path class="st54" d="M186-138.1c0,0.6-0.9,1.1-2,1.1h-4.3c-1.1,0-2-0.5-2-1.1s0.9-1.1,2-1.1h4.3C185.1-139.2,186-138.7,186-138.1
			z"/>
	</g>
	<g>
		<path class="st54" d="M180-134.3c0,0.6-0.9,1.1-2,1.1h-4.3c-1.1,0-2-0.5-2-1.1c0-0.6,0.9-1.1,2-1.1h4.3
			C179.1-135.4,180-134.9,180-134.3z"/>
	</g>
	<g>
		<path class="st54" d="M174-130.6c0,0.6-0.9,1.1-2,1.1h-4.3c-1.1,0-2-0.5-2-1.1s0.9-1.1,2-1.1h4.3C173.1-131.7,174-131.2,174-130.6
			z"/>
	</g>
	<g>
		<path class="st54" d="M174-126.8c0,0.6-0.9,1.1-2,1.1h-4.3c-1.1,0-2-0.5-2-1.1s0.9-1.1,2-1.1h4.3C173.1-127.9,174-127.4,174-126.8
			z"/>
	</g>
	<g>
		<path class="st53" d="M186.9-126.8c0,0.6-0.9,1.1-2,1.1h-7.3c-1.1,0-2-0.5-2-1.1s0.9-1.1,2-1.1h7.3
			C186-127.9,186.9-127.4,186.9-126.8z"/>
	</g>
	<g>
		<path class="st55" d="M192.8-119.3c0,0.6-0.9,1.1-2,1.1h-1.3c-1.1,0-2-0.5-2-1.1s0.9-1.1,2-1.1h1.3
			C191.9-120.4,192.8-119.9,192.8-119.3z"/>
	</g>
	<g>
		<path class="st54" d="M196.7-126.8c0,0.6-0.9,1.1-2,1.1h-4.3c-1.1,0-2-0.5-2-1.1s0.9-1.1,2-1.1h4.3
			C195.8-127.9,196.7-127.4,196.7-126.8z"/>
	</g>
	<g>
		<path class="st54" d="M180-123c0,0.6-0.9,1.1-2,1.1h-4.3c-1.1,0-2-0.5-2-1.1s0.9-1.1,2-1.1h4.3C179.1-124.1,180-123.6,180-123z"/>
	</g>
	<g>
		<path class="st54" d="M186-119.3c0,0.6-0.9,1.1-2,1.1h-4.3c-1.1,0-2-0.5-2-1.1s0.9-1.1,2-1.1h4.3C185.1-120.4,186-119.9,186-119.3
			z"/>
	</g>
	<g>
		<path class="st54" d="M202.5-119.3c0,0.6-0.9,1.1-2,1.1h-4.3c-1.1,0-2-0.5-2-1.1s0.9-1.1,2-1.1h4.3
			C201.6-120.4,202.5-119.9,202.5-119.3z"/>
	</g>
	<g>
		<path class="st54" d="M186-115.5c0,0.6-0.9,1.1-2,1.1h-4.3c-1.1,0-2-0.5-2-1.1s0.9-1.1,2-1.1h4.3C185.1-116.6,186-116.1,186-115.5
			z"/>
	</g>
	<g>
		<path class="st54" d="M180-111.7c0,0.6-0.9,1.1-2,1.1h-4.3c-1.1,0-2-0.5-2-1.1s0.9-1.1,2-1.1h4.3C179.1-112.8,180-112.3,180-111.7
			z"/>
	</g>
	<g>
		<path class="st54" d="M174-108c0,0.6-0.9,1.1-2,1.1h-4.3c-1.1,0-2-0.5-2-1.1s0.9-1.1,2-1.1h4.3C173.1-109.1,174-108.6,174-108z"/>
	</g>
	<g>
		<path class="st54" d="M168-104.2c0,0.6-0.9,1.1-2,1.1h-4.3c-1.1,0-2-0.5-2-1.1s0.9-1.1,2-1.1h4.3C167.1-105.3,168-104.8,168-104.2
			z"/>
	</g>
	<g>
		<path class="st52" d="M158.1-156.9c0,0.6-0.5,1-1,1h-0.3c-0.5,0-1-0.4-1-1v-0.2c0-0.6,0.5-1,1-1h0.3c0.5,0,1,0.4,1,1V-156.9z"/>
	</g>
	<g>
		<path class="st52" d="M158.1-153.1c0,0.5-0.5,1-1,1h-0.3c-0.5,0-1-0.5-1-1v-0.2c0-0.6,0.5-1,1-1h0.3c0.5,0,1,0.4,1,1V-153.1z"/>
	</g>
	<g>
		<path class="st52" d="M158.1-149.3c0,0.6-0.5,1-1,1h-0.3c-0.5,0-1-0.4-1-1v-0.2c0-0.6,0.5-1,1-1h0.3c0.5,0,1,0.4,1,1V-149.3z"/>
	</g>
	<g>
		<path class="st52" d="M158.1-145.6c0,0.6-0.5,1-1,1h-0.3c-0.5,0-1-0.4-1-1v-0.2c0-0.6,0.5-1,1-1h0.3c0.5,0,1,0.4,1,1V-145.6z"/>
	</g>
	<g>
		<path class="st52" d="M158.1-141.8c0,0.5-0.5,1-1,1h-0.3c-0.5,0-1-0.5-1-1v-0.2c0-0.6,0.5-1,1-1h0.3c0.5,0,1,0.4,1,1V-141.8z"/>
	</g>
	<g>
		<path class="st52" d="M158.1-138c0,0.6-0.5,1-1,1h-0.3c-0.5,0-1-0.4-1-1v-0.2c0-0.6,0.5-1,1-1h0.3c0.5,0,1,0.4,1,1V-138z"/>
	</g>
	<g>
		<path class="st52" d="M158.1-134.2c0,0.6-0.5,1-1,1h-0.3c-0.5,0-1-0.4-1-1v-0.2c0-0.5,0.5-1,1-1h0.3c0.5,0,1,0.5,1,1V-134.2z"/>
	</g>
	<g>
		<path class="st52" d="M158.1-130.5c0,0.6-0.5,1-1,1h-0.3c-0.5,0-1-0.4-1-1v-0.2c0-0.6,0.5-1,1-1h0.3c0.5,0,1,0.4,1,1V-130.5z"/>
	</g>
	<g>
		<path class="st52" d="M158.1-126.7c0,0.6-0.5,1-1,1h-0.3c-0.5,0-1-0.4-1-1v-0.2c0-0.6,0.5-1,1-1h0.3c0.5,0,1,0.4,1,1V-126.7z"/>
	</g>
	<g>
		<path class="st52" d="M158.1-122.9c0,0.6-0.5,1-1,1h-0.3c-0.5,0-1-0.4-1-1v-0.2c0-0.6,0.5-1,1-1h0.3c0.5,0,1,0.4,1,1V-122.9z"/>
	</g>
	<g>
		<path class="st52" d="M158.1-119.2c0,0.6-0.5,1-1,1h-0.3c-0.5,0-1-0.4-1-1v-0.2c0-0.6,0.5-1,1-1h0.3c0.5,0,1,0.4,1,1V-119.2z"/>
	</g>
	<g>
		<path class="st52" d="M158.1-115.4c0,0.6-0.5,1-1,1h-0.3c-0.5,0-1-0.4-1-1v-0.2c0-0.6,0.5-1,1-1h0.3c0.5,0,1,0.4,1,1V-115.4z"/>
	</g>
	<g>
		<path class="st52" d="M158.1-111.6c0,0.6-0.5,1-1,1h-0.3c-0.5,0-1-0.4-1-1v-0.2c0-0.6,0.5-1,1-1h0.3c0.5,0,1,0.4,1,1V-111.6z"/>
	</g>
	<g>
		<path class="st52" d="M158.1-107.9c0,0.6-0.5,1-1,1h-0.3c-0.5,0-1-0.4-1-1v-0.2c0-0.6,0.5-1,1-1h0.3c0.5,0,1,0.4,1,1V-107.9z"/>
	</g>
	<g>
		<path class="st52" d="M158.1-104.1c0,0.6-0.5,1-1,1h-0.3c-0.5,0-1-0.4-1-1v-0.2c0-0.6,0.5-1,1-1h0.3c0.5,0,1,0.4,1,1V-104.1z"/>
	</g>
	<g>
		<path class="st50" d="M148.6-153.2c0,0.6-0.9,1.1-2,1.1h-7.3c-1.1,0-2-0.5-2-1.1s0.9-1.1,2-1.1h7.3
			C147.7-154.3,148.6-153.8,148.6-153.2z"/>
	</g>
	<g>
		<path class="st50" d="M150.1-149.4c0,0.6-0.9,1.1-2,1.1h-8.8c-1.1,0-2-0.5-2-1.1s0.9-1.1,2-1.1h8.8
			C149.2-150.5,150.1-150,150.1-149.4z"/>
	</g>
	<g>
		<path class="st50" d="M151.6-145.6c0,0.6-0.9,1.1-2,1.1h-10.3c-1.1,0-2-0.5-2-1.1c0-0.6,0.9-1.1,2-1.1h10.3
			C150.7-146.7,151.6-146.2,151.6-145.6z"/>
	</g>
	<g>
		<path class="st50" d="M148.6-141.9c0,0.6-0.9,1.1-2,1.1h-7.3c-1.1,0-2-0.5-2-1.1s0.9-1.1,2-1.1h7.3
			C147.7-143,148.6-142.5,148.6-141.9z"/>
	</g>
	<g>
		<path class="st50" d="M150.1-138.1c0,0.6-0.9,1.1-2,1.1h-8.8c-1.1,0-2-0.5-2-1.1s0.9-1.1,2-1.1h8.8
			C149.2-139.2,150.1-138.7,150.1-138.1z"/>
	</g>
</g>
<g id="browser_4_">
	<g>
		<path class="st29" d="M33.8-76.7c0,5.5-4.5,10-10,10H-76c-5.5,0-10-4.5-10-10v-84.8c0-5.5,4.5-10,10-10h99.8c5.5,0,10,4.5,10,10
			V-76.7z"/>
	</g>
	<path class="st30" d="M27.8-171.5H-80c-3.3,0-6,2.7-6,6v3H33.8v-3C33.8-168.9,31.1-171.5,27.8-171.5z"/>
	<circle class="st32" cx="-80.6" cy="-167.1" r="1.8"/>
	<circle class="st32" cx="-75.8" cy="-167.1" r="1.8"/>
	<circle class="st32" cx="-71" cy="-167.1" r="1.8"/>
</g>
<g>
	<path class="st31" d="M-65-95.2c0,1.3-1.1,2.4-2.4,2.4h-7.2c-1.3,0-2.4-1.1-2.4-2.4v-55.1c0-1.3,1.1-2.4,2.4-2.4h7.2
		c1.3,0,2.4,1.1,2.4,2.4V-95.2z"/>
	<path class="st41" d="M-65-95.2c0,1.3-1.1,2.4-2.4,2.4h-7.2c-1.3,0-2.4-1.1-2.4-2.4v-55.1c0-1.3,1.1-2.4,2.4-2.4h7.2
		c1.3,0,2.4,1.1,2.4,2.4V-95.2z"/>
	<polygon class="st42" points="-72.4,-145.6 -71.4,-146 -70.5,-144.1 -69.8,-144.4 -70.8,-146.2 -69.6,-146.2 -72.4,-149.2 	"/>
	<polygon class="st42" points="-66.2,-141.9 -67.4,-141.9 -66.2,-143.1 	"/>
	<polygon class="st42" points="-66.2,-129.9 -67.4,-129.9 -66.2,-131.1 	"/>
	<polygon class="st42" points="-66.2,-117.9 -67.4,-117.9 -66.2,-119.1 	"/>
	<path class="st42" d="M-69-125.1l0.1,1.1h-0.1c0-0.2-0.1-0.3-0.1-0.4c-0.1-0.1-0.2-0.2-0.3-0.3c-0.1-0.1-0.3-0.1-0.5-0.1h-0.7v3.6
		c0,0.3,0,0.5,0.1,0.6c0.1,0.1,0.2,0.2,0.4,0.2h0.2v0.1h-2v-0.1h0.2c0.2,0,0.3-0.1,0.4-0.2c0.1-0.1,0.1-0.2,0.1-0.5v-3.6h-0.6
		c-0.2,0-0.4,0-0.5,0.1c-0.1,0-0.2,0.1-0.3,0.3c-0.1,0.1-0.1,0.3-0.1,0.5H-73l0.1-1.1L-69-125.1L-69-125.1z"/>
	<line class="st45" x1="-73.7" y1="-113.5" x2="-68.3" y2="-108"/>
	<polygon class="st58" points="-68.6,-132.7 -70.6,-134.7 -68.6,-136.8 	"/>
	<polygon class="st59" points="-72.7,-132.7 -70.6,-134.7 -72.7,-136.8 	"/>
	<line class="st46" x1="-70.6" y1="-138.5" x2="-70.6" y2="-130.9"/>
	<rect x="-73.7" y="-101.9" class="st44" width="3.8" height="3.8"/>
	<rect x="-71.8" y="-100" class="st45" width="3.6" height="3.6"/>
	<line class="st47" x1="-77" y1="-106" x2="-65" y2="-106"/>
</g>
<linearGradient id="SVGID_2_" gradientUnits="userSpaceOnUse" x1="-40.735" y1="347.495" x2="35.925" y2="270.835" gradientTransform="matrix(1 0 0 -1 0 202)">
	<stop  offset="0" style="stop-color:#B3C9FF"/>
	<stop  offset="1" style="stop-color:#9E00FF"/>
</linearGradient>
<rect x="-38.6" y="-147.6" class="st60" width="72.5" height="80.8"/>
<g>
	<line class="st61" x1="-33.8" y1="-143.2" x2="-28.8" y2="-143.2"/>
	<line class="st61" x1="-33.8" y1="-141.5" x2="-28.8" y2="-141.5"/>
	<line class="st61" x1="-33.8" y1="-139.9" x2="-28.8" y2="-139.9"/>
</g>
<linearGradient id="SVGID_3_" gradientUnits="userSpaceOnUse" x1="-24.4142" y1="321.0968" x2="-52.8658" y2="297.2232" gradientTransform="matrix(1 0 0 -1 0 202)">
	<stop  offset="0" style="stop-color:#3FFFA9"/>
	<stop  offset="1" style="stop-color:#5FD9FF"/>
</linearGradient>
<circle class="st62" cx="-38.6" cy="-107.2" r="18.6"/>
<path class="st29" d="M-39-117.2c-6.7,0.3-11.9,4.8-11.7,10.2c0.1,1.9,0.9,3.7,2.1,5.2c0.1,0.1,0.2,0.2,0.2,0.3c0,0-0.1-0.1-0.1-0.1
	l0,0l0,0l0,0c0.1,0.2,0.2,0.4,0.2,0.7c0,0.1-1,3.7-1,3.7l0,0c-0.1,0.3,0.1,0.6,0.5,0.6c0.1,0,0.1,0,0.1,0c0.1,0,0.2,0,0.2,0l0.1,0
	l3.1-1.5c0.1,0,0.6-0.2,0.6-0.3l0,0c0,0,0,0,0,0c0.2-0.1,0.4-0.1,0.7-0.1c0.2,0,0.4,0,0.6,0.1c0,0,0,0,0,0c0,0,0.1,0,0.1,0
	c1.5,0.4,3.1,0.5,4.8,0.5c6.7-0.3,11.9-4.5,11.7-9.9C-26.8-113.4-32.4-117.5-39-117.2L-39-117.2z"/>
<path class="st29" d="M-6.1-111c1,0,1.7,0.2,2.3,0.4l0.6-2.2c-0.5-0.2-1.6-0.5-3-0.5c-3.7,0-6.6,2.3-6.6,6.4c0,3.4,2.2,6.1,6.3,6.1
	c1.5,0,2.6-0.3,3.1-0.5l-0.4-2.1c-0.5,0.2-1.5,0.4-2.3,0.4c-2.4,0-3.9-1.5-3.9-3.9C-9.9-109.7-8.2-111-6.1-111z M32.5-109.5
	c-0.4,0.2-0.8,0.6-1.1,1.1h0c-0.4-0.9-1.3-1.5-2.4-1.5c-1.5,0-2.3,0.8-2.7,1.4h-0.1l-0.1-1.2h-2.3c0,0.8,0.1,1.7,0.1,2.8v6h2.7v-5.1
	c0-0.2,0-0.5,0.1-0.7c0.2-0.4,0.6-1,1.3-1c0.9,0,1.3,0.8,1.3,1.9v4.9h2.7v-5.1c0-0.2,0-0.5,0.1-0.7c0.2-0.5,0.6-0.9,1.3-0.9
	c0.3,0,0.5,0.1,0.7,0.2v-2.4C33.3-109.9,32.9-109.7,32.5-109.5z M2.2-109.9c-2.8,0-4.7,1.8-4.7,4.7c0,2.8,2,4.5,4.5,4.5
	c2.4,0,4.6-1.5,4.6-4.7C6.7-108.1,4.9-109.9,2.2-109.9z M2.1-102.7c-1.2,0-1.8-1.1-1.8-2.6c0-1.3,0.5-2.6,1.8-2.6
	c1.2,0,1.7,1.3,1.7,2.6C3.9-103.8,3.2-102.7,2.1-102.7z M18.7-109.9c-0.6,0-1.2,0.1-1.7,0.4c-0.4,0.2-0.8,0.6-1.1,1.1h0
	c-0.4-0.9-1.3-1.5-2.4-1.5c-1.5,0-2.3,0.8-2.7,1.4h-0.1l-0.1-1.2H8.3c0,0.8,0.1,1.7,0.1,2.8v6H11v-5.1c0-0.2,0-0.5,0.1-0.7
	c0.2-0.4,0.6-1,1.3-1c0.9,0,1.3,0.8,1.3,1.9v4.9h2.7v-5.1c0-0.2,0-0.5,0.1-0.7c0.2-0.5,0.6-0.9,1.3-0.9c0.9,0,1.3,0.7,1.3,2v4.8h2.7
	v-5.2C21.7-108.8,20.4-109.9,18.7-109.9z"/>
<ellipse class="st63" cx="431.2" cy="79.8" rx="4.7" ry="0.6"/>
<ellipse class="st63" cx="431.2" cy="86" rx="4.7" ry="0.4"/>
<g>
	<path class="st64" d="M400.1-128.4c-4.1-3.3-5-5.9-5-9.3c0-3.4,0-6.2,0-6.2v-23.3h0c0,0,0,0,0,0c0-0.4-2.1-0.8-4.7-0.8
		s-4.7,0.4-4.7,0.8c0,0,0,0,0,0h0v23.3c0,0,0,2.8,0,6.2c0,3.4-1,6-5,9.3c-4.1,3.3-4.1,10.4-4.1,10.4v66.8c0,0,0.3,2.9,3,3.9
		c2.2,0.6,6.2,1.1,10.8,1.1s8.6-0.4,10.8-1.1c2.8-1,3-3.9,3-3.9V-118C404.2-118,404.2-125.2,400.1-128.4z"/>
	<path class="st65" d="M379-105v53.8c0,1.2,5.1,2.2,11.3,2.2c6.3,0,11.3-1,11.3-2.2V-105H379z"/>
	<ellipse class="st66" cx="390.3" cy="-105" rx="11.3" ry="1.5"/>
	<path class="st64" d="M450.5-128.4c-4.1-3.3-5-5.9-5-9.3c0-3.4,0-6.2,0-6.2v-23.3h0c0,0,0,0,0,0c0-0.4-2.1-0.8-4.7-0.8
		s-4.7,0.4-4.7,0.8c0,0,0,0,0,0h0v23.3c0,0,0,2.8,0,6.2c0,3.4-1,6-5,9.3c-4.1,3.3-4.1,10.4-4.1,10.4v66.8c0,0,0.3,2.9,3,3.9
		c2.2,0.6,6.2,1.1,10.8,1.1s8.6-0.4,10.8-1.1c2.8-1,3-3.9,3-3.9V-118C454.6-118,454.6-125.2,450.5-128.4z"/>
	<path class="st67" d="M429.4-105v53.8c0,1.2,5.1,2.2,11.3,2.2c6.3,0,11.3-1,11.3-2.2V-105H429.4z"/>
	<ellipse class="st68" cx="440.7" cy="-105" rx="11.3" ry="1.5"/>
	<path class="st64" d="M500.9-128.4c-4.1-3.3-5-5.9-5-9.3c0-3.4,0-6.2,0-6.2v-23.3h0c0,0,0,0,0,0c0-0.4-2.1-0.8-4.7-0.8
		s-4.7,0.4-4.7,0.8c0,0,0,0,0,0h0v23.3c0,0,0,2.8,0,6.2c0,3.4-1,6-5,9.3c-4.1,3.3-4.1,10.4-4.1,10.4v66.8c0,0,0.3,2.9,3,3.9
		c2.2,0.6,6.2,1.1,10.8,1.1s8.6-0.4,10.8-1.1c2.8-1,3-3.9,3-3.9V-118C505-118,505-125.2,500.9-128.4z"/>
	<path class="st69" d="M479.8-105v53.8c0,1.2,5.1,2.2,11.3,2.2c6.3,0,11.3-1,11.3-2.2V-105H479.8z"/>
	<ellipse class="st70" cx="491.1" cy="-105" rx="11.3" ry="1.5"/>
</g>
<g>
	<g>
		<path class="st37" d="M174.5,100.3c8.2,0,16.2,6.6,17.6,14.8l1.1,6.4c1.4,8.1,5.3,14.8,8.6,14.8s4.8-6.6,3.4-14.8l-7.5-42.3
			c-1.4-8.1,0.1-14.8,3.4-14.8s7.2,6.6,8.6,14.8l1.1,6.4c1.4,8.1,9.4,14.8,17.6,14.8h197.1"/>
	</g>
	<g id="browser_5_">
		<path class="st30" d="M362.9,47.6H255.1c-3.3,0-6,2.7-6,6v3h119.8v-3C368.9,50.3,366.2,47.6,362.9,47.6z"/>
		<circle class="st32" cx="254.5" cy="52.1" r="1.8"/>
		<circle class="st32" cx="259.3" cy="52.1" r="1.8"/>
		<circle class="st32" cx="264.1" cy="52.1" r="1.8"/>
		<path class="st50" d="M249.2,56.6v89.8c0,3.3,2.7,6,6,6h107.8c3.3,0,6-2.7,6-6V56.6H249.2z"/>
		<g>
			<path class="st50" d="M289.8,52.6c-0.3-0.6-1.1-1-1.8-1h-14.6c-0.7,0-1.5,0.5-1.8,1l-2.4,4h23L289.8,52.6z"/>
		</g>
		<g>
			<line class="st51" x1="286.5" y1="53.3" x2="288" y2="54.8"/>
			<line class="st51" x1="288" y1="53.3" x2="286.5" y2="54.8"/>
		</g>
		<path class="st52" d="M255.1,152.4h14.1V56.6h-20.1v89.8C249.2,149.7,251.8,152.4,255.1,152.4z"/>
		<g>
			<path class="st50" d="M266.3,62.2c0,0.6-0.9,1.1-2,1.1h-10.3c-1.1,0-2-0.5-2-1.1s0.9-1.1,2-1.1h10.3
				C265.4,61.1,266.3,61.6,266.3,62.2z"/>
		</g>
		<g>
			<path class="st53" d="M285.7,62.2c0,0.6-0.9,1.1-2,1.1h-7.3c-1.1,0-2-0.5-2-1.1s0.9-1.1,2-1.1h7.3
				C284.8,61.1,285.7,61.6,285.7,62.2z"/>
		</g>
		<g>
			<path class="st54" d="M288.7,69.7c0,0.6-0.9,1.1-2,1.1h-4.3c-1.1,0-2-0.5-2-1.1c0-0.6,0.9-1.1,2-1.1h4.3
				C287.8,68.6,288.7,69.1,288.7,69.7z"/>
		</g>
		<g>
			<path class="st54" d="M282.7,66c0,0.6-0.9,1.1-2,1.1h-4.3c-1.1,0-2-0.5-2-1.1c0-0.6,0.9-1.1,2-1.1h4.3
				C281.8,64.9,282.7,65.4,282.7,66z"/>
		</g>
		<g>
			<path class="st55" d="M301.6,69.7c0,0.6-0.9,1.1-2,1.1h-7.3c-1.1,0-2-0.5-2-1.1c0-0.6,0.9-1.1,2-1.1h7.3
				C300.7,68.6,301.6,69.1,301.6,69.7z"/>
		</g>
		<g>
			<path class="st56" d="M308.5,69.7c0,0.6-0.9,1.1-2,1.1h-1.3c-1.1,0-2-0.5-2-1.1c0-0.6,0.9-1.1,2-1.1h1.3
				C307.6,68.6,308.5,69.1,308.5,69.7z"/>
		</g>
		<g>
			<path class="st57" d="M307.5,77.3c0,0.6-0.9,1.1-2,1.1h-1.3c-1.1,0-2-0.5-2-1.1c0-0.6,0.9-1.1,2-1.1h1.3
				C306.6,76.2,307.5,76.7,307.5,77.3z"/>
		</g>
		<g>
			<path class="st54" d="M318.4,69.7c0,0.6-0.9,1.1-2,1.1h-4.3c-1.1,0-2-0.5-2-1.1c0-0.6,0.9-1.1,2-1.1h4.3
				C317.5,68.6,318.4,69.1,318.4,69.7z"/>
		</g>
		<g>
			<path class="st54" d="M294.7,73.5c0,0.6-0.9,1.1-2,1.1h-4.3c-1.1,0-2-0.5-2-1.1c0-0.6,0.9-1.1,2-1.1h4.3
				C293.8,72.4,294.7,72.9,294.7,73.5z"/>
		</g>
		<g>
			<path class="st54" d="M300.7,77.3c0,0.6-0.9,1.1-2,1.1h-4.3c-1.1,0-2-0.5-2-1.1c0-0.6,0.9-1.1,2-1.1h4.3
				C299.8,76.2,300.7,76.7,300.7,77.3z"/>
		</g>
		<g>
			<path class="st54" d="M317.3,77.3c0,0.6-0.9,1.1-2,1.1H311c-1.1,0-2-0.5-2-1.1c0-0.6,0.9-1.1,2-1.1h4.3
				C316.4,76.2,317.3,76.7,317.3,77.3z"/>
		</g>
		<g>
			<path class="st54" d="M300.7,81c0,0.6-0.9,1.1-2,1.1h-4.3c-1.1,0-2-0.5-2-1.1c0-0.6,0.9-1.1,2-1.1h4.3
				C299.8,79.9,300.7,80.4,300.7,81z"/>
		</g>
		<g>
			<path class="st54" d="M294.7,84.8c0,0.6-0.9,1.1-2,1.1h-4.3c-1.1,0-2-0.5-2-1.1c0-0.6,0.9-1.1,2-1.1h4.3
				C293.8,83.7,294.7,84.2,294.7,84.8z"/>
		</g>
		<g>
			<path class="st54" d="M288.7,88.6c0,0.6-0.9,1.1-2,1.1h-4.3c-1.1,0-2-0.5-2-1.1c0-0.6,0.9-1.1,2-1.1h4.3
				C287.8,87.5,288.7,88,288.7,88.6z"/>
		</g>
		<g>
			<path class="st54" d="M288.7,92.3c0,0.6-0.9,1.1-2,1.1h-4.3c-1.1,0-2-0.5-2-1.1c0-0.6,0.9-1.1,2-1.1h4.3
				C287.8,91.2,288.7,91.7,288.7,92.3z"/>
		</g>
		<g>
			<path class="st53" d="M301.6,92.3c0,0.6-0.9,1.1-2,1.1h-7.3c-1.1,0-2-0.5-2-1.1c0-0.6,0.9-1.1,2-1.1h7.3
				C300.7,91.2,301.6,91.7,301.6,92.3z"/>
		</g>
		<g>
			<path class="st55" d="M307.5,99.9c0,0.6-0.9,1.1-2,1.1h-1.3c-1.1,0-2-0.5-2-1.1c0-0.6,0.9-1.1,2-1.1h1.3
				C306.6,98.8,307.5,99.3,307.5,99.9z"/>
		</g>
		<g>
			<path class="st54" d="M311.4,92.3c0,0.6-0.9,1.1-2,1.1h-4.3c-1.1,0-2-0.5-2-1.1c0-0.6,0.9-1.1,2-1.1h4.3
				C310.5,91.2,311.4,91.7,311.4,92.3z"/>
		</g>
		<g>
			<path class="st54" d="M294.7,96.1c0,0.6-0.9,1.1-2,1.1h-4.3c-1.1,0-2-0.5-2-1.1c0-0.6,0.9-1.1,2-1.1h4.3
				C293.8,95,294.7,95.5,294.7,96.1z"/>
		</g>
		<g>
			<path class="st54" d="M300.7,99.9c0,0.6-0.9,1.1-2,1.1h-4.3c-1.1,0-2-0.5-2-1.1c0-0.6,0.9-1.1,2-1.1h4.3
				C299.8,98.8,300.7,99.3,300.7,99.9z"/>
		</g>
		<g>
			<path class="st54" d="M317.3,99.9c0,0.6-0.9,1.1-2,1.1H311c-1.1,0-2-0.5-2-1.1c0-0.6,0.9-1.1,2-1.1h4.3
				C316.4,98.8,317.3,99.3,317.3,99.9z"/>
		</g>
		<g>
			<path class="st54" d="M300.7,103.6c0,0.6-0.9,1.1-2,1.1h-4.3c-1.1,0-2-0.5-2-1.1c0-0.6,0.9-1.1,2-1.1h4.3
				C299.8,102.6,300.7,103.1,300.7,103.6z"/>
		</g>
		<g>
			<path class="st54" d="M294.7,107.4c0,0.6-0.9,1.1-2,1.1h-4.3c-1.1,0-2-0.5-2-1.1c0-0.6,0.9-1.1,2-1.1h4.3
				C293.8,106.3,294.7,106.8,294.7,107.4z"/>
		</g>
		<g>
			<path class="st54" d="M288.7,111.2c0,0.6-0.9,1.1-2,1.1h-4.3c-1.1,0-2-0.5-2-1.1c0-0.6,0.9-1.1,2-1.1h4.3
				C287.8,110.1,288.7,110.6,288.7,111.2z"/>
		</g>
		<g>
			<path class="st54" d="M282.7,114.9c0,0.6-0.9,1.1-2,1.1h-4.3c-1.1,0-2-0.5-2-1.1c0-0.6,0.9-1.1,2-1.1h4.3
				C281.8,113.9,282.7,114.3,282.7,114.9z"/>
		</g>
		<g>
			<path class="st52" d="M272.8,62.3c0,0.5-0.5,1-1,1h-0.3c-0.5,0-1-0.5-1-1v-0.2c0-0.5,0.5-1,1-1h0.3c0.5,0,1,0.5,1,1V62.3z"/>
		</g>
		<g>
			<path class="st52" d="M272.8,66.1c0,0.6-0.5,1-1,1h-0.3c-0.5,0-1-0.4-1-1v-0.2c0-0.6,0.5-1,1-1h0.3c0.5,0,1,0.4,1,1V66.1z"/>
		</g>
		<g>
			<path class="st52" d="M272.8,69.8c0,0.6-0.5,1-1,1h-0.3c-0.5,0-1-0.4-1-1v-0.2c0-0.6,0.5-1,1-1h0.3c0.5,0,1,0.4,1,1V69.8z"/>
		</g>
		<g>
			<path class="st52" d="M272.8,73.6c0,0.6-0.5,1-1,1h-0.3c-0.5,0-1-0.4-1-1v-0.2c0-0.6,0.5-1,1-1h0.3c0.5,0,1,0.4,1,1V73.6z"/>
		</g>
		<g>
			<path class="st52" d="M272.8,77.4c0,0.6-0.5,1-1,1h-0.3c-0.5,0-1-0.4-1-1v-0.2c0-0.6,0.5-1,1-1h0.3c0.5,0,1,0.4,1,1V77.4z"/>
		</g>
		<g>
			<path class="st52" d="M272.8,81.1c0,0.6-0.5,1-1,1h-0.3c-0.5,0-1-0.4-1-1v-0.2c0-0.6,0.5-1,1-1h0.3c0.5,0,1,0.4,1,1V81.1z"/>
		</g>
		<g>
			<path class="st52" d="M272.8,84.9c0,0.6-0.5,1-1,1h-0.3c-0.5,0-1-0.4-1-1v-0.2c0-0.6,0.5-1,1-1h0.3c0.5,0,1,0.4,1,1V84.9z"/>
		</g>
		<g>
			<path class="st52" d="M272.8,88.7c0,0.6-0.5,1-1,1h-0.3c-0.5,0-1-0.4-1-1v-0.2c0-0.6,0.5-1,1-1h0.3c0.5,0,1,0.4,1,1V88.7z"/>
		</g>
		<g>
			<path class="st52" d="M272.8,92.4c0,0.6-0.5,1-1,1h-0.3c-0.5,0-1-0.4-1-1v-0.2c0-0.6,0.5-1,1-1h0.3c0.5,0,1,0.4,1,1V92.4z"/>
		</g>
		<g>
			<path class="st52" d="M272.8,96.2c0,0.6-0.5,1-1,1h-0.3c-0.5,0-1-0.4-1-1V96c0-0.6,0.5-1,1-1h0.3c0.5,0,1,0.4,1,1V96.2z"/>
		</g>
		<g>
			<path class="st52" d="M272.8,100c0,0.6-0.5,1-1,1h-0.3c-0.5,0-1-0.4-1-1v-0.2c0-0.6,0.5-1,1-1h0.3c0.5,0,1,0.4,1,1V100z"/>
		</g>
		<g>
			<path class="st52" d="M272.8,103.7c0,0.6-0.5,1-1,1h-0.3c-0.5,0-1-0.4-1-1v-0.2c0-0.6,0.5-1,1-1h0.3c0.5,0,1,0.4,1,1V103.7z"/>
		</g>
		<g>
			<path class="st52" d="M272.8,107.5c0,0.6-0.5,1-1,1h-0.3c-0.5,0-1-0.4-1-1v-0.2c0-0.6,0.5-1,1-1h0.3c0.5,0,1,0.4,1,1V107.5z"/>
		</g>
		<g>
			<path class="st52" d="M272.8,111.3c0,0.6-0.5,1-1,1h-0.3c-0.5,0-1-0.4-1-1v-0.2c0-0.6,0.5-1,1-1h0.3c0.5,0,1,0.4,1,1V111.3z"/>
		</g>
		<g>
			<path class="st52" d="M272.8,115c0,0.6-0.5,1-1,1h-0.3c-0.5,0-1-0.4-1-1v-0.2c0-0.6,0.5-1,1-1h0.3c0.5,0,1,0.4,1,1V115z"/>
		</g>
		<g>
			<path class="st50" d="M263.4,66c0,0.6-0.9,1.1-2,1.1h-7.3c-1.1,0-2-0.5-2-1.1c0-0.6,0.9-1.1,2-1.1h7.3
				C262.5,64.9,263.4,65.4,263.4,66z"/>
		</g>
		<g>
			<path class="st50" d="M264.8,69.7c0,0.6-0.9,1.1-2,1.1h-8.8c-1.1,0-2-0.5-2-1.1c0-0.6,0.9-1.1,2-1.1h8.8
				C263.9,68.6,264.8,69.1,264.8,69.7z"/>
		</g>
		<g>
			<path class="st50" d="M266.3,73.5c0,0.6-0.9,1.1-2,1.1h-10.3c-1.1,0-2-0.5-2-1.1c0-0.6,0.9-1.1,2-1.1h10.3
				C265.4,72.4,266.3,72.9,266.3,73.5z"/>
		</g>
		<g>
			<path class="st50" d="M263.4,77.3c0,0.6-0.9,1.1-2,1.1h-7.3c-1.1,0-2-0.5-2-1.1c0-0.6,0.9-1.1,2-1.1h7.3
				C262.5,76.2,263.4,76.7,263.4,77.3z"/>
		</g>
		<g>
			<path class="st50" d="M264.8,81c0,0.6-0.9,1.1-2,1.1h-8.8c-1.1,0-2-0.5-2-1.1c0-0.6,0.9-1.1,2-1.1h8.8
				C263.9,79.9,264.8,80.4,264.8,81z"/>
		</g>
	</g>
	<g>
		<circle class="st71" cx="155.2" cy="100.3" r="19.3"/>
		<path class="st29" d="M165,107.1l-6.8-6.9l6.8-6.8c0.3-0.3,0.3-0.7,0-1l-1.9-2c-0.1-0.1-0.3-0.2-0.5-0.2s-0.4,0.1-0.5,0.2
			l-6.8,6.8l-6.8-6.7c-0.1-0.1-0.3-0.2-0.5-0.2c-0.2,0-0.4,0.1-0.5,0.2l-1.9,2c-0.3,0.3-0.3,0.7,0,1l6.8,6.8l-6.8,6.9
			c-0.1,0.1-0.2,0.3-0.2,0.5s0.1,0.4,0.2,0.5l1.9,2c0.1,0.1,0.3,0.2,0.5,0.2c0.2,0,0.4-0.1,0.5-0.2l6.8-6.8l6.8,6.8
			c0.1,0.1,0.3,0.2,0.5,0.2c0.2,0,0.4-0.1,0.5-0.2l1.9-2c0.1-0.1,0.2-0.3,0.2-0.5C165.2,107.4,165.1,107.2,165,107.1z"/>
	</g>
	<g>
		<circle class="st72" cx="444.8" cy="100.3" r="19.3"/>
		<path class="st29" d="M455.5,92.7l-2.9-2.3c-0.1-0.1-0.2-0.1-0.3-0.1s-0.2,0.1-0.3,0.1l-10.4,13.4c0,0-4.1-3.9-4.2-4
			c-0.1-0.1-0.3-0.3-0.5-0.3s-0.3,0.2-0.5,0.3c-0.1,0.1-1.5,1.6-2.3,2.4c0,0-0.1,0.1-0.1,0.1c-0.1,0.1-0.1,0.2-0.1,0.3
			c0,0.1,0,0.2,0.1,0.3l0.1,0.1c0,0,7.3,7,7.4,7.1c0.1,0.1,0.3,0.3,0.5,0.3c0.2,0,0.4-0.2,0.5-0.3l13-16.7c0.1-0.1,0.1-0.2,0.1-0.3
			C455.6,92.9,455.6,92.8,455.5,92.7z"/>
	</g>
</g>
</svg>
