<?xml version="1.0" encoding="utf-8"?>
<!-- Generator: Adobe Illustrator 23.0.6, SVG Export Plug-In . SVG Version: 6.00 Build 0)  -->
<svg version="1.1" id="Layer_1" xmlns="http://www.w3.org/2000/svg" xmlns:xlink="http://www.w3.org/1999/xlink" x="0px" y="0px"
	 viewBox="0 0 600 200" style="enable-background:new 0 0 600 200;" xml:space="preserve">
<style type="text/css">
	.st0{display:none;fill:#F4F5E6;}
	.st1{fill:#FFFFFF;}
	.st2{fill:#DEDEDE;}
	.st3{fill:#EEEEEE;}
	.st4{fill:#CCCCCC;}
	.st5{fill:#999999;}
	.st6{fill:#85DEAA;}
	.st7{fill:#FF9794;}
	.st8{fill:#E6E6E6;}
	.st9{fill:none;stroke:#A0BAA0;stroke-dasharray:2,2;}
	.st10{fill:#D6D6D6;}
	.st11{fill:none;stroke:#FFFFFF;}
	.st12{fill:#FFFFFF;stroke:#FFFFFF;}
	.st13{fill:#FFCC99;}
</style>
<rect class="st0" width="600" height="200"/>
<g>
	<g id="browser_1_">
		<g>
			<path class="st1" d="M288.6,142.5c0,5.5-4.5,10-10,10h-100c-5.5,0-10-4.5-10-10v-85c0-5.5,4.5-10,10-10h100c5.5,0,10,4.5,10,10
				V142.5z"/>
		</g>
		<path class="st2" d="M282.6,47.5h-108c-3.3,0-6,2.7-6,6v3h120v-3C288.6,50.2,285.9,47.5,282.6,47.5z"/>
		<g>
			<path class="st3" d="M252.6,52c0,1.32-1.8,2.4-4,2.4h-40c-2.2,0-4-1.08-4-2.4s1.8-2.4,4-2.4h40C250.8,49.6,252.6,50.68,252.6,52z
				"/>
		</g>
		<circle class="st4" cx="174" cy="52" r="1.8"/>
		<circle class="st4" cx="178.77" cy="52" r="1.8"/>
		<circle class="st4" cx="183.54" cy="52" r="1.8"/>
	</g>
	<rect x="168.6" y="56.5" class="st5" width="120" height="7.2"/>
	<path class="st6" d="M182.7,60.45l-1.56-1.56l-1.56,1.56c-0.47,0.47-0.31,0.85,0.35,0.85h2.41
		C183.01,61.3,183.17,60.92,182.7,60.45z"/>
	<g>
		<g>
			<path class="st6" d="M234.93,60.1c0,0.66-0.9,1.2-2,1.2h-8c-1.1,0-2-0.54-2-1.2s0.9-1.2,2-1.2h8
				C234.03,58.9,234.93,59.44,234.93,60.1z"/>
		</g>
		<path class="st6" d="M239.85,60.45l-1.56-1.56l-1.56,1.56c-0.47,0.47-0.31,0.85,0.35,0.85h2.41
			C240.16,61.3,240.31,60.92,239.85,60.45z"/>
	</g>
	<g>
		<g>
			<path class="st6" d="M263.5,60.1c0,0.66-0.9,1.2-2,1.2h-8c-1.1,0-2-0.54-2-1.2s0.9-1.2,2-1.2h8
				C262.6,58.9,263.5,59.44,263.5,60.1z"/>
		</g>
		<path class="st6" d="M268.42,60.45l-1.56-1.56l-1.56,1.56c-0.47,0.47-0.31,0.85,0.35,0.85h2.41
			C268.73,61.3,268.88,60.92,268.42,60.45z"/>
	</g>
	<g>
		<g>
			<path class="st7" d="M206.36,60.1c0,0.66-0.9,1.2-2,1.2h-8c-1.1,0-2-0.54-2-1.2s0.9-1.2,2-1.2h8
				C205.46,58.9,206.36,59.44,206.36,60.1z"/>
		</g>
		<path class="st7" d="M208.16,59.75l1.56,1.56l1.56-1.56c0.47-0.47,0.31-0.85-0.35-0.85h-2.41
			C207.85,58.9,207.69,59.28,208.16,59.75z"/>
	</g>
	<path class="st6" d="M176.59,58.9h-7.99v2.4h7.99c0.66,0,1.2-0.54,1.2-1.2C177.79,59.44,177.25,58.9,176.59,58.9z"/>
	<path class="st7" d="M288.6,58.9h-7.33c-0.66,0-1.2,0.54-1.2,1.2c0,0.66,0.54,1.2,1.2,1.2h7.33V58.9z"/>
	<g>
		<path class="st8" d="M270.6,113c0,2.75-2.25,5-5,5h-74c-2.75,0-5-2.25-5-5V87c0-2.75,2.25-5,5-5h74c2.75,0,5,2.25,5,5V113z"/>
	</g>
	<g>
		<path class="st8" d="M225.6,138.5c0,2.75-2.25,5-5,5h-29c-2.75,0-5-2.25-5-5v-8c0-2.75,2.25-5,5-5h29c2.75,0,5,2.25,5,5V138.5z"/>
	</g>
	<g>
		<path class="st9" d="M231.6,138.5c0,2.75,2.25,5,5,5h29c2.75,0,5-2.25,5-5v-8c0-2.75-2.25-5-5-5h-29c-2.75,0-5,2.25-5,5V138.5z"/>
	</g>
	<g>
		<g>
			<circle class="st10" cx="270.6" cy="100" r="4.8"/>
		</g>
		<polyline class="st11" points="269.85,98.2 271.65,100 269.85,101.8 		"/>
	</g>
	<g>
		<g>
			<circle class="st10" cx="186.6" cy="100" r="4.8"/>
		</g>
		<polyline class="st11" points="187.35,98.2 185.55,100 187.35,101.8 		"/>
	</g>
	<circle class="st11" cx="224.1" cy="113.2" r="1.2"/>
	<circle class="st12" cx="230.1" cy="113.2" r="1.2"/>
	<circle class="st11" cx="236.1" cy="113.2" r="1.2"/>
	<g>
		<g>
			<path class="st6" d="M217.23,129.47c0,0.66-0.9,1.2-2,1.2h-14c-1.1,0-2-0.54-2-1.2c0-0.66,0.9-1.2,2-1.2h14
				C216.33,128.27,217.23,128.81,217.23,129.47z"/>
		</g>
		<path class="st6" d="M222.14,129.82l-1.56-1.56l-1.56,1.56c-0.47,0.47-0.31,0.85,0.35,0.85h2.41
			C222.45,130.67,222.61,130.29,222.14,129.82z"/>
	</g>
	<g>
		<path class="st10" d="M196.27,129.47c0,0.66-0.9,1.2-2,1.2h-2c-1.1,0-2-0.54-2-1.2c0-0.66,0.9-1.2,2-1.2h2
			C195.37,128.27,196.27,128.81,196.27,129.47z"/>
	</g>
	<g>
		<path class="st10" d="M196.27,134.5c0,0.66-0.9,1.2-2,1.2h-2c-1.1,0-2-0.54-2-1.2s0.9-1.2,2-1.2h2
			C195.37,133.3,196.27,133.84,196.27,134.5z"/>
	</g>
	<g>
		<path class="st10" d="M196.27,139.53c0,0.66-0.9,1.2-2,1.2h-2c-1.1,0-2-0.54-2-1.2s0.9-1.2,2-1.2h2
			C195.37,138.33,196.27,138.87,196.27,139.53z"/>
	</g>
	<g>
		<g>
			<path class="st6" d="M217.23,134.5c0,0.66-0.9,1.2-2,1.2h-14c-1.1,0-2-0.54-2-1.2s0.9-1.2,2-1.2h14
				C216.33,133.3,217.23,133.84,217.23,134.5z"/>
		</g>
		<path class="st6" d="M222.14,134.85l-1.56-1.56l-1.56,1.56c-0.47,0.47-0.31,0.85,0.35,0.85h2.41
			C222.45,135.7,222.61,135.32,222.14,134.85z"/>
	</g>
	<g>
		<g>
			<path class="st7" d="M217.23,139.53c0-0.66-0.9-1.2-2-1.2h-14c-1.1,0-2,0.54-2,1.2s0.9,1.2,2,1.2h14
				C216.33,140.73,217.23,140.19,217.23,139.53z"/>
		</g>
		<path class="st7" d="M222.14,139.18l-1.56,1.56l-1.56-1.56c-0.47-0.47-0.31-0.85,0.35-0.85h2.41
			C222.45,138.33,222.61,138.71,222.14,139.18z"/>
	</g>
	<g>
		<path class="st5" d="M202.87,71.16c0-0.68-0.01-0.82-0.35-0.86l-0.14-0.01c-0.07-0.04-0.07-0.25,0.01-0.25
			c0.6-0.04,1.17-0.06,1.93-0.06c0.59,0,1.18,0.06,1.68,0.24c0.94,0.34,1.46,1.19,1.46,2.09c0,0.97-0.46,1.74-1.29,2.15
			c-0.49,0.25-1.08,0.34-1.82,0.34c-0.34,0-0.7-0.04-0.96-0.04c-0.35,0-0.71,0.01-1.12,0.02c-0.06-0.04-0.06-0.22,0-0.25l0.22-0.04
			c0.32-0.05,0.37-0.11,0.37-0.77V71.16z M203.9,73.45c0,0.4,0.01,0.66,0.14,0.81c0.13,0.14,0.34,0.21,0.6,0.21
			c1.25,0,1.67-1.11,1.67-2.09c0-1.3-0.68-2.07-1.99-2.07c-0.19,0-0.33,0.04-0.37,0.09s-0.05,0.19-0.05,0.42V73.45z"/>
		<path class="st5" d="M210.21,73.76c-0.03,0.49,0.18,0.62,0.32,0.62c0.09,0,0.16-0.02,0.27-0.09c0.06,0.01,0.11,0.1,0.09,0.17
			c-0.09,0.12-0.42,0.39-0.83,0.39c-0.25,0-0.41-0.09-0.61-0.25c-0.05-0.04-0.08-0.06-0.12-0.06c-0.04,0-0.08,0.03-0.15,0.08
			c-0.13,0.09-0.35,0.23-0.61,0.23c-0.42,0-0.81-0.25-0.81-0.76c0-0.37,0.22-0.59,0.75-0.75c0.27-0.09,0.48-0.14,0.68-0.2
			c0.13-0.04,0.17-0.09,0.17-0.14c0.01-0.08,0.01-0.16,0.01-0.25c0-0.27-0.11-0.62-0.42-0.62c-0.17,0-0.32,0.1-0.38,0.41
			c-0.01,0.12-0.06,0.18-0.12,0.23c-0.11,0.08-0.39,0.17-0.52,0.17c-0.12,0-0.17-0.08-0.17-0.18c0-0.19,0.17-0.42,0.35-0.55
			c0.25-0.19,0.7-0.44,1.21-0.44c0.61,0,0.96,0.3,0.92,1.04L210.21,73.76z M209.34,73.58c0.01-0.12,0-0.14-0.05-0.13
			c-0.32,0.04-0.6,0.17-0.6,0.5c0,0.23,0.17,0.43,0.37,0.43c0.22,0,0.27-0.13,0.27-0.35L209.34,73.58z"/>
		<path class="st5" d="M212.08,73.92c0,0.5,0.03,0.57,0.27,0.59l0.14,0.01c0.06,0.04,0.06,0.21-0.01,0.25
			c-0.25-0.01-0.53-0.02-0.86-0.02c-0.32,0-0.63,0.01-0.86,0.02c-0.06-0.04-0.06-0.21-0.01-0.25l0.14-0.01
			c0.24-0.02,0.27-0.09,0.27-0.59v-1.09c0-0.29,0-0.37-0.14-0.46l-0.1-0.06c-0.05-0.04-0.05-0.17,0-0.22
			c0.34-0.09,0.85-0.29,1.07-0.42c0.06,0,0.1,0.02,0.13,0.06c-0.01,0.22-0.02,0.53-0.02,0.86V73.92z M212.14,70.66
			c0,0.35-0.27,0.53-0.54,0.53c-0.32,0-0.5-0.22-0.5-0.51c0-0.32,0.25-0.53,0.54-0.53C211.94,70.15,212.14,70.37,212.14,70.66z"/>
		<path class="st5" d="M212.97,70.75c0-0.29,0-0.37-0.14-0.45l-0.12-0.07c-0.05-0.04-0.05-0.17,0-0.22c0.31-0.07,0.74-0.25,1.1-0.4
			c0.04,0,0.09,0.01,0.12,0.05c-0.01,0.3-0.02,0.6-0.02,1.05v3.21c0,0.5,0.03,0.56,0.28,0.59l0.12,0.01
			c0.06,0.04,0.06,0.21-0.01,0.25c-0.24-0.01-0.54-0.02-0.86-0.02c-0.31,0-0.61,0.01-0.86,0.02c-0.06-0.04-0.06-0.21-0.01-0.25
			l0.14-0.01c0.24-0.02,0.27-0.09,0.27-0.59V70.75z"/>
		<path class="st5" d="M214.2,72.1c-0.05-0.05-0.05-0.22,0.02-0.25c0.26,0.01,0.57,0.02,0.95,0.02c0.27,0,0.54-0.01,0.81-0.02
			c0.07,0.03,0.08,0.2,0.02,0.25l-0.14,0.03c-0.2,0.04-0.22,0.07-0.22,0.14c0,0.09,0.08,0.27,0.22,0.64
			c0.08,0.2,0.24,0.64,0.32,0.82c0.08-0.15,0.15-0.32,0.22-0.48l0.13-0.3c0.15-0.35,0.27-0.65,0.27-0.73c0-0.05-0.07-0.09-0.16-0.1
			l-0.14-0.03c-0.06-0.05-0.06-0.23,0.02-0.25c0.16,0.01,0.37,0.02,0.7,0.02c0.19,0,0.37-0.01,0.56-0.02
			c0.07,0.03,0.08,0.21,0.01,0.25l-0.14,0.01c-0.14,0.01-0.27,0.07-0.33,0.16c-0.09,0.12-0.27,0.42-0.42,0.76l-0.38,0.78
			c-0.25,0.52-0.84,1.74-1.09,2.27c-0.15,0.32-0.35,0.47-0.62,0.48c-0.39,0.01-0.46-0.24-0.46-0.43c0-0.22,0.16-0.37,0.41-0.37h0.17
			c0.17,0,0.28-0.06,0.35-0.15c0.08-0.11,0.14-0.24,0.21-0.4c0.04-0.09,0.1-0.22,0.1-0.3c0-0.09-0.02-0.23-0.14-0.53l-0.69-1.74
			c-0.14-0.35-0.2-0.48-0.43-0.51L214.2,72.1z"/>
		<path class="st5" d="M223.63,70.07c0,0.13,0.02,0.71,0.09,1.12c-0.03,0.09-0.22,0.12-0.27,0.05c-0.19-0.67-0.66-1.03-1.35-1.03
			c-0.8,0-1.66,0.68-1.66,2.12s0.83,2.2,1.69,2.2c0.87,0,1.27-0.63,1.47-1.12c0.06-0.06,0.23-0.04,0.27,0.05
			c-0.05,0.53-0.17,0.97-0.27,1.13c-0.39,0.11-0.9,0.27-1.46,0.27c-0.71,0-1.43-0.17-1.94-0.55c-0.52-0.4-0.91-0.99-0.91-1.89
			c0-0.88,0.37-1.5,0.87-1.91c0.51-0.42,1.25-0.64,2-0.64C222.88,69.88,223.41,70.05,223.63,70.07z"/>
		<path class="st5" d="M223.99,73.37c-0.01-1.03,0.81-1.6,1.66-1.6c0.85,0,1.61,0.52,1.61,1.53c0,1.05-0.77,1.55-1.66,1.55
			C224.75,74.85,224,74.36,223.99,73.37z M225.03,73.21c0,0.76,0.24,1.31,0.66,1.31c0.41,0,0.55-0.47,0.54-1.12
			c-0.01-0.7-0.21-1.3-0.62-1.3C225.29,72.1,225.03,72.42,225.03,73.21z"/>
		<path class="st5" d="M227.91,72.83c0-0.29,0-0.37-0.14-0.46l-0.1-0.06c-0.05-0.04-0.05-0.17,0-0.22c0.33-0.09,0.84-0.29,1.07-0.42
			c0.06,0,0.1,0.02,0.13,0.06c0,0.1-0.02,0.27-0.02,0.32c0,0.04,0.01,0.06,0.04,0.06s0.09-0.04,0.14-0.06
			c0.16-0.09,0.48-0.29,0.83-0.29c0.26,0,0.48,0.09,0.65,0.27c0.09,0.1,0.13,0.13,0.17,0.13c0.03,0,0.09-0.05,0.23-0.12
			c0.16-0.09,0.43-0.28,0.82-0.28c0.57,0,0.87,0.41,0.87,0.91v1.24c0,0.5,0.03,0.56,0.27,0.59l0.12,0.01
			c0.06,0.04,0.06,0.21-0.01,0.25c-0.22-0.01-0.5-0.02-0.84-0.02c-0.29,0-0.59,0.01-0.79,0.02c-0.06-0.04-0.06-0.21-0.01-0.25
			l0.12-0.01c0.18-0.02,0.21-0.09,0.21-0.48V72.8c0-0.27-0.15-0.5-0.48-0.5c-0.2,0-0.35,0.09-0.4,0.18
			c-0.03,0.04-0.05,0.12-0.05,0.22v1.33c0,0.4,0.03,0.46,0.19,0.48l0.12,0.01c0.06,0.04,0.06,0.21-0.01,0.25
			c-0.22-0.01-0.45-0.02-0.78-0.02c-0.29,0-0.58,0.01-0.76,0.02c-0.06-0.04-0.06-0.21-0.01-0.25l0.12-0.01
			c0.17-0.02,0.19-0.09,0.19-0.48V72.8c0-0.27-0.14-0.5-0.49-0.5c-0.19,0-0.33,0.09-0.39,0.17c-0.04,0.05-0.06,0.14-0.06,0.27v1.29
			c0,0.4,0.03,0.46,0.21,0.48l0.12,0.01c0.06,0.04,0.06,0.21-0.01,0.25c-0.22-0.01-0.45-0.02-0.8-0.02c-0.32,0-0.6,0.01-0.82,0.02
			c-0.07-0.04-0.07-0.21-0.01-0.25l0.12-0.01c0.24-0.03,0.27-0.09,0.27-0.59V72.83z"/>
		<path class="st5" d="M233.48,72.83c0-0.29,0-0.37-0.14-0.46l-0.1-0.06c-0.05-0.04-0.05-0.17,0-0.22c0.3-0.09,0.84-0.32,1.04-0.45
			c0.05-0.01,0.12,0.02,0.15,0.09c-0.01,0.09-0.01,0.17-0.01,0.24c0,0.05,0.03,0.09,0.06,0.1c0.22-0.11,0.53-0.29,0.91-0.29
			c0.76,0,1.22,0.6,1.22,1.38c0,1.01-0.71,1.71-1.76,1.71c-0.1,0-0.26-0.01-0.32-0.02c-0.06,0.01-0.11,0.06-0.11,0.21v0.71
			c0,0.5,0.03,0.56,0.27,0.58l0.24,0.02c0.06,0.04,0.06,0.21-0.01,0.25c-0.36-0.01-0.65-0.02-0.99-0.02c-0.32,0-0.6,0.01-0.86,0.02
			c-0.06-0.04-0.06-0.21-0.01-0.25l0.14-0.01c0.24-0.02,0.27-0.09,0.27-0.59V72.83z M234.42,73.94c0,0.16,0.06,0.31,0.17,0.42
			c0.09,0.1,0.23,0.17,0.35,0.17c0.45,0,0.69-0.48,0.69-1.15c0-0.71-0.35-1.11-0.82-1.11c-0.12,0-0.24,0.03-0.3,0.1
			c-0.04,0.04-0.08,0.14-0.08,0.42V73.94z"/>
		<path class="st5" d="M236.88,73.37c-0.01-1.03,0.81-1.6,1.66-1.6c0.85,0,1.61,0.52,1.61,1.53c0,1.05-0.77,1.55-1.66,1.55
			C237.64,74.85,236.89,74.36,236.88,73.37z M237.92,73.21c0,0.76,0.24,1.31,0.66,1.31c0.41,0,0.55-0.47,0.54-1.12
			c-0.01-0.7-0.21-1.3-0.62-1.3C238.18,72.1,237.92,72.42,237.92,73.21z"/>
		<path class="st5" d="M240.8,72.83c0-0.29,0-0.37-0.14-0.46l-0.1-0.06c-0.05-0.04-0.05-0.17,0-0.22c0.34-0.09,0.86-0.29,1.07-0.42
			c0.06,0,0.1,0.02,0.13,0.06c0,0.1-0.02,0.27-0.02,0.32c0,0.04,0.01,0.06,0.04,0.06s0.09-0.04,0.14-0.06
			c0.16-0.09,0.5-0.29,0.83-0.29c0.6,0,0.9,0.41,0.9,0.91v1.24c0,0.5,0.03,0.56,0.29,0.59l0.12,0.01c0.06,0.04,0.06,0.21-0.01,0.25
			c-0.22-0.01-0.53-0.02-0.87-0.02c-0.29,0-0.57,0.01-0.78,0.02c-0.06-0.04-0.06-0.21-0.01-0.25l0.13-0.02
			c0.17-0.03,0.19-0.08,0.19-0.48v-1.22c0-0.28-0.14-0.51-0.5-0.51c-0.2,0-0.35,0.09-0.4,0.17c-0.04,0.05-0.06,0.14-0.06,0.27v1.29
			c0,0.4,0.03,0.46,0.21,0.48l0.12,0.01c0.06,0.04,0.06,0.21-0.01,0.25c-0.22-0.01-0.45-0.02-0.8-0.02c-0.3,0-0.6,0.01-0.85,0.02
			c-0.06-0.04-0.06-0.21-0.01-0.25l0.12-0.01c0.26-0.03,0.29-0.09,0.29-0.59V72.83z"/>
		<path class="st5" d="M245.27,73.04c-0.17,0-0.18,0.01-0.18,0.13c0,0.54,0.35,1.07,1.02,1.07c0.2,0,0.48-0.04,0.67-0.37
			c0.08-0.01,0.19,0.04,0.19,0.17c-0.3,0.61-0.83,0.82-1.26,0.82c-0.97,0-1.5-0.68-1.5-1.47c0-0.91,0.66-1.61,1.56-1.61
			c0.75,0,1.15,0.48,1.15,1.04c0,0.14-0.04,0.24-0.26,0.24H245.27z M245.74,72.73c0.1,0,0.22-0.01,0.3-0.06
			c0.04-0.02,0.05-0.09,0.05-0.17c0-0.24-0.14-0.4-0.38-0.4c-0.3,0-0.56,0.29-0.56,0.52c0,0.1,0.1,0.11,0.33,0.11H245.74z"/>
		<path class="st5" d="M247.42,72.83c0-0.29,0-0.37-0.14-0.46l-0.1-0.06c-0.05-0.04-0.05-0.17,0-0.22c0.34-0.09,0.86-0.29,1.07-0.42
			c0.06,0,0.1,0.02,0.13,0.06c0,0.1-0.02,0.27-0.02,0.32c0,0.04,0.01,0.06,0.04,0.06s0.09-0.04,0.14-0.06
			c0.16-0.09,0.5-0.29,0.83-0.29c0.6,0,0.9,0.41,0.9,0.91v1.24c0,0.5,0.03,0.56,0.29,0.59l0.12,0.01c0.06,0.04,0.06,0.21-0.01,0.25
			c-0.22-0.01-0.53-0.02-0.87-0.02c-0.29,0-0.57,0.01-0.78,0.02c-0.06-0.04-0.06-0.21-0.01-0.25l0.13-0.02
			c0.17-0.03,0.19-0.08,0.19-0.48v-1.22c0-0.28-0.14-0.51-0.5-0.51c-0.2,0-0.35,0.09-0.4,0.17c-0.04,0.05-0.06,0.14-0.06,0.27v1.29
			c0,0.4,0.03,0.46,0.21,0.48l0.12,0.01c0.06,0.04,0.06,0.21-0.01,0.25c-0.22-0.01-0.45-0.02-0.8-0.02c-0.3,0-0.6,0.01-0.85,0.02
			c-0.06-0.04-0.06-0.21-0.01-0.25l0.12-0.01c0.26-0.03,0.29-0.09,0.29-0.59V72.83z"/>
		<path class="st5" d="M252.19,72.26c-0.09,0-0.1,0.01-0.1,0.17v1.08c0,0.4,0,0.85,0.5,0.85c0.1,0,0.22-0.05,0.3-0.11
			c0.07,0.02,0.12,0.1,0.1,0.19c-0.2,0.22-0.59,0.42-1.04,0.42c-0.6,0-0.81-0.35-0.81-0.82v-1.61c0-0.15-0.01-0.17-0.14-0.17h-0.22
			c-0.08-0.03-0.1-0.17-0.04-0.22c0.22-0.08,0.42-0.21,0.6-0.32c0.13-0.09,0.31-0.25,0.53-0.56c0.05-0.03,0.18-0.02,0.22,0.04v0.54
			c0,0.14,0.01,0.14,0.14,0.14h0.64c0.04,0.03,0.06,0.07,0.06,0.14c0,0.08-0.02,0.21-0.09,0.25H252.19z"/>
		<path class="st5" d="M253.03,74.63c-0.08-0.14-0.13-0.49-0.12-0.81c0.04-0.07,0.2-0.08,0.24-0.01c0.09,0.3,0.37,0.72,0.73,0.72
			c0.22,0,0.37-0.13,0.37-0.37c0-0.27-0.23-0.42-0.48-0.54c-0.43-0.22-0.74-0.48-0.74-0.91c0-0.63,0.53-0.93,1.15-0.93
			c0.37,0,0.69,0.09,0.77,0.15c0.07,0.16,0.11,0.45,0.11,0.72c-0.03,0.08-0.21,0.08-0.25,0.03c-0.14-0.42-0.32-0.57-0.56-0.57
			c-0.21,0-0.36,0.12-0.36,0.32c0,0.17,0.14,0.3,0.46,0.46c0.49,0.24,0.79,0.54,0.79,1.01c-0.01,0.64-0.55,0.96-1.23,0.96
			C253.51,74.85,253.22,74.78,253.03,74.63z"/>
	</g>
	<g>
		<g id="browser_2_">
			<g>
				<path class="st1" d="M431.4,142.5c0,5.5-4.5,10-10,10h-100c-5.5,0-10-4.5-10-10v-85c0-5.5,4.5-10,10-10h100c5.5,0,10,4.5,10,10
					V142.5z"/>
			</g>
			<path class="st2" d="M425.4,47.5h-108c-3.3,0-6,2.7-6,6v3h120v-3C431.4,50.2,428.7,47.5,425.4,47.5z"/>
			<g>
				<path class="st3" d="M395.4,52c0,1.32-1.8,2.4-4,2.4h-40c-2.2,0-4-1.08-4-2.4s1.8-2.4,4-2.4h40C393.6,49.6,395.4,50.68,395.4,52
					z"/>
			</g>
			<circle class="st4" cx="316.8" cy="52" r="1.8"/>
			<circle class="st4" cx="321.57" cy="52" r="1.8"/>
			<circle class="st4" cx="326.34" cy="52" r="1.8"/>
		</g>
		<rect x="311.4" y="56.5" class="st5" width="120" height="7.2"/>
		<path class="st6" d="M325.5,60.45l-1.56-1.56l-1.56,1.56c-0.47,0.47-0.31,0.85,0.35,0.85h2.41
			C325.81,61.3,325.97,60.92,325.5,60.45z"/>
		<g>
			<g>
				<path class="st6" d="M377.73,60.1c0,0.66-0.9,1.2-2,1.2h-8c-1.1,0-2-0.54-2-1.2s0.9-1.2,2-1.2h8
					C376.83,58.9,377.73,59.44,377.73,60.1z"/>
			</g>
			<path class="st6" d="M382.65,60.45l-1.56-1.56l-1.56,1.56c-0.47,0.47-0.31,0.85,0.35,0.85h2.41
				C382.96,61.3,383.11,60.92,382.65,60.45z"/>
		</g>
		<g>
			<g>
				<path class="st6" d="M406.3,60.1c0,0.66-0.9,1.2-2,1.2h-8c-1.1,0-2-0.54-2-1.2s0.9-1.2,2-1.2h8
					C405.4,58.9,406.3,59.44,406.3,60.1z"/>
			</g>
			<path class="st6" d="M411.22,60.45l-1.56-1.56l-1.56,1.56c-0.47,0.47-0.31,0.85,0.35,0.85h2.41
				C411.53,61.3,411.68,60.92,411.22,60.45z"/>
		</g>
		<g>
			<g>
				<path class="st7" d="M349.16,60.1c0,0.66-0.9,1.2-2,1.2h-8c-1.1,0-2-0.54-2-1.2s0.9-1.2,2-1.2h8
					C348.26,58.9,349.16,59.44,349.16,60.1z"/>
			</g>
			<path class="st7" d="M350.96,59.75l1.56,1.56l1.56-1.56c0.47-0.47,0.31-0.85-0.35-0.85h-2.41
				C350.65,58.9,350.49,59.28,350.96,59.75z"/>
		</g>
		<path class="st6" d="M319.39,58.9h-7.99v2.4h7.99c0.66,0,1.2-0.54,1.2-1.2C320.59,59.44,320.05,58.9,319.39,58.9z"/>
		<path class="st7" d="M431.4,58.9h-7.33c-0.66,0-1.2,0.54-1.2,1.2c0,0.66,0.54,1.2,1.2,1.2h7.33V58.9z"/>
		<g>
			<path class="st8" d="M368.4,138.5c0,2.75-2.25,5-5,5h-29c-2.75,0-5-2.25-5-5v-8c0-2.75,2.25-5,5-5h29c2.75,0,5,2.25,5,5V138.5z"
				/>
		</g>
		<g>
			<g>
				<path class="st13" d="M359.51,133.8c0,2.55-2.07,4.62-4.62,4.62c-2.55,0-4.62-2.07-4.62-4.62c0-2.55,2.07-4.62,4.62-4.62
					C357.44,129.18,359.51,131.25,359.51,133.8z"/>
			</g>
			<path class="st1" d="M360.94,136.09c-0.22-0.81-0.95-1.41-1.83-1.41c-0.52,0-1,0.21-1.34,0.56c-0.34-0.34-0.82-0.56-1.34-0.56
				c-0.88,0-1.61,0.6-1.83,1.41c-0.81,0.22-1.41,0.95-1.41,1.83c0,1.05,0.85,1.9,1.9,1.9h5.37c1.05,0,1.9-0.85,1.9-1.9
				C362.36,137.04,361.76,136.31,360.94,136.09z"/>
		</g>
		<g>
			<g>
				<path class="st7" d="M336.7,136.43c-0.27-0.33-0.4-0.72-0.4-1.19h0.66c0.03,0.33,0.09,0.56,0.18,0.71
					c0.16,0.26,0.46,0.4,0.89,0.4c0.33,0,0.6-0.09,0.8-0.27c0.2-0.18,0.3-0.41,0.3-0.69c0-0.35-0.11-0.59-0.32-0.73
					c-0.21-0.14-0.51-0.21-0.88-0.21c-0.04,0-0.08,0-0.13,0c-0.04,0-0.09,0-0.13,0v-0.56c0.07,0.01,0.12,0.01,0.17,0.01
					c0.04,0,0.09,0,0.14,0c0.24,0,0.43-0.04,0.58-0.11c0.27-0.13,0.4-0.37,0.4-0.7c0-0.25-0.09-0.44-0.27-0.58
					c-0.18-0.14-0.38-0.2-0.62-0.2c-0.42,0-0.71,0.14-0.88,0.42c-0.09,0.15-0.14,0.38-0.15,0.66h-0.63c0-0.38,0.08-0.69,0.23-0.96
					c0.26-0.47,0.71-0.7,1.36-0.7c0.51,0,0.91,0.11,1.19,0.34s0.42,0.56,0.42,0.99c0,0.31-0.08,0.56-0.25,0.75
					c-0.1,0.12-0.24,0.21-0.4,0.28c0.26,0.07,0.47,0.21,0.62,0.42c0.15,0.21,0.22,0.46,0.22,0.76c0,0.48-0.16,0.87-0.47,1.17
					s-0.76,0.45-1.35,0.45C337.4,136.92,336.97,136.76,336.7,136.43z"/>
				<path class="st7" d="M340.7,136.43c-0.27-0.33-0.4-0.72-0.4-1.19h0.66c0.03,0.33,0.09,0.56,0.18,0.71
					c0.16,0.26,0.46,0.4,0.89,0.4c0.33,0,0.6-0.09,0.8-0.27c0.2-0.18,0.3-0.41,0.3-0.69c0-0.35-0.11-0.59-0.32-0.73
					c-0.21-0.14-0.51-0.21-0.88-0.21c-0.04,0-0.08,0-0.13,0c-0.04,0-0.09,0-0.13,0v-0.56c0.07,0.01,0.12,0.01,0.17,0.01
					c0.04,0,0.09,0,0.14,0c0.24,0,0.43-0.04,0.58-0.11c0.27-0.13,0.4-0.37,0.4-0.7c0-0.25-0.09-0.44-0.27-0.58s-0.39-0.2-0.62-0.2
					c-0.42,0-0.71,0.14-0.88,0.42c-0.09,0.15-0.14,0.38-0.15,0.66h-0.63c0-0.38,0.08-0.69,0.22-0.96c0.26-0.47,0.71-0.7,1.36-0.7
					c0.51,0,0.91,0.11,1.19,0.34s0.42,0.56,0.42,0.99c0,0.31-0.08,0.56-0.25,0.75c-0.1,0.12-0.24,0.21-0.4,0.28
					c0.26,0.07,0.47,0.21,0.62,0.42c0.15,0.21,0.22,0.46,0.22,0.76c0,0.48-0.16,0.87-0.47,1.17s-0.77,0.45-1.35,0.45
					C341.4,136.92,340.97,136.76,340.7,136.43z"/>
			</g>
			<g>
				<path class="st7" d="M344.6,133.34c-0.18,0-0.38-0.09-0.38-0.39s0.2-0.4,0.38-0.4c0.18,0,0.38,0.09,0.38,0.4
					S344.77,133.34,344.6,133.34z M344.6,132.67c-0.19,0-0.22,0.17-0.22,0.27c0,0.1,0.03,0.27,0.22,0.27c0.19,0,0.22-0.17,0.22-0.27
					C344.81,132.85,344.78,132.67,344.6,132.67z"/>
				<path class="st7" d="M346.41,133.11c-0.06-0.3-0.31-0.36-0.48-0.36c-0.31,0-0.56,0.23-0.56,0.68c0,0.4,0.14,0.71,0.57,0.71
					c0.15,0,0.41-0.07,0.49-0.47h0.22c-0.1,0.65-0.62,0.67-0.75,0.67c-0.39,0-0.77-0.25-0.77-0.91c0-0.53,0.3-0.89,0.8-0.89
					c0.44,0,0.67,0.27,0.7,0.56H346.41z"/>
			</g>
		</g>
		<g>
			<path class="st5" d="M409.69,85.97c0,0.66-0.9,1.2-2,1.2h-27.61c-1.1,0-2-0.54-2-1.2c0-0.66,0.9-1.2,2-1.2h27.61
				C408.79,84.77,409.69,85.31,409.69,85.97z"/>
		</g>
		<g>
			<path class="st5" d="M398.74,91c0,0.66-0.9,1.2-2,1.2h-16.66c-1.1,0-2-0.54-2-1.2s0.9-1.2,2-1.2h16.66
				C397.84,89.8,398.74,90.34,398.74,91z"/>
		</g>
		<g>
			<path class="st10" d="M409.69,96.03c0,0.66-0.9,1.2-2,1.2h-27.61c-1.1,0-2-0.54-2-1.2c0-0.66,0.9-1.2,2-1.2h27.61
				C408.79,94.83,409.69,95.37,409.69,96.03z"/>
		</g>
		<g>
			<path class="st10" d="M409.69,101.01c0,0.66-0.9,1.2-2,1.2h-27.61c-1.1,0-2-0.54-2-1.2s0.9-1.2,2-1.2h27.61
				C408.79,99.81,409.69,100.35,409.69,101.01z"/>
		</g>
		<g>
			<path class="st10" d="M409.69,105.99c0,0.66-0.9,1.2-2,1.2h-27.61c-1.1,0-2-0.54-2-1.2c0-0.66,0.9-1.2,2-1.2h27.61
				C408.79,104.79,409.69,105.33,409.69,105.99z"/>
		</g>
		<g>
			<path class="st10" d="M409.69,110.98c0,0.66-0.9,1.2-2,1.2h-27.61c-1.1,0-2-0.54-2-1.2c0-0.66,0.9-1.2,2-1.2h27.61
				C408.79,109.78,409.69,110.32,409.69,110.98z"/>
		</g>
		<g>
			<path class="st10" d="M409.69,115.96c0,0.66-0.9,1.2-2,1.2h-27.61c-1.1,0-2-0.54-2-1.2c0-0.66,0.9-1.2,2-1.2h27.61
				C408.79,114.76,409.69,115.3,409.69,115.96z"/>
		</g>
		<g>
			<path class="st10" d="M409.69,120.94c0,0.66-0.9,1.2-2,1.2h-27.61c-1.1,0-2-0.54-2-1.2c0-0.66,0.9-1.2,2-1.2h27.61
				C408.79,119.74,409.69,120.28,409.69,120.94z"/>
		</g>
		<g>
			<path class="st10" d="M409.69,125.92c0,0.66-0.9,1.2-2,1.2h-27.61c-1.1,0-2-0.54-2-1.2c0-0.66,0.9-1.2,2-1.2h27.61
				C408.79,124.72,409.69,125.26,409.69,125.92z"/>
		</g>
		<g>
			<path class="st10" d="M409.69,130.9c0,0.66-0.9,1.2-2,1.2h-27.61c-1.1,0-2-0.54-2-1.2s0.9-1.2,2-1.2h27.61
				C408.79,129.7,409.69,130.24,409.69,130.9z"/>
		</g>
		<g>
			<path class="st10" d="M409.69,135.88c0,0.66-0.9,1.2-2,1.2h-27.61c-1.1,0-2-0.54-2-1.2c0-0.66,0.9-1.2,2-1.2h27.61
				C408.79,134.68,409.69,135.22,409.69,135.88z"/>
		</g>
		<g>
			<path class="st10" d="M402.31,140.87c0,0.66-0.9,1.2-2,1.2h-20.24c-1.1,0-2-0.54-2-1.2s0.9-1.2,2-1.2h20.24
				C401.41,139.67,402.31,140.21,402.31,140.87z"/>
		</g>
		<g>
			<path class="st10" d="M364.69,85.97c0,0.66-0.9,1.2-2,1.2h-27.61c-1.1,0-2-0.54-2-1.2c0-0.66,0.9-1.2,2-1.2h27.61
				C363.79,84.77,364.69,85.31,364.69,85.97z"/>
		</g>
		<g>
			<path class="st5" d="M364.69,85.97c0,0.66-0.9,1.2-2,1.2h-27.61c-1.1,0-2-0.54-2-1.2c0-0.66,0.9-1.2,2-1.2h27.61
				C363.79,84.77,364.69,85.31,364.69,85.97z"/>
		</g>
		<g>
			<path class="st10" d="M364.69,91c0,0.66-0.9,1.2-2,1.2h-27.61c-1.1,0-2-0.54-2-1.2s0.9-1.2,2-1.2h27.61
				C363.79,89.8,364.69,90.34,364.69,91z"/>
		</g>
		<g>
			<path class="st10" d="M360.75,96.03c0,0.66-0.9,1.2-2,1.2h-23.68c-1.1,0-2-0.54-2-1.2c0-0.66,0.9-1.2,2-1.2h23.68
				C359.85,94.83,360.75,95.37,360.75,96.03z"/>
		</g>
		<g>
			<g>
				<path class="st5" d="M360.3,108.25c0,0.66-0.9,1.2-2,1.2h-23.23c-1.1,0-2-0.54-2-1.2c0-0.66,0.9-1.2,2-1.2h23.23
					C359.4,107.05,360.3,107.59,360.3,108.25z"/>
			</g>
			<g>
				<path class="st10" d="M364.69,113.28c0,0.66-0.9,1.2-2,1.2h-27.61c-1.1,0-2-0.54-2-1.2c0-0.66,0.9-1.2,2-1.2h27.61
					C363.79,112.08,364.69,112.62,364.69,113.28z"/>
			</g>
			<g>
				<path class="st10" d="M352.48,118.31c0,0.66-0.9,1.2-2,1.2h-15.41c-1.1,0-2-0.54-2-1.2c0-0.66,0.9-1.2,2-1.2h15.41
					C351.58,117.11,352.48,117.65,352.48,118.31z"/>
			</g>
		</g>
	</g>
	<line class="st9" x1="270.6" y1="134.5" x2="329.4" y2="134.5"/>
	<g>
		<path class="st5" d="M345.67,71.16c0-0.68-0.01-0.82-0.35-0.86l-0.14-0.01c-0.07-0.04-0.07-0.25,0.01-0.25
			c0.6-0.04,1.17-0.06,1.93-0.06c0.59,0,1.18,0.06,1.68,0.24c0.94,0.34,1.46,1.19,1.46,2.09c0,0.97-0.46,1.74-1.29,2.15
			c-0.49,0.25-1.08,0.34-1.82,0.34c-0.34,0-0.7-0.04-0.96-0.04c-0.35,0-0.71,0.01-1.12,0.02c-0.06-0.04-0.06-0.22,0-0.25l0.22-0.04
			c0.32-0.05,0.37-0.11,0.37-0.77V71.16z M346.7,73.45c0,0.4,0.01,0.66,0.14,0.81c0.13,0.14,0.34,0.21,0.6,0.21
			c1.25,0,1.67-1.11,1.67-2.09c0-1.3-0.68-2.07-1.99-2.07c-0.19,0-0.33,0.04-0.38,0.09s-0.05,0.19-0.05,0.42V73.45z"/>
		<path class="st5" d="M353,73.76c-0.03,0.49,0.18,0.62,0.32,0.62c0.09,0,0.16-0.02,0.27-0.09c0.07,0.01,0.11,0.1,0.09,0.17
			c-0.09,0.12-0.42,0.39-0.84,0.39c-0.25,0-0.41-0.09-0.6-0.25c-0.05-0.04-0.08-0.06-0.12-0.06s-0.08,0.03-0.15,0.08
			c-0.13,0.09-0.35,0.23-0.61,0.23c-0.42,0-0.81-0.25-0.81-0.76c0-0.37,0.22-0.59,0.75-0.75c0.27-0.09,0.48-0.14,0.68-0.2
			c0.13-0.04,0.17-0.09,0.17-0.14c0.01-0.08,0.01-0.16,0.01-0.25c0-0.27-0.11-0.62-0.42-0.62c-0.17,0-0.32,0.1-0.37,0.41
			c-0.01,0.12-0.06,0.18-0.12,0.23c-0.11,0.08-0.39,0.17-0.52,0.17c-0.12,0-0.17-0.08-0.17-0.18c0-0.19,0.17-0.42,0.35-0.55
			c0.25-0.19,0.7-0.44,1.21-0.44c0.6,0,0.96,0.3,0.92,1.04L353,73.76z M352.14,73.58c0.01-0.12,0-0.14-0.05-0.13
			c-0.32,0.04-0.61,0.17-0.61,0.5c0,0.23,0.17,0.43,0.37,0.43c0.22,0,0.27-0.13,0.27-0.35L352.14,73.58z"/>
		<path class="st5" d="M354.88,73.92c0,0.5,0.03,0.57,0.27,0.59l0.14,0.01c0.06,0.04,0.06,0.21-0.01,0.25
			c-0.25-0.01-0.53-0.02-0.86-0.02c-0.32,0-0.63,0.01-0.86,0.02c-0.06-0.04-0.06-0.21-0.01-0.25l0.14-0.01
			c0.24-0.02,0.27-0.09,0.27-0.59v-1.09c0-0.29,0-0.37-0.14-0.46l-0.1-0.06c-0.05-0.04-0.05-0.17,0-0.22
			c0.34-0.09,0.85-0.29,1.07-0.42c0.06,0,0.1,0.02,0.13,0.06c-0.01,0.22-0.02,0.53-0.02,0.86V73.92z M354.94,70.66
			c0,0.35-0.27,0.53-0.54,0.53c-0.32,0-0.5-0.22-0.5-0.51c0-0.32,0.25-0.53,0.54-0.53C354.74,70.15,354.94,70.37,354.94,70.66z"/>
		<path class="st5" d="M355.77,70.75c0-0.29,0-0.37-0.14-0.45l-0.12-0.07c-0.05-0.04-0.05-0.17,0-0.22c0.31-0.07,0.74-0.25,1.1-0.4
			c0.04,0,0.09,0.01,0.12,0.05c-0.01,0.3-0.02,0.6-0.02,1.05v3.21c0,0.5,0.03,0.56,0.28,0.59l0.12,0.01
			c0.06,0.04,0.06,0.21-0.01,0.25c-0.24-0.01-0.54-0.02-0.86-0.02c-0.31,0-0.61,0.01-0.86,0.02c-0.07-0.04-0.07-0.21-0.01-0.25
			l0.14-0.01c0.24-0.02,0.27-0.09,0.27-0.59V70.75z"/>
		<path class="st5" d="M357,72.1c-0.05-0.05-0.05-0.22,0.02-0.25c0.26,0.01,0.57,0.02,0.95,0.02c0.27,0,0.54-0.01,0.81-0.02
			c0.07,0.03,0.08,0.2,0.02,0.25l-0.14,0.03c-0.2,0.04-0.22,0.07-0.22,0.14c0,0.09,0.08,0.27,0.22,0.64
			c0.08,0.2,0.24,0.64,0.32,0.82c0.08-0.15,0.15-0.32,0.22-0.48l0.13-0.3c0.15-0.35,0.27-0.65,0.27-0.73c0-0.05-0.07-0.09-0.16-0.1
			l-0.14-0.03c-0.06-0.05-0.06-0.23,0.02-0.25c0.16,0.01,0.37,0.02,0.7,0.02c0.19,0,0.37-0.01,0.56-0.02
			c0.07,0.03,0.08,0.21,0.01,0.25l-0.14,0.01c-0.14,0.01-0.27,0.07-0.33,0.16c-0.09,0.12-0.27,0.42-0.43,0.76l-0.38,0.78
			c-0.25,0.52-0.84,1.74-1.1,2.27c-0.15,0.32-0.35,0.47-0.62,0.48c-0.39,0.01-0.46-0.24-0.46-0.43c0-0.22,0.16-0.37,0.41-0.37h0.17
			c0.17,0,0.28-0.06,0.35-0.15c0.08-0.11,0.14-0.24,0.21-0.4c0.04-0.09,0.1-0.22,0.1-0.3c0-0.09-0.02-0.23-0.14-0.53l-0.69-1.74
			c-0.14-0.35-0.2-0.48-0.43-0.51L357,72.1z"/>
		<path class="st5" d="M366.43,70.07c0,0.13,0.02,0.71,0.09,1.12c-0.03,0.09-0.22,0.12-0.27,0.05c-0.19-0.67-0.66-1.03-1.35-1.03
			c-0.8,0-1.66,0.68-1.66,2.12s0.83,2.2,1.69,2.2c0.87,0,1.28-0.63,1.47-1.12c0.06-0.06,0.23-0.04,0.27,0.05
			c-0.05,0.53-0.17,0.97-0.27,1.13c-0.39,0.11-0.9,0.27-1.46,0.27c-0.71,0-1.43-0.17-1.94-0.55c-0.52-0.4-0.92-0.99-0.92-1.89
			c0-0.88,0.37-1.5,0.87-1.91c0.51-0.42,1.25-0.64,2-0.64C365.68,69.88,366.21,70.05,366.43,70.07z"/>
		<path class="st5" d="M366.79,73.37c-0.01-1.03,0.81-1.6,1.66-1.6s1.61,0.52,1.61,1.53c0,1.05-0.77,1.55-1.66,1.55
			C367.55,74.85,366.8,74.36,366.79,73.37z M367.83,73.21c0,0.76,0.24,1.31,0.66,1.31c0.41,0,0.55-0.47,0.54-1.12
			c-0.01-0.7-0.21-1.3-0.62-1.3C368.09,72.1,367.83,72.42,367.83,73.21z"/>
		<path class="st5" d="M370.71,72.83c0-0.29,0-0.37-0.14-0.46l-0.1-0.06c-0.05-0.04-0.05-0.17,0-0.22c0.33-0.09,0.84-0.29,1.07-0.42
			c0.06,0,0.1,0.02,0.13,0.06c0,0.1-0.02,0.27-0.02,0.32c0,0.04,0.01,0.06,0.04,0.06s0.09-0.04,0.14-0.06
			c0.16-0.09,0.48-0.29,0.83-0.29c0.26,0,0.48,0.09,0.65,0.27c0.09,0.1,0.13,0.13,0.17,0.13c0.03,0,0.09-0.05,0.23-0.12
			c0.16-0.09,0.43-0.28,0.82-0.28c0.57,0,0.87,0.41,0.87,0.91v1.24c0,0.5,0.03,0.56,0.27,0.59l0.12,0.01
			c0.06,0.04,0.06,0.21-0.01,0.25c-0.22-0.01-0.5-0.02-0.84-0.02c-0.29,0-0.59,0.01-0.79,0.02c-0.06-0.04-0.06-0.21-0.01-0.25
			l0.12-0.01c0.18-0.02,0.21-0.09,0.21-0.48V72.8c0-0.27-0.15-0.5-0.48-0.5c-0.2,0-0.35,0.09-0.4,0.18
			c-0.03,0.04-0.05,0.12-0.05,0.22v1.33c0,0.4,0.03,0.46,0.19,0.48l0.12,0.01c0.06,0.04,0.06,0.21-0.01,0.25
			c-0.22-0.01-0.45-0.02-0.78-0.02c-0.29,0-0.58,0.01-0.76,0.02c-0.06-0.04-0.06-0.21-0.01-0.25l0.12-0.01
			c0.17-0.02,0.19-0.09,0.19-0.48V72.8c0-0.27-0.14-0.5-0.49-0.5c-0.19,0-0.33,0.09-0.39,0.17c-0.04,0.05-0.06,0.14-0.06,0.27v1.29
			c0,0.4,0.03,0.46,0.21,0.48l0.12,0.01c0.06,0.04,0.06,0.21-0.01,0.25c-0.22-0.01-0.45-0.02-0.8-0.02c-0.32,0-0.6,0.01-0.82,0.02
			c-0.07-0.04-0.07-0.21-0.01-0.25l0.12-0.01c0.24-0.03,0.27-0.09,0.27-0.59V72.83z"/>
		<path class="st5" d="M376.28,72.83c0-0.29,0-0.37-0.14-0.46l-0.1-0.06c-0.05-0.04-0.05-0.17,0-0.22c0.3-0.09,0.84-0.32,1.04-0.45
			c0.05-0.01,0.12,0.02,0.15,0.09c-0.01,0.09-0.01,0.17-0.01,0.24c0,0.05,0.03,0.09,0.06,0.1c0.22-0.11,0.53-0.29,0.91-0.29
			c0.76,0,1.22,0.6,1.22,1.38c0,1.01-0.71,1.71-1.76,1.71c-0.1,0-0.26-0.01-0.32-0.02c-0.06,0.01-0.11,0.06-0.11,0.21v0.71
			c0,0.5,0.03,0.56,0.27,0.58l0.24,0.02c0.06,0.04,0.06,0.21-0.01,0.25c-0.36-0.01-0.65-0.02-0.99-0.02c-0.32,0-0.6,0.01-0.86,0.02
			c-0.07-0.04-0.07-0.21-0.01-0.25l0.14-0.01c0.24-0.02,0.27-0.09,0.27-0.59V72.83z M377.22,73.94c0,0.16,0.06,0.31,0.17,0.42
			c0.09,0.1,0.23,0.17,0.35,0.17c0.45,0,0.69-0.48,0.69-1.15c0-0.71-0.35-1.11-0.82-1.11c-0.12,0-0.25,0.03-0.3,0.1
			c-0.04,0.04-0.08,0.14-0.08,0.42V73.94z"/>
		<path class="st5" d="M379.68,73.37c-0.01-1.03,0.81-1.6,1.66-1.6s1.61,0.52,1.61,1.53c0,1.05-0.77,1.55-1.66,1.55
			C380.44,74.85,379.69,74.36,379.68,73.37z M380.72,73.21c0,0.76,0.24,1.31,0.66,1.31c0.41,0,0.55-0.47,0.54-1.12
			c-0.01-0.7-0.21-1.3-0.62-1.3C380.98,72.1,380.72,72.42,380.72,73.21z"/>
		<path class="st5" d="M383.6,72.83c0-0.29,0-0.37-0.14-0.46l-0.1-0.06c-0.05-0.04-0.05-0.17,0-0.22c0.34-0.09,0.86-0.29,1.07-0.42
			c0.06,0,0.1,0.02,0.13,0.06c0,0.1-0.02,0.27-0.02,0.32c0,0.04,0.01,0.06,0.04,0.06s0.09-0.04,0.14-0.06
			c0.16-0.09,0.5-0.29,0.83-0.29c0.6,0,0.9,0.41,0.9,0.91v1.24c0,0.5,0.03,0.56,0.29,0.59l0.12,0.01c0.06,0.04,0.06,0.21-0.01,0.25
			c-0.22-0.01-0.53-0.02-0.87-0.02c-0.29,0-0.57,0.01-0.78,0.02c-0.06-0.04-0.06-0.21-0.01-0.25l0.13-0.02
			c0.17-0.03,0.2-0.08,0.2-0.48v-1.22c0-0.28-0.14-0.51-0.5-0.51c-0.2,0-0.35,0.09-0.4,0.17c-0.04,0.05-0.06,0.14-0.06,0.27v1.29
			c0,0.4,0.03,0.46,0.21,0.48l0.12,0.01c0.06,0.04,0.06,0.21-0.01,0.25c-0.22-0.01-0.45-0.02-0.8-0.02c-0.3,0-0.6,0.01-0.85,0.02
			c-0.07-0.04-0.07-0.21-0.01-0.25l0.12-0.01c0.26-0.03,0.29-0.09,0.29-0.59V72.83z"/>
		<path class="st5" d="M388.07,73.04c-0.17,0-0.18,0.01-0.18,0.13c0,0.54,0.35,1.07,1.02,1.07c0.2,0,0.48-0.04,0.67-0.37
			c0.08-0.01,0.19,0.04,0.19,0.17c-0.3,0.61-0.83,0.82-1.26,0.82c-0.97,0-1.5-0.68-1.5-1.47c0-0.91,0.66-1.61,1.56-1.61
			c0.75,0,1.15,0.48,1.15,1.04c0,0.14-0.04,0.24-0.26,0.24H388.07z M388.54,72.73c0.1,0,0.22-0.01,0.3-0.06
			c0.04-0.02,0.05-0.09,0.05-0.17c0-0.24-0.14-0.4-0.38-0.4c-0.3,0-0.56,0.29-0.56,0.52c0,0.1,0.1,0.11,0.33,0.11H388.54z"/>
		<path class="st5" d="M390.22,72.83c0-0.29,0-0.37-0.14-0.46l-0.1-0.06c-0.05-0.04-0.05-0.17,0-0.22c0.34-0.09,0.86-0.29,1.07-0.42
			c0.06,0,0.1,0.02,0.13,0.06c0,0.1-0.02,0.27-0.02,0.32c0,0.04,0.01,0.06,0.04,0.06s0.09-0.04,0.14-0.06
			c0.16-0.09,0.5-0.29,0.83-0.29c0.6,0,0.9,0.41,0.9,0.91v1.24c0,0.5,0.03,0.56,0.29,0.59l0.12,0.01c0.06,0.04,0.06,0.21-0.01,0.25
			c-0.22-0.01-0.53-0.02-0.87-0.02c-0.29,0-0.57,0.01-0.78,0.02c-0.06-0.04-0.06-0.21-0.01-0.25l0.13-0.02
			c0.17-0.03,0.19-0.08,0.19-0.48v-1.22c0-0.28-0.14-0.51-0.5-0.51c-0.2,0-0.35,0.09-0.4,0.17c-0.04,0.05-0.06,0.14-0.06,0.27v1.29
			c0,0.4,0.03,0.46,0.21,0.48l0.12,0.01c0.06,0.04,0.06,0.21-0.01,0.25c-0.22-0.01-0.45-0.02-0.8-0.02c-0.3,0-0.6,0.01-0.85,0.02
			c-0.06-0.04-0.06-0.21-0.01-0.25l0.12-0.01c0.26-0.03,0.29-0.09,0.29-0.59V72.83z"/>
		<path class="st5" d="M394.99,72.26c-0.09,0-0.1,0.01-0.1,0.17v1.08c0,0.4,0,0.85,0.5,0.85c0.1,0,0.22-0.05,0.3-0.11
			c0.07,0.02,0.12,0.1,0.1,0.19c-0.2,0.22-0.59,0.42-1.04,0.42c-0.6,0-0.81-0.35-0.81-0.82v-1.61c0-0.15-0.01-0.17-0.14-0.17h-0.22
			c-0.08-0.03-0.1-0.17-0.04-0.22c0.22-0.08,0.42-0.21,0.6-0.32c0.13-0.09,0.31-0.25,0.53-0.56c0.05-0.03,0.18-0.02,0.22,0.04v0.54
			c0,0.14,0.01,0.14,0.14,0.14h0.64c0.04,0.03,0.06,0.07,0.06,0.14c0,0.08-0.02,0.21-0.09,0.25H394.99z"/>
		<path class="st5" d="M395.83,74.63c-0.08-0.14-0.13-0.49-0.12-0.81c0.04-0.07,0.2-0.08,0.25-0.01c0.09,0.3,0.37,0.72,0.73,0.72
			c0.22,0,0.37-0.13,0.37-0.37c0-0.27-0.23-0.42-0.47-0.54c-0.43-0.22-0.74-0.48-0.74-0.91c0-0.63,0.53-0.93,1.15-0.93
			c0.37,0,0.69,0.09,0.77,0.15c0.07,0.16,0.11,0.45,0.11,0.72c-0.03,0.08-0.21,0.08-0.25,0.03c-0.14-0.42-0.32-0.57-0.56-0.57
			c-0.21,0-0.36,0.12-0.36,0.32c0,0.17,0.14,0.3,0.46,0.46c0.49,0.24,0.79,0.54,0.79,1.01c-0.01,0.64-0.55,0.96-1.23,0.96
			C396.31,74.85,396.02,74.78,395.83,74.63z"/>
	</g>
</g>
</svg>
