<?xml version="1.0" encoding="utf-8"?>
<!-- Generator: Adobe Illustrator 24.2.1, SVG Export Plug-In . SVG Version: 6.00 Build 0)  -->
<svg version="1.1" id="Layer_1" xmlns="http://www.w3.org/2000/svg" xmlns:xlink="http://www.w3.org/1999/xlink" x="0px" y="0px"
	 viewBox="0 0 640 400" style="enable-background:new 0 0 640 400;" xml:space="preserve">
<style type="text/css">
	.st0{fill:#FFFFFF;}
	.st1{fill:#EEFFE5;}
	.st2{fill:#00D082;}
	.st3{fill:#00945D;}
	.st4{fill:#FCEBDC;}
	.st5{fill:#FEC38F;}
	.st6{fill:#E1692D;}
	.st7{fill:#C8DCFF;}
	.st8{fill:#69A3FF;}
	.st9{fill:#005CCC;}
	.st10{fill:#E1E5FA;}
	.st11{fill:#B2BDF3;}
	.st12{fill:#38458C;}
	.st13{fill:#F0F0F0;}
	.st14{fill:#C4CDD5;}
	.st15{fill:#627380;}
	.st16{fill:none;stroke:#627380;stroke-width:1.3602;stroke-miterlimit:10;}
	.st17{fill:#DFE3E8;}
	.st18{fill:none;stroke:#C4CDD5;stroke-width:1.3602;stroke-linecap:round;stroke-linejoin:round;}
	.st19{fill:none;stroke:#C4CDD5;stroke-width:1.3602;stroke-linecap:round;stroke-linejoin:round;stroke-dasharray:4.8733,4.8733;}
	.st20{fill:none;stroke:#C4CDD5;stroke-width:1.3602;stroke-linecap:round;stroke-linejoin:round;stroke-dasharray:5.4262,5.4262;}
</style>
<rect class="st0" width="640" height="400"/>
<g>
	<g>
		<path class="st1" d="M82.4,204.8c-5.1,0-9.3-4.2-9.3-9.3V67.3c0-5.1,4.2-9.3,9.3-9.3h116c5.1,0,9.3,4.2,9.3,9.3v128.3
			c0,5.1-4.2,9.3-9.3,9.3H82.4z"/>
		<path class="st2" d="M198.5,58.6c4.8,0,8.6,3.9,8.6,8.6v128.3c0,4.8-3.9,8.6-8.6,8.6h-116c-4.8,0-8.6-3.9-8.6-8.6V67.3
			c0-4.8,3.9-8.6,8.6-8.6H198.5 M198.5,57.3h-116c-5.5,0-10,4.5-10,10v128.3c0,5.5,4.5,10,10,10h116c5.5,0,10-4.5,10-10V67.3
			C208.5,61.7,204,57.3,198.5,57.3L198.5,57.3z"/>
	</g>
	<g>
		<path class="st3" d="M85.9,127.7h1.6v-2.6h-1.6v-1h2.8v3.6h1.7v1h-4.5V127.7z M87.3,122.9c0-0.2,0.1-0.4,0.2-0.5
			c0.1-0.1,0.3-0.2,0.6-0.2c0.3,0,0.5,0.1,0.6,0.2c0.2,0.1,0.2,0.3,0.2,0.5c0,0.2-0.1,0.4-0.2,0.5c-0.2,0.1-0.4,0.2-0.6,0.2
			c-0.3,0-0.4-0.1-0.6-0.2C87.4,123.2,87.3,123.1,87.3,122.9z"/>
		<path class="st3" d="M93.1,128.7v-2.8c0-0.2,0-0.3,0-0.4c0-0.1-0.1-0.2-0.1-0.3c0-0.1-0.1-0.1-0.1-0.1c-0.1,0-0.1,0-0.2,0
			c-0.1,0-0.2,0-0.3,0.1c-0.1,0.1-0.1,0.2-0.2,0.3v3.3h-1.1v-4.6H92l0.1,0.5h0c0.1-0.2,0.2-0.3,0.4-0.4c0.2-0.1,0.4-0.2,0.6-0.2
			c0.2,0,0.4,0,0.6,0.1c0.2,0.1,0.3,0.3,0.4,0.5c0.1-0.2,0.2-0.4,0.4-0.5c0.2-0.1,0.4-0.2,0.6-0.2c0.2,0,0.3,0,0.4,0.1
			s0.2,0.1,0.3,0.2c0.1,0.1,0.2,0.3,0.2,0.5c0.1,0.2,0.1,0.5,0.1,0.8v3.1h-1.1v-2.9c0-0.3,0-0.5-0.1-0.6c-0.1-0.1-0.2-0.2-0.3-0.2
			c-0.1,0-0.2,0-0.3,0.1c-0.1,0.1-0.1,0.1-0.2,0.3v3.3H93.1z"/>
		<path class="st3" d="M96.4,124.1H98l0.1,0.6h0c0.3-0.5,0.8-0.7,1.5-0.7c0.3,0,0.5,0,0.8,0.1c0.2,0.1,0.4,0.2,0.6,0.4
			c0.2,0.2,0.3,0.4,0.4,0.7c0.1,0.3,0.1,0.6,0.1,1c0,0.4-0.1,0.7-0.2,1.1c-0.1,0.3-0.3,0.6-0.4,0.8c-0.2,0.2-0.4,0.4-0.7,0.5
			c-0.3,0.1-0.6,0.2-1,0.2c-0.2,0-0.4,0-0.6,0c-0.2,0-0.3-0.1-0.5-0.1v1.9h-1.2v-5.4h-0.7V124.1z M99.3,125c-0.2,0-0.4,0.1-0.6,0.2
			c-0.2,0.1-0.3,0.3-0.4,0.5v1.9c0.1,0.1,0.2,0.1,0.4,0.2c0.2,0,0.3,0.1,0.5,0.1c0.2,0,0.3,0,0.5-0.1c0.1-0.1,0.3-0.2,0.4-0.3
			c0.1-0.1,0.2-0.3,0.3-0.5c0.1-0.2,0.1-0.4,0.1-0.7c0-0.4-0.1-0.7-0.3-0.9C99.9,125.1,99.6,125,99.3,125z"/>
		<path class="st3" d="M102.2,126.4c0-0.4,0.1-0.7,0.2-1c0.1-0.3,0.3-0.6,0.5-0.8c0.2-0.2,0.5-0.4,0.8-0.5c0.3-0.1,0.6-0.2,1-0.2
			c0.4,0,0.7,0.1,1,0.2c0.3,0.1,0.6,0.3,0.8,0.5c0.2,0.2,0.4,0.5,0.5,0.8s0.2,0.6,0.2,1c0,0.4-0.1,0.7-0.2,1
			c-0.1,0.3-0.3,0.6-0.5,0.8c-0.2,0.2-0.5,0.4-0.8,0.5c-0.3,0.1-0.6,0.2-1,0.2c-0.4,0-0.7-0.1-1-0.2c-0.3-0.1-0.6-0.3-0.8-0.5
			c-0.2-0.2-0.4-0.5-0.5-0.8C102.3,127.1,102.2,126.8,102.2,126.4z M103.5,126.4c0,0.2,0,0.4,0.1,0.6c0.1,0.2,0.1,0.3,0.2,0.5
			c0.1,0.1,0.2,0.2,0.4,0.3c0.1,0.1,0.3,0.1,0.5,0.1c0.4,0,0.6-0.1,0.9-0.3c0.2-0.2,0.3-0.6,0.3-1.1c0-0.4-0.1-0.8-0.3-1
			c-0.2-0.3-0.5-0.4-0.9-0.4c-0.2,0-0.3,0-0.5,0.1c-0.1,0.1-0.3,0.1-0.4,0.3c-0.1,0.1-0.2,0.3-0.3,0.4
			C103.5,125.9,103.5,126.2,103.5,126.4z"/>
		<path class="st3" d="M107.8,127.7h1.1v-2.6h-1.1v-1h2.1l0.1,0.6h0c0.2-0.2,0.4-0.4,0.6-0.5c0.2-0.1,0.5-0.2,0.8-0.2
			c0.4,0,0.7,0.1,0.9,0.4c0.2,0.3,0.3,0.7,0.3,1.3h-1.1c0-0.2,0-0.4-0.1-0.5c-0.1-0.1-0.2-0.2-0.3-0.2c-0.2,0-0.4,0.1-0.6,0.2
			c-0.2,0.1-0.3,0.3-0.4,0.4v2h2v1h-4.3V127.7z"/>
		<path class="st3" d="M114,125.1h-0.9v-1h0.9v-1l1.2-0.3v1.4h2.4v1h-2.4v1.3c0,0.5,0.1,0.8,0.3,1c0.2,0.2,0.4,0.3,0.7,0.3
			c0.2,0,0.3,0,0.4-0.1c0.1,0,0.3-0.1,0.4-0.2c0.1-0.1,0.2-0.1,0.3-0.2c0.1-0.1,0.2-0.1,0.2-0.2l0.6,0.8c-0.1,0.1-0.2,0.2-0.4,0.3
			c-0.2,0.1-0.3,0.2-0.5,0.3c-0.2,0.1-0.4,0.1-0.6,0.2c-0.2,0-0.4,0.1-0.6,0.1c-0.7,0-1.2-0.2-1.5-0.6s-0.5-1-0.5-1.8V125.1z"/>
		<path class="st3" d="M124.9,124.5c0.3-0.2,0.6-0.3,0.9-0.3c0.3-0.1,0.7-0.1,1-0.1c0.3,0,0.6,0,0.8,0.1c0.2,0.1,0.4,0.2,0.5,0.4
			c0.1,0.2,0.2,0.3,0.2,0.5c0,0.2,0.1,0.4,0.1,0.6c0,0.2,0,0.5,0,0.7c0,0.3,0,0.5,0,0.8c0,0.3,0,0.6,0.1,0.9h0.6v0.6h-1.2l-0.1-0.7
			h0c0,0.1-0.1,0.1-0.2,0.2c-0.1,0.1-0.2,0.2-0.3,0.3c-0.1,0.1-0.3,0.2-0.4,0.2c-0.2,0.1-0.4,0.1-0.6,0.1c-0.5,0-0.8-0.1-1.1-0.3
			c-0.3-0.2-0.4-0.6-0.4-1c0-0.3,0.1-0.6,0.2-0.8c0.1-0.2,0.3-0.4,0.6-0.5c0.3-0.1,0.6-0.2,0.9-0.2c0.4,0,0.8,0,1.2,0.1
			c0-0.3,0-0.5,0-0.7c0-0.2-0.1-0.3-0.1-0.4c-0.1-0.1-0.2-0.2-0.3-0.2c-0.1,0-0.3-0.1-0.5-0.1c-0.3,0-0.5,0-0.8,0.1
			c-0.3,0.1-0.5,0.2-0.7,0.2L124.9,124.5z M126.3,128.2c0.2,0,0.3,0,0.5-0.1c0.1-0.1,0.3-0.1,0.4-0.2c0.1-0.1,0.2-0.2,0.3-0.3
			c0.1-0.1,0.1-0.2,0.2-0.3v-0.6c-0.3-0.1-0.6-0.1-0.9-0.1s-0.5,0-0.7,0.1s-0.3,0.1-0.5,0.3c-0.1,0.1-0.2,0.3-0.2,0.5
			c0,0.2,0.1,0.4,0.2,0.5C125.7,128.1,126,128.2,126.3,128.2z"/>
		<path class="st3" d="M135.6,128.7v-1h1.1v-2.6h-1.1v-1h1.1v-0.3c0-0.3,0.1-0.5,0.2-0.7c0.1-0.2,0.2-0.4,0.4-0.5
			c0.2-0.1,0.4-0.2,0.6-0.3c0.2-0.1,0.4-0.1,0.7-0.1c0.4,0,0.8,0,1,0.1c0.3,0.1,0.5,0.2,0.7,0.3l-0.3,0.9c-0.1-0.1-0.3-0.1-0.5-0.2
			c-0.2-0.1-0.4-0.1-0.6-0.1c-0.3,0-0.6,0.1-0.7,0.2c-0.1,0.2-0.2,0.4-0.2,0.7h1.9v1h-1.9v2.6h1.9v1H135.6z"/>
		<path class="st3" d="M140.8,127.7h1.1v-2.6h-1.1v-1h2.1l0.1,0.6h0c0.2-0.2,0.4-0.4,0.6-0.5c0.2-0.1,0.5-0.2,0.8-0.2
			c0.4,0,0.7,0.1,0.9,0.4c0.2,0.3,0.3,0.7,0.3,1.3h-1.1c0-0.2,0-0.4-0.1-0.5c-0.1-0.1-0.2-0.2-0.3-0.2c-0.2,0-0.4,0.1-0.6,0.2
			s-0.3,0.3-0.4,0.4v2h2v1h-4.3V127.7z"/>
		<path class="st3" d="M146.3,126.4c0-0.4,0.1-0.7,0.2-1c0.1-0.3,0.3-0.6,0.5-0.8c0.2-0.2,0.5-0.4,0.8-0.5c0.3-0.1,0.6-0.2,1-0.2
			c0.4,0,0.7,0.1,1,0.2c0.3,0.1,0.6,0.3,0.8,0.5c0.2,0.2,0.4,0.5,0.5,0.8s0.2,0.6,0.2,1c0,0.4-0.1,0.7-0.2,1
			c-0.1,0.3-0.3,0.6-0.5,0.8c-0.2,0.2-0.5,0.4-0.8,0.5c-0.3,0.1-0.6,0.2-1,0.2c-0.4,0-0.7-0.1-1-0.2c-0.3-0.1-0.6-0.3-0.8-0.5
			c-0.2-0.2-0.4-0.5-0.5-0.8C146.3,127.1,146.3,126.8,146.3,126.4z M147.5,126.4c0,0.2,0,0.4,0.1,0.6c0.1,0.2,0.1,0.3,0.2,0.5
			c0.1,0.1,0.2,0.2,0.4,0.3c0.1,0.1,0.3,0.1,0.5,0.1c0.4,0,0.6-0.1,0.9-0.3c0.2-0.2,0.3-0.6,0.3-1.1c0-0.4-0.1-0.8-0.3-1
			c-0.2-0.3-0.5-0.4-0.9-0.4c-0.2,0-0.3,0-0.5,0.1c-0.1,0.1-0.3,0.1-0.4,0.3c-0.1,0.1-0.2,0.3-0.3,0.4
			C147.5,125.9,147.5,126.2,147.5,126.4z"/>
		<path class="st3" d="M153.7,128.7v-2.8c0-0.2,0-0.3,0-0.4c0-0.1-0.1-0.2-0.1-0.3c0-0.1-0.1-0.1-0.1-0.1c-0.1,0-0.1,0-0.2,0
			c-0.1,0-0.2,0-0.3,0.1c-0.1,0.1-0.1,0.2-0.2,0.3v3.3h-1.1v-4.6h0.9l0.1,0.5h0c0.1-0.2,0.2-0.3,0.4-0.4c0.2-0.1,0.4-0.2,0.6-0.2
			c0.2,0,0.4,0,0.6,0.1c0.2,0.1,0.3,0.3,0.4,0.5c0.1-0.2,0.2-0.4,0.4-0.5c0.2-0.1,0.4-0.2,0.6-0.2c0.2,0,0.3,0,0.4,0.1
			c0.1,0,0.2,0.1,0.3,0.2c0.1,0.1,0.2,0.3,0.2,0.5c0.1,0.2,0.1,0.5,0.1,0.8v3.1h-1.1v-2.9c0-0.3,0-0.5-0.1-0.6
			c-0.1-0.1-0.2-0.2-0.3-0.2c-0.1,0-0.2,0-0.3,0.1s-0.1,0.1-0.2,0.3v3.3H153.7z"/>
		<path class="st3" d="M165.8,123.3c0,0.2-0.1,0.3-0.2,0.4c-0.1,0.1-0.2,0.1-0.4,0.1c-0.2,0-0.4-0.1-0.5-0.2
			c-0.1-0.1-0.2-0.3-0.2-0.6c0-0.2,0-0.5,0.1-0.6c0.1-0.2,0.2-0.3,0.3-0.5s0.2-0.2,0.3-0.3c0.1-0.1,0.2-0.1,0.3-0.2l0.3,0.4
			c-0.2,0.1-0.3,0.2-0.4,0.3c-0.1,0.1-0.2,0.3-0.2,0.5c0,0,0.1,0,0.1,0c0.1,0,0.3,0.1,0.4,0.2C165.8,123,165.8,123.1,165.8,123.3z"
			/>
		<path class="st3" d="M170.1,128.2c0-0.2,0.1-0.3,0.2-0.5c0.1-0.1,0.3-0.2,0.4-0.2c0.2,0,0.3,0.1,0.5,0.2c0.1,0.1,0.2,0.3,0.2,0.5
			c0,0.2-0.1,0.3-0.2,0.4c-0.1,0.1-0.3,0.2-0.5,0.2c-0.2,0-0.3-0.1-0.4-0.2C170.2,128.5,170.1,128.4,170.1,128.2z"/>
		<path class="st3" d="M177.6,122.2l0.6,0.3l-3.3,7.6l-0.6-0.3L177.6,122.2z"/>
		<path class="st3" d="M180,124.5c0.3-0.2,0.6-0.3,0.9-0.3c0.3-0.1,0.7-0.1,1-0.1c0.3,0,0.6,0,0.8,0.1c0.2,0.1,0.4,0.2,0.5,0.4
			c0.1,0.2,0.2,0.3,0.2,0.5c0,0.2,0.1,0.4,0.1,0.6c0,0.2,0,0.5,0,0.7c0,0.3,0,0.5,0,0.8c0,0.3,0,0.6,0.1,0.9h0.6v0.6h-1.2l-0.1-0.7
			h0c0,0.1-0.1,0.1-0.2,0.2c-0.1,0.1-0.2,0.2-0.3,0.3c-0.1,0.1-0.3,0.2-0.4,0.2c-0.2,0.1-0.4,0.1-0.6,0.1c-0.5,0-0.8-0.1-1.1-0.3
			c-0.3-0.2-0.4-0.6-0.4-1c0-0.3,0.1-0.6,0.2-0.8c0.1-0.2,0.3-0.4,0.6-0.5c0.3-0.1,0.6-0.2,0.9-0.2c0.4,0,0.8,0,1.2,0.1
			c0-0.3,0-0.5,0-0.7c0-0.2-0.1-0.3-0.1-0.4c-0.1-0.1-0.2-0.2-0.3-0.2c-0.1,0-0.3-0.1-0.5-0.1c-0.3,0-0.5,0-0.8,0.1
			c-0.3,0.1-0.5,0.2-0.7,0.2L180,124.5z M181.3,128.2c0.2,0,0.3,0,0.5-0.1c0.1-0.1,0.3-0.1,0.4-0.2c0.1-0.1,0.2-0.2,0.3-0.3
			c0.1-0.1,0.1-0.2,0.2-0.3v-0.6c-0.3-0.1-0.6-0.1-0.9-0.1c-0.3,0-0.5,0-0.7,0.1c-0.2,0.1-0.3,0.1-0.5,0.3c-0.1,0.1-0.2,0.3-0.2,0.5
			c0,0.2,0.1,0.4,0.2,0.5C180.8,128.1,181,128.2,181.3,128.2z"/>
		<path class="st3" d="M186.6,122.5c0-0.2,0.1-0.3,0.2-0.4c0.1-0.1,0.2-0.1,0.4-0.1c0.2,0,0.4,0.1,0.5,0.2c0.1,0.1,0.2,0.3,0.2,0.6
			c0,0.2,0,0.5-0.1,0.6c-0.1,0.2-0.2,0.3-0.3,0.5c-0.1,0.1-0.2,0.2-0.3,0.3c-0.1,0.1-0.2,0.1-0.3,0.2l-0.3-0.4
			c0.2-0.1,0.3-0.2,0.4-0.3c0.1-0.1,0.2-0.3,0.2-0.5c0,0-0.1,0-0.1,0c-0.1,0-0.3-0.1-0.4-0.2C186.7,122.8,186.6,122.6,186.6,122.5z"
			/>
		<path class="st3" d="M192.1,128.2c0-0.2,0.1-0.3,0.2-0.4c0.1-0.1,0.3-0.2,0.5-0.2c0.2,0,0.4,0.1,0.5,0.2c0.1,0.2,0.2,0.4,0.2,0.7
			c0,0.2,0,0.4-0.1,0.6c-0.1,0.2-0.2,0.3-0.3,0.5c-0.1,0.1-0.2,0.2-0.4,0.3c-0.1,0.1-0.3,0.1-0.4,0.2l-0.2-0.4
			c0.2-0.1,0.4-0.2,0.6-0.4c0.2-0.2,0.2-0.4,0.2-0.6c-0.1,0-0.2,0-0.2,0c-0.2,0-0.3-0.1-0.4-0.2
			C192.1,128.5,192.1,128.4,192.1,128.2z M192.2,124.6c0-0.2,0.1-0.3,0.2-0.5c0.1-0.1,0.3-0.2,0.4-0.2c0.2,0,0.3,0.1,0.5,0.2
			c0.1,0.1,0.2,0.3,0.2,0.5c0,0.2-0.1,0.3-0.2,0.4c-0.1,0.1-0.3,0.2-0.5,0.2c-0.2,0-0.3-0.1-0.4-0.2
			C192.2,124.9,192.2,124.8,192.2,124.6z"/>
		<path class="st3" d="M85.9,138.7h1.6v-2.6h-1.6v-1h2.8v3.6h1.7v1h-4.5V138.7z M87.3,133.9c0-0.2,0.1-0.4,0.2-0.5
			c0.1-0.1,0.3-0.2,0.6-0.2c0.3,0,0.5,0.1,0.6,0.2c0.2,0.1,0.2,0.3,0.2,0.5c0,0.2-0.1,0.4-0.2,0.5c-0.2,0.1-0.4,0.2-0.6,0.2
			c-0.3,0-0.4-0.1-0.6-0.2C87.4,134.2,87.3,134.1,87.3,133.9z"/>
		<path class="st3" d="M93.1,139.7v-2.8c0-0.2,0-0.3,0-0.4s-0.1-0.2-0.1-0.3s-0.1-0.1-0.1-0.1c-0.1,0-0.1,0-0.2,0
			c-0.1,0-0.2,0-0.3,0.1c-0.1,0.1-0.1,0.2-0.2,0.3v3.3h-1.1v-4.6H92l0.1,0.5h0c0.1-0.2,0.2-0.3,0.4-0.4c0.2-0.1,0.4-0.2,0.6-0.2
			c0.2,0,0.4,0,0.6,0.1c0.2,0.1,0.3,0.3,0.4,0.5c0.1-0.2,0.2-0.4,0.4-0.5c0.2-0.1,0.4-0.2,0.6-0.2c0.2,0,0.3,0,0.4,0.1
			s0.2,0.1,0.3,0.2c0.1,0.1,0.2,0.3,0.2,0.5c0.1,0.2,0.1,0.5,0.1,0.8v3.1h-1.1v-2.9c0-0.3,0-0.5-0.1-0.6c-0.1-0.1-0.2-0.2-0.3-0.2
			c-0.1,0-0.2,0-0.3,0.1c-0.1,0.1-0.1,0.1-0.2,0.3v3.3H93.1z"/>
		<path class="st3" d="M96.4,135.1H98l0.1,0.6h0c0.3-0.5,0.8-0.7,1.5-0.7c0.3,0,0.5,0,0.8,0.1c0.2,0.1,0.4,0.2,0.6,0.4
			c0.2,0.2,0.3,0.4,0.4,0.7c0.1,0.3,0.1,0.6,0.1,1c0,0.4-0.1,0.7-0.2,1.1c-0.1,0.3-0.3,0.6-0.4,0.8c-0.2,0.2-0.4,0.4-0.7,0.5
			c-0.3,0.1-0.6,0.2-1,0.2c-0.2,0-0.4,0-0.6,0c-0.2,0-0.3-0.1-0.5-0.1v1.9h-1.2v-5.4h-0.7V135.1z M99.3,136c-0.2,0-0.4,0.1-0.6,0.2
			c-0.2,0.1-0.3,0.3-0.4,0.5v1.9c0.1,0.1,0.2,0.1,0.4,0.2c0.2,0,0.3,0.1,0.5,0.1c0.2,0,0.3,0,0.5-0.1c0.1-0.1,0.3-0.2,0.4-0.3
			c0.1-0.1,0.2-0.3,0.3-0.5c0.1-0.2,0.1-0.4,0.1-0.7c0-0.4-0.1-0.7-0.3-0.9S99.6,136,99.3,136z"/>
		<path class="st3" d="M102.2,137.4c0-0.4,0.1-0.7,0.2-1c0.1-0.3,0.3-0.6,0.5-0.8c0.2-0.2,0.5-0.4,0.8-0.5c0.3-0.1,0.6-0.2,1-0.2
			c0.4,0,0.7,0.1,1,0.2c0.3,0.1,0.6,0.3,0.8,0.5c0.2,0.2,0.4,0.5,0.5,0.8c0.1,0.3,0.2,0.6,0.2,1c0,0.4-0.1,0.7-0.2,1
			c-0.1,0.3-0.3,0.6-0.5,0.8c-0.2,0.2-0.5,0.4-0.8,0.5c-0.3,0.1-0.6,0.2-1,0.2c-0.4,0-0.7-0.1-1-0.2c-0.3-0.1-0.6-0.3-0.8-0.5
			s-0.4-0.5-0.5-0.8C102.3,138.1,102.2,137.8,102.2,137.4z M103.5,137.4c0,0.2,0,0.4,0.1,0.6c0.1,0.2,0.1,0.3,0.2,0.5
			c0.1,0.1,0.2,0.2,0.4,0.3c0.1,0.1,0.3,0.1,0.5,0.1c0.4,0,0.6-0.1,0.9-0.3c0.2-0.2,0.3-0.6,0.3-1.1c0-0.4-0.1-0.8-0.3-1
			c-0.2-0.3-0.5-0.4-0.9-0.4c-0.2,0-0.3,0-0.5,0.1c-0.1,0.1-0.3,0.1-0.4,0.3s-0.2,0.3-0.3,0.4C103.5,137,103.5,137.2,103.5,137.4z"
			/>
		<path class="st3" d="M107.8,138.7h1.1v-2.6h-1.1v-1h2.1l0.1,0.6h0c0.2-0.2,0.4-0.4,0.6-0.5c0.2-0.1,0.5-0.2,0.8-0.2
			c0.4,0,0.7,0.1,0.9,0.4c0.2,0.3,0.3,0.7,0.3,1.3h-1.1c0-0.2,0-0.4-0.1-0.5c-0.1-0.1-0.2-0.2-0.3-0.2c-0.2,0-0.4,0.1-0.6,0.2
			c-0.2,0.1-0.3,0.3-0.4,0.4v2h2v1h-4.3V138.7z"/>
		<path class="st3" d="M114,136.1h-0.9v-1h0.9v-1l1.2-0.3v1.4h2.4v1h-2.4v1.3c0,0.5,0.1,0.8,0.3,1c0.2,0.2,0.4,0.3,0.7,0.3
			c0.2,0,0.3,0,0.4-0.1c0.1,0,0.3-0.1,0.4-0.2c0.1-0.1,0.2-0.1,0.3-0.2c0.1-0.1,0.2-0.1,0.2-0.2l0.6,0.8c-0.1,0.1-0.2,0.2-0.4,0.3
			c-0.2,0.1-0.3,0.2-0.5,0.3c-0.2,0.1-0.4,0.1-0.6,0.2c-0.2,0-0.4,0.1-0.6,0.1c-0.7,0-1.2-0.2-1.5-0.6s-0.5-1-0.5-1.8V136.1z"/>
		<path class="st3" d="M124,133.3h1.5v2.4h0c0.2-0.2,0.4-0.4,0.6-0.5c0.3-0.1,0.5-0.2,0.8-0.2c1.3,0,2,0.8,2,2.3
			c0,0.8-0.2,1.4-0.7,1.8c-0.4,0.4-1.1,0.6-1.9,0.6c-0.4,0-0.7,0-1-0.1c-0.3-0.1-0.5-0.2-0.7-0.3v-5.5H124V133.3z M126.8,135.6
			c-0.4,0-0.7,0.1-0.9,0.3c-0.2,0.2-0.4,0.5-0.5,0.9v2.1c0.1,0.1,0.3,0.1,0.5,0.2s0.4,0.1,0.6,0.1c0.2,0,0.5,0,0.7-0.1
			c0.2-0.1,0.4-0.2,0.5-0.3c0.1-0.1,0.2-0.3,0.3-0.6c0.1-0.2,0.1-0.5,0.1-0.8c0-0.2,0-0.5-0.1-0.7c0-0.2-0.1-0.4-0.2-0.5
			c-0.1-0.2-0.2-0.3-0.4-0.4C127.3,135.7,127,135.6,126.8,135.6z"/>
		<path class="st3" d="M135.6,139.7v-1h1.1v-2.6h-1.1v-1h1.1v-0.3c0-0.3,0.1-0.5,0.2-0.7c0.1-0.2,0.2-0.4,0.4-0.5
			c0.2-0.1,0.4-0.2,0.6-0.3c0.2-0.1,0.4-0.1,0.7-0.1c0.4,0,0.8,0,1,0.1c0.3,0.1,0.5,0.2,0.7,0.3l-0.3,0.9c-0.1-0.1-0.3-0.1-0.5-0.2
			c-0.2-0.1-0.4-0.1-0.6-0.1c-0.3,0-0.6,0.1-0.7,0.2c-0.1,0.2-0.2,0.4-0.2,0.7h1.9v1h-1.9v2.6h1.9v1H135.6z"/>
		<path class="st3" d="M140.8,138.7h1.1v-2.6h-1.1v-1h2.1l0.1,0.6h0c0.2-0.2,0.4-0.4,0.6-0.5c0.2-0.1,0.5-0.2,0.8-0.2
			c0.4,0,0.7,0.1,0.9,0.4c0.2,0.3,0.3,0.7,0.3,1.3h-1.1c0-0.2,0-0.4-0.1-0.5c-0.1-0.1-0.2-0.2-0.3-0.2c-0.2,0-0.4,0.1-0.6,0.2
			s-0.3,0.3-0.4,0.4v2h2v1h-4.3V138.7z"/>
		<path class="st3" d="M146.3,137.4c0-0.4,0.1-0.7,0.2-1c0.1-0.3,0.3-0.6,0.5-0.8c0.2-0.2,0.5-0.4,0.8-0.5c0.3-0.1,0.6-0.2,1-0.2
			c0.4,0,0.7,0.1,1,0.2c0.3,0.1,0.6,0.3,0.8,0.5c0.2,0.2,0.4,0.5,0.5,0.8c0.1,0.3,0.2,0.6,0.2,1c0,0.4-0.1,0.7-0.2,1
			c-0.1,0.3-0.3,0.6-0.5,0.8c-0.2,0.2-0.5,0.4-0.8,0.5c-0.3,0.1-0.6,0.2-1,0.2c-0.4,0-0.7-0.1-1-0.2c-0.3-0.1-0.6-0.3-0.8-0.5
			c-0.2-0.2-0.4-0.5-0.5-0.8C146.3,138.1,146.3,137.8,146.3,137.4z M147.5,137.4c0,0.2,0,0.4,0.1,0.6c0.1,0.2,0.1,0.3,0.2,0.5
			c0.1,0.1,0.2,0.2,0.4,0.3c0.1,0.1,0.3,0.1,0.5,0.1c0.4,0,0.6-0.1,0.9-0.3c0.2-0.2,0.3-0.6,0.3-1.1c0-0.4-0.1-0.8-0.3-1
			c-0.2-0.3-0.5-0.4-0.9-0.4c-0.2,0-0.3,0-0.5,0.1s-0.3,0.1-0.4,0.3s-0.2,0.3-0.3,0.4C147.5,137,147.5,137.2,147.5,137.4z"/>
		<path class="st3" d="M153.7,139.7v-2.8c0-0.2,0-0.3,0-0.4s-0.1-0.2-0.1-0.3c0-0.1-0.1-0.1-0.1-0.1c-0.1,0-0.1,0-0.2,0
			c-0.1,0-0.2,0-0.3,0.1c-0.1,0.1-0.1,0.2-0.2,0.3v3.3h-1.1v-4.6h0.9l0.1,0.5h0c0.1-0.2,0.2-0.3,0.4-0.4c0.2-0.1,0.4-0.2,0.6-0.2
			c0.2,0,0.4,0,0.6,0.1c0.2,0.1,0.3,0.3,0.4,0.5c0.1-0.2,0.2-0.4,0.4-0.5c0.2-0.1,0.4-0.2,0.6-0.2c0.2,0,0.3,0,0.4,0.1
			c0.1,0,0.2,0.1,0.3,0.2c0.1,0.1,0.2,0.3,0.2,0.5c0.1,0.2,0.1,0.5,0.1,0.8v3.1h-1.1v-2.9c0-0.3,0-0.5-0.1-0.6
			c-0.1-0.1-0.2-0.2-0.3-0.2c-0.1,0-0.2,0-0.3,0.1c-0.1,0.1-0.1,0.1-0.2,0.3v3.3H153.7z"/>
		<path class="st3" d="M165.8,134.3c0,0.2-0.1,0.3-0.2,0.4c-0.1,0.1-0.2,0.1-0.4,0.1c-0.2,0-0.4-0.1-0.5-0.2
			c-0.1-0.1-0.2-0.3-0.2-0.6c0-0.2,0-0.5,0.1-0.6c0.1-0.2,0.2-0.3,0.3-0.5s0.2-0.2,0.3-0.3c0.1-0.1,0.2-0.1,0.3-0.2l0.3,0.4
			c-0.2,0.1-0.3,0.2-0.4,0.3c-0.1,0.1-0.2,0.3-0.2,0.5c0,0,0.1,0,0.1,0c0.1,0,0.3,0.1,0.4,0.2C165.8,134,165.8,134.2,165.8,134.3z"
			/>
		<path class="st3" d="M170.1,139.2c0-0.2,0.1-0.3,0.2-0.5c0.1-0.1,0.3-0.2,0.4-0.2c0.2,0,0.3,0.1,0.5,0.2c0.1,0.1,0.2,0.3,0.2,0.5
			c0,0.2-0.1,0.3-0.2,0.4c-0.1,0.1-0.3,0.2-0.5,0.2c-0.2,0-0.3-0.1-0.4-0.2C170.2,139.5,170.1,139.4,170.1,139.2z"/>
		<path class="st3" d="M177.6,133.2l0.6,0.3l-3.3,7.6l-0.6-0.3L177.6,133.2z"/>
		<path class="st3" d="M179,133.3h1.5v2.4h0c0.2-0.2,0.4-0.4,0.6-0.5c0.3-0.1,0.5-0.2,0.8-0.2c1.3,0,2,0.8,2,2.3
			c0,0.8-0.2,1.4-0.7,1.8c-0.4,0.4-1.1,0.6-1.9,0.6c-0.4,0-0.7,0-1-0.1c-0.3-0.1-0.5-0.2-0.7-0.3v-5.5H179V133.3z M181.9,135.6
			c-0.4,0-0.7,0.1-0.9,0.3c-0.2,0.2-0.4,0.5-0.5,0.9v2.1c0.1,0.1,0.3,0.1,0.5,0.2c0.2,0,0.4,0.1,0.6,0.1c0.2,0,0.5,0,0.7-0.1
			s0.4-0.2,0.5-0.3c0.1-0.1,0.2-0.3,0.3-0.6c0.1-0.2,0.1-0.5,0.1-0.8c0-0.2,0-0.5-0.1-0.7c0-0.2-0.1-0.4-0.2-0.5
			c-0.1-0.2-0.2-0.3-0.4-0.4C182.3,135.7,182.1,135.6,181.9,135.6z"/>
		<path class="st3" d="M186.6,133.5c0-0.2,0.1-0.3,0.2-0.4c0.1-0.1,0.2-0.1,0.4-0.1c0.2,0,0.4,0.1,0.5,0.2c0.1,0.1,0.2,0.3,0.2,0.6
			c0,0.2,0,0.5-0.1,0.6c-0.1,0.2-0.2,0.3-0.3,0.5c-0.1,0.1-0.2,0.2-0.3,0.3c-0.1,0.1-0.2,0.1-0.3,0.2l-0.3-0.4
			c0.2-0.1,0.3-0.2,0.4-0.3c0.1-0.1,0.2-0.3,0.2-0.5c0,0-0.1,0-0.1,0c-0.1,0-0.3-0.1-0.4-0.2C186.7,133.8,186.6,133.6,186.6,133.5z"
			/>
		<path class="st3" d="M192.1,139.2c0-0.2,0.1-0.3,0.2-0.4c0.1-0.1,0.3-0.2,0.5-0.2c0.2,0,0.4,0.1,0.5,0.2c0.1,0.2,0.2,0.4,0.2,0.7
			c0,0.2,0,0.4-0.1,0.6c-0.1,0.2-0.2,0.3-0.3,0.5c-0.1,0.1-0.2,0.2-0.4,0.3c-0.1,0.1-0.3,0.1-0.4,0.2l-0.2-0.4
			c0.2-0.1,0.4-0.2,0.6-0.4c0.2-0.2,0.2-0.4,0.2-0.6c-0.1,0-0.2,0-0.2,0c-0.2,0-0.3-0.1-0.4-0.2
			C192.1,139.6,192.1,139.4,192.1,139.2z M192.2,135.6c0-0.2,0.1-0.3,0.2-0.5c0.1-0.1,0.3-0.2,0.4-0.2c0.2,0,0.3,0.1,0.5,0.2
			c0.1,0.1,0.2,0.3,0.2,0.5c0,0.2-0.1,0.3-0.2,0.4c-0.1,0.1-0.3,0.2-0.5,0.2c-0.2,0-0.3-0.1-0.4-0.2
			C192.2,135.9,192.2,135.8,192.2,135.6z"/>
	</g>
	<g>
		<path class="st3" d="M85.9,78h1.6v-2.6h-1.6v-1h2.8V78h1.7v1h-4.5V78z M87.3,73.2c0-0.2,0.1-0.4,0.2-0.5c0.1-0.1,0.3-0.2,0.6-0.2
			c0.3,0,0.5,0.1,0.6,0.2c0.2,0.1,0.2,0.3,0.2,0.5c0,0.2-0.1,0.4-0.2,0.5c-0.2,0.1-0.4,0.2-0.6,0.2c-0.3,0-0.4-0.1-0.6-0.2
			C87.4,73.6,87.3,73.4,87.3,73.2z"/>
		<path class="st3" d="M91,74.5h1.6l0.1,0.6h0c0.1-0.2,0.3-0.4,0.6-0.5c0.3-0.1,0.6-0.2,0.9-0.2c0.2,0,0.4,0,0.6,0.1
			c0.2,0.1,0.4,0.2,0.5,0.3c0.1,0.1,0.3,0.3,0.3,0.6c0.1,0.2,0.1,0.5,0.1,0.9v2.9h-1.2v-2.6c0-0.4-0.1-0.6-0.3-0.8
			c-0.2-0.2-0.4-0.2-0.6-0.2c-0.2,0-0.4,0.1-0.6,0.2c-0.2,0.1-0.3,0.3-0.4,0.5v3h-1.2v-3.6H91V74.5z"/>
		<path class="st3" d="M99.2,72.6h1.9v4c0,0.5,0,0.9,0.1,1.4c0,0,0,0.1,0,0.1h0.6v1h-1.5l-0.1-0.6h0c-0.1,0.1-0.1,0.2-0.2,0.3
			c-0.1,0.1-0.2,0.2-0.3,0.2c-0.1,0.1-0.3,0.1-0.4,0.1c-0.2,0-0.3,0.1-0.5,0.1c-0.3,0-0.6,0-0.8-0.1c-0.3-0.1-0.5-0.2-0.7-0.4
			c-0.2-0.2-0.3-0.4-0.4-0.7c-0.1-0.3-0.2-0.6-0.2-1.1c0-0.4,0.1-0.7,0.2-1c0.1-0.3,0.3-0.6,0.5-0.8c0.2-0.2,0.5-0.4,0.7-0.5
			c0.3-0.1,0.6-0.2,0.9-0.2c0.2,0,0.4,0,0.5,0c0.2,0,0.3,0.1,0.4,0.1v-0.9h-0.7V72.6z M99,78.2c0.2,0,0.4-0.1,0.6-0.2
			c0.2-0.1,0.3-0.3,0.4-0.5v-1.9c-0.1-0.1-0.2-0.1-0.4-0.2c-0.2,0-0.3-0.1-0.5-0.1c-0.2,0-0.3,0-0.5,0.1c-0.2,0.1-0.3,0.1-0.4,0.3
			c-0.1,0.1-0.2,0.3-0.3,0.5c-0.1,0.2-0.1,0.4-0.1,0.7c0,0.4,0.1,0.7,0.3,0.9C98.3,78.1,98.6,78.2,99,78.2z"/>
		<path class="st3" d="M106.8,78.6c-0.1,0.1-0.2,0.1-0.3,0.2c-0.1,0.1-0.3,0.1-0.4,0.2c-0.2,0.1-0.4,0.1-0.6,0.1
			c-0.2,0-0.4,0.1-0.6,0.1c-0.4,0-0.7-0.1-1.1-0.2c-0.3-0.1-0.6-0.3-0.8-0.5c-0.2-0.2-0.4-0.5-0.5-0.8c-0.1-0.3-0.2-0.6-0.2-1
			c0-0.4,0.1-0.8,0.2-1.1c0.1-0.3,0.3-0.6,0.5-0.8c0.2-0.2,0.5-0.4,0.8-0.5c0.3-0.1,0.6-0.2,1-0.2c0.2,0,0.5,0,0.7,0.1
			c0.2,0.1,0.5,0.2,0.7,0.3c0.2,0.2,0.4,0.4,0.5,0.6c0.1,0.3,0.2,0.6,0.2,1c0,0.3,0,0.5-0.1,0.9h-3.3c0,0.2,0,0.4,0.1,0.5
			c0.1,0.1,0.2,0.2,0.3,0.3c0.1,0.1,0.3,0.1,0.4,0.2c0.2,0,0.3,0.1,0.5,0.1c0.4,0,0.7,0,0.9-0.1c0.2-0.1,0.4-0.2,0.6-0.3L106.8,78.6
			z M104.8,75.3c-0.2,0-0.3,0-0.4,0.1c-0.1,0-0.3,0.1-0.4,0.2c-0.1,0.1-0.2,0.2-0.3,0.3c-0.1,0.1-0.1,0.3-0.1,0.4h2.3
			c0-0.3-0.1-0.5-0.3-0.7C105.4,75.4,105.2,75.3,104.8,75.3z"/>
		<path class="st3" d="M109.4,76.7l-1.6-2.2h1.4l1,1.5l1.1-1.5h1.3l-1.6,2.2l1.7,2.4h-1.4l-1.2-1.7l-1.2,1.7h-1.3L109.4,76.7z"/>
		<path class="st3" d="M114.9,78.5c0-0.2,0.1-0.4,0.2-0.5c0.1-0.1,0.3-0.2,0.5-0.2c0.2,0,0.4,0.1,0.6,0.2c0.1,0.1,0.2,0.3,0.2,0.5
			c0,0.2-0.1,0.4-0.2,0.5c-0.1,0.1-0.3,0.2-0.6,0.2c-0.2,0-0.4-0.1-0.5-0.2C115,78.8,114.9,78.7,114.9,78.5z"/>
		<path class="st3" d="M119.3,74.5h3.4v4.2c0,0.7-0.2,1.3-0.6,1.7c-0.4,0.4-0.9,0.6-1.7,0.6c-0.3,0-0.6,0-0.9-0.1
			c-0.3-0.1-0.5-0.2-0.7-0.4l0.5-0.9c0.1,0.1,0.2,0.1,0.4,0.2c0.2,0.1,0.4,0.1,0.6,0.1c0.1,0,0.3,0,0.4-0.1s0.2-0.1,0.3-0.2
			c0.1-0.1,0.2-0.2,0.2-0.4c0.1-0.2,0.1-0.4,0.1-0.6v-3h-2.2V74.5z M120.8,73.2c0-0.2,0.1-0.4,0.2-0.5c0.1-0.1,0.3-0.2,0.6-0.2
			c0.3,0,0.5,0.1,0.6,0.2c0.2,0.1,0.2,0.3,0.2,0.5c0,0.2-0.1,0.4-0.2,0.5c-0.2,0.1-0.4,0.2-0.6,0.2c-0.3,0-0.4-0.1-0.6-0.2
			C120.9,73.6,120.8,73.4,120.8,73.2z"/>
		<path class="st3" d="M127.6,77.8c0-0.1-0.1-0.2-0.2-0.3c-0.1-0.1-0.3-0.1-0.6-0.2c-0.2-0.1-0.5-0.1-0.7-0.2s-0.5-0.2-0.7-0.3
			c-0.2-0.1-0.4-0.3-0.6-0.4c-0.2-0.2-0.2-0.4-0.2-0.7c0-0.2,0.1-0.4,0.2-0.6c0.1-0.2,0.2-0.3,0.4-0.4c0.2-0.1,0.4-0.2,0.6-0.3
			s0.5-0.1,0.8-0.1c0.3,0,0.6,0,0.8,0.1c0.2,0,0.4,0.1,0.6,0.2c0.2,0.1,0.3,0.1,0.4,0.2c0.1,0.1,0.2,0.1,0.3,0.2l-0.5,0.8
			c-0.1-0.1-0.2-0.1-0.3-0.2c-0.1-0.1-0.2-0.1-0.4-0.2s-0.3-0.1-0.4-0.1c-0.1,0-0.3,0-0.4,0c-0.3,0-0.5,0-0.6,0.1
			c-0.2,0.1-0.2,0.2-0.2,0.3c0,0.1,0.1,0.2,0.2,0.3c0.1,0.1,0.3,0.1,0.6,0.2c0.2,0.1,0.5,0.1,0.7,0.2c0.3,0.1,0.5,0.2,0.7,0.3
			c0.2,0.1,0.4,0.2,0.6,0.4c0.2,0.2,0.2,0.4,0.2,0.7c0,0.5-0.2,0.8-0.5,1.1c-0.3,0.3-0.8,0.4-1.5,0.4c-0.5,0-1-0.1-1.4-0.2
			c-0.4-0.2-0.7-0.3-0.9-0.5l0.6-0.9c0.1,0.1,0.2,0.1,0.3,0.2c0.1,0.1,0.3,0.2,0.4,0.2c0.2,0.1,0.3,0.1,0.5,0.2
			c0.2,0,0.4,0.1,0.6,0.1c0.2,0,0.4,0,0.5-0.1C127.6,78.1,127.6,78,127.6,77.8z"/>
	</g>
	<g>
		<path class="st3" d="M85.9,78h1.6v-2.6h-1.6v-1h2.8V78h1.7v1h-4.5V78z M87.3,73.2c0-0.2,0.1-0.4,0.2-0.5c0.1-0.1,0.3-0.2,0.6-0.2
			c0.3,0,0.5,0.1,0.6,0.2c0.2,0.1,0.2,0.3,0.2,0.5c0,0.2-0.1,0.4-0.2,0.5c-0.2,0.1-0.4,0.2-0.6,0.2c-0.3,0-0.4-0.1-0.6-0.2
			C87.4,73.6,87.3,73.4,87.3,73.2z"/>
		<path class="st3" d="M91,74.5h1.6l0.1,0.6h0c0.1-0.2,0.3-0.4,0.6-0.5c0.3-0.1,0.6-0.2,0.9-0.2c0.2,0,0.4,0,0.6,0.1
			c0.2,0.1,0.4,0.2,0.5,0.3c0.1,0.1,0.3,0.3,0.3,0.6c0.1,0.2,0.1,0.5,0.1,0.9v2.9h-1.2v-2.6c0-0.4-0.1-0.6-0.3-0.8
			c-0.2-0.2-0.4-0.2-0.6-0.2c-0.2,0-0.4,0.1-0.6,0.2c-0.2,0.1-0.3,0.3-0.4,0.5v3h-1.2v-3.6H91V74.5z"/>
		<path class="st3" d="M99.2,72.6h1.9v4c0,0.5,0,0.9,0.1,1.4c0,0,0,0.1,0,0.1h0.6v1h-1.5l-0.1-0.6h0c-0.1,0.1-0.1,0.2-0.2,0.3
			c-0.1,0.1-0.2,0.2-0.3,0.2c-0.1,0.1-0.3,0.1-0.4,0.1c-0.2,0-0.3,0.1-0.5,0.1c-0.3,0-0.6,0-0.8-0.1c-0.3-0.1-0.5-0.2-0.7-0.4
			c-0.2-0.2-0.3-0.4-0.4-0.7c-0.1-0.3-0.2-0.6-0.2-1.1c0-0.4,0.1-0.7,0.2-1c0.1-0.3,0.3-0.6,0.5-0.8c0.2-0.2,0.5-0.4,0.7-0.5
			c0.3-0.1,0.6-0.2,0.9-0.2c0.2,0,0.4,0,0.5,0c0.2,0,0.3,0.1,0.4,0.1v-0.9h-0.7V72.6z M99,78.2c0.2,0,0.4-0.1,0.6-0.2
			c0.2-0.1,0.3-0.3,0.4-0.5v-1.9c-0.1-0.1-0.2-0.1-0.4-0.2c-0.2,0-0.3-0.1-0.5-0.1c-0.2,0-0.3,0-0.5,0.1c-0.2,0.1-0.3,0.1-0.4,0.3
			c-0.1,0.1-0.2,0.3-0.3,0.5c-0.1,0.2-0.1,0.4-0.1,0.7c0,0.4,0.1,0.7,0.3,0.9C98.3,78.1,98.6,78.2,99,78.2z"/>
		<path class="st3" d="M106.8,78.6c-0.1,0.1-0.2,0.1-0.3,0.2c-0.1,0.1-0.3,0.1-0.4,0.2c-0.2,0.1-0.4,0.1-0.6,0.1
			c-0.2,0-0.4,0.1-0.6,0.1c-0.4,0-0.7-0.1-1.1-0.2c-0.3-0.1-0.6-0.3-0.8-0.5c-0.2-0.2-0.4-0.5-0.5-0.8c-0.1-0.3-0.2-0.6-0.2-1
			c0-0.4,0.1-0.8,0.2-1.1c0.1-0.3,0.3-0.6,0.5-0.8c0.2-0.2,0.5-0.4,0.8-0.5c0.3-0.1,0.6-0.2,1-0.2c0.2,0,0.5,0,0.7,0.1
			c0.2,0.1,0.5,0.2,0.7,0.3c0.2,0.2,0.4,0.4,0.5,0.6c0.1,0.3,0.2,0.6,0.2,1c0,0.3,0,0.5-0.1,0.9h-3.3c0,0.2,0,0.4,0.1,0.5
			c0.1,0.1,0.2,0.2,0.3,0.3c0.1,0.1,0.3,0.1,0.4,0.2c0.2,0,0.3,0.1,0.5,0.1c0.4,0,0.7,0,0.9-0.1c0.2-0.1,0.4-0.2,0.6-0.3L106.8,78.6
			z M104.8,75.3c-0.2,0-0.3,0-0.4,0.1c-0.1,0-0.3,0.1-0.4,0.2c-0.1,0.1-0.2,0.2-0.3,0.3c-0.1,0.1-0.1,0.3-0.1,0.4h2.3
			c0-0.3-0.1-0.5-0.3-0.7C105.4,75.4,105.2,75.3,104.8,75.3z"/>
		<path class="st3" d="M109.4,76.7l-1.6-2.2h1.4l1,1.5l1.1-1.5h1.3l-1.6,2.2l1.7,2.4h-1.4l-1.2-1.7l-1.2,1.7h-1.3L109.4,76.7z"/>
		<path class="st3" d="M114.9,78.5c0-0.2,0.1-0.4,0.2-0.5c0.1-0.1,0.3-0.2,0.5-0.2c0.2,0,0.4,0.1,0.6,0.2c0.1,0.1,0.2,0.3,0.2,0.5
			c0,0.2-0.1,0.4-0.2,0.5c-0.1,0.1-0.3,0.2-0.6,0.2c-0.2,0-0.4-0.1-0.5-0.2C115,78.8,114.9,78.7,114.9,78.5z"/>
		<path class="st3" d="M119.3,74.5h3.4v4.2c0,0.7-0.2,1.3-0.6,1.7c-0.4,0.4-0.9,0.6-1.7,0.6c-0.3,0-0.6,0-0.9-0.1
			c-0.3-0.1-0.5-0.2-0.7-0.4l0.5-0.9c0.1,0.1,0.2,0.1,0.4,0.2c0.2,0.1,0.4,0.1,0.6,0.1c0.1,0,0.3,0,0.4-0.1s0.2-0.1,0.3-0.2
			c0.1-0.1,0.2-0.2,0.2-0.4c0.1-0.2,0.1-0.4,0.1-0.6v-3h-2.2V74.5z M120.8,73.2c0-0.2,0.1-0.4,0.2-0.5c0.1-0.1,0.3-0.2,0.6-0.2
			c0.3,0,0.5,0.1,0.6,0.2c0.2,0.1,0.2,0.3,0.2,0.5c0,0.2-0.1,0.4-0.2,0.5c-0.2,0.1-0.4,0.2-0.6,0.2c-0.3,0-0.4-0.1-0.6-0.2
			C120.9,73.6,120.8,73.4,120.8,73.2z"/>
		<path class="st3" d="M127.6,77.8c0-0.1-0.1-0.2-0.2-0.3c-0.1-0.1-0.3-0.1-0.6-0.2c-0.2-0.1-0.5-0.1-0.7-0.2s-0.5-0.2-0.7-0.3
			c-0.2-0.1-0.4-0.3-0.6-0.4c-0.2-0.2-0.2-0.4-0.2-0.7c0-0.2,0.1-0.4,0.2-0.6c0.1-0.2,0.2-0.3,0.4-0.4c0.2-0.1,0.4-0.2,0.6-0.3
			s0.5-0.1,0.8-0.1c0.3,0,0.6,0,0.8,0.1c0.2,0,0.4,0.1,0.6,0.2c0.2,0.1,0.3,0.1,0.4,0.2c0.1,0.1,0.2,0.1,0.3,0.2l-0.5,0.8
			c-0.1-0.1-0.2-0.1-0.3-0.2c-0.1-0.1-0.2-0.1-0.4-0.2s-0.3-0.1-0.4-0.1c-0.1,0-0.3,0-0.4,0c-0.3,0-0.5,0-0.6,0.1
			c-0.2,0.1-0.2,0.2-0.2,0.3c0,0.1,0.1,0.2,0.2,0.3c0.1,0.1,0.3,0.1,0.6,0.2c0.2,0.1,0.5,0.1,0.7,0.2c0.3,0.1,0.5,0.2,0.7,0.3
			c0.2,0.1,0.4,0.2,0.6,0.4c0.2,0.2,0.2,0.4,0.2,0.7c0,0.5-0.2,0.8-0.5,1.1c-0.3,0.3-0.8,0.4-1.5,0.4c-0.5,0-1-0.1-1.4-0.2
			c-0.4-0.2-0.7-0.3-0.9-0.5l0.6-0.9c0.1,0.1,0.2,0.1,0.3,0.2c0.1,0.1,0.3,0.2,0.4,0.2c0.2,0.1,0.3,0.1,0.5,0.2
			c0.2,0,0.4,0.1,0.6,0.1c0.2,0,0.4,0,0.5-0.1C127.6,78.1,127.6,78,127.6,77.8z"/>
	</g>
	<g>
		<path class="st4" d="M263.3,97.4c-5.1,0-9.3-4.2-9.3-9.3V67.3c0-5.1,4.2-9.3,9.3-9.3h116c5.1,0,9.3,4.2,9.3,9.3v20.8
			c0,5.1-4.2,9.3-9.3,9.3H263.3z"/>
		<path class="st5" d="M379.4,58.6c4.8,0,8.6,3.9,8.6,8.6v20.8c0,4.8-3.9,8.6-8.6,8.6h-116c-4.8,0-8.6-3.9-8.6-8.6V67.3
			c0-4.8,3.9-8.6,8.6-8.6H379.4 M379.4,57.3h-116c-5.5,0-10,4.5-10,10v20.8c0,5.5,4.5,10,10,10h116c5.5,0,10-4.5,10-10V67.3
			C389.4,61.7,384.9,57.3,379.4,57.3L379.4,57.3z"/>
	</g>
	<g>
		<path class="st6" d="M267.1,74.8c0.2-0.1,0.5-0.2,0.8-0.3c0.3-0.1,0.7-0.1,1.1-0.1c0.3,0,0.6,0,0.8,0.1c0.2,0.1,0.4,0.2,0.5,0.3
			c0.1,0.1,0.2,0.3,0.3,0.5c0.1,0.2,0.1,0.4,0.1,0.7c0,0.3,0,0.6,0,0.8c0,0.2,0,0.4,0,0.6c0,0.1,0,0.3,0,0.4c0,0.1,0,0.2,0,0.2h0.6
			v1h-1.5l-0.1-0.6h0c-0.1,0.2-0.3,0.4-0.5,0.5c-0.2,0.1-0.5,0.2-0.9,0.2c-0.5,0-0.8-0.1-1.1-0.4c-0.3-0.2-0.4-0.6-0.4-1
			c0-0.3,0-0.5,0.1-0.7c0.1-0.2,0.2-0.3,0.4-0.5c0.2-0.1,0.4-0.2,0.6-0.3c0.3-0.1,0.5-0.1,0.8-0.1c0.1,0,0.2,0,0.3,0
			c0.1,0,0.3,0,0.4,0c0-0.1,0-0.1,0-0.2V76c0-0.2-0.1-0.4-0.2-0.5c-0.1-0.1-0.3-0.2-0.6-0.2c-0.3,0-0.6,0-0.8,0.1
			c-0.2,0.1-0.5,0.2-0.6,0.2L267.1,74.8z M268.7,78.1c0.3,0,0.5-0.1,0.7-0.2c0.1-0.1,0.3-0.2,0.3-0.3v-0.5c-0.1,0-0.2,0-0.3,0
			c-0.1,0-0.3,0-0.4,0c-0.1,0-0.2,0-0.3,0c-0.1,0-0.2,0.1-0.3,0.1c-0.1,0-0.2,0.1-0.2,0.2c-0.1,0.1-0.1,0.2-0.1,0.3
			c0,0.2,0,0.3,0.1,0.4C268.3,78.1,268.5,78.1,268.7,78.1z"/>
		<path class="st6" d="M273.8,78.5c0-0.2,0.1-0.4,0.2-0.5c0.1-0.1,0.3-0.2,0.5-0.2c0.2,0,0.4,0.1,0.6,0.2c0.1,0.1,0.2,0.3,0.2,0.5
			c0,0.2-0.1,0.4-0.2,0.5c-0.1,0.1-0.3,0.2-0.6,0.2c-0.2,0-0.4-0.1-0.5-0.2C273.9,78.8,273.8,78.7,273.8,78.5z"/>
		<path class="st6" d="M278.2,74.5h3.4v4.2c0,0.7-0.2,1.3-0.6,1.7c-0.4,0.4-0.9,0.6-1.7,0.6c-0.3,0-0.6,0-0.9-0.1
			c-0.3-0.1-0.5-0.2-0.7-0.4l0.5-0.9c0.1,0.1,0.2,0.1,0.4,0.2c0.2,0.1,0.4,0.1,0.6,0.1c0.1,0,0.3,0,0.4-0.1c0.1,0,0.2-0.1,0.3-0.2
			c0.1-0.1,0.2-0.2,0.2-0.4c0.1-0.2,0.1-0.4,0.1-0.6v-3h-2.2V74.5z M279.7,73.2c0-0.2,0.1-0.4,0.2-0.5c0.1-0.1,0.3-0.2,0.6-0.2
			c0.3,0,0.5,0.1,0.6,0.2c0.2,0.1,0.2,0.3,0.2,0.5c0,0.2-0.1,0.4-0.2,0.5c-0.2,0.1-0.4,0.2-0.6,0.2c-0.3,0-0.4-0.1-0.6-0.2
			C279.7,73.6,279.7,73.4,279.7,73.2z"/>
		<path class="st6" d="M286.5,77.8c0-0.1-0.1-0.2-0.2-0.3c-0.1-0.1-0.3-0.1-0.6-0.2c-0.2-0.1-0.5-0.1-0.7-0.2
			c-0.3-0.1-0.5-0.2-0.7-0.3c-0.2-0.1-0.4-0.3-0.6-0.4c-0.2-0.2-0.2-0.4-0.2-0.7c0-0.2,0.1-0.4,0.2-0.6c0.1-0.2,0.2-0.3,0.4-0.4
			c0.2-0.1,0.4-0.2,0.6-0.3s0.5-0.1,0.8-0.1c0.3,0,0.6,0,0.8,0.1c0.2,0,0.4,0.1,0.6,0.2c0.2,0.1,0.3,0.1,0.4,0.2
			c0.1,0.1,0.2,0.1,0.3,0.2l-0.5,0.8c-0.1-0.1-0.2-0.1-0.3-0.2c-0.1-0.1-0.2-0.1-0.4-0.2c-0.1,0-0.3-0.1-0.4-0.1c-0.1,0-0.3,0-0.4,0
			c-0.3,0-0.5,0-0.6,0.1c-0.2,0.1-0.2,0.2-0.2,0.3c0,0.1,0.1,0.2,0.2,0.3c0.1,0.1,0.3,0.1,0.6,0.2c0.2,0.1,0.5,0.1,0.7,0.2
			c0.3,0.1,0.5,0.2,0.7,0.3c0.2,0.1,0.4,0.2,0.6,0.4c0.2,0.2,0.2,0.4,0.2,0.7c0,0.5-0.2,0.8-0.5,1.1c-0.3,0.3-0.8,0.4-1.5,0.4
			c-0.5,0-1-0.1-1.4-0.2c-0.4-0.2-0.7-0.3-0.9-0.5l0.6-0.9c0.1,0.1,0.2,0.1,0.3,0.2c0.1,0.1,0.3,0.2,0.4,0.2
			c0.2,0.1,0.3,0.1,0.5,0.2c0.2,0,0.4,0.1,0.6,0.1c0.2,0,0.4,0,0.5-0.1C286.4,78.1,286.5,78,286.5,77.8z"/>
	</g>
	<g>
		<path class="st7" d="M263.3,204.8c-5.1,0-9.3-4.2-9.3-9.3V123c0-5.1,4.2-9.3,9.3-9.3h116c5.1,0,9.3,4.2,9.3,9.3v72.5
			c0,5.1-4.2,9.3-9.3,9.3H263.3z"/>
		<path class="st8" d="M379.4,114.4c4.8,0,8.6,3.9,8.6,8.6v72.5c0,4.8-3.9,8.6-8.6,8.6h-116c-4.8,0-8.6-3.9-8.6-8.6V123
			c0-4.8,3.9-8.6,8.6-8.6H379.4 M379.4,113h-116c-5.5,0-10,4.5-10,10v72.5c0,5.5,4.5,10,10,10h116c5.5,0,10-4.5,10-10V123
			C389.4,117.5,384.9,113,379.4,113L379.4,113z"/>
	</g>
	<g>
		<path class="st9" d="M266.8,169.2h1.6v-2.6h-1.6v-1h2.8v3.6h1.7v1h-4.5V169.2z M268.2,164.4c0-0.2,0.1-0.4,0.2-0.5
			c0.1-0.1,0.3-0.2,0.6-0.2c0.3,0,0.5,0.1,0.6,0.2c0.2,0.1,0.2,0.3,0.2,0.5c0,0.2-0.1,0.4-0.2,0.5c-0.2,0.1-0.4,0.2-0.6,0.2
			c-0.3,0-0.4-0.1-0.6-0.2C268.3,164.7,268.2,164.6,268.2,164.4z"/>
		<path class="st9" d="M274,170.2v-2.8c0-0.2,0-0.3,0-0.4c0-0.1-0.1-0.2-0.1-0.3c0-0.1-0.1-0.1-0.1-0.1c-0.1,0-0.1,0-0.2,0
			c-0.1,0-0.2,0-0.3,0.1c-0.1,0.1-0.1,0.2-0.2,0.3v3.3H272v-4.6h0.9l0.1,0.5h0c0.1-0.2,0.2-0.3,0.4-0.4c0.2-0.1,0.4-0.2,0.6-0.2
			c0.2,0,0.4,0,0.6,0.1c0.2,0.1,0.3,0.3,0.4,0.5c0.1-0.2,0.2-0.4,0.4-0.5c0.2-0.1,0.4-0.2,0.6-0.2c0.2,0,0.3,0,0.4,0.1
			c0.1,0,0.2,0.1,0.3,0.2c0.1,0.1,0.2,0.3,0.2,0.5c0.1,0.2,0.1,0.5,0.1,0.8v3.1H276v-2.9c0-0.3,0-0.5-0.1-0.6
			c-0.1-0.1-0.2-0.2-0.3-0.2c-0.1,0-0.2,0-0.3,0.1c-0.1,0.1-0.1,0.1-0.2,0.3v3.3H274z"/>
		<path class="st9" d="M277.3,165.6h1.6l0.1,0.6h0c0.3-0.5,0.8-0.7,1.5-0.7c0.3,0,0.5,0,0.8,0.1c0.2,0.1,0.4,0.2,0.6,0.4
			c0.2,0.2,0.3,0.4,0.4,0.7c0.1,0.3,0.1,0.6,0.1,1c0,0.4-0.1,0.7-0.2,1.1c-0.1,0.3-0.3,0.6-0.4,0.8c-0.2,0.2-0.4,0.4-0.7,0.5
			c-0.3,0.1-0.6,0.2-1,0.2c-0.2,0-0.4,0-0.6,0c-0.2,0-0.3-0.1-0.5-0.1v1.9H278v-5.4h-0.7V165.6z M280.2,166.5
			c-0.2,0-0.4,0.1-0.6,0.2c-0.2,0.1-0.3,0.3-0.4,0.5v1.9c0.1,0.1,0.2,0.1,0.4,0.2c0.2,0,0.3,0.1,0.5,0.1c0.2,0,0.3,0,0.5-0.1
			c0.1-0.1,0.3-0.2,0.4-0.3c0.1-0.1,0.2-0.3,0.3-0.5c0.1-0.2,0.1-0.4,0.1-0.7c0-0.4-0.1-0.7-0.3-0.9
			C280.8,166.6,280.5,166.5,280.2,166.5z"/>
		<path class="st9" d="M283.1,167.9c0-0.4,0.1-0.7,0.2-1c0.1-0.3,0.3-0.6,0.5-0.8c0.2-0.2,0.5-0.4,0.8-0.5c0.3-0.1,0.6-0.2,1-0.2
			c0.4,0,0.7,0.1,1,0.2c0.3,0.1,0.6,0.3,0.8,0.5s0.4,0.5,0.5,0.8s0.2,0.6,0.2,1c0,0.4-0.1,0.7-0.2,1c-0.1,0.3-0.3,0.6-0.5,0.8
			c-0.2,0.2-0.5,0.4-0.8,0.5c-0.3,0.1-0.6,0.2-1,0.2c-0.4,0-0.7-0.1-1-0.2c-0.3-0.1-0.6-0.3-0.8-0.5s-0.4-0.5-0.5-0.8
			C283.2,168.6,283.1,168.3,283.1,167.9z M284.4,167.9c0,0.2,0,0.4,0.1,0.6c0.1,0.2,0.1,0.3,0.2,0.5c0.1,0.1,0.2,0.2,0.4,0.3
			c0.1,0.1,0.3,0.1,0.5,0.1c0.4,0,0.6-0.1,0.9-0.3c0.2-0.2,0.3-0.6,0.3-1.1c0-0.4-0.1-0.8-0.3-1c-0.2-0.3-0.5-0.4-0.9-0.4
			c-0.2,0-0.3,0-0.5,0.1c-0.1,0.1-0.3,0.1-0.4,0.3s-0.2,0.3-0.3,0.4C284.4,167.4,284.4,167.6,284.4,167.9z"/>
		<path class="st9" d="M288.7,169.2h1.1v-2.6h-1.1v-1h2.1l0.1,0.6h0c0.2-0.2,0.4-0.4,0.6-0.5c0.2-0.1,0.5-0.2,0.8-0.2
			c0.4,0,0.7,0.1,0.9,0.4c0.2,0.3,0.3,0.7,0.3,1.3h-1.1c0-0.2,0-0.4-0.1-0.5c-0.1-0.1-0.2-0.2-0.3-0.2c-0.2,0-0.4,0.1-0.6,0.2
			c-0.2,0.1-0.3,0.3-0.4,0.4v2h2v1h-4.3V169.2z"/>
		<path class="st9" d="M294.9,166.6H294v-1h0.9v-1l1.2-0.3v1.4h2.4v1h-2.4v1.3c0,0.5,0.1,0.8,0.3,1c0.2,0.2,0.4,0.3,0.7,0.3
			c0.2,0,0.3,0,0.4-0.1c0.1,0,0.3-0.1,0.4-0.2c0.1-0.1,0.2-0.1,0.3-0.2c0.1-0.1,0.2-0.1,0.2-0.2l0.6,0.8c-0.1,0.1-0.2,0.2-0.4,0.3
			c-0.2,0.1-0.3,0.2-0.5,0.3c-0.2,0.1-0.4,0.1-0.6,0.2c-0.2,0-0.4,0.1-0.6,0.1c-0.7,0-1.2-0.2-1.5-0.6s-0.5-1-0.5-1.8V166.6z"/>
		<path class="st9" d="M308.9,166.3c-0.1,0-0.3-0.1-0.5-0.1s-0.3-0.1-0.5-0.1c-0.6,0-1,0.1-1.3,0.4c-0.3,0.3-0.4,0.7-0.4,1.3
			c0,0.3,0,0.5,0.1,0.7c0.1,0.2,0.2,0.4,0.4,0.5c0.2,0.1,0.4,0.3,0.6,0.3s0.5,0.1,0.7,0.1c0.3,0,0.6-0.1,0.8-0.2
			c0.3-0.1,0.5-0.2,0.7-0.4l0.3,0.5c-0.1,0.1-0.2,0.2-0.3,0.2c-0.1,0.1-0.3,0.2-0.4,0.2c-0.2,0.1-0.4,0.1-0.6,0.2
			c-0.2,0-0.4,0.1-0.7,0.1c-0.4,0-0.7-0.1-1.1-0.2c-0.3-0.1-0.6-0.3-0.8-0.5c-0.2-0.2-0.4-0.5-0.5-0.8c-0.1-0.3-0.2-0.6-0.2-1
			c0-0.4,0.1-0.7,0.2-1c0.1-0.3,0.3-0.5,0.5-0.8c0.2-0.2,0.4-0.4,0.7-0.5c0.3-0.1,0.6-0.2,1-0.2c0.5,0,0.8,0,1.1,0.1
			c0.3,0.1,0.5,0.2,0.7,0.3l0,0v1.3h-0.7V166.3z"/>
		<path class="st9" d="M316.5,170.2v-1h1.1v-2.6h-1.1v-1h1.1v-0.3c0-0.3,0.1-0.5,0.2-0.7c0.1-0.2,0.2-0.4,0.4-0.5
			c0.2-0.1,0.4-0.2,0.6-0.3c0.2-0.1,0.4-0.1,0.7-0.1c0.4,0,0.8,0,1,0.1c0.3,0.1,0.5,0.2,0.7,0.3l-0.3,0.9c-0.1-0.1-0.3-0.1-0.5-0.2
			c-0.2-0.1-0.4-0.1-0.6-0.1c-0.3,0-0.6,0.1-0.7,0.2c-0.1,0.2-0.2,0.4-0.2,0.7h1.9v1h-1.9v2.6h1.9v1H316.5z"/>
		<path class="st9" d="M321.7,169.2h1.1v-2.6h-1.1v-1h2.1l0.1,0.6h0c0.2-0.2,0.4-0.4,0.6-0.5c0.2-0.1,0.5-0.2,0.8-0.2
			c0.4,0,0.7,0.1,0.9,0.4c0.2,0.3,0.3,0.7,0.3,1.3h-1.1c0-0.2,0-0.4-0.1-0.5c-0.1-0.1-0.2-0.2-0.3-0.2c-0.2,0-0.4,0.1-0.6,0.2
			c-0.1,0.1-0.3,0.3-0.4,0.4v2h2v1h-4.3V169.2z"/>
		<path class="st9" d="M327.2,167.9c0-0.4,0.1-0.7,0.2-1c0.1-0.3,0.3-0.6,0.5-0.8c0.2-0.2,0.5-0.4,0.8-0.5c0.3-0.1,0.6-0.2,1-0.2
			c0.4,0,0.7,0.1,1,0.2c0.3,0.1,0.6,0.3,0.8,0.5c0.2,0.2,0.4,0.5,0.5,0.8c0.1,0.3,0.2,0.6,0.2,1c0,0.4-0.1,0.7-0.2,1
			c-0.1,0.3-0.3,0.6-0.5,0.8c-0.2,0.2-0.5,0.4-0.8,0.5c-0.3,0.1-0.6,0.2-1,0.2c-0.4,0-0.7-0.1-1-0.2c-0.3-0.1-0.6-0.3-0.8-0.5
			s-0.4-0.5-0.5-0.8C327.2,168.6,327.2,168.3,327.2,167.9z M328.4,167.9c0,0.2,0,0.4,0.1,0.6c0.1,0.2,0.1,0.3,0.2,0.5
			c0.1,0.1,0.2,0.2,0.4,0.3c0.1,0.1,0.3,0.1,0.5,0.1c0.4,0,0.6-0.1,0.9-0.3c0.2-0.2,0.3-0.6,0.3-1.1c0-0.4-0.1-0.8-0.3-1
			c-0.2-0.3-0.5-0.4-0.9-0.4c-0.2,0-0.3,0-0.5,0.1c-0.1,0.1-0.3,0.1-0.4,0.3c-0.1,0.1-0.2,0.3-0.3,0.4
			C328.4,167.4,328.4,167.6,328.4,167.9z"/>
		<path class="st9" d="M334.6,170.2v-2.8c0-0.2,0-0.3,0-0.4c0-0.1-0.1-0.2-0.1-0.3c0-0.1-0.1-0.1-0.1-0.1c-0.1,0-0.1,0-0.2,0
			c-0.1,0-0.2,0-0.3,0.1s-0.1,0.2-0.2,0.3v3.3h-1.1v-4.6h0.9l0.1,0.5h0c0.1-0.2,0.2-0.3,0.4-0.4c0.2-0.1,0.4-0.2,0.6-0.2
			c0.2,0,0.4,0,0.6,0.1c0.2,0.1,0.3,0.3,0.4,0.5c0.1-0.2,0.2-0.4,0.4-0.5c0.2-0.1,0.4-0.2,0.6-0.2c0.2,0,0.3,0,0.4,0.1
			c0.1,0,0.2,0.1,0.3,0.2c0.1,0.1,0.2,0.3,0.2,0.5c0.1,0.2,0.1,0.5,0.1,0.8v3.1h-1.1v-2.9c0-0.3,0-0.5-0.1-0.6
			c-0.1-0.1-0.2-0.2-0.3-0.2c-0.1,0-0.2,0-0.3,0.1c-0.1,0.1-0.1,0.1-0.2,0.3v3.3H334.6z"/>
		<path class="st9" d="M346.8,164.8c0,0.2-0.1,0.3-0.2,0.4c-0.1,0.1-0.2,0.1-0.4,0.1c-0.2,0-0.4-0.1-0.5-0.2
			c-0.1-0.1-0.2-0.3-0.2-0.6c0-0.2,0-0.5,0.1-0.6c0.1-0.2,0.2-0.3,0.3-0.5s0.2-0.2,0.3-0.3s0.2-0.1,0.3-0.2l0.3,0.4
			c-0.2,0.1-0.3,0.2-0.4,0.3c-0.1,0.1-0.2,0.3-0.2,0.5c0,0,0.1,0,0.1,0c0.1,0,0.3,0.1,0.4,0.2C346.7,164.5,346.8,164.6,346.8,164.8z
			"/>
		<path class="st9" d="M351,169.7c0-0.2,0.1-0.3,0.2-0.5c0.1-0.1,0.3-0.2,0.4-0.2c0.2,0,0.3,0.1,0.5,0.2c0.1,0.1,0.2,0.3,0.2,0.5
			c0,0.2-0.1,0.3-0.2,0.4c-0.1,0.1-0.3,0.2-0.5,0.2c-0.2,0-0.3-0.1-0.4-0.2C351.1,170,351,169.9,351,169.7z"/>
		<path class="st9" d="M358.5,163.7l0.6,0.3l-3.4,7.6l-0.6-0.3L358.5,163.7z"/>
		<path class="st9" d="M363.9,166.3c-0.1,0-0.3-0.1-0.5-0.1c-0.2,0-0.3-0.1-0.5-0.1c-0.6,0-1,0.1-1.3,0.4c-0.3,0.3-0.4,0.7-0.4,1.3
			c0,0.3,0,0.5,0.1,0.7c0.1,0.2,0.2,0.4,0.4,0.5c0.2,0.1,0.3,0.3,0.6,0.3c0.2,0.1,0.5,0.1,0.7,0.1c0.3,0,0.6-0.1,0.8-0.2
			c0.3-0.1,0.5-0.2,0.7-0.4l0.3,0.5c-0.1,0.1-0.2,0.2-0.3,0.2c-0.1,0.1-0.3,0.2-0.4,0.2c-0.2,0.1-0.4,0.1-0.6,0.2
			c-0.2,0-0.4,0.1-0.7,0.1c-0.4,0-0.7-0.1-1.1-0.2c-0.3-0.1-0.6-0.3-0.8-0.5c-0.2-0.2-0.4-0.5-0.5-0.8c-0.1-0.3-0.2-0.6-0.2-1
			c0-0.4,0.1-0.7,0.2-1c0.1-0.3,0.3-0.5,0.5-0.8c0.2-0.2,0.4-0.4,0.7-0.5c0.3-0.1,0.6-0.2,1-0.2c0.5,0,0.8,0,1.1,0.1
			c0.3,0.1,0.5,0.2,0.7,0.3l0,0v1.3h-0.7V166.3z"/>
		<path class="st9" d="M367.5,164c0-0.2,0.1-0.3,0.2-0.4c0.1-0.1,0.2-0.1,0.4-0.1c0.2,0,0.4,0.1,0.5,0.2c0.1,0.1,0.2,0.3,0.2,0.6
			c0,0.2,0,0.5-0.1,0.6c-0.1,0.2-0.2,0.3-0.3,0.5c-0.1,0.1-0.2,0.2-0.3,0.3c-0.1,0.1-0.2,0.1-0.3,0.2l-0.3-0.4
			c0.2-0.1,0.3-0.2,0.4-0.3c0.1-0.1,0.2-0.3,0.2-0.5c0,0-0.1,0-0.1,0c-0.1,0-0.3-0.1-0.4-0.2C367.6,164.3,367.5,164.1,367.5,164z"/>
		<path class="st9" d="M373,169.7c0-0.2,0.1-0.3,0.2-0.4c0.1-0.1,0.3-0.2,0.5-0.2c0.2,0,0.4,0.1,0.5,0.2c0.1,0.2,0.2,0.4,0.2,0.7
			c0,0.2,0,0.4-0.1,0.6c-0.1,0.2-0.2,0.3-0.3,0.5c-0.1,0.1-0.2,0.2-0.4,0.3c-0.1,0.1-0.3,0.1-0.4,0.2l-0.2-0.4
			c0.2-0.1,0.4-0.2,0.6-0.4c0.2-0.2,0.2-0.4,0.2-0.6c-0.1,0-0.2,0-0.2,0c-0.2,0-0.3-0.1-0.4-0.2S373,169.9,373,169.7z M373.1,166.1
			c0-0.2,0.1-0.3,0.2-0.5c0.1-0.1,0.3-0.2,0.4-0.2c0.2,0,0.3,0.1,0.5,0.2c0.1,0.1,0.2,0.3,0.2,0.5c0,0.2-0.1,0.3-0.2,0.4
			c-0.1,0.1-0.3,0.2-0.5,0.2c-0.2,0-0.3-0.1-0.4-0.2C373.1,166.4,373.1,166.3,373.1,166.1z"/>
	</g>
	<g>
		<path class="st9" d="M266.2,128.4h1.9v2.2h0c0.1-0.1,0.3-0.3,0.5-0.3c0.2-0.1,0.5-0.1,0.8-0.1c0.6,0,1.1,0.2,1.5,0.6
			c0.4,0.4,0.5,1,0.5,1.7c0,0.4-0.1,0.8-0.2,1.1c-0.1,0.3-0.3,0.6-0.5,0.8c-0.2,0.2-0.5,0.4-0.8,0.5c-0.3,0.1-0.7,0.2-1.1,0.2
			c-0.5,0-0.9-0.1-1.2-0.2c-0.3-0.1-0.6-0.2-0.7-0.3v-5h-0.7V128.4z M269.1,131.1c-0.1,0-0.2,0-0.3,0c-0.1,0-0.2,0.1-0.3,0.1
			c-0.1,0.1-0.2,0.1-0.3,0.2c-0.1,0.1-0.1,0.2-0.2,0.3v1.9c0.1,0,0.2,0.1,0.4,0.1c0.2,0,0.4,0.1,0.6,0.1c0.2,0,0.3,0,0.5-0.1
			c0.1-0.1,0.3-0.1,0.4-0.3c0.1-0.1,0.2-0.3,0.3-0.5c0.1-0.2,0.1-0.4,0.1-0.7c0-0.4-0.1-0.8-0.3-1
			C269.7,131.2,269.5,131.1,269.1,131.1z"/>
		<path class="st9" d="M273.8,134.2c0-0.2,0.1-0.4,0.2-0.5c0.1-0.1,0.3-0.2,0.5-0.2c0.2,0,0.4,0.1,0.6,0.2c0.1,0.1,0.2,0.3,0.2,0.5
			s-0.1,0.4-0.2,0.5c-0.1,0.1-0.3,0.2-0.6,0.2c-0.2,0-0.4-0.1-0.5-0.2C273.9,134.6,273.8,134.4,273.8,134.2z"/>
		<path class="st9" d="M278.2,130.2h3.4v4.2c0,0.7-0.2,1.3-0.6,1.7c-0.4,0.4-0.9,0.6-1.7,0.6c-0.3,0-0.6,0-0.9-0.1
			c-0.3-0.1-0.5-0.2-0.7-0.4l0.5-0.9c0.1,0.1,0.2,0.1,0.4,0.2c0.2,0.1,0.4,0.1,0.6,0.1c0.1,0,0.3,0,0.4-0.1c0.1,0,0.2-0.1,0.3-0.2
			c0.1-0.1,0.2-0.2,0.2-0.4c0.1-0.2,0.1-0.4,0.1-0.6v-3h-2.2V130.2z M279.7,129c0-0.2,0.1-0.4,0.2-0.5c0.1-0.1,0.3-0.2,0.6-0.2
			c0.3,0,0.5,0.1,0.6,0.2c0.2,0.1,0.2,0.3,0.2,0.5c0,0.2-0.1,0.4-0.2,0.5c-0.2,0.1-0.4,0.2-0.6,0.2c-0.3,0-0.4-0.1-0.6-0.2
			C279.7,129.3,279.7,129.2,279.7,129z"/>
		<path class="st9" d="M286.5,133.6c0-0.1-0.1-0.2-0.2-0.3c-0.1-0.1-0.3-0.1-0.6-0.2c-0.2-0.1-0.5-0.1-0.7-0.2
			c-0.3-0.1-0.5-0.2-0.7-0.3c-0.2-0.1-0.4-0.3-0.6-0.4c-0.2-0.2-0.2-0.4-0.2-0.7c0-0.2,0.1-0.4,0.2-0.6c0.1-0.2,0.2-0.3,0.4-0.4
			c0.2-0.1,0.4-0.2,0.6-0.3c0.2-0.1,0.5-0.1,0.8-0.1c0.3,0,0.6,0,0.8,0.1c0.2,0,0.4,0.1,0.6,0.2c0.2,0.1,0.3,0.1,0.4,0.2
			c0.1,0.1,0.2,0.1,0.3,0.2l-0.5,0.8c-0.1-0.1-0.2-0.1-0.3-0.2c-0.1-0.1-0.2-0.1-0.4-0.2c-0.1,0-0.3-0.1-0.4-0.1c-0.1,0-0.3,0-0.4,0
			c-0.3,0-0.5,0-0.6,0.1c-0.2,0.1-0.2,0.2-0.2,0.3c0,0.1,0.1,0.2,0.2,0.3c0.1,0.1,0.3,0.1,0.6,0.2c0.2,0.1,0.5,0.1,0.7,0.2
			c0.3,0.1,0.5,0.2,0.7,0.3c0.2,0.1,0.4,0.2,0.6,0.4c0.2,0.2,0.2,0.4,0.2,0.7c0,0.5-0.2,0.8-0.5,1.1c-0.3,0.3-0.8,0.4-1.5,0.4
			c-0.5,0-1-0.1-1.4-0.2c-0.4-0.2-0.7-0.3-0.9-0.5l0.6-0.9c0.1,0.1,0.2,0.1,0.3,0.2c0.1,0.1,0.3,0.2,0.4,0.2
			c0.2,0.1,0.3,0.1,0.5,0.2c0.2,0,0.4,0.1,0.6,0.1c0.2,0,0.4,0,0.5-0.1C286.4,133.8,286.5,133.7,286.5,133.6z"/>
	</g>
	<g>
		<path class="st10" d="M436.1,154.5c-5.1,0-9.3-4.2-9.3-9.3v-20.8c0-5.1,4.2-9.3,9.3-9.3h116c5.1,0,9.3,4.2,9.3,9.3v20.8
			c0,5.1-4.2,9.3-9.3,9.3H436.1z"/>
		<path class="st11" d="M552.1,115.7c4.8,0,8.6,3.9,8.6,8.6v20.8c0,4.8-3.9,8.6-8.6,8.6h-116c-4.8,0-8.6-3.9-8.6-8.6v-20.8
			c0-4.8,3.9-8.6,8.6-8.6H552.1 M552.1,114.4h-116c-5.5,0-10,4.5-10,10v20.8c0,5.5,4.5,10,10,10h116c5.5,0,10-4.5,10-10v-20.8
			C562.1,118.9,557.6,114.4,552.1,114.4L552.1,114.4z"/>
	</g>
	<g>
		<path class="st12" d="M444.1,135.7c-0.3,0.2-0.5,0.3-0.9,0.4c-0.3,0.1-0.7,0.1-1.1,0.1c-0.4,0-0.8-0.1-1.1-0.2
			c-0.3-0.1-0.6-0.3-0.8-0.5s-0.4-0.5-0.5-0.8c-0.1-0.3-0.2-0.6-0.2-1c0-0.4,0.1-0.7,0.2-1c0.1-0.3,0.3-0.6,0.5-0.8
			c0.2-0.2,0.5-0.4,0.8-0.5c0.3-0.1,0.7-0.2,1-0.2c0.3,0,0.7,0,1,0.1c0.3,0.1,0.5,0.2,0.7,0.2v1.6h-1v-0.8c-0.2,0-0.4-0.1-0.6-0.1
			c-0.2,0-0.3,0-0.5,0.1c-0.2,0.1-0.3,0.1-0.5,0.2c-0.1,0.1-0.2,0.3-0.3,0.4c-0.1,0.2-0.1,0.4-0.1,0.6c0,0.2,0,0.4,0.1,0.5
			c0.1,0.2,0.2,0.3,0.3,0.4c0.1,0.1,0.3,0.2,0.5,0.3c0.2,0.1,0.4,0.1,0.6,0.1c0.3,0,0.6,0,0.9-0.1s0.4-0.2,0.5-0.3L444.1,135.7z"/>
		<path class="st12" d="M446.6,135.6c0-0.2,0.1-0.4,0.2-0.5c0.1-0.1,0.3-0.2,0.5-0.2c0.2,0,0.4,0.1,0.5,0.2c0.1,0.1,0.2,0.3,0.2,0.5
			s-0.1,0.4-0.2,0.5c-0.1,0.1-0.3,0.2-0.5,0.2c-0.2,0-0.4-0.1-0.5-0.2C446.6,136,446.6,135.8,446.6,135.6z"/>
		<path class="st12" d="M450.9,131.6h3.4v4.2c0,0.7-0.2,1.3-0.5,1.7c-0.4,0.4-0.9,0.6-1.7,0.6c-0.3,0-0.6,0-0.9-0.1
			c-0.3-0.1-0.5-0.2-0.7-0.4l0.5-0.9c0.1,0.1,0.2,0.1,0.4,0.2c0.2,0.1,0.4,0.1,0.6,0.1c0.1,0,0.3,0,0.4-0.1c0.1,0,0.2-0.1,0.3-0.2
			c0.1-0.1,0.2-0.2,0.2-0.4c0.1-0.2,0.1-0.4,0.1-0.6v-3h-2.2V131.6z M452.4,130.4c0-0.2,0.1-0.4,0.2-0.5c0.1-0.1,0.3-0.2,0.6-0.2
			c0.3,0,0.5,0.1,0.6,0.2c0.2,0.1,0.2,0.3,0.2,0.5c0,0.2-0.1,0.4-0.2,0.5c-0.2,0.1-0.4,0.2-0.6,0.2c-0.3,0-0.4-0.1-0.6-0.2
			C452.5,130.7,452.4,130.5,452.4,130.4z"/>
		<path class="st12" d="M459.3,134.9c0-0.1-0.1-0.2-0.2-0.3c-0.2-0.1-0.3-0.1-0.6-0.2c-0.2-0.1-0.5-0.1-0.7-0.2
			c-0.3-0.1-0.5-0.2-0.7-0.3c-0.2-0.1-0.4-0.3-0.6-0.4c-0.2-0.2-0.2-0.4-0.2-0.7c0-0.2,0.1-0.4,0.2-0.6c0.1-0.2,0.2-0.3,0.4-0.4
			c0.2-0.1,0.4-0.2,0.6-0.3c0.2-0.1,0.5-0.1,0.8-0.1c0.3,0,0.6,0,0.8,0.1c0.2,0,0.4,0.1,0.6,0.2c0.2,0.1,0.3,0.1,0.4,0.2
			c0.1,0.1,0.2,0.1,0.3,0.2l-0.5,0.8c-0.1-0.1-0.2-0.1-0.3-0.2c-0.1-0.1-0.2-0.1-0.4-0.2s-0.3-0.1-0.4-0.1s-0.3,0-0.4,0
			c-0.3,0-0.5,0-0.6,0.1c-0.2,0.1-0.2,0.2-0.2,0.3c0,0.1,0.1,0.2,0.2,0.3c0.1,0.1,0.3,0.1,0.6,0.2c0.2,0.1,0.5,0.1,0.7,0.2
			c0.3,0.1,0.5,0.2,0.7,0.3c0.2,0.1,0.4,0.2,0.6,0.4c0.2,0.2,0.2,0.4,0.2,0.7c0,0.5-0.2,0.8-0.5,1.1c-0.3,0.3-0.8,0.4-1.5,0.4
			c-0.5,0-1-0.1-1.4-0.2c-0.4-0.2-0.7-0.3-0.9-0.5l0.6-0.9c0.1,0.1,0.2,0.1,0.3,0.2c0.1,0.1,0.3,0.2,0.4,0.2
			c0.2,0.1,0.3,0.1,0.5,0.2c0.2,0,0.4,0.1,0.6,0.1c0.2,0,0.4,0,0.5-0.1C459.2,135.2,459.3,135.1,459.3,134.9z"/>
	</g>
	<g>
		<path class="st13" d="M436.1,206.2c-5.1,0-9.3-4.2-9.3-9.3v-20.8c0-5.1,4.2-9.3,9.3-9.3h116c5.1,0,9.3,4.2,9.3,9.3v20.8
			c0,5.1-4.2,9.3-9.3,9.3H436.1z"/>
		<path class="st14" d="M552.1,167.4c4.8,0,8.6,3.9,8.6,8.6v20.8c0,4.8-3.9,8.6-8.6,8.6h-116c-4.8,0-8.6-3.9-8.6-8.6v-20.8
			c0-4.8,3.9-8.6,8.6-8.6H552.1 M552.1,166.1h-116c-5.5,0-10,4.5-10,10v20.8c0,5.5,4.5,10,10,10h116c5.5,0,10-4.5,10-10v-20.8
			C562.1,170.6,557.6,166.1,552.1,166.1L552.1,166.1z"/>
	</g>
	<g>
		<path class="st15" d="M441.9,181.5h1.9v4c0,0.5,0,0.9,0.1,1.4c0,0,0,0.1,0,0.1h0.6v1H443l-0.1-0.6h0c-0.1,0.1-0.1,0.2-0.2,0.3
			c-0.1,0.1-0.2,0.2-0.3,0.2c-0.1,0.1-0.3,0.1-0.4,0.1c-0.2,0-0.3,0.1-0.5,0.1c-0.3,0-0.6,0-0.8-0.1s-0.5-0.2-0.7-0.4
			c-0.2-0.2-0.3-0.4-0.5-0.7c-0.1-0.3-0.2-0.6-0.2-1.1c0-0.4,0.1-0.7,0.2-1c0.1-0.3,0.3-0.6,0.5-0.8c0.2-0.2,0.5-0.4,0.7-0.5
			c0.3-0.1,0.6-0.2,0.9-0.2c0.2,0,0.4,0,0.5,0c0.2,0,0.3,0.1,0.4,0.1v-0.9h-0.7V181.5z M441.6,187c0.2,0,0.4-0.1,0.6-0.2
			c0.2-0.1,0.3-0.3,0.4-0.5v-1.9c-0.1-0.1-0.2-0.1-0.4-0.2s-0.3-0.1-0.5-0.1c-0.2,0-0.3,0-0.5,0.1c-0.2,0.1-0.3,0.1-0.4,0.3
			c-0.1,0.1-0.2,0.3-0.3,0.5c-0.1,0.2-0.1,0.4-0.1,0.7c0,0.4,0.1,0.7,0.3,0.9C441,186.9,441.2,187,441.6,187z"/>
		<path class="st15" d="M446.6,187.3c0-0.2,0.1-0.4,0.2-0.5c0.1-0.1,0.3-0.2,0.5-0.2c0.2,0,0.4,0.1,0.5,0.2c0.1,0.1,0.2,0.3,0.2,0.5
			s-0.1,0.4-0.2,0.5c-0.1,0.1-0.3,0.2-0.5,0.2c-0.2,0-0.4-0.1-0.5-0.2C446.6,187.7,446.6,187.5,446.6,187.3z"/>
		<path class="st15" d="M450.9,183.3h3.4v4.2c0,0.7-0.2,1.3-0.5,1.7c-0.4,0.4-0.9,0.6-1.7,0.6c-0.3,0-0.6,0-0.9-0.1
			c-0.3-0.1-0.5-0.2-0.7-0.4l0.5-0.9c0.1,0.1,0.2,0.1,0.4,0.2c0.2,0.1,0.4,0.1,0.6,0.1c0.1,0,0.3,0,0.4-0.1s0.2-0.1,0.3-0.2
			c0.1-0.1,0.2-0.2,0.2-0.4c0.1-0.2,0.1-0.4,0.1-0.6v-3h-2.2V183.3z M452.4,182c0-0.2,0.1-0.4,0.2-0.5c0.1-0.1,0.3-0.2,0.6-0.2
			c0.3,0,0.5,0.1,0.6,0.2c0.2,0.1,0.2,0.3,0.2,0.5c0,0.2-0.1,0.4-0.2,0.5c-0.2,0.1-0.4,0.2-0.6,0.2c-0.3,0-0.4-0.1-0.6-0.2
			C452.5,182.4,452.4,182.2,452.4,182z"/>
		<path class="st15" d="M459.3,186.6c0-0.1-0.1-0.2-0.2-0.3c-0.2-0.1-0.3-0.1-0.6-0.2c-0.2-0.1-0.5-0.1-0.7-0.2
			c-0.3-0.1-0.5-0.2-0.7-0.3c-0.2-0.1-0.4-0.3-0.6-0.4c-0.2-0.2-0.2-0.4-0.2-0.7c0-0.2,0.1-0.4,0.2-0.6c0.1-0.2,0.2-0.3,0.4-0.4
			s0.4-0.2,0.6-0.3c0.2-0.1,0.5-0.1,0.8-0.1c0.3,0,0.6,0,0.8,0.1c0.2,0,0.4,0.1,0.6,0.2c0.2,0.1,0.3,0.1,0.4,0.2
			c0.1,0.1,0.2,0.1,0.3,0.2l-0.5,0.8c-0.1-0.1-0.2-0.1-0.3-0.2c-0.1-0.1-0.2-0.1-0.4-0.2s-0.3-0.1-0.4-0.1s-0.3,0-0.4,0
			c-0.3,0-0.5,0-0.6,0.1c-0.2,0.1-0.2,0.2-0.2,0.3c0,0.1,0.1,0.2,0.2,0.3c0.1,0.1,0.3,0.1,0.6,0.2c0.2,0.1,0.5,0.1,0.7,0.2
			c0.3,0.1,0.5,0.2,0.7,0.3c0.2,0.1,0.4,0.2,0.6,0.4c0.2,0.2,0.2,0.4,0.2,0.7c0,0.5-0.2,0.8-0.5,1.1c-0.3,0.3-0.8,0.4-1.5,0.4
			c-0.5,0-1-0.1-1.4-0.2c-0.4-0.2-0.7-0.3-0.9-0.5l0.6-0.9c0.1,0.1,0.2,0.1,0.3,0.2c0.1,0.1,0.3,0.2,0.4,0.2
			c0.2,0.1,0.3,0.1,0.5,0.2c0.2,0,0.4,0.1,0.6,0.1c0.2,0,0.4,0,0.5-0.1C459.2,186.9,459.3,186.8,459.3,186.6z"/>
	</g>
	<path class="st16" d="M233.6,77.7c3.8,0,6.8,3,6.8,6.8V128c0,3.8,3,6.8,6.8,6.8h6.1"/>
	<g>
		<g>
			<line class="st16" x1="253.3" y1="77.7" x2="216.6" y2="77.7"/>
			<g>
				<polygon class="st15" points="220.4,72.6 218.3,77.7 220.4,82.7 208.5,77.7 				"/>
			</g>
		</g>
	</g>
	<g>
		<line class="st0" x1="426.1" y1="134.8" x2="389.4" y2="134.8"/>
		<g>
			<line class="st16" x1="426.1" y1="134.8" x2="399" y2="134.8"/>
			<g>
				<polygon class="st15" points="389.4,134.8 402.9,129.3 399.7,134.8 402.9,140.3 				"/>
			</g>
		</g>
	</g>
	<g>
		<g>
			<path class="st14" d="M600,293c10.3,0,18.6,8.4,18.6,18.6v32.1c0,10.3-8.4,18.6-18.6,18.6H40c-10.3,0-18.6-8.4-18.6-18.6v-32.1
				c0-10.3,8.4-18.6,18.6-18.6H600 M600,291.6H40c-11,0-20,9-20,20v32.1c0,11,9,20,20,20h560c11,0,20-9,20-20v-32.1
				C620,300.6,611,291.6,600,291.6L600,291.6z"/>
		</g>
	</g>
	<g>
		<g>
			<path class="st17" d="M43.6,347.4c-5.1,0-9.3-4.2-9.3-9.3v-20.8c0-5.1,4.2-9.3,9.3-9.3h116c5.1,0,9.3,4.2,9.3,9.3v20.8
				c0,5.1-4.2,9.3-9.3,9.3H43.6z"/>
			<g>
				<path class="st14" d="M159.6,308.6c4.8,0,8.6,3.9,8.6,8.6v20.8c0,4.8-3.9,8.6-8.6,8.6h-116c-4.8,0-8.6-3.9-8.6-8.6v-20.8
					c0-4.8,3.9-8.6,8.6-8.6H159.6 M159.6,307.3h-116c-5.5,0-10,4.5-10,10v20.8c0,5.5,4.5,10,10,10h116c5.5,0,10-4.5,10-10v-20.8
					C169.6,311.8,165.1,307.3,159.6,307.3L159.6,307.3z"/>
			</g>
		</g>
		<g>
			<g>
				<path class="st15" d="M47.1,328.1h1.6v-2.6h-1.6v-1h2.8v3.6h1.7v1h-4.5V328.1z M48.5,323.2c0-0.2,0.1-0.4,0.2-0.5
					c0.1-0.1,0.3-0.2,0.6-0.2c0.3,0,0.5,0.1,0.6,0.2c0.2,0.1,0.2,0.3,0.2,0.5c0,0.2-0.1,0.4-0.2,0.5c-0.2,0.1-0.4,0.2-0.6,0.2
					c-0.3,0-0.4-0.1-0.6-0.2C48.6,323.6,48.5,323.4,48.5,323.2z"/>
				<path class="st15" d="M52.2,324.5h1.6l0.1,0.6h0c0.1-0.2,0.3-0.4,0.6-0.5c0.3-0.1,0.6-0.2,0.9-0.2c0.2,0,0.4,0,0.6,0.1
					s0.4,0.2,0.5,0.3c0.1,0.1,0.3,0.3,0.3,0.6c0.1,0.2,0.1,0.5,0.1,0.9v2.9h-1.2v-2.6c0-0.4-0.1-0.6-0.3-0.8
					c-0.2-0.2-0.4-0.2-0.6-0.2c-0.2,0-0.4,0.1-0.6,0.2s-0.3,0.3-0.4,0.5v3h-1.2v-3.6h-0.7V324.5z"/>
				<path class="st15" d="M60.4,322.7h1.9v4c0,0.5,0,0.9,0.1,1.4c0,0,0,0.1,0,0.1H63v1h-1.5l-0.1-0.6h0c-0.1,0.1-0.1,0.2-0.2,0.3
					c-0.1,0.1-0.2,0.2-0.3,0.2c-0.1,0.1-0.3,0.1-0.4,0.1c-0.2,0-0.3,0.1-0.5,0.1c-0.3,0-0.6,0-0.8-0.1s-0.5-0.2-0.7-0.4
					c-0.2-0.2-0.3-0.4-0.4-0.7c-0.1-0.3-0.2-0.6-0.2-1.1c0-0.4,0.1-0.7,0.2-1c0.1-0.3,0.3-0.6,0.5-0.8c0.2-0.2,0.5-0.4,0.7-0.5
					c0.3-0.1,0.6-0.2,0.9-0.2c0.2,0,0.4,0,0.5,0c0.2,0,0.3,0.1,0.4,0.1v-0.9h-0.7V322.7z M60.1,328.2c0.2,0,0.4-0.1,0.6-0.2
					c0.2-0.1,0.3-0.3,0.4-0.5v-1.9c-0.1-0.1-0.2-0.1-0.4-0.2c-0.2,0-0.3-0.1-0.5-0.1c-0.2,0-0.3,0-0.5,0.1c-0.2,0.1-0.3,0.1-0.4,0.3
					c-0.1,0.1-0.2,0.3-0.3,0.5c-0.1,0.2-0.1,0.4-0.1,0.7c0,0.4,0.1,0.7,0.3,0.9C59.5,328.1,59.8,328.2,60.1,328.2z"/>
				<path class="st15" d="M68,328.6c-0.1,0.1-0.2,0.1-0.3,0.2c-0.1,0.1-0.3,0.1-0.4,0.2c-0.2,0.1-0.4,0.1-0.6,0.1
					c-0.2,0-0.4,0.1-0.6,0.1c-0.4,0-0.7-0.1-1.1-0.2c-0.3-0.1-0.6-0.3-0.8-0.5c-0.2-0.2-0.4-0.5-0.5-0.8c-0.1-0.3-0.2-0.6-0.2-1
					c0-0.4,0.1-0.8,0.2-1.1c0.1-0.3,0.3-0.6,0.5-0.8c0.2-0.2,0.5-0.4,0.8-0.5c0.3-0.1,0.6-0.2,1-0.2c0.2,0,0.5,0,0.7,0.1
					s0.5,0.2,0.7,0.3c0.2,0.2,0.4,0.4,0.5,0.6c0.1,0.3,0.2,0.6,0.2,1c0,0.3,0,0.5-0.1,0.9h-3.3c0,0.2,0,0.4,0.1,0.5
					c0.1,0.1,0.2,0.2,0.3,0.3c0.1,0.1,0.3,0.1,0.4,0.2c0.2,0,0.3,0.1,0.5,0.1c0.4,0,0.7,0,0.9-0.1c0.2-0.1,0.4-0.2,0.6-0.3L68,328.6
					z M66,325.3c-0.2,0-0.3,0-0.4,0.1c-0.1,0-0.3,0.1-0.4,0.2c-0.1,0.1-0.2,0.2-0.3,0.3c-0.1,0.1-0.1,0.3-0.1,0.4H67
					c0-0.3-0.1-0.5-0.3-0.7C66.6,325.4,66.3,325.3,66,325.3z"/>
				<path class="st15" d="M70.5,326.7l-1.6-2.2h1.4l1,1.5l1.1-1.5h1.3l-1.6,2.2l1.7,2.4h-1.4l-1.2-1.7l-1.2,1.7h-1.3L70.5,326.7z"/>
				<path class="st15" d="M76.1,328.5c0-0.2,0.1-0.4,0.2-0.5c0.1-0.1,0.3-0.2,0.5-0.2c0.2,0,0.4,0.1,0.6,0.2
					c0.1,0.1,0.2,0.3,0.2,0.5s-0.1,0.4-0.2,0.5c-0.1,0.1-0.3,0.2-0.6,0.2c-0.2,0-0.4-0.1-0.5-0.2C76.2,328.9,76.1,328.7,76.1,328.5z
					"/>
				<path class="st15" d="M80.5,324.5h3.4v4.2c0,0.7-0.2,1.3-0.6,1.7c-0.4,0.4-0.9,0.6-1.7,0.6c-0.3,0-0.6,0-0.9-0.1
					s-0.5-0.2-0.7-0.4l0.5-0.9c0.1,0.1,0.2,0.1,0.4,0.2c0.2,0.1,0.4,0.1,0.6,0.1c0.1,0,0.3,0,0.4-0.1c0.1,0,0.2-0.1,0.3-0.2
					c0.1-0.1,0.2-0.2,0.2-0.4s0.1-0.4,0.1-0.6v-3h-2.2V324.5z M82,323.2c0-0.2,0.1-0.4,0.2-0.5c0.1-0.1,0.3-0.2,0.6-0.2
					c0.3,0,0.5,0.1,0.6,0.2c0.2,0.1,0.2,0.3,0.2,0.5c0,0.2-0.1,0.4-0.2,0.5c-0.2,0.1-0.4,0.2-0.6,0.2c-0.3,0-0.4-0.1-0.6-0.2
					C82,323.6,82,323.4,82,323.2z"/>
				<path class="st15" d="M88.8,327.8c0-0.1-0.1-0.2-0.2-0.3c-0.1-0.1-0.3-0.1-0.6-0.2c-0.2-0.1-0.5-0.1-0.7-0.2
					c-0.3-0.1-0.5-0.2-0.7-0.3c-0.2-0.1-0.4-0.3-0.6-0.4c-0.2-0.2-0.2-0.4-0.2-0.7c0-0.2,0.1-0.4,0.2-0.6c0.1-0.2,0.2-0.3,0.4-0.4
					c0.2-0.1,0.4-0.2,0.6-0.3c0.2-0.1,0.5-0.1,0.8-0.1c0.3,0,0.6,0,0.8,0.1c0.2,0,0.4,0.1,0.6,0.2c0.2,0.1,0.3,0.1,0.4,0.2
					c0.1,0.1,0.2,0.1,0.3,0.2l-0.5,0.8c-0.1-0.1-0.2-0.1-0.3-0.2c-0.1-0.1-0.2-0.1-0.4-0.2s-0.3-0.1-0.4-0.1c-0.1,0-0.3,0-0.4,0
					c-0.3,0-0.5,0-0.6,0.1c-0.2,0.1-0.2,0.2-0.2,0.3c0,0.1,0.1,0.2,0.2,0.3c0.1,0.1,0.3,0.1,0.6,0.2c0.2,0.1,0.5,0.1,0.7,0.2
					c0.3,0.1,0.5,0.2,0.7,0.3c0.2,0.1,0.4,0.2,0.6,0.4c0.2,0.2,0.2,0.4,0.2,0.7c0,0.5-0.2,0.8-0.5,1.1c-0.3,0.3-0.8,0.4-1.5,0.4
					c-0.5,0-1-0.1-1.4-0.2c-0.4-0.2-0.7-0.3-0.9-0.5l0.6-0.9c0.1,0.1,0.2,0.1,0.3,0.2c0.1,0.1,0.3,0.2,0.4,0.2
					c0.2,0.1,0.3,0.1,0.5,0.2c0.2,0,0.4,0.1,0.6,0.1c0.2,0,0.4,0,0.5-0.1C88.7,328.1,88.8,328,88.8,327.8z"/>
			</g>
		</g>
		<g>
			<path class="st17" d="M189.2,347.4c-5.1,0-9.3-4.2-9.3-9.3v-20.8c0-5.1,4.2-9.3,9.3-9.3h116c5.1,0,9.3,4.2,9.3,9.3v20.8
				c0,5.1-4.2,9.3-9.3,9.3H189.2z"/>
			<g>
				<path class="st14" d="M305.2,308.6c4.8,0,8.6,3.9,8.6,8.6v20.8c0,4.8-3.9,8.6-8.6,8.6h-116c-4.8,0-8.6-3.9-8.6-8.6v-20.8
					c0-4.8,3.9-8.6,8.6-8.6H305.2 M305.2,307.3h-116c-5.5,0-10,4.5-10,10v20.8c0,5.5,4.5,10,10,10h116c5.5,0,10-4.5,10-10v-20.8
					C315.2,311.8,310.7,307.3,305.2,307.3L305.2,307.3z"/>
			</g>
		</g>
		<g>
			<g>
				<path class="st15" d="M193,324.8c0.2-0.1,0.5-0.2,0.8-0.3c0.3-0.1,0.7-0.1,1.1-0.1c0.3,0,0.6,0,0.8,0.1c0.2,0.1,0.4,0.2,0.5,0.3
					s0.2,0.3,0.3,0.5c0.1,0.2,0.1,0.4,0.1,0.7c0,0.3,0,0.6,0,0.8s0,0.4,0,0.6c0,0.1,0,0.3,0,0.4c0,0.1,0,0.2,0,0.2h0.6v1h-1.5
					l-0.1-0.6h0c-0.1,0.2-0.3,0.4-0.5,0.5c-0.2,0.1-0.5,0.2-0.9,0.2c-0.5,0-0.8-0.1-1.1-0.4c-0.3-0.2-0.4-0.6-0.4-1
					c0-0.3,0-0.5,0.1-0.7c0.1-0.2,0.2-0.3,0.4-0.5c0.2-0.1,0.4-0.2,0.6-0.3c0.3-0.1,0.5-0.1,0.8-0.1c0.1,0,0.2,0,0.3,0
					c0.1,0,0.3,0,0.4,0c0-0.1,0-0.1,0-0.2V326c0-0.2-0.1-0.4-0.2-0.5c-0.1-0.1-0.3-0.2-0.6-0.2c-0.3,0-0.6,0-0.8,0.1
					c-0.2,0.1-0.5,0.2-0.6,0.2L193,324.8z M194.5,328.2c0.3,0,0.5-0.1,0.7-0.2c0.1-0.1,0.3-0.2,0.3-0.3v-0.5c-0.1,0-0.2,0-0.3,0
					c-0.1,0-0.3,0-0.4,0c-0.1,0-0.2,0-0.3,0c-0.1,0-0.2,0.1-0.3,0.1c-0.1,0-0.2,0.1-0.2,0.2c-0.1,0.1-0.1,0.2-0.1,0.3
					c0,0.2,0,0.3,0.1,0.4C194.1,328.1,194.3,328.2,194.5,328.2z"/>
				<path class="st15" d="M199.7,328.5c0-0.2,0.1-0.4,0.2-0.5c0.1-0.1,0.3-0.2,0.5-0.2c0.2,0,0.4,0.1,0.6,0.2
					c0.1,0.1,0.2,0.3,0.2,0.5s-0.1,0.4-0.2,0.5c-0.1,0.1-0.3,0.2-0.6,0.2c-0.2,0-0.4-0.1-0.5-0.2
					C199.7,328.9,199.7,328.7,199.7,328.5z"/>
				<path class="st15" d="M204,324.5h3.4v4.2c0,0.7-0.2,1.3-0.6,1.7c-0.4,0.4-0.9,0.6-1.7,0.6c-0.3,0-0.6,0-0.9-0.1
					c-0.3-0.1-0.5-0.2-0.7-0.4l0.5-0.9c0.1,0.1,0.2,0.1,0.4,0.2c0.2,0.1,0.4,0.1,0.6,0.1c0.1,0,0.3,0,0.4-0.1c0.1,0,0.2-0.1,0.3-0.2
					c0.1-0.1,0.2-0.2,0.2-0.4c0.1-0.2,0.1-0.4,0.1-0.6v-3H204V324.5z M205.5,323.2c0-0.2,0.1-0.4,0.2-0.5c0.1-0.1,0.3-0.2,0.6-0.2
					c0.3,0,0.5,0.1,0.6,0.2c0.2,0.1,0.2,0.3,0.2,0.5c0,0.2-0.1,0.4-0.2,0.5c-0.2,0.1-0.4,0.2-0.6,0.2c-0.3,0-0.4-0.1-0.6-0.2
					C205.6,323.6,205.5,323.4,205.5,323.2z"/>
				<path class="st15" d="M212.4,327.8c0-0.1-0.1-0.2-0.2-0.3c-0.1-0.1-0.3-0.1-0.6-0.2c-0.2-0.1-0.5-0.1-0.7-0.2
					c-0.3-0.1-0.5-0.2-0.7-0.3c-0.2-0.1-0.4-0.3-0.6-0.4c-0.2-0.2-0.2-0.4-0.2-0.7c0-0.2,0.1-0.4,0.2-0.6c0.1-0.2,0.2-0.3,0.4-0.4
					c0.2-0.1,0.4-0.2,0.6-0.3s0.5-0.1,0.8-0.1c0.3,0,0.6,0,0.8,0.1c0.2,0,0.4,0.1,0.6,0.2c0.2,0.1,0.3,0.1,0.4,0.2
					c0.1,0.1,0.2,0.1,0.3,0.2l-0.5,0.8c-0.1-0.1-0.2-0.1-0.3-0.2c-0.1-0.1-0.2-0.1-0.4-0.2c-0.1,0-0.3-0.1-0.4-0.1
					c-0.1,0-0.3,0-0.4,0c-0.3,0-0.5,0-0.6,0.1c-0.2,0.1-0.2,0.2-0.2,0.3c0,0.1,0.1,0.2,0.2,0.3c0.1,0.1,0.3,0.1,0.6,0.2
					c0.2,0.1,0.5,0.1,0.7,0.2c0.3,0.1,0.5,0.2,0.7,0.3c0.2,0.1,0.4,0.2,0.6,0.4c0.2,0.2,0.2,0.4,0.2,0.7c0,0.5-0.2,0.8-0.5,1.1
					c-0.3,0.3-0.8,0.4-1.5,0.4c-0.5,0-1-0.1-1.4-0.2c-0.4-0.2-0.7-0.3-0.9-0.5l0.6-0.9c0.1,0.1,0.2,0.1,0.3,0.2
					c0.1,0.1,0.3,0.2,0.4,0.2c0.2,0.1,0.3,0.1,0.5,0.2c0.2,0,0.4,0.1,0.6,0.1c0.2,0,0.4,0,0.5-0.1
					C212.3,328.1,212.4,328,212.4,327.8z"/>
			</g>
		</g>
		<g>
			<path class="st17" d="M334.8,347.4c-5.1,0-9.3-4.2-9.3-9.3v-20.8c0-5.1,4.2-9.3,9.3-9.3h116c5.1,0,9.3,4.2,9.3,9.3v20.8
				c0,5.1-4.2,9.3-9.3,9.3H334.8z"/>
			<g>
				<path class="st14" d="M450.8,308.6c4.8,0,8.6,3.9,8.6,8.6v20.8c0,4.8-3.9,8.6-8.6,8.6h-116c-4.8,0-8.6-3.9-8.6-8.6v-20.8
					c0-4.8,3.9-8.6,8.6-8.6H450.8 M450.8,307.3h-116c-5.5,0-10,4.5-10,10v20.8c0,5.5,4.5,10,10,10h116c5.5,0,10-4.5,10-10v-20.8
					C460.8,311.8,456.3,307.3,450.8,307.3L450.8,307.3z"/>
			</g>
		</g>
		<g>
			<g>
				<path class="st15" d="M337.6,322.7h1.9v2.2h0c0.1-0.1,0.3-0.3,0.5-0.3c0.2-0.1,0.5-0.1,0.8-0.1c0.6,0,1.1,0.2,1.5,0.6
					c0.4,0.4,0.5,1,0.5,1.7c0,0.4-0.1,0.8-0.2,1.1s-0.3,0.6-0.5,0.8c-0.2,0.2-0.5,0.4-0.8,0.5c-0.3,0.1-0.7,0.2-1.1,0.2
					c-0.5,0-0.9-0.1-1.2-0.2c-0.3-0.1-0.6-0.2-0.7-0.3v-5h-0.7V322.7z M340.5,325.4c-0.1,0-0.2,0-0.3,0c-0.1,0-0.2,0.1-0.3,0.1
					c-0.1,0.1-0.2,0.1-0.3,0.2c-0.1,0.1-0.1,0.2-0.2,0.3v1.9c0.1,0,0.2,0.1,0.4,0.1c0.2,0,0.4,0.1,0.6,0.1c0.2,0,0.3,0,0.5-0.1
					c0.1-0.1,0.3-0.1,0.4-0.3c0.1-0.1,0.2-0.3,0.3-0.5c0.1-0.2,0.1-0.4,0.1-0.7c0-0.4-0.1-0.8-0.3-1
					C341.2,325.5,340.9,325.4,340.5,325.4z"/>
				<path class="st15" d="M345.3,328.5c0-0.2,0.1-0.4,0.2-0.5c0.1-0.1,0.3-0.2,0.5-0.2c0.2,0,0.4,0.1,0.6,0.2
					c0.1,0.1,0.2,0.3,0.2,0.5s-0.1,0.4-0.2,0.5c-0.1,0.1-0.3,0.2-0.6,0.2c-0.2,0-0.4-0.1-0.5-0.2
					C345.3,328.9,345.3,328.7,345.3,328.5z"/>
				<path class="st15" d="M349.6,324.5h3.4v4.2c0,0.7-0.2,1.3-0.6,1.7c-0.4,0.4-0.9,0.6-1.7,0.6c-0.3,0-0.6,0-0.9-0.1
					c-0.3-0.1-0.5-0.2-0.7-0.4l0.5-0.9c0.1,0.1,0.2,0.1,0.4,0.2c0.2,0.1,0.4,0.1,0.6,0.1c0.1,0,0.3,0,0.4-0.1c0.1,0,0.2-0.1,0.3-0.2
					c0.1-0.1,0.2-0.2,0.2-0.4c0.1-0.2,0.1-0.4,0.1-0.6v-3h-2.2V324.5z M351.1,323.2c0-0.2,0.1-0.4,0.2-0.5c0.1-0.1,0.3-0.2,0.6-0.2
					c0.3,0,0.5,0.1,0.6,0.2c0.2,0.1,0.2,0.3,0.2,0.5c0,0.2-0.1,0.4-0.2,0.5c-0.2,0.1-0.4,0.2-0.6,0.2c-0.2,0-0.4-0.1-0.6-0.2
					C351.2,323.6,351.1,323.4,351.1,323.2z"/>
				<path class="st15" d="M357.9,327.8c0-0.1-0.1-0.2-0.2-0.3c-0.1-0.1-0.3-0.1-0.6-0.2c-0.2-0.1-0.5-0.1-0.7-0.2
					c-0.3-0.1-0.5-0.2-0.7-0.3c-0.2-0.1-0.4-0.3-0.6-0.4s-0.2-0.4-0.2-0.7c0-0.2,0.1-0.4,0.2-0.6c0.1-0.2,0.2-0.3,0.4-0.4
					c0.2-0.1,0.4-0.2,0.6-0.3c0.2-0.1,0.5-0.1,0.8-0.1c0.3,0,0.6,0,0.8,0.1c0.2,0,0.4,0.1,0.6,0.2c0.2,0.1,0.3,0.1,0.4,0.2
					c0.1,0.1,0.2,0.1,0.3,0.2l-0.5,0.8c-0.1-0.1-0.2-0.1-0.3-0.2c-0.1-0.1-0.2-0.1-0.4-0.2c-0.1,0-0.3-0.1-0.4-0.1
					c-0.1,0-0.3,0-0.4,0c-0.3,0-0.5,0-0.6,0.1c-0.2,0.1-0.2,0.2-0.2,0.3c0,0.1,0.1,0.2,0.2,0.3c0.2,0.1,0.3,0.1,0.6,0.2
					c0.2,0.1,0.5,0.1,0.7,0.2c0.3,0.1,0.5,0.2,0.7,0.3c0.2,0.1,0.4,0.2,0.6,0.4c0.2,0.2,0.2,0.4,0.2,0.7c0,0.5-0.2,0.8-0.5,1.1
					c-0.3,0.3-0.8,0.4-1.5,0.4c-0.5,0-1-0.1-1.4-0.2c-0.4-0.2-0.7-0.3-0.9-0.5l0.5-0.9c0.1,0.1,0.2,0.1,0.3,0.2
					c0.1,0.1,0.3,0.2,0.4,0.2c0.2,0.1,0.3,0.1,0.5,0.2c0.2,0,0.4,0.1,0.6,0.1c0.2,0,0.4,0,0.5-0.1
					C357.9,328.1,357.9,328,357.9,327.8z"/>
			</g>
		</g>
		<g>
			<path class="st17" d="M480.4,347.4c-5.1,0-9.3-4.2-9.3-9.3v-20.8c0-5.1,4.2-9.3,9.3-9.3h116c5.1,0,9.3,4.2,9.3,9.3v20.8
				c0,5.1-4.2,9.3-9.3,9.3H480.4z"/>
			<g>
				<path class="st14" d="M596.4,308.6c4.8,0,8.6,3.9,8.6,8.6v20.8c0,4.8-3.9,8.6-8.6,8.6h-116c-4.8,0-8.6-3.9-8.6-8.6v-20.8
					c0-4.8,3.9-8.6,8.6-8.6H596.4 M596.4,307.3h-116c-5.5,0-10,4.5-10,10v20.8c0,5.5,4.5,10,10,10h116c5.5,0,10-4.5,10-10v-20.8
					C606.4,311.8,601.9,307.3,596.4,307.3L596.4,307.3z"/>
			</g>
		</g>
		<g>
			<g>
				<path class="st15" d="M488.3,328.6c-0.3,0.2-0.5,0.3-0.9,0.4c-0.3,0.1-0.7,0.1-1.1,0.1c-0.4,0-0.8-0.1-1.1-0.2
					c-0.3-0.1-0.6-0.3-0.8-0.5c-0.2-0.2-0.4-0.5-0.5-0.8c-0.1-0.3-0.2-0.6-0.2-1c0-0.4,0.1-0.7,0.2-1c0.1-0.3,0.3-0.6,0.5-0.8
					c0.2-0.2,0.5-0.4,0.8-0.5c0.3-0.1,0.7-0.2,1-0.2c0.3,0,0.7,0,1,0.1c0.3,0.1,0.5,0.2,0.7,0.2v1.6h-1v-0.8c-0.2,0-0.4-0.1-0.6-0.1
					c-0.2,0-0.3,0-0.5,0.1c-0.2,0.1-0.3,0.1-0.4,0.2c-0.1,0.1-0.2,0.3-0.3,0.4c-0.1,0.2-0.1,0.4-0.1,0.6c0,0.2,0,0.4,0.1,0.5
					c0.1,0.2,0.2,0.3,0.3,0.4c0.1,0.1,0.3,0.2,0.5,0.3s0.4,0.1,0.6,0.1c0.3,0,0.6,0,0.9-0.1c0.2-0.1,0.4-0.2,0.5-0.3L488.3,328.6z"
					/>
				<path class="st15" d="M490.8,328.5c0-0.2,0.1-0.4,0.2-0.5c0.1-0.1,0.3-0.2,0.5-0.2c0.2,0,0.4,0.1,0.6,0.2
					c0.1,0.1,0.2,0.3,0.2,0.5s-0.1,0.4-0.2,0.5c-0.1,0.1-0.3,0.2-0.6,0.2c-0.2,0-0.4-0.1-0.5-0.2
					C490.9,328.9,490.8,328.7,490.8,328.5z"/>
				<path class="st15" d="M495.2,324.5h3.4v4.2c0,0.7-0.2,1.3-0.6,1.7c-0.4,0.4-0.9,0.6-1.7,0.6c-0.3,0-0.6,0-0.9-0.1
					c-0.3-0.1-0.5-0.2-0.7-0.4l0.5-0.9c0.1,0.1,0.2,0.1,0.4,0.2c0.2,0.1,0.4,0.1,0.6,0.1c0.1,0,0.3,0,0.4-0.1c0.1,0,0.2-0.1,0.3-0.2
					c0.1-0.1,0.2-0.2,0.2-0.4c0.1-0.2,0.1-0.4,0.1-0.6v-3h-2.2V324.5z M496.7,323.2c0-0.2,0.1-0.4,0.2-0.5c0.1-0.1,0.3-0.2,0.6-0.2
					c0.3,0,0.5,0.1,0.6,0.2c0.2,0.1,0.2,0.3,0.2,0.5c0,0.2-0.1,0.4-0.2,0.5c-0.2,0.1-0.4,0.2-0.6,0.2c-0.2,0-0.4-0.1-0.6-0.2
					C496.8,323.6,496.7,323.4,496.7,323.2z"/>
				<path class="st15" d="M503.5,327.8c0-0.1-0.1-0.2-0.2-0.3c-0.1-0.1-0.3-0.1-0.6-0.2c-0.2-0.1-0.5-0.1-0.7-0.2
					c-0.3-0.1-0.5-0.2-0.7-0.3c-0.2-0.1-0.4-0.3-0.6-0.4c-0.2-0.2-0.2-0.4-0.2-0.7c0-0.2,0.1-0.4,0.2-0.6c0.1-0.2,0.2-0.3,0.4-0.4
					c0.2-0.1,0.4-0.2,0.6-0.3s0.5-0.1,0.8-0.1c0.3,0,0.6,0,0.8,0.1c0.2,0,0.4,0.1,0.6,0.2c0.2,0.1,0.3,0.1,0.4,0.2
					c0.1,0.1,0.2,0.1,0.3,0.2l-0.5,0.8c-0.1-0.1-0.2-0.1-0.3-0.2c-0.1-0.1-0.2-0.1-0.4-0.2c-0.1,0-0.3-0.1-0.4-0.1
					c-0.1,0-0.3,0-0.4,0c-0.3,0-0.5,0-0.6,0.1c-0.2,0.1-0.2,0.2-0.2,0.3c0,0.1,0.1,0.2,0.2,0.3c0.2,0.1,0.3,0.1,0.6,0.2
					c0.2,0.1,0.5,0.1,0.7,0.2c0.3,0.1,0.5,0.2,0.7,0.3c0.2,0.1,0.4,0.2,0.6,0.4c0.2,0.2,0.2,0.4,0.2,0.7c0,0.5-0.2,0.8-0.5,1.1
					c-0.3,0.3-0.8,0.4-1.5,0.4c-0.5,0-1-0.1-1.4-0.2c-0.4-0.2-0.7-0.3-0.9-0.5l0.5-0.9c0.1,0.1,0.2,0.1,0.3,0.2
					c0.1,0.1,0.3,0.2,0.4,0.2c0.2,0.1,0.3,0.1,0.5,0.2c0.2,0,0.4,0.1,0.6,0.1c0.2,0,0.4,0,0.5-0.1
					C503.5,328.1,503.5,328,503.5,327.8z"/>
			</g>
		</g>
	</g>
	<g>
		<g>
			<line class="st18" x1="317.3" y1="269.8" x2="317.3" y2="267.1"/>
			<line class="st19" x1="317.3" y1="262.2" x2="317.3" y2="225.6"/>
			<path class="st18" d="M317.3,223.2v-2.7c0,0-0.9,0-2.7,0"/>
			<path class="st20" d="M309.1,220.5c-41,0-223.1,0-223.1,0c-15,0-27.2-12.2-27.2-27.2V70.9c0-15,12.2-27.2,27.2-27.2h462.5
				c15,0,27.2,12.2,27.2,27.2v122.4c0,15-12.2,27.2-27.2,27.2h-220"/>
			<line class="st18" x1="325.8" y1="220.5" x2="323.1" y2="220.5"/>
			<g>
				<polygon class="st14" points="317.3,279.4 322.8,265.9 317.3,269.1 311.7,265.9 				"/>
			</g>
		</g>
	</g>
	<rect x="470" y="36.3" class="st0" width="63" height="15.1"/>
	<g>
		<path class="st14" d="M478.2,40.6h1.5l1.1,4.6h0.1l1.2-4.6h1.3l1.2,4.6h0.1l1.1-4.6h1.5l-1.9,6.7h-1.4l-1.3-4.4h-0.1l-1.3,4.4
			h-1.4L478.2,40.6z"/>
		<path class="st14" d="M488.1,40.6h4.5v1.2h-3.1v1.6h2.9v1.2h-2.9v1.6h3.1v1.2h-4.5V40.6z"/>
		<path class="st14" d="M493.7,40.6h2.7c1.5,0,2.2,0.7,2.2,1.7c0,0.8-0.5,1.3-1.2,1.4v0.1c0.8,0,1.5,0.6,1.5,1.6
			c0,1.1-0.8,1.8-2.3,1.8h-2.9V40.6z M496.2,43.4c0.6,0,1-0.3,1-0.8c0-0.5-0.4-0.8-1-0.8h-1.1v1.7H496.2z M496.3,46.1
			c0.8,0,1.1-0.3,1.1-0.8c0-0.6-0.4-0.9-1.1-0.9h-1.2v1.8H496.3z"/>
		<path class="st14" d="M499.8,40.6h2.6c1.5,0,2.4,0.9,2.4,2.3c0,1.3-0.9,2.2-2.4,2.2h-1.2v2.2h-1.4V40.6z M502.1,43.9
			c0.8,0,1.2-0.5,1.2-1.1c0-0.7-0.4-1.1-1.2-1.1h-1v2.2H502.1z"/>
		<path class="st14" d="M504.6,47.2l2.3-6.7h1.8l2.3,6.7h-1.5l-0.5-1.5h-2.4l-0.5,1.5H504.6z M508.6,44.6l-0.8-2.5h-0.1l-0.8,2.5
			H508.6z"/>
		<path class="st14" d="M516,42.9c-0.1-0.7-0.7-1.2-1.4-1.2c-1,0-1.7,0.8-1.7,2.2c0,1.4,0.7,2.2,1.7,2.2c0.8,0,1.3-0.4,1.4-1.1
			l1.4,0c-0.2,1.2-1.2,2.4-2.9,2.4c-1.8,0-3.1-1.3-3.1-3.4c0-2.2,1.3-3.4,3.1-3.4c1.5,0,2.7,0.9,2.9,2.4H516z"/>
		<path class="st14" d="M518.4,40.6h1.4v2.9h0.1l2.4-2.9h1.7l-2.5,3l2.5,3.7h-1.7l-1.8-2.7l-0.7,0.8v1.9h-1.4V40.6z"/>
	</g>
	<g>
		<g>
			<rect x="283.4" y="282.8" class="st0" width="73.3" height="17"/>
		</g>
		<g>
			<g>
				<path class="st15" d="M294.4,287.3h1.9v2.2h0c0.1-0.1,0.3-0.3,0.5-0.3c0.2-0.1,0.5-0.1,0.8-0.1c0.6,0,1.1,0.2,1.5,0.6
					c0.4,0.4,0.5,1,0.5,1.7c0,0.4-0.1,0.8-0.2,1.1c-0.1,0.3-0.3,0.6-0.5,0.8c-0.2,0.2-0.5,0.4-0.8,0.5c-0.3,0.1-0.7,0.2-1.1,0.2
					c-0.5,0-0.9-0.1-1.2-0.2c-0.3-0.1-0.6-0.2-0.7-0.3v-5h-0.7V287.3z M297.3,290.1c-0.1,0-0.2,0-0.3,0c-0.1,0-0.2,0.1-0.3,0.1
					c-0.1,0.1-0.2,0.1-0.3,0.2c-0.1,0.1-0.1,0.2-0.2,0.3v1.9c0.1,0,0.2,0.1,0.4,0.1c0.2,0,0.4,0.1,0.6,0.1c0.2,0,0.3,0,0.5-0.1
					c0.1-0.1,0.3-0.1,0.4-0.3c0.1-0.1,0.2-0.3,0.3-0.5s0.1-0.4,0.1-0.7c0-0.4-0.1-0.8-0.3-1C298,290.2,297.7,290.1,297.3,290.1z"/>
				<path class="st15" d="M303.1,289.2h1.7v3.2c0,0.1,0,0.3,0,0.4h0.7v1H304l-0.2-0.7h0c-0.1,0.2-0.4,0.4-0.6,0.6
					c-0.3,0.2-0.6,0.2-0.9,0.2c-0.2,0-0.4,0-0.6-0.1c-0.2-0.1-0.4-0.2-0.5-0.3s-0.2-0.3-0.3-0.6c-0.1-0.2-0.1-0.5-0.1-0.9v-1.8h-0.5
					v-1h1.7v2.6c0,0.4,0.1,0.6,0.2,0.8c0.1,0.2,0.3,0.2,0.6,0.2c0.2,0,0.4-0.1,0.6-0.2c0.2-0.1,0.3-0.3,0.4-0.5v-2h-0.5V289.2z"/>
				<path class="st15" d="M305.6,289.2h1.6l0.1,0.6h0c0.1-0.2,0.3-0.4,0.6-0.5c0.3-0.1,0.6-0.2,0.9-0.2c0.2,0,0.4,0,0.6,0.1
					s0.4,0.2,0.5,0.3c0.1,0.1,0.3,0.3,0.3,0.6s0.1,0.5,0.1,0.9v2.9h-1.2v-2.6c0-0.4-0.1-0.6-0.3-0.8c-0.2-0.2-0.4-0.2-0.6-0.2
					c-0.2,0-0.4,0.1-0.6,0.2c-0.2,0.1-0.3,0.3-0.4,0.5v3h-1.2v-3.6h-0.7V289.2z"/>
				<path class="st15" d="M313.8,287.3h1.9v4c0,0.5,0,0.9,0.1,1.4c0,0,0,0.1,0,0.1h0.6v1H315l-0.1-0.6h0c-0.1,0.1-0.1,0.2-0.2,0.3
					c-0.1,0.1-0.2,0.2-0.3,0.2c-0.1,0.1-0.3,0.1-0.4,0.1c-0.2,0-0.3,0.1-0.5,0.1c-0.3,0-0.6,0-0.8-0.1s-0.5-0.2-0.7-0.4
					c-0.2-0.2-0.3-0.4-0.4-0.7c-0.1-0.3-0.2-0.6-0.2-1.1c0-0.4,0.1-0.7,0.2-1c0.1-0.3,0.3-0.6,0.5-0.8c0.2-0.2,0.5-0.4,0.7-0.5
					c0.3-0.1,0.6-0.2,0.9-0.2c0.2,0,0.4,0,0.5,0c0.2,0,0.3,0.1,0.4,0.1v-0.9h-0.7V287.3z M313.6,292.9c0.2,0,0.4-0.1,0.6-0.2
					c0.2-0.1,0.3-0.3,0.4-0.5v-1.9c-0.1-0.1-0.2-0.1-0.4-0.2c-0.2,0-0.3-0.1-0.5-0.1c-0.2,0-0.3,0-0.5,0.1c-0.2,0.1-0.3,0.1-0.4,0.3
					c-0.1,0.1-0.2,0.3-0.3,0.5c-0.1,0.2-0.1,0.4-0.1,0.7c0,0.4,0.1,0.7,0.3,0.9C312.9,292.7,313.2,292.9,313.6,292.9z"/>
				<path class="st15" d="M317.3,287.3h2v4.2c0,0.5,0.1,0.8,0.2,1s0.3,0.3,0.6,0.3c0.2,0,0.3,0,0.5-0.1c0.1,0,0.2-0.1,0.4-0.2
					l0.4,0.8c-0.1,0.1-0.2,0.1-0.3,0.2c-0.1,0.1-0.2,0.1-0.3,0.1c-0.1,0-0.2,0.1-0.4,0.1c-0.1,0-0.3,0-0.5,0c-0.6,0-1-0.1-1.3-0.4
					c-0.3-0.3-0.4-0.7-0.4-1.2v-3.9h-0.8V287.3z"/>
				<path class="st15" d="M326.9,293.3c-0.1,0.1-0.2,0.1-0.3,0.2c-0.1,0.1-0.3,0.1-0.4,0.2c-0.2,0.1-0.4,0.1-0.6,0.1
					c-0.2,0-0.4,0.1-0.6,0.1c-0.4,0-0.7-0.1-1.1-0.2c-0.3-0.1-0.6-0.3-0.8-0.5c-0.2-0.2-0.4-0.5-0.5-0.8c-0.1-0.3-0.2-0.6-0.2-1
					c0-0.4,0.1-0.8,0.2-1.1c0.1-0.3,0.3-0.6,0.5-0.8s0.5-0.4,0.8-0.5s0.6-0.2,1-0.2c0.2,0,0.5,0,0.7,0.1c0.2,0.1,0.5,0.2,0.7,0.3
					c0.2,0.2,0.4,0.4,0.5,0.6c0.1,0.3,0.2,0.6,0.2,1c0,0.3,0,0.5-0.1,0.9h-3.3c0,0.2,0,0.4,0.1,0.5c0.1,0.1,0.2,0.2,0.3,0.3
					c0.1,0.1,0.3,0.1,0.4,0.2c0.2,0,0.3,0.1,0.5,0.1c0.4,0,0.7,0,0.9-0.1c0.2-0.1,0.4-0.2,0.6-0.3L326.9,293.3z M325,290
					c-0.2,0-0.3,0-0.4,0.1c-0.1,0-0.3,0.1-0.4,0.2c-0.1,0.1-0.2,0.2-0.3,0.3c-0.1,0.1-0.1,0.3-0.1,0.4h2.3c0-0.3-0.1-0.5-0.3-0.7
					C325.6,290.1,325.3,290,325,290z"/>
				<path class="st15" d="M329.6,293.1c0-0.2,0.1-0.4,0.2-0.5c0.1-0.1,0.3-0.2,0.5-0.2c0.2,0,0.4,0.1,0.6,0.2
					c0.1,0.1,0.2,0.3,0.2,0.5s-0.1,0.4-0.2,0.5c-0.1,0.1-0.3,0.2-0.6,0.2c-0.2,0-0.4-0.1-0.5-0.2
					C329.6,293.5,329.6,293.4,329.6,293.1z"/>
				<path class="st15" d="M333.9,289.2h3.4v4.2c0,0.7-0.2,1.3-0.6,1.7c-0.4,0.4-0.9,0.6-1.7,0.6c-0.3,0-0.6,0-0.9-0.1
					c-0.3-0.1-0.5-0.2-0.7-0.4l0.5-0.9c0.1,0.1,0.2,0.1,0.4,0.2c0.2,0.1,0.4,0.1,0.6,0.1c0.1,0,0.3,0,0.4-0.1c0.1,0,0.2-0.1,0.3-0.2
					c0.1-0.1,0.2-0.2,0.2-0.4c0.1-0.2,0.1-0.4,0.1-0.6v-3h-2.2V289.2z M335.4,287.9c0-0.2,0.1-0.4,0.2-0.5c0.1-0.1,0.3-0.2,0.6-0.2
					c0.3,0,0.5,0.1,0.6,0.2c0.2,0.1,0.2,0.3,0.2,0.5c0,0.2-0.1,0.4-0.2,0.5c-0.2,0.1-0.4,0.2-0.6,0.2c-0.2,0-0.4-0.1-0.6-0.2
					C335.5,288.3,335.4,288.1,335.4,287.9z"/>
				<path class="st15" d="M342.2,292.5c0-0.1-0.1-0.2-0.2-0.3c-0.1-0.1-0.3-0.1-0.6-0.2c-0.2-0.1-0.5-0.1-0.7-0.2
					c-0.3-0.1-0.5-0.2-0.7-0.3c-0.2-0.1-0.4-0.3-0.6-0.4s-0.2-0.4-0.2-0.7c0-0.2,0.1-0.4,0.2-0.6c0.1-0.2,0.2-0.3,0.4-0.4
					c0.2-0.1,0.4-0.2,0.6-0.3s0.5-0.1,0.8-0.1c0.3,0,0.6,0,0.8,0.1c0.2,0,0.4,0.1,0.6,0.2c0.2,0.1,0.3,0.1,0.4,0.2
					c0.1,0.1,0.2,0.1,0.3,0.2l-0.5,0.8c-0.1-0.1-0.2-0.1-0.3-0.2c-0.1-0.1-0.2-0.1-0.4-0.2c-0.1,0-0.3-0.1-0.4-0.1
					c-0.1,0-0.3,0-0.4,0c-0.3,0-0.5,0-0.6,0.1c-0.2,0.1-0.2,0.2-0.2,0.3c0,0.1,0.1,0.2,0.2,0.3c0.2,0.1,0.3,0.1,0.6,0.2
					c0.2,0.1,0.5,0.1,0.7,0.2c0.3,0.1,0.5,0.2,0.7,0.3c0.2,0.1,0.4,0.2,0.6,0.4c0.2,0.2,0.2,0.4,0.2,0.7c0,0.5-0.2,0.8-0.5,1.1
					c-0.3,0.3-0.8,0.4-1.5,0.4c-0.5,0-1-0.1-1.4-0.2c-0.4-0.2-0.7-0.3-0.9-0.5l0.5-0.9c0.1,0.1,0.2,0.1,0.3,0.2
					c0.1,0.1,0.3,0.2,0.4,0.2c0.2,0.1,0.3,0.1,0.5,0.2c0.2,0,0.4,0.1,0.6,0.1c0.2,0,0.4,0,0.5-0.1
					C342.2,292.8,342.2,292.6,342.2,292.5z"/>
			</g>
		</g>
	</g>
</g>
</svg>
