<?xml version="1.0" encoding="utf-8"?>
<svg version="1.1" xmlns="http://www.w3.org/2000/svg" xmlns:xlink="http://www.w3.org/1999/xlink" x="0px" y="0px"
	 viewBox="0 0 640 100" style="enable-background:new 0 0 640 100;" xml:space="preserve">
<style type="text/css">
	.st0{fill:#FFFFFF;}
	.st1{fill:#EEFFE5;}
	.st2{fill:#00D082;}
	.st3{fill:#00945D;}
	.st4{fill:#FCEBDC;}
	.st5{fill:#FEC38F;}
	.st6{fill:#E1692D;}
	.st7{fill:#C8DCFF;}
	.st8{fill:#69A3FF;}
	.st9{fill:#005CCC;}
	.st10{fill:none;stroke:#627380;stroke-width:1.5144;stroke-miterlimit:10;}
	.st11{fill:#627380;}
</style>
<rect x="-0.3" y="0.3" class="st0" width="640" height="100"/>
<g>
	<g>
		<path class="st1" d="M30,72c-5.1,0-9.2-4.1-9.2-9.2V37.3c0-5.1,4.1-9.2,9.2-9.2h146.6c5.1,0,9.2,4.1,9.2,9.2v25.4
			c0,5.1-4.1,9.2-9.2,9.2H30z"/>
		<path class="st2" d="M176.6,28.8c4.7,0,8.5,3.8,8.5,8.5v25.4c0,4.7-3.8,8.5-8.5,8.5H30c-4.7,0-8.5-3.8-8.5-8.5V37.3
			c0-4.7,3.8-8.5,8.5-8.5H176.6 M176.6,27.3H30c-5.5,0-10,4.5-10,10v25.4c0,5.5,4.5,10,10,10h146.6c5.5,0,10-4.5,10-10V37.3
			C186.6,31.8,182.1,27.3,176.6,27.3L176.6,27.3z"/>
	</g>
	<g>
		<path class="st3" d="M39.9,52.5c-0.1,0.1-0.2,0.2-0.3,0.2c-0.1,0.1-0.3,0.2-0.5,0.2c-0.2,0.1-0.4,0.1-0.6,0.2
			c-0.2,0-0.5,0.1-0.7,0.1c-0.4,0-0.8-0.1-1.2-0.2c-0.3-0.1-0.6-0.3-0.9-0.5c-0.2-0.2-0.4-0.5-0.5-0.8c-0.1-0.3-0.2-0.7-0.2-1.1
			c0-0.4,0.1-0.8,0.2-1.2c0.1-0.3,0.3-0.6,0.6-0.8c0.2-0.2,0.5-0.4,0.9-0.5c0.3-0.1,0.7-0.2,1.1-0.2c0.3,0,0.5,0,0.8,0.1
			s0.5,0.2,0.8,0.4c0.2,0.2,0.4,0.4,0.6,0.7C40,49.2,40,49.6,40,50c0,0.3,0,0.6-0.1,0.9h-3.7c0,0.2,0.1,0.4,0.1,0.6
			c0.1,0.1,0.2,0.3,0.3,0.4c0.1,0.1,0.3,0.2,0.5,0.2c0.2,0,0.4,0.1,0.6,0.1c0.4,0,0.7,0,1-0.1c0.3-0.1,0.5-0.2,0.6-0.3L39.9,52.5z
			 M37.7,48.9c-0.2,0-0.3,0-0.5,0.1c-0.2,0-0.3,0.1-0.4,0.2c-0.1,0.1-0.2,0.2-0.3,0.3c-0.1,0.1-0.1,0.3-0.1,0.5h2.5
			c0-0.3-0.1-0.6-0.3-0.8C38.3,49,38.1,48.9,37.7,48.9z"/>
		<path class="st3" d="M44.7,51.7c0-0.1-0.1-0.2-0.3-0.3c-0.2-0.1-0.4-0.2-0.6-0.2C43.5,51,43.3,51,43,50.9
			c-0.3-0.1-0.6-0.2-0.8-0.3c-0.2-0.1-0.5-0.3-0.6-0.5c-0.2-0.2-0.3-0.4-0.3-0.8c0-0.3,0.1-0.5,0.2-0.7c0.1-0.2,0.3-0.4,0.5-0.5
			c0.2-0.1,0.4-0.2,0.7-0.3s0.6-0.1,0.9-0.1c0.3,0,0.6,0,0.9,0.1c0.3,0,0.5,0.1,0.7,0.2c0.2,0.1,0.3,0.1,0.5,0.2
			c0.1,0.1,0.2,0.2,0.3,0.2l-0.6,0.9c-0.1-0.1-0.2-0.1-0.4-0.2c-0.1-0.1-0.3-0.1-0.4-0.2c-0.1-0.1-0.3-0.1-0.5-0.1
			c-0.2,0-0.3-0.1-0.5-0.1c-0.3,0-0.5,0-0.7,0.1c-0.2,0.1-0.3,0.2-0.3,0.3c0,0.1,0.1,0.2,0.3,0.3c0.2,0.1,0.4,0.1,0.6,0.2
			c0.2,0.1,0.5,0.1,0.8,0.2c0.3,0.1,0.6,0.2,0.8,0.3c0.2,0.1,0.5,0.3,0.6,0.5c0.2,0.2,0.3,0.4,0.3,0.7c0,0.5-0.2,0.9-0.6,1.2
			c-0.4,0.3-0.9,0.4-1.7,0.4c-0.6,0-1.1-0.1-1.5-0.3c-0.4-0.2-0.8-0.4-1-0.6l0.6-1c0.1,0.1,0.2,0.2,0.4,0.2c0.1,0.1,0.3,0.2,0.5,0.3
			c0.2,0.1,0.4,0.1,0.6,0.2c0.2,0.1,0.4,0.1,0.6,0.1c0.2,0,0.4,0,0.6-0.1C44.6,52,44.7,51.8,44.7,51.7z"/>
		<path class="st3" d="M52.3,50.9c0,0.3-0.1,0.6-0.2,0.9c-0.1,0.3-0.3,0.5-0.5,0.7c-0.2,0.2-0.5,0.4-0.8,0.5c-0.3,0.1-0.6,0.2-1,0.2
			c-0.4,0-0.7-0.1-1-0.2c-0.3-0.1-0.6-0.3-0.8-0.5c-0.2-0.2-0.4-0.5-0.6-0.8c-0.1-0.3-0.2-0.7-0.2-1.2c0-0.7,0.1-1.3,0.4-1.8
			c0.2-0.6,0.5-1,0.9-1.4c0.4-0.4,0.8-0.7,1.2-1c0.5-0.2,0.9-0.4,1.4-0.5l0.3,1.1c-0.4,0.1-0.7,0.2-1,0.3c-0.3,0.2-0.6,0.3-0.8,0.6
			c-0.2,0.2-0.5,0.5-0.6,0.7c-0.2,0.3-0.3,0.5-0.3,0.8c0.1-0.2,0.3-0.3,0.6-0.4c0.3-0.1,0.6-0.2,0.9-0.2c0.3,0,0.6,0,0.9,0.1
			c0.3,0.1,0.5,0.2,0.7,0.4c0.2,0.2,0.3,0.4,0.5,0.7C52.2,50.2,52.3,50.5,52.3,50.9z M51,50.9c0-0.4-0.1-0.6-0.3-0.8
			c-0.2-0.2-0.5-0.3-0.9-0.3c-0.3,0-0.5,0.1-0.7,0.2c-0.2,0.1-0.4,0.3-0.5,0.4c0,0.1,0,0.2,0,0.2c0,0.1,0,0.2,0,0.2
			c0,0.2,0,0.3,0.1,0.5c0.1,0.1,0.1,0.3,0.2,0.4c0.1,0.1,0.2,0.2,0.4,0.3c0.2,0.1,0.3,0.1,0.5,0.1c0.2,0,0.3,0,0.5-0.1
			c0.1-0.1,0.3-0.1,0.4-0.2c0.1-0.1,0.2-0.2,0.3-0.4C50.9,51.2,51,51.1,51,50.9z"/>
		<path class="st3" d="M54.4,49.5h3v1.2h-3V49.5z"/>
		<path class="st3" d="M64.5,52.6c-0.3,0.2-0.6,0.4-1,0.5c-0.4,0.1-0.8,0.2-1.2,0.2c-0.4,0-0.8-0.1-1.2-0.2
			c-0.3-0.1-0.6-0.3-0.9-0.5c-0.2-0.2-0.4-0.5-0.5-0.9c-0.1-0.3-0.2-0.7-0.2-1.1c0-0.4,0.1-0.8,0.2-1.1c0.1-0.3,0.3-0.6,0.6-0.8
			c0.3-0.2,0.6-0.4,0.9-0.5c0.3-0.1,0.7-0.2,1.1-0.2c0.4,0,0.7,0,1.1,0.1c0.3,0.1,0.6,0.2,0.8,0.3V50h-1.1v-0.9
			c-0.2,0-0.4-0.1-0.6-0.1c-0.2,0-0.4,0-0.6,0.1c-0.2,0.1-0.4,0.1-0.5,0.3c-0.1,0.1-0.3,0.3-0.4,0.5C61,50,61,50.2,61,50.5
			c0,0.2,0,0.4,0.1,0.6c0.1,0.2,0.2,0.3,0.3,0.5c0.1,0.1,0.3,0.2,0.5,0.3c0.2,0.1,0.4,0.1,0.7,0.1c0.4,0,0.7-0.1,1-0.2
			s0.4-0.2,0.6-0.3L64.5,52.6z"/>
		<path class="st3" d="M65.4,50.5c0-0.4,0.1-0.8,0.2-1.1c0.1-0.3,0.3-0.6,0.6-0.8c0.2-0.2,0.5-0.4,0.9-0.5c0.3-0.1,0.7-0.2,1.1-0.2
			c0.4,0,0.8,0.1,1.1,0.2c0.3,0.1,0.6,0.3,0.9,0.5c0.2,0.2,0.4,0.5,0.5,0.9s0.2,0.7,0.2,1.1c0,0.4-0.1,0.8-0.2,1.1
			c-0.1,0.3-0.3,0.6-0.6,0.8c-0.2,0.2-0.5,0.4-0.9,0.5c-0.3,0.1-0.7,0.2-1.1,0.2c-0.4,0-0.8-0.1-1.1-0.2c-0.3-0.1-0.6-0.3-0.9-0.5
			c-0.2-0.2-0.4-0.5-0.5-0.9C65.5,51.3,65.4,50.9,65.4,50.5z M66.8,50.5c0,0.2,0,0.4,0.1,0.6c0.1,0.2,0.2,0.4,0.3,0.5
			c0.1,0.1,0.3,0.3,0.4,0.3c0.2,0.1,0.4,0.1,0.6,0.1c0.4,0,0.7-0.1,1-0.4c0.2-0.3,0.4-0.6,0.4-1.2c0-0.5-0.1-0.8-0.3-1.1
			c-0.2-0.3-0.6-0.4-1-0.4c-0.2,0-0.4,0-0.5,0.1c-0.2,0.1-0.3,0.2-0.4,0.3c-0.1,0.1-0.2,0.3-0.3,0.5C66.8,50,66.8,50.2,66.8,50.5z"
			/>
		<path class="st3" d="M74.3,45.9h2.1v4.4c0,0.5,0,1,0.1,1.5c0,0,0,0.1,0,0.1h0.7v1.1h-1.6l-0.1-0.7h0c-0.1,0.1-0.2,0.2-0.3,0.3
			c-0.1,0.1-0.2,0.2-0.4,0.2c-0.1,0.1-0.3,0.1-0.5,0.2c-0.2,0-0.3,0.1-0.5,0.1c-0.3,0-0.6-0.1-0.9-0.2c-0.3-0.1-0.5-0.3-0.7-0.5
			c-0.2-0.2-0.4-0.5-0.5-0.8c-0.1-0.3-0.2-0.7-0.2-1.2c0-0.4,0.1-0.8,0.2-1.2c0.1-0.3,0.3-0.6,0.6-0.9c0.2-0.2,0.5-0.4,0.8-0.5
			c0.3-0.1,0.7-0.2,1.1-0.2c0.2,0,0.4,0,0.6,0c0.2,0,0.3,0.1,0.5,0.1v-1h-0.8V45.9z M74,52.1c0.3,0,0.5-0.1,0.7-0.2
			c0.2-0.1,0.3-0.3,0.4-0.5v-2.2c-0.1-0.1-0.2-0.1-0.4-0.2S74.4,49,74.2,49c-0.2,0-0.4,0-0.5,0.1c-0.2,0.1-0.3,0.2-0.5,0.3
			c-0.1,0.1-0.2,0.3-0.3,0.5c-0.1,0.2-0.1,0.5-0.1,0.8c0,0.4,0.1,0.8,0.3,1.1C73.3,52,73.6,52.1,74,52.1z"/>
		<path class="st3" d="M82.8,52.5c-0.1,0.1-0.2,0.2-0.3,0.2c-0.1,0.1-0.3,0.2-0.5,0.2c-0.2,0.1-0.4,0.1-0.6,0.2
			c-0.2,0-0.5,0.1-0.7,0.1c-0.4,0-0.8-0.1-1.2-0.2c-0.3-0.1-0.6-0.3-0.9-0.5c-0.2-0.2-0.4-0.5-0.5-0.8c-0.1-0.3-0.2-0.7-0.2-1.1
			c0-0.4,0.1-0.8,0.2-1.2c0.1-0.3,0.3-0.6,0.6-0.8c0.2-0.2,0.5-0.4,0.9-0.5c0.3-0.1,0.7-0.2,1.1-0.2c0.3,0,0.5,0,0.8,0.1
			c0.3,0.1,0.5,0.2,0.8,0.4c0.2,0.2,0.4,0.4,0.6,0.7c0.1,0.3,0.2,0.6,0.2,1.1c0,0.3,0,0.6-0.1,0.9h-3.7c0,0.2,0.1,0.4,0.1,0.6
			c0.1,0.1,0.2,0.3,0.3,0.4c0.1,0.1,0.3,0.2,0.5,0.2c0.2,0,0.4,0.1,0.6,0.1c0.4,0,0.7,0,1-0.1c0.3-0.1,0.5-0.2,0.6-0.3L82.8,52.5z
			 M80.6,48.9c-0.2,0-0.3,0-0.5,0.1s-0.3,0.1-0.4,0.2c-0.1,0.1-0.2,0.2-0.3,0.3c-0.1,0.1-0.1,0.3-0.1,0.5h2.5c0-0.3-0.1-0.6-0.3-0.8
			C81.2,49,80.9,48.9,80.6,48.9z"/>
		<path class="st3" d="M85.7,52.4c0-0.2,0.1-0.4,0.2-0.6c0.1-0.1,0.3-0.2,0.6-0.2c0.3,0,0.5,0.1,0.6,0.2c0.1,0.1,0.2,0.3,0.2,0.6
			s-0.1,0.4-0.2,0.6c-0.2,0.1-0.4,0.2-0.6,0.2c-0.2,0-0.4-0.1-0.6-0.2C85.8,52.8,85.7,52.6,85.7,52.4z"/>
		<path class="st3" d="M90.5,48h3.8v4.7c0,0.8-0.2,1.4-0.6,1.8c-0.4,0.4-1,0.7-1.8,0.7c-0.3,0-0.7-0.1-1-0.2
			c-0.3-0.1-0.6-0.3-0.8-0.4l0.6-1c0.1,0.1,0.2,0.1,0.4,0.2c0.2,0.1,0.4,0.1,0.7,0.1c0.2,0,0.3,0,0.5-0.1c0.1-0.1,0.3-0.1,0.4-0.3
			c0.1-0.1,0.2-0.3,0.3-0.5c0.1-0.2,0.1-0.4,0.1-0.7v-3.4h-2.4V48z M92.2,46.6c0-0.2,0.1-0.4,0.2-0.5c0.2-0.2,0.4-0.2,0.7-0.2
			c0.3,0,0.5,0.1,0.7,0.2c0.2,0.1,0.3,0.3,0.3,0.5c0,0.2-0.1,0.4-0.3,0.5c-0.2,0.1-0.4,0.2-0.7,0.2c-0.3,0-0.5-0.1-0.7-0.2
			C92.3,47,92.2,46.8,92.2,46.6z"/>
		<path class="st3" d="M99.8,51.7c0-0.1-0.1-0.2-0.3-0.3c-0.2-0.1-0.4-0.2-0.6-0.2c-0.2-0.1-0.5-0.1-0.8-0.2
			c-0.3-0.1-0.6-0.2-0.8-0.3c-0.2-0.1-0.5-0.3-0.6-0.5c-0.2-0.2-0.3-0.4-0.3-0.8c0-0.3,0.1-0.5,0.2-0.7c0.1-0.2,0.3-0.4,0.5-0.5
			c0.2-0.1,0.4-0.2,0.7-0.3c0.3-0.1,0.6-0.1,0.9-0.1c0.3,0,0.6,0,0.9,0.1c0.3,0,0.5,0.1,0.7,0.2c0.2,0.1,0.3,0.1,0.5,0.2
			c0.1,0.1,0.2,0.2,0.3,0.2l-0.6,0.9c-0.1-0.1-0.2-0.1-0.4-0.2c-0.1-0.1-0.3-0.1-0.4-0.2c-0.1-0.1-0.3-0.1-0.5-0.1
			c-0.2,0-0.3-0.1-0.5-0.1c-0.3,0-0.5,0-0.7,0.1c-0.2,0.1-0.3,0.2-0.3,0.3c0,0.1,0.1,0.2,0.3,0.3c0.2,0.1,0.4,0.1,0.6,0.2
			c0.2,0.1,0.5,0.1,0.8,0.2c0.3,0.1,0.6,0.2,0.8,0.3c0.2,0.1,0.5,0.3,0.6,0.5c0.2,0.2,0.3,0.4,0.3,0.7c0,0.5-0.2,0.9-0.6,1.2
			c-0.4,0.3-0.9,0.4-1.7,0.4c-0.6,0-1.1-0.1-1.5-0.3c-0.4-0.2-0.8-0.4-1-0.6l0.6-1c0.1,0.1,0.2,0.2,0.4,0.2c0.1,0.1,0.3,0.2,0.5,0.3
			c0.2,0.1,0.4,0.1,0.6,0.2c0.2,0.1,0.4,0.1,0.6,0.1c0.2,0,0.4,0,0.6-0.1C99.7,52,99.8,51.8,99.8,51.7z"/>
	</g>
	<g>
		<path class="st4" d="M246.5,72c-5.1,0-9.2-4.1-9.2-9.2V37.3c0-5.1,4.1-9.2,9.2-9.2h146.6c5.1,0,9.2,4.1,9.2,9.2v25.4
			c0,5.1-4.1,9.2-9.2,9.2H246.5z"/>
		<path class="st5" d="M393.1,28.8c4.7,0,8.5,3.8,8.5,8.5v25.4c0,4.7-3.8,8.5-8.5,8.5H246.5c-4.7,0-8.5-3.8-8.5-8.5V37.3
			c0-4.7,3.8-8.5,8.5-8.5H393.1 M393.1,27.3H246.5c-5.5,0-10,4.5-10,10v25.4c0,5.5,4.5,10,10,10h146.6c5.5,0,10-4.5,10-10V37.3
			C403.1,31.8,398.6,27.3,393.1,27.3L393.1,27.3z"/>
	</g>
	<g>
		<path class="st6" d="M309.9,47.6c0,0.2,0,0.4-0.1,0.5c0,0.2-0.1,0.3-0.2,0.5c-0.1,0.1-0.2,0.3-0.4,0.4c-0.2,0.1-0.4,0.2-0.6,0.3
			v0.1c0.2,0,0.4,0.1,0.6,0.2c0.2,0.1,0.3,0.2,0.5,0.3c0.1,0.1,0.2,0.3,0.3,0.5s0.1,0.4,0.1,0.7c0,0.4-0.1,0.7-0.2,1
			c-0.2,0.3-0.4,0.5-0.6,0.7c-0.3,0.2-0.6,0.3-0.9,0.4c-0.3,0.1-0.7,0.1-1,0.1c-0.1,0-0.3,0-0.4,0s-0.4,0-0.6,0c-0.2,0-0.4,0-0.6,0
			c-0.2,0-0.4-0.1-0.6-0.1v-7c0.1,0,0.3,0,0.4-0.1c0.2,0,0.3,0,0.5-0.1c0.2,0,0.4,0,0.6,0c0.2,0,0.4,0,0.6,0c0.3,0,0.7,0,1,0.1
			c0.3,0.1,0.6,0.1,0.8,0.3c0.2,0.1,0.4,0.3,0.6,0.5C309.8,46.9,309.9,47.2,309.9,47.6z M306.9,48.9c0.1,0,0.2,0,0.3,0
			c0.1,0,0.2,0,0.3,0c0.3-0.1,0.5-0.2,0.7-0.4c0.2-0.2,0.3-0.4,0.3-0.6c0-0.2,0-0.3-0.1-0.4c-0.1-0.1-0.2-0.2-0.3-0.3
			c-0.1-0.1-0.2-0.1-0.4-0.1c-0.1,0-0.3,0-0.5,0c-0.2,0-0.3,0-0.5,0c-0.2,0-0.3,0-0.4,0v1.9H306.9z M307.3,52c0.2,0,0.3,0,0.5-0.1
			c0.2,0,0.3-0.1,0.4-0.2c0.1-0.1,0.2-0.2,0.3-0.3c0.1-0.1,0.1-0.3,0.1-0.5c0-0.2,0-0.4-0.1-0.5c-0.1-0.1-0.2-0.2-0.3-0.3
			c-0.1-0.1-0.3-0.1-0.5-0.1c-0.2,0-0.4,0-0.5,0h-0.7v2c0,0,0.1,0,0.2,0c0.1,0,0.2,0,0.2,0c0.1,0,0.2,0,0.3,0
			C307.2,52,307.3,52,307.3,52z"/>
		<path class="st6" d="M311.5,48.3c0.3-0.1,0.6-0.2,0.9-0.3c0.4-0.1,0.8-0.1,1.3-0.1c0.4,0,0.7,0,0.9,0.1c0.2,0.1,0.4,0.2,0.6,0.4
			c0.2,0.2,0.3,0.3,0.3,0.6c0.1,0.2,0.1,0.5,0.1,0.7c0,0.3,0,0.6,0,0.9s0,0.5,0,0.7c0,0.1,0,0.3,0,0.5c0,0.1,0,0.2,0,0.3h0.7v1.1
			h-1.7l-0.1-0.7h-0.1c-0.1,0.2-0.3,0.4-0.6,0.5c-0.3,0.2-0.6,0.2-1,0.2c-0.5,0-0.9-0.1-1.2-0.4s-0.4-0.6-0.4-1.1
			c0-0.3,0.1-0.5,0.2-0.7c0.1-0.2,0.3-0.4,0.5-0.5c0.2-0.1,0.4-0.2,0.7-0.3c0.3-0.1,0.6-0.1,0.9-0.1c0.1,0,0.3,0,0.4,0
			c0.1,0,0.3,0,0.5,0c0-0.1,0-0.1,0-0.2v-0.2c0-0.3-0.1-0.4-0.2-0.6c-0.1-0.1-0.4-0.2-0.7-0.2c-0.3,0-0.7,0-0.9,0.1
			c-0.3,0.1-0.5,0.2-0.7,0.3L311.5,48.3z M313.3,52.1c0.3,0,0.6-0.1,0.7-0.2c0.2-0.1,0.3-0.2,0.4-0.4v-0.6c-0.1,0-0.2,0-0.3,0
			c-0.1,0-0.3,0-0.4,0c-0.1,0-0.3,0-0.4,0c-0.1,0-0.2,0.1-0.3,0.1c-0.1,0.1-0.2,0.1-0.2,0.2c-0.1,0.1-0.1,0.2-0.1,0.3
			c0,0.2,0.1,0.3,0.2,0.4C312.8,52,313,52.1,313.3,52.1z"/>
		<path class="st6" d="M316.6,45.9h2.1v2.5h0c0.1-0.2,0.3-0.3,0.6-0.4c0.2-0.1,0.5-0.1,0.9-0.1c0.7,0,1.2,0.2,1.6,0.6
			c0.4,0.4,0.6,1.1,0.6,1.9c0,0.5-0.1,0.9-0.2,1.2c-0.1,0.4-0.3,0.6-0.6,0.9c-0.2,0.2-0.6,0.4-0.9,0.5c-0.4,0.1-0.8,0.2-1.2,0.2
			c-0.5,0-1-0.1-1.3-0.2c-0.4-0.1-0.6-0.2-0.8-0.4V47h-0.8V45.9z M319.9,49c-0.1,0-0.2,0-0.3,0.1c-0.1,0-0.2,0.1-0.3,0.1
			c-0.1,0.1-0.2,0.1-0.3,0.2c-0.1,0.1-0.2,0.2-0.2,0.3v2.1c0.1,0.1,0.3,0.1,0.4,0.2c0.2,0.1,0.4,0.1,0.6,0.1c0.2,0,0.3,0,0.5-0.1
			c0.2-0.1,0.3-0.2,0.4-0.3c0.1-0.1,0.2-0.3,0.3-0.5c0.1-0.2,0.1-0.4,0.1-0.7c0-0.5-0.1-0.8-0.3-1.1C320.6,49.1,320.3,49,319.9,49z"
			/>
		<path class="st6" d="M328.3,52.5c-0.1,0.1-0.2,0.2-0.3,0.2c-0.1,0.1-0.3,0.2-0.5,0.2s-0.4,0.1-0.6,0.2c-0.2,0-0.5,0.1-0.7,0.1
			c-0.4,0-0.8-0.1-1.2-0.2c-0.3-0.1-0.6-0.3-0.9-0.5s-0.4-0.5-0.5-0.8c-0.1-0.3-0.2-0.7-0.2-1.1c0-0.4,0.1-0.8,0.2-1.2
			c0.1-0.3,0.3-0.6,0.6-0.8c0.2-0.2,0.5-0.4,0.9-0.5c0.3-0.1,0.7-0.2,1.1-0.2c0.3,0,0.5,0,0.8,0.1c0.3,0.1,0.5,0.2,0.8,0.4
			c0.2,0.2,0.4,0.4,0.6,0.7c0.1,0.3,0.2,0.6,0.2,1.1c0,0.3,0,0.6-0.1,0.9h-3.7c0,0.2,0.1,0.4,0.1,0.6c0.1,0.1,0.2,0.3,0.3,0.4
			c0.1,0.1,0.3,0.2,0.5,0.2c0.2,0,0.4,0.1,0.6,0.1c0.4,0,0.7,0,1-0.1c0.3-0.1,0.5-0.2,0.6-0.3L328.3,52.5z M326.1,48.9
			c-0.2,0-0.3,0-0.5,0.1s-0.3,0.1-0.4,0.2c-0.1,0.1-0.2,0.2-0.3,0.3c-0.1,0.1-0.1,0.3-0.1,0.5h2.5c0-0.3-0.1-0.6-0.3-0.8
			C326.8,49,326.5,48.9,326.1,48.9z"/>
		<path class="st6" d="M329.9,45.9h2.2v4.7c0,0.5,0.1,0.9,0.2,1.1c0.1,0.2,0.3,0.3,0.6,0.3c0.2,0,0.4,0,0.5-0.1
			c0.1,0,0.3-0.1,0.4-0.2l0.5,0.9c-0.1,0.1-0.2,0.1-0.3,0.2c-0.1,0.1-0.2,0.1-0.4,0.2c-0.1,0-0.3,0.1-0.4,0.1c-0.2,0-0.3,0-0.5,0
			c-0.6,0-1.1-0.2-1.4-0.5c-0.3-0.3-0.5-0.8-0.5-1.4V47h-0.8V45.9z"/>
	</g>
	<g>
		<path class="st7" d="M463.4,72c-5.1,0-9.2-4.1-9.2-9.2V37.3c0-5.1,4.1-9.2,9.2-9.2H610c5.1,0,9.2,4.1,9.2,9.2v25.4
			c0,5.1-4.1,9.2-9.2,9.2H463.4z"/>
		<path class="st8" d="M610,28.8c4.7,0,8.5,3.8,8.5,8.5v25.4c0,4.7-3.8,8.5-8.5,8.5H463.4c-4.7,0-8.5-3.8-8.5-8.5V37.3
			c0-4.7,3.8-8.5,8.5-8.5H610 M610,27.3H463.4c-5.5,0-10,4.5-10,10v25.4c0,5.5,4.5,10,10,10H610c5.5,0,10-4.5,10-10V37.3
			C620,31.8,615.5,27.3,610,27.3L610,27.3z"/>
	</g>
	<g>
		<path class="st9" d="M473.3,52.5c-0.1,0.1-0.2,0.2-0.3,0.2c-0.1,0.1-0.3,0.2-0.5,0.2c-0.2,0.1-0.4,0.1-0.6,0.2
			c-0.2,0-0.5,0.1-0.7,0.1c-0.4,0-0.8-0.1-1.2-0.2c-0.3-0.1-0.6-0.3-0.9-0.5c-0.2-0.2-0.4-0.5-0.5-0.8c-0.1-0.3-0.2-0.7-0.2-1.1
			c0-0.4,0.1-0.8,0.2-1.2s0.3-0.6,0.6-0.8c0.2-0.2,0.5-0.4,0.9-0.5c0.3-0.1,0.7-0.2,1.1-0.2c0.3,0,0.5,0,0.8,0.1
			c0.3,0.1,0.5,0.2,0.8,0.4c0.2,0.2,0.4,0.4,0.6,0.7c0.1,0.3,0.2,0.6,0.2,1.1c0,0.3,0,0.6-0.1,0.9h-3.7c0,0.2,0.1,0.4,0.1,0.6
			c0.1,0.1,0.2,0.3,0.3,0.4c0.1,0.1,0.3,0.2,0.5,0.2c0.2,0,0.4,0.1,0.6,0.1c0.4,0,0.7,0,1-0.1c0.3-0.1,0.5-0.2,0.6-0.3L473.3,52.5z
			 M471.1,48.9c-0.2,0-0.3,0-0.5,0.1c-0.2,0-0.3,0.1-0.4,0.2c-0.1,0.1-0.2,0.2-0.3,0.3c-0.1,0.1-0.1,0.3-0.1,0.5h2.5
			c0-0.3-0.1-0.6-0.3-0.8C471.8,49,471.5,48.9,471.1,48.9z"/>
		<path class="st9" d="M478.1,51.7c0-0.1-0.1-0.2-0.3-0.3c-0.2-0.1-0.4-0.2-0.6-0.2c-0.2-0.1-0.5-0.1-0.8-0.2s-0.6-0.2-0.8-0.3
			c-0.2-0.1-0.5-0.3-0.6-0.5c-0.2-0.2-0.3-0.4-0.3-0.8c0-0.3,0.1-0.5,0.2-0.7c0.1-0.2,0.3-0.4,0.5-0.5c0.2-0.1,0.4-0.2,0.7-0.3
			s0.6-0.1,0.9-0.1c0.3,0,0.6,0,0.9,0.1c0.3,0,0.5,0.1,0.7,0.2s0.3,0.1,0.5,0.2c0.1,0.1,0.2,0.2,0.3,0.2l-0.6,0.9
			c-0.1-0.1-0.2-0.1-0.4-0.2c-0.1-0.1-0.3-0.1-0.4-0.2c-0.1-0.1-0.3-0.1-0.5-0.1c-0.2,0-0.3-0.1-0.5-0.1c-0.3,0-0.5,0-0.7,0.1
			s-0.3,0.2-0.3,0.3c0,0.1,0.1,0.2,0.3,0.3c0.2,0.1,0.4,0.1,0.6,0.2c0.2,0.1,0.5,0.1,0.8,0.2c0.3,0.1,0.6,0.2,0.8,0.3
			c0.2,0.1,0.5,0.3,0.6,0.5c0.2,0.2,0.3,0.4,0.3,0.7c0,0.5-0.2,0.9-0.6,1.2c-0.4,0.3-0.9,0.4-1.7,0.4c-0.6,0-1.1-0.1-1.5-0.3
			c-0.4-0.2-0.8-0.4-1-0.6l0.6-1c0.1,0.1,0.2,0.2,0.4,0.2c0.1,0.1,0.3,0.2,0.5,0.3c0.2,0.1,0.4,0.1,0.6,0.2c0.2,0.1,0.4,0.1,0.6,0.1
			c0.2,0,0.4,0,0.6-0.1C478,52,478.1,51.8,478.1,51.7z"/>
		<path class="st9" d="M482.5,52c0.2,0,0.4,0,0.6-0.1c0.2-0.1,0.4-0.1,0.5-0.2s0.2-0.2,0.3-0.4c0.1-0.2,0.1-0.3,0.1-0.5
			c0-0.4-0.1-0.7-0.4-0.9s-0.7-0.3-1.3-0.3c-0.1,0-0.2,0-0.3,0c-0.1,0-0.2,0-0.3,0c-0.1,0-0.2,0-0.3,0v-3.7h3.7v1.2h-2.6v1.4
			c0.1,0,0.1,0,0.2,0c0,0,0.1,0,0.1,0c0,0,0.1,0,0.1,0c0.3,0,0.7,0.1,0.9,0.1c0.3,0.1,0.6,0.2,0.8,0.4c0.2,0.2,0.4,0.4,0.5,0.7
			c0.1,0.3,0.2,0.6,0.2,0.9c0,0.4-0.1,0.8-0.2,1.1c-0.2,0.3-0.4,0.6-0.6,0.8c-0.3,0.2-0.6,0.4-0.9,0.5c-0.3,0.1-0.7,0.2-1.1,0.2
			c-0.2,0-0.3,0-0.5,0c-0.2,0-0.3-0.1-0.5-0.1c-0.2,0-0.3-0.1-0.5-0.1c-0.1-0.1-0.3-0.1-0.4-0.2l0.4-1.1c0.1,0.1,0.3,0.1,0.5,0.2
			C482,52,482.3,52,482.5,52z"/>
		<path class="st9" d="M487.8,49.5h3v1.2h-3V49.5z"/>
		<path class="st9" d="M498,52.6c-0.3,0.2-0.6,0.4-1,0.5c-0.4,0.1-0.8,0.2-1.2,0.2c-0.4,0-0.8-0.1-1.2-0.2c-0.3-0.1-0.6-0.3-0.9-0.5
			c-0.2-0.2-0.4-0.5-0.5-0.9c-0.1-0.3-0.2-0.7-0.2-1.1c0-0.4,0.1-0.8,0.2-1.1c0.1-0.3,0.3-0.6,0.6-0.8c0.3-0.2,0.6-0.4,0.9-0.5
			c0.3-0.1,0.7-0.2,1.1-0.2c0.4,0,0.7,0,1.1,0.1c0.3,0.1,0.6,0.2,0.8,0.3V50h-1.1v-0.9c-0.2,0-0.4-0.1-0.6-0.1c-0.2,0-0.4,0-0.6,0.1
			c-0.2,0.1-0.4,0.1-0.5,0.3c-0.1,0.1-0.3,0.3-0.4,0.5c-0.1,0.2-0.1,0.4-0.1,0.7c0,0.2,0,0.4,0.1,0.6c0.1,0.2,0.2,0.3,0.3,0.5
			c0.1,0.1,0.3,0.2,0.5,0.3c0.2,0.1,0.4,0.1,0.7,0.1c0.4,0,0.7-0.1,1-0.2s0.4-0.2,0.6-0.3L498,52.6z"/>
		<path class="st9" d="M498.9,50.5c0-0.4,0.1-0.8,0.2-1.1c0.1-0.3,0.3-0.6,0.6-0.8c0.2-0.2,0.5-0.4,0.9-0.5c0.3-0.1,0.7-0.2,1.1-0.2
			c0.4,0,0.8,0.1,1.1,0.2c0.3,0.1,0.6,0.3,0.9,0.5c0.2,0.2,0.4,0.5,0.5,0.9c0.1,0.3,0.2,0.7,0.2,1.1c0,0.4-0.1,0.8-0.2,1.1
			c-0.1,0.3-0.3,0.6-0.6,0.8c-0.2,0.2-0.5,0.4-0.9,0.5c-0.3,0.1-0.7,0.2-1.1,0.2c-0.4,0-0.8-0.1-1.2-0.2c-0.3-0.1-0.6-0.3-0.9-0.5
			c-0.2-0.2-0.4-0.5-0.5-0.9C498.9,51.3,498.9,50.9,498.9,50.5z M500.2,50.5c0,0.2,0,0.4,0.1,0.6c0.1,0.2,0.2,0.4,0.3,0.5
			c0.1,0.1,0.3,0.3,0.4,0.3c0.2,0.1,0.3,0.1,0.6,0.1c0.4,0,0.7-0.1,1-0.4c0.2-0.3,0.4-0.6,0.4-1.2c0-0.5-0.1-0.8-0.3-1.1
			c-0.2-0.3-0.6-0.4-1-0.4c-0.2,0-0.4,0-0.5,0.1c-0.2,0.1-0.3,0.2-0.4,0.3c-0.1,0.1-0.2,0.3-0.3,0.5C500.3,50,500.2,50.2,500.2,50.5
			z"/>
		<path class="st9" d="M507.1,53.1v-3.1c0-0.2,0-0.4,0-0.5c0-0.1-0.1-0.2-0.1-0.3s-0.1-0.1-0.2-0.1c-0.1,0-0.1,0-0.2,0
			c-0.1,0-0.2,0-0.3,0.1c-0.1,0.1-0.2,0.2-0.2,0.3v3.7h-1.2V48h1l0.1,0.6h0c0.1-0.2,0.3-0.4,0.4-0.5s0.4-0.2,0.7-0.2
			c0.2,0,0.4,0.1,0.6,0.2c0.2,0.1,0.3,0.3,0.4,0.6c0.1-0.2,0.3-0.4,0.5-0.5c0.2-0.1,0.4-0.2,0.7-0.2c0.2,0,0.3,0,0.5,0.1
			c0.1,0.1,0.3,0.1,0.4,0.3c0.1,0.1,0.2,0.3,0.3,0.5c0.1,0.2,0.1,0.5,0.1,0.9v3.5h-1.2v-3.3c0-0.3-0.1-0.5-0.1-0.6
			c-0.1-0.1-0.2-0.2-0.4-0.2c-0.1,0-0.2,0-0.3,0.1c-0.1,0.1-0.2,0.2-0.2,0.3v3.7H507.1z"/>
		<path class="st9" d="M510.8,48h1.7l0.2,0.6h0c0.4-0.5,0.9-0.8,1.7-0.8c0.3,0,0.6,0.1,0.9,0.1c0.3,0.1,0.5,0.3,0.7,0.5
			c0.2,0.2,0.3,0.5,0.4,0.8c0.1,0.3,0.2,0.7,0.2,1.2c0,0.4-0.1,0.8-0.2,1.2c-0.1,0.4-0.3,0.6-0.5,0.9c-0.2,0.2-0.5,0.4-0.8,0.6
			c-0.3,0.1-0.7,0.2-1.1,0.2c-0.2,0-0.4,0-0.6,0c-0.2,0-0.4-0.1-0.5-0.1v2.1h-1.3v-6h-0.8V48z M514,48.9c-0.3,0-0.5,0.1-0.7,0.2
			c-0.2,0.1-0.4,0.3-0.4,0.6v2.1c0.1,0.1,0.2,0.1,0.4,0.2c0.2,0,0.4,0.1,0.5,0.1c0.2,0,0.4,0,0.5-0.1c0.2-0.1,0.3-0.2,0.4-0.3
			c0.1-0.1,0.2-0.3,0.3-0.5c0.1-0.2,0.1-0.5,0.1-0.8c0-0.4-0.1-0.8-0.3-1C514.6,49.1,514.4,48.9,514,48.9z"/>
		<path class="st9" d="M517.8,48.3c0.3-0.1,0.6-0.2,0.9-0.3c0.4-0.1,0.8-0.1,1.3-0.1c0.4,0,0.7,0,0.9,0.1c0.2,0.1,0.4,0.2,0.6,0.4
			c0.2,0.2,0.3,0.3,0.3,0.6c0.1,0.2,0.1,0.5,0.1,0.7c0,0.3,0,0.6,0,0.9s0,0.5,0,0.7c0,0.1,0,0.3,0,0.5c0,0.1,0,0.2,0,0.3h0.7v1.1
			h-1.7l-0.1-0.7h-0.1c-0.1,0.2-0.3,0.4-0.6,0.5c-0.3,0.2-0.6,0.2-1,0.2c-0.5,0-0.9-0.1-1.2-0.4c-0.3-0.3-0.4-0.6-0.4-1.1
			c0-0.3,0.1-0.5,0.2-0.7c0.1-0.2,0.3-0.4,0.5-0.5c0.2-0.1,0.4-0.2,0.7-0.3c0.3-0.1,0.6-0.1,0.9-0.1c0.1,0,0.2,0,0.4,0
			c0.1,0,0.3,0,0.5,0c0-0.1,0-0.1,0-0.2v-0.2c0-0.3-0.1-0.4-0.2-0.6s-0.4-0.2-0.7-0.2c-0.3,0-0.7,0-0.9,0.1
			c-0.3,0.1-0.5,0.2-0.7,0.3L517.8,48.3z M519.6,52.1c0.3,0,0.6-0.1,0.7-0.2c0.2-0.1,0.3-0.2,0.4-0.4v-0.6c-0.1,0-0.2,0-0.3,0
			c-0.1,0-0.3,0-0.4,0c-0.1,0-0.3,0-0.4,0c-0.1,0-0.2,0.1-0.3,0.1c-0.1,0.1-0.2,0.1-0.2,0.2c-0.1,0.1-0.1,0.2-0.1,0.3
			c0,0.2,0.1,0.3,0.2,0.4C519.1,52,519.3,52.1,519.6,52.1z"/>
		<path class="st9" d="M524.2,49.1h-1V48h1v-1.2l1.3-0.4V48h2.7v1.1h-2.7v1.5c0,0.5,0.1,0.9,0.3,1.1s0.5,0.4,0.8,0.4
			c0.2,0,0.4,0,0.5-0.1c0.1,0,0.3-0.1,0.4-0.2c0.1-0.1,0.2-0.1,0.3-0.2c0.1-0.1,0.2-0.2,0.3-0.2l0.6,0.9c-0.1,0.1-0.3,0.3-0.4,0.4
			c-0.2,0.1-0.4,0.2-0.6,0.3c-0.2,0.1-0.4,0.2-0.6,0.2c-0.2,0-0.4,0.1-0.6,0.1c-0.8,0-1.3-0.2-1.7-0.6c-0.4-0.4-0.6-1.1-0.6-2V49.1z
			"/>
		<path class="st9" d="M529.8,51.9h1.8v-2.9h-1.8V48h3.1v4h1.9v1.1h-5V51.9z M531.3,46.6c0-0.2,0.1-0.4,0.2-0.5
			c0.2-0.2,0.4-0.2,0.7-0.2c0.3,0,0.5,0.1,0.7,0.2c0.2,0.1,0.3,0.3,0.3,0.5c0,0.2-0.1,0.4-0.3,0.5c-0.2,0.1-0.4,0.2-0.7,0.2
			c-0.3,0-0.5-0.1-0.7-0.2C531.4,47,531.3,46.8,531.3,46.6z"/>
		<path class="st9" d="M535.1,45.9h2.1v2.5h0c0.1-0.2,0.3-0.3,0.6-0.4c0.2-0.1,0.5-0.1,0.9-0.1c0.7,0,1.2,0.2,1.6,0.6
			c0.4,0.4,0.6,1.1,0.6,1.9c0,0.5-0.1,0.9-0.2,1.2c-0.1,0.4-0.3,0.6-0.6,0.9c-0.2,0.2-0.6,0.4-0.9,0.5c-0.4,0.1-0.8,0.2-1.2,0.2
			c-0.5,0-1-0.1-1.3-0.2c-0.4-0.1-0.6-0.2-0.8-0.4V47h-0.8V45.9z M538.4,49c-0.1,0-0.2,0-0.3,0.1c-0.1,0-0.2,0.1-0.3,0.1
			c-0.1,0.1-0.2,0.1-0.3,0.2c-0.1,0.1-0.2,0.2-0.2,0.3v2.1c0.1,0.1,0.3,0.1,0.4,0.2c0.2,0.1,0.4,0.1,0.6,0.1c0.2,0,0.3,0,0.5-0.1
			c0.2-0.1,0.3-0.2,0.4-0.3s0.2-0.3,0.3-0.5c0.1-0.2,0.1-0.4,0.1-0.7c0-0.5-0.1-0.8-0.3-1.1C539.1,49.1,538.8,49,538.4,49z"/>
		<path class="st9" d="M542.3,45.9h2.2v4.7c0,0.5,0.1,0.9,0.2,1.1c0.1,0.2,0.3,0.3,0.6,0.3c0.2,0,0.4,0,0.5-0.1
			c0.1,0,0.3-0.1,0.4-0.2l0.5,0.9c-0.1,0.1-0.2,0.1-0.3,0.2c-0.1,0.1-0.2,0.1-0.4,0.2c-0.1,0-0.3,0.1-0.4,0.1c-0.2,0-0.3,0-0.5,0
			c-0.6,0-1.1-0.2-1.4-0.5c-0.3-0.3-0.5-0.8-0.5-1.4V47h-0.8V45.9z"/>
		<path class="st9" d="M553,52.5c-0.1,0.1-0.2,0.2-0.3,0.2c-0.1,0.1-0.3,0.2-0.5,0.2c-0.2,0.1-0.4,0.1-0.6,0.2
			c-0.2,0-0.5,0.1-0.7,0.1c-0.4,0-0.8-0.1-1.2-0.2c-0.3-0.1-0.6-0.3-0.9-0.5c-0.2-0.2-0.4-0.5-0.5-0.8c-0.1-0.3-0.2-0.7-0.2-1.1
			c0-0.4,0.1-0.8,0.2-1.2c0.1-0.3,0.3-0.6,0.6-0.8c0.2-0.2,0.5-0.4,0.9-0.5c0.3-0.1,0.7-0.2,1.1-0.2c0.3,0,0.5,0,0.8,0.1
			s0.5,0.2,0.8,0.4c0.2,0.2,0.4,0.4,0.6,0.7c0.1,0.3,0.2,0.6,0.2,1.1c0,0.3,0,0.6-0.1,0.9h-3.7c0,0.2,0.1,0.4,0.1,0.6
			c0.1,0.1,0.2,0.3,0.3,0.4c0.1,0.1,0.3,0.2,0.5,0.2c0.2,0,0.4,0.1,0.6,0.1c0.4,0,0.7,0,1-0.1c0.3-0.1,0.5-0.2,0.6-0.3L553,52.5z
			 M550.8,48.9c-0.2,0-0.3,0-0.5,0.1s-0.3,0.1-0.4,0.2c-0.1,0.1-0.2,0.2-0.3,0.3c-0.1,0.1-0.1,0.3-0.1,0.5h2.5
			c0-0.3-0.1-0.6-0.3-0.8C551.5,49,551.2,48.9,550.8,48.9z"/>
		<path class="st9" d="M555.2,49.5h3v1.2h-3V49.5z"/>
		<path class="st9" d="M565.4,52.6c-0.3,0.2-0.6,0.4-1,0.5c-0.4,0.1-0.8,0.2-1.2,0.2c-0.4,0-0.8-0.1-1.2-0.2
			c-0.3-0.1-0.6-0.3-0.9-0.5c-0.2-0.2-0.4-0.5-0.5-0.9c-0.1-0.3-0.2-0.7-0.2-1.1c0-0.4,0.1-0.8,0.2-1.1c0.1-0.3,0.3-0.6,0.6-0.8
			c0.3-0.2,0.6-0.4,0.9-0.5c0.3-0.1,0.7-0.2,1.1-0.2c0.4,0,0.7,0,1.1,0.1c0.3,0.1,0.6,0.2,0.8,0.3V50H564v-0.9
			c-0.2,0-0.4-0.1-0.6-0.1c-0.2,0-0.4,0-0.6,0.1c-0.2,0.1-0.4,0.1-0.5,0.3c-0.1,0.1-0.3,0.3-0.4,0.5c-0.1,0.2-0.1,0.4-0.1,0.7
			c0,0.2,0,0.4,0.1,0.6c0.1,0.2,0.2,0.3,0.3,0.5s0.3,0.2,0.5,0.3c0.2,0.1,0.4,0.1,0.7,0.1c0.4,0,0.7-0.1,1-0.2s0.4-0.2,0.6-0.3
			L565.4,52.6z"/>
		<path class="st9" d="M566.3,50.5c0-0.4,0.1-0.8,0.2-1.1c0.1-0.3,0.3-0.6,0.6-0.8c0.2-0.2,0.5-0.4,0.9-0.5c0.3-0.1,0.7-0.2,1.1-0.2
			c0.4,0,0.8,0.1,1.1,0.2c0.3,0.1,0.6,0.3,0.9,0.5c0.2,0.2,0.4,0.5,0.5,0.9c0.1,0.3,0.2,0.7,0.2,1.1c0,0.4-0.1,0.8-0.2,1.1
			c-0.1,0.3-0.3,0.6-0.6,0.8c-0.2,0.2-0.5,0.4-0.9,0.5c-0.3,0.1-0.7,0.2-1.1,0.2c-0.4,0-0.8-0.1-1.2-0.2c-0.3-0.1-0.6-0.3-0.9-0.5
			c-0.2-0.2-0.4-0.5-0.5-0.9C566.3,51.3,566.3,50.9,566.3,50.5z M567.6,50.5c0,0.2,0,0.4,0.1,0.6c0.1,0.2,0.1,0.4,0.3,0.5
			c0.1,0.1,0.3,0.3,0.4,0.3c0.2,0.1,0.4,0.1,0.6,0.1c0.4,0,0.7-0.1,1-0.4c0.2-0.3,0.4-0.6,0.4-1.2c0-0.5-0.1-0.8-0.3-1.1
			c-0.2-0.3-0.6-0.4-1-0.4c-0.2,0-0.4,0-0.5,0.1c-0.2,0.1-0.3,0.2-0.4,0.3s-0.2,0.3-0.3,0.5C567.7,50,567.6,50.2,567.6,50.5z"/>
		<path class="st9" d="M575.2,45.9h2.1v4.4c0,0.5,0,1,0.1,1.5c0,0,0,0.1,0,0.1h0.7v1.1h-1.6l-0.1-0.7h0c-0.1,0.1-0.2,0.2-0.3,0.3
			s-0.2,0.2-0.4,0.2c-0.1,0.1-0.3,0.1-0.5,0.2c-0.2,0-0.3,0.1-0.5,0.1c-0.3,0-0.6-0.1-0.9-0.2c-0.3-0.1-0.5-0.3-0.7-0.5
			c-0.2-0.2-0.4-0.5-0.5-0.8c-0.1-0.3-0.2-0.7-0.2-1.2c0-0.4,0.1-0.8,0.2-1.2c0.1-0.3,0.3-0.6,0.6-0.9c0.2-0.2,0.5-0.4,0.8-0.5
			c0.3-0.1,0.7-0.2,1.1-0.2c0.2,0,0.4,0,0.6,0c0.2,0,0.3,0.1,0.5,0.1v-1h-0.8V45.9z M574.9,52.1c0.3,0,0.5-0.1,0.7-0.2
			c0.2-0.1,0.3-0.3,0.4-0.5v-2.2c-0.1-0.1-0.2-0.1-0.4-0.2c-0.2,0-0.3-0.1-0.5-0.1s-0.4,0-0.5,0.1c-0.2,0.1-0.3,0.2-0.5,0.3
			c-0.1,0.1-0.2,0.3-0.3,0.5c-0.1,0.2-0.1,0.5-0.1,0.8c0,0.4,0.1,0.8,0.3,1.1C574.2,52,574.5,52.1,574.9,52.1z"/>
		<path class="st9" d="M583.6,52.5c-0.1,0.1-0.2,0.2-0.3,0.2c-0.1,0.1-0.3,0.2-0.5,0.2c-0.2,0.1-0.4,0.1-0.6,0.2
			c-0.2,0-0.5,0.1-0.7,0.1c-0.4,0-0.8-0.1-1.2-0.2c-0.3-0.1-0.6-0.3-0.9-0.5s-0.4-0.5-0.5-0.8c-0.1-0.3-0.2-0.7-0.2-1.1
			c0-0.4,0.1-0.8,0.2-1.2s0.3-0.6,0.6-0.8c0.2-0.2,0.5-0.4,0.9-0.5c0.3-0.1,0.7-0.2,1.1-0.2c0.3,0,0.5,0,0.8,0.1s0.5,0.2,0.8,0.4
			c0.2,0.2,0.4,0.4,0.6,0.7c0.1,0.3,0.2,0.6,0.2,1.1c0,0.3,0,0.6-0.1,0.9H580c0,0.2,0.1,0.4,0.1,0.6c0.1,0.1,0.2,0.3,0.3,0.4
			c0.1,0.1,0.3,0.2,0.5,0.2c0.2,0,0.4,0.1,0.6,0.1c0.4,0,0.7,0,1-0.1c0.3-0.1,0.5-0.2,0.6-0.3L583.6,52.5z M581.4,48.9
			c-0.2,0-0.3,0-0.5,0.1s-0.3,0.1-0.4,0.2c-0.1,0.1-0.2,0.2-0.3,0.3c-0.1,0.1-0.1,0.3-0.1,0.5h2.5c0-0.3-0.1-0.6-0.3-0.8
			C582.1,49,581.8,48.9,581.4,48.9z"/>
		<path class="st9" d="M586.5,52.4c0-0.2,0.1-0.4,0.2-0.6c0.1-0.1,0.3-0.2,0.6-0.2c0.3,0,0.5,0.1,0.6,0.2c0.1,0.1,0.2,0.3,0.2,0.6
			s-0.1,0.4-0.2,0.6c-0.1,0.1-0.4,0.2-0.6,0.2c-0.2,0-0.4-0.1-0.6-0.2C586.6,52.8,586.5,52.6,586.5,52.4z"/>
		<path class="st9" d="M591.4,48h3.8v4.7c0,0.8-0.2,1.4-0.6,1.8s-1,0.7-1.8,0.7c-0.3,0-0.7-0.1-1-0.2c-0.3-0.1-0.6-0.3-0.8-0.4
			l0.6-1c0.1,0.1,0.2,0.1,0.4,0.2c0.2,0.1,0.4,0.1,0.7,0.1c0.2,0,0.3,0,0.5-0.1c0.1-0.1,0.3-0.1,0.4-0.3c0.1-0.1,0.2-0.3,0.3-0.5
			c0.1-0.2,0.1-0.4,0.1-0.7v-3.4h-2.4V48z M593.1,46.6c0-0.2,0.1-0.4,0.2-0.5c0.2-0.2,0.4-0.2,0.7-0.2c0.3,0,0.5,0.1,0.7,0.2
			c0.2,0.1,0.3,0.3,0.3,0.5c0,0.2-0.1,0.4-0.3,0.5c-0.2,0.1-0.4,0.2-0.7,0.2c-0.3,0-0.5-0.1-0.7-0.2C593.1,47,593.1,46.8,593.1,46.6
			z"/>
		<path class="st9" d="M600.7,51.7c0-0.1-0.1-0.2-0.2-0.3c-0.2-0.1-0.4-0.2-0.6-0.2c-0.2-0.1-0.5-0.1-0.8-0.2
			c-0.3-0.1-0.6-0.2-0.8-0.3c-0.2-0.1-0.5-0.3-0.6-0.5c-0.2-0.2-0.2-0.4-0.2-0.8c0-0.3,0.1-0.5,0.2-0.7c0.1-0.2,0.3-0.4,0.5-0.5
			c0.2-0.1,0.4-0.2,0.7-0.3s0.6-0.1,0.9-0.1c0.3,0,0.6,0,0.9,0.1c0.3,0,0.5,0.1,0.7,0.2c0.2,0.1,0.3,0.1,0.5,0.2
			c0.1,0.1,0.2,0.2,0.3,0.2l-0.6,0.9c-0.1-0.1-0.2-0.1-0.4-0.2c-0.1-0.1-0.3-0.1-0.4-0.2c-0.1-0.1-0.3-0.1-0.5-0.1
			c-0.2,0-0.3-0.1-0.5-0.1c-0.3,0-0.5,0-0.7,0.1c-0.2,0.1-0.3,0.2-0.3,0.3c0,0.1,0.1,0.2,0.2,0.3c0.2,0.1,0.4,0.1,0.6,0.2
			c0.2,0.1,0.5,0.1,0.8,0.2c0.3,0.1,0.6,0.2,0.8,0.3c0.2,0.1,0.5,0.3,0.6,0.5c0.2,0.2,0.2,0.4,0.2,0.7c0,0.5-0.2,0.9-0.6,1.2
			c-0.4,0.3-0.9,0.4-1.7,0.4c-0.6,0-1.1-0.1-1.5-0.3c-0.4-0.2-0.8-0.4-1-0.6l0.6-1c0.1,0.1,0.2,0.2,0.4,0.2c0.1,0.1,0.3,0.2,0.5,0.3
			c0.2,0.1,0.4,0.1,0.6,0.2c0.2,0.1,0.4,0.1,0.6,0.1c0.2,0,0.4,0,0.6-0.1C600.6,52,600.7,51.8,600.7,51.7z"/>
	</g>
	<g>
		<g>
			<line class="st10" x1="403.5" y1="50.2" x2="444.4" y2="50.2"/>
			<g>
				<polygon class="st11" points="440.2,55.8 442.5,50.2 440.2,44.6 453.4,50.2 				"/>
			</g>
		</g>
	</g>
	<g>
		<g>
			<line class="st10" x1="186.6" y1="50.2" x2="227.5" y2="50.2"/>
			<g>
				<polygon class="st11" points="223.2,55.8 225.6,50.2 223.2,44.6 236.5,50.2 				"/>
			</g>
		</g>
	</g>
</g>
</svg>
