<?xml version="1.0" encoding="utf-8"?>
<svg version="1.1" id="Layer_1" xmlns="http://www.w3.org/2000/svg" xmlns:xlink="http://www.w3.org/1999/xlink" x="0px" y="0px"
	 viewBox="0 0 600 400" style="enable-background:new 0 0 600 400;" xml:space="preserve">
<style type="text/css">
	.st0{fill:#DFE3E8;}
	.st1{fill:none;stroke:#627380;stroke-miterlimit:10;}
	.st2{fill:none;stroke:#627380;stroke-miterlimit:10;stroke-dasharray:5.952,5.952;}
	.st3{fill:#FFFFFF;stroke:#627380;stroke-miterlimit:10;}
	.st4{fill:#627380;}
	.st5{fill:#EEFFE5;stroke:#00AE6D;stroke-miterlimit:10;}
	.st6{fill:#E6EFFF;stroke:#3282E1;stroke-miterlimit:10;}
	.st7{fill:#005CCC;}
	.st8{fill:#00945D;}
</style>
<rect class="st0" width="600" height="400"/>
<g>
	<path d="M87.2,99c-0.3-1.2-1.3-1.9-2.5-1.9c-1.6,0-2.8,1.2-2.8,3.5s1.2,3.5,2.8,3.5c1.2,0,2.2-0.6,2.5-1.9h1.1
		c-0.3,1.8-1.8,2.8-3.5,2.8c-2.2,0-3.8-1.7-3.8-4.5s1.6-4.5,3.8-4.5c1.8,0,3.2,1.1,3.5,2.8H87.2z"/>
	<path d="M89.5,101.8c0-2,1.2-3.4,3-3.4c1.8,0,3,1.3,3,3.4c0,2-1.2,3.4-3,3.4C90.7,105.1,89.5,103.8,89.5,101.8z M94.5,101.8
		c0-1.3-0.6-2.5-2-2.5c-1.3,0-2,1.2-2,2.5c0,1.3,0.6,2.5,2,2.5C93.9,104.2,94.5,103.1,94.5,101.8z"/>
	<path d="M97,98.5h1v1h0.1c0.2-0.6,0.9-1.1,1.7-1.1c0.4,0,0.6,0.1,0.8,0.2l-0.3,0.9c-0.1-0.1-0.3-0.1-0.6-0.1c-1,0-1.7,0.7-1.7,1.5
		v4.1h-1V98.5z"/>
	<path d="M101.1,101.8c0-2,1.2-3.4,2.9-3.4c1.4,0,2.8,0.8,2.8,3.3v0.4h-4.7c0,1.4,0.9,2.2,2,2.2c0.8,0,1.4-0.3,1.6-1l1,0.3
		c-0.3,1-1.3,1.7-2.6,1.7C102.3,105.1,101.1,103.8,101.1,101.8z M105.8,101.2c0-1.1-0.7-1.9-1.8-1.9c-1.1,0-1.9,0.9-1.9,1.9H105.8z"
		/>
	<path d="M111.9,96.3h2.9c2,0,3,1.1,3,2.7c0,1.2-0.5,2.1-1.6,2.4l2,3.6h-1.2l-1.8-3.4c-0.1,0-0.1,0-0.2,0H113v3.4h-1.1V96.3z
		 M114.8,100.6c1.4,0,1.9-0.6,1.9-1.7c0-1-0.5-1.7-2-1.7H113v3.4H114.8z"/>
	<path d="M119.1,101.8c0-2,1.2-3.4,2.9-3.4c1.4,0,2.8,0.8,2.8,3.3v0.4h-4.7c0,1.4,0.9,2.2,2,2.2c0.8,0,1.4-0.3,1.6-1l1,0.3
		c-0.3,1-1.3,1.7-2.6,1.7C120.2,105.1,119.1,103.8,119.1,101.8z M123.8,101.2c0-1.1-0.7-1.9-1.8-1.9c-1.1,0-1.9,0.9-1.9,1.9H123.8z"
		/>
	<path d="M130.1,100.2c-0.2-0.5-0.5-0.9-1.4-0.9c-0.8,0-1.4,0.4-1.4,1c0,0.5,0.3,0.8,1.1,1l1,0.2c1.2,0.3,1.7,0.9,1.7,1.8
		c0,1.1-1,2-2.6,2c-1.3,0-2.3-0.6-2.5-1.7l1-0.2c0.2,0.7,0.7,1.1,1.5,1.1c0.9,0,1.5-0.5,1.5-1c0-0.5-0.3-0.8-1-0.9l-1.1-0.3
		c-1.2-0.3-1.7-0.9-1.7-1.8c0-1.1,1-1.9,2.4-1.9c1.3,0,2,0.6,2.3,1.5L130.1,100.2z"/>
	<path d="M132.6,98.5h1v1h0.1c0.2-0.3,0.6-1.1,1.9-1.1c1.7,0,2.8,1.3,2.8,3.4c0,2.1-1.1,3.4-2.8,3.4c-1.3,0-1.7-0.8-1.9-1.1h-0.1
		v3.5h-1V98.5z M135.5,104.2c1.3,0,1.9-1.1,1.9-2.5c0-1.4-0.6-2.5-1.9-2.5c-1.2,0-1.9,1-1.9,2.5
		C133.6,103.2,134.3,104.2,135.5,104.2z"/>
	<path d="M139.6,101.8c0-2,1.2-3.4,3-3.4c1.8,0,3,1.3,3,3.4c0,2-1.2,3.4-3,3.4C140.8,105.1,139.6,103.8,139.6,101.8z M144.6,101.8
		c0-1.3-0.6-2.5-2-2.5c-1.3,0-2,1.2-2,2.5c0,1.3,0.6,2.5,2,2.5C144,104.2,144.6,103.1,144.6,101.8z"/>
	<path d="M148.1,105h-1v-6.5h1v1h0.1c0.3-0.7,0.9-1.1,1.9-1.1c1.3,0,2.2,0.8,2.2,2.5v4.2h-1v-4.1c0-1-0.6-1.6-1.5-1.6
		c-1,0-1.7,0.6-1.7,1.8V105z"/>
	<path d="M157.9,100.2c-0.2-0.5-0.5-0.9-1.4-0.9c-0.8,0-1.4,0.4-1.4,1c0,0.5,0.3,0.8,1.1,1l1,0.2c1.2,0.3,1.7,0.9,1.7,1.8
		c0,1.1-1,2-2.6,2c-1.3,0-2.3-0.6-2.5-1.7l1-0.2c0.2,0.7,0.7,1.1,1.5,1.1c0.9,0,1.5-0.5,1.5-1c0-0.5-0.3-0.8-1-0.9l-1.1-0.3
		c-1.2-0.3-1.7-0.9-1.7-1.8c0-1.1,1-1.9,2.4-1.9c1.3,0,2,0.6,2.3,1.5L157.9,100.2z"/>
	<path d="M160.2,96.7c0-0.4,0.3-0.7,0.7-0.7c0.4,0,0.7,0.3,0.7,0.7s-0.3,0.7-0.7,0.7C160.5,97.4,160.2,97.1,160.2,96.7z M160.4,98.5
		h1v6.5h-1V98.5z"/>
	<path d="M163.4,96.3h1v3.2h0.1c0.2-0.3,0.6-1.1,1.9-1.1c1.7,0,2.8,1.3,2.8,3.4c0,2.1-1.1,3.4-2.8,3.4c-1.3,0-1.7-0.8-1.9-1.1h-0.1
		v1h-1V96.3z M166.2,104.2c1.3,0,1.9-1.1,1.9-2.5c0-1.4-0.6-2.5-1.9-2.5c-1.2,0-1.9,1-1.9,2.5C164.4,103.2,165,104.2,166.2,104.2z"
		/>
	<path d="M170.5,96.7c0-0.4,0.3-0.7,0.7-0.7s0.7,0.3,0.7,0.7s-0.3,0.7-0.7,0.7S170.5,97.1,170.5,96.7z M170.7,98.5h1v6.5h-1V98.5z"
		/>
	<path d="M174.6,105h-1v-8.7h1V105z"/>
	<path d="M176.2,96.7c0-0.4,0.3-0.7,0.7-0.7s0.7,0.3,0.7,0.7s-0.3,0.7-0.7,0.7S176.2,97.1,176.2,96.7z M176.4,98.5h1v6.5h-1V98.5z"
		/>
	<path d="M182.1,99.3h-1.4v3.8c0,0.9,0.4,1,0.9,1c0.2,0,0.4,0,0.4-0.1l0.2,0.9c-0.1,0.1-0.4,0.1-0.7,0.1c-0.9,0-1.8-0.5-1.8-1.7
		v-4.1h-1v-0.9h1v-1.6h1v1.6h1.4V99.3z"/>
	<path d="M183.4,96.7c0-0.4,0.3-0.7,0.7-0.7c0.4,0,0.7,0.3,0.7,0.7s-0.3,0.7-0.7,0.7C183.7,97.4,183.4,97.1,183.4,96.7z M183.6,98.5
		h1v6.5h-1V98.5z"/>
	<path d="M186.1,101.8c0-2,1.2-3.4,2.9-3.4c1.4,0,2.8,0.8,2.8,3.3v0.4h-4.7c0,1.4,0.9,2.2,2,2.2c0.8,0,1.4-0.3,1.6-1l1,0.3
		c-0.3,1-1.3,1.7-2.6,1.7C187.3,105.1,186.1,103.8,186.1,101.8z M190.9,101.2c0-1.1-0.7-1.9-1.8-1.9c-1.1,0-1.9,0.9-1.9,1.9H190.9z"
		/>
	<path d="M197.2,100.2c-0.2-0.5-0.5-0.9-1.4-0.9c-0.8,0-1.4,0.4-1.4,1c0,0.5,0.3,0.8,1.1,1l1,0.2c1.2,0.3,1.7,0.9,1.7,1.8
		c0,1.1-1,2-2.6,2c-1.3,0-2.3-0.6-2.5-1.7l1-0.2c0.2,0.7,0.7,1.1,1.5,1.1c0.9,0,1.5-0.5,1.5-1c0-0.5-0.3-0.8-1-0.9l-1.1-0.3
		c-1.2-0.3-1.7-0.9-1.7-1.8c0-1.1,1-1.9,2.4-1.9c1.3,0,2,0.6,2.3,1.5L197.2,100.2z"/>
</g>
<g>
	<path d="M391.5,96.3h2.9c2,0,3,1.2,3,2.8s-0.9,2.8-2.9,2.8h-1.9v3.2h-1.1V96.3z M394.4,100.9c1.4,0,1.9-0.8,1.9-1.8s-0.5-1.8-2-1.8
		h-1.9v3.7H394.4z"/>
	<path d="M400,105h-1v-8.7h1V105z"/>
	<path d="M405.9,98.5h1v6.5h-1v-1.1h-0.1c-0.3,0.7-1,1.2-1.9,1.2c-1.2,0-2.1-0.8-2.1-2.5v-4.2h1v4.1c0,1,0.6,1.6,1.4,1.6
		c0.8,0,1.7-0.6,1.7-1.8V98.5z"/>
	<path d="M408.8,106.3l0.8-0.6c0.3,0.4,0.7,1,1.9,1c1.1,0,1.8-0.5,1.8-1.6v-1.3h-0.1c-0.2,0.4-0.6,1.1-1.9,1.1
		c-1.6,0-2.8-1.2-2.8-3.2c0-2,1.1-3.3,2.8-3.3c1.3,0,1.7,0.8,1.9,1.1h0.1v-1h1v6.7c0,1.7-1.3,2.4-2.8,2.4
		C410,107.6,409.2,107,408.8,106.3z M413.3,101.7c0-1.4-0.6-2.4-1.9-2.4c-1.3,0-1.9,1.1-1.9,2.4c0,1.4,0.6,2.3,1.9,2.3
		C412.6,104,413.3,103.1,413.3,101.7z"/>
	<path d="M415.8,103.1c0-1.5,1.3-1.8,2.5-1.9c1.2-0.2,1.7-0.1,1.7-0.6v0c0-0.8-0.5-1.3-1.4-1.3c-1,0-1.5,0.5-1.7,1l-1-0.3
		c0.5-1.2,1.6-1.5,2.6-1.5c0.8,0,2.4,0.2,2.4,2.3v4.3h-1v-0.9H420c-0.2,0.4-0.8,1-1.9,1C416.8,105.2,415.8,104.4,415.8,103.1z
		 M420,102.6v-0.9c-0.2,0.2-1.3,0.3-1.7,0.4c-0.8,0.1-1.5,0.3-1.5,1.1c0,0.7,0.6,1.1,1.4,1.1C419.4,104.3,420,103.5,420,102.6z"/>
	<path d="M423,96.3h1v3.2h0.1c0.2-0.3,0.6-1.1,1.9-1.1c1.7,0,2.8,1.3,2.8,3.4c0,2.1-1.1,3.4-2.8,3.4c-1.3,0-1.7-0.8-1.9-1.1H424v1
		h-1V96.3z M425.9,104.2c1.3,0,1.9-1.1,1.9-2.5c0-1.4-0.6-2.5-1.9-2.5c-1.2,0-1.9,1-1.9,2.5C424,103.2,424.7,104.2,425.9,104.2z"/>
	<path d="M431.3,105h-1v-8.7h1V105z"/>
	<path d="M432.9,101.8c0-2,1.2-3.4,2.9-3.4c1.4,0,2.8,0.8,2.8,3.3v0.4h-4.7c0,1.4,0.9,2.2,2,2.2c0.8,0,1.4-0.3,1.6-1l1,0.3
		c-0.3,1-1.3,1.7-2.6,1.7C434,105.1,432.9,103.8,432.9,101.8z M437.6,101.2c0-1.1-0.7-1.9-1.8-1.9c-1.1,0-1.9,0.9-1.9,1.9H437.6z"/>
	<path d="M443.7,96.3h2.9c2,0,3,1.1,3,2.7c0,1.2-0.5,2.1-1.6,2.4l2,3.6h-1.2l-1.8-3.4c-0.1,0-0.1,0-0.2,0h-1.9v3.4h-1.1V96.3z
		 M446.6,100.6c1.4,0,1.9-0.6,1.9-1.7c0-1-0.5-1.7-2-1.7h-1.9v3.4H446.6z"/>
	<path d="M450.8,101.8c0-2,1.2-3.4,2.9-3.4c1.4,0,2.8,0.8,2.8,3.3v0.4h-4.7c0,1.4,0.9,2.2,2,2.2c0.8,0,1.4-0.3,1.6-1l1,0.3
		c-0.3,1-1.3,1.7-2.6,1.7C452,105.1,450.8,103.8,450.8,101.8z M455.6,101.2c0-1.1-0.7-1.9-1.8-1.9c-1.2,0-1.9,0.9-1.9,1.9H455.6z"/>
	<path d="M461.9,100.2c-0.2-0.5-0.5-0.9-1.4-0.9c-0.8,0-1.4,0.4-1.4,1c0,0.5,0.3,0.8,1.1,1l1,0.2c1.2,0.3,1.7,0.9,1.7,1.8
		c0,1.1-1,2-2.6,2c-1.3,0-2.3-0.6-2.5-1.7l1-0.2c0.2,0.7,0.7,1.1,1.5,1.1c0.9,0,1.5-0.5,1.5-1c0-0.5-0.3-0.8-1-0.9l-1.1-0.3
		c-1.2-0.3-1.7-0.9-1.7-1.8c0-1.1,1-1.9,2.4-1.9c1.3,0,2,0.6,2.3,1.5L461.9,100.2z"/>
	<path d="M464.4,98.5h1v1h0.1c0.2-0.3,0.6-1.1,1.9-1.1c1.7,0,2.8,1.3,2.8,3.4c0,2.1-1.1,3.4-2.8,3.4c-1.3,0-1.7-0.8-1.9-1.1h-0.1
		v3.5h-1V98.5z M467.3,104.2c1.3,0,1.9-1.1,1.9-2.5c0-1.4-0.6-2.5-1.9-2.5c-1.2,0-1.9,1-1.9,2.5
		C465.4,103.2,466.1,104.2,467.3,104.2z"/>
	<path d="M471.4,101.8c0-2,1.2-3.4,3-3.4s3,1.3,3,3.4c0,2-1.2,3.4-3,3.4S471.4,103.8,471.4,101.8z M476.3,101.8c0-1.3-0.6-2.5-2-2.5
		s-2,1.2-2,2.5c0,1.3,0.6,2.5,2,2.5S476.3,103.1,476.3,101.8z"/>
	<path d="M479.9,105h-1v-6.5h1v1h0.1c0.3-0.7,0.9-1.1,1.9-1.1c1.3,0,2.2,0.8,2.2,2.5v4.2h-1v-4.1c0-1-0.6-1.6-1.5-1.6
		c-1,0-1.7,0.6-1.7,1.8V105z"/>
	<path d="M489.6,100.2c-0.2-0.5-0.5-0.9-1.4-0.9c-0.8,0-1.4,0.4-1.4,1c0,0.5,0.3,0.8,1.1,1l1,0.2c1.2,0.3,1.7,0.9,1.7,1.8
		c0,1.1-1,2-2.6,2c-1.3,0-2.3-0.6-2.5-1.7l1-0.2c0.2,0.7,0.7,1.1,1.5,1.1c0.9,0,1.5-0.5,1.5-1c0-0.5-0.3-0.8-1-0.9l-1.1-0.3
		c-1.2-0.3-1.7-0.9-1.7-1.8c0-1.1,1-1.9,2.4-1.9c1.3,0,2,0.6,2.3,1.5L489.6,100.2z"/>
	<path d="M492,96.7c0-0.4,0.3-0.7,0.7-0.7s0.7,0.3,0.7,0.7s-0.3,0.7-0.7,0.7S492,97.1,492,96.7z M492.2,98.5h1v6.5h-1V98.5z"/>
	<path d="M495.2,96.3h1v3.2h0.1c0.2-0.3,0.6-1.1,1.9-1.1c1.7,0,2.8,1.3,2.8,3.4c0,2.1-1.1,3.4-2.8,3.4c-1.3,0-1.7-0.8-1.9-1.1h-0.1
		v1h-1V96.3z M498,104.2c1.3,0,1.9-1.1,1.9-2.5c0-1.4-0.6-2.5-1.9-2.5c-1.2,0-1.9,1-1.9,2.5C496.1,103.2,496.8,104.2,498,104.2z"/>
	<path d="M502.3,96.7c0-0.4,0.3-0.7,0.7-0.7s0.7,0.3,0.7,0.7s-0.3,0.7-0.7,0.7S502.3,97.1,502.3,96.7z M502.5,98.5h1v6.5h-1V98.5z"
		/>
	<path d="M506.3,105h-1v-8.7h1V105z"/>
	<path d="M508,96.7c0-0.4,0.3-0.7,0.7-0.7s0.7,0.3,0.7,0.7s-0.3,0.7-0.7,0.7S508,97.1,508,96.7z M508.2,98.5h1v6.5h-1V98.5z"/>
	<path d="M513.8,99.3h-1.4v3.8c0,0.9,0.4,1,0.9,1c0.2,0,0.4,0,0.4-0.1l0.2,0.9c-0.1,0.1-0.4,0.1-0.7,0.1c-0.9,0-1.8-0.5-1.8-1.7
		v-4.1h-1v-0.9h1v-1.6h1v1.6h1.4V99.3z"/>
	<path d="M515.2,96.7c0-0.4,0.3-0.7,0.7-0.7s0.7,0.3,0.7,0.7s-0.3,0.7-0.7,0.7S515.2,97.1,515.2,96.7z M515.4,98.5h1v6.5h-1V98.5z"
		/>
	<path d="M517.9,101.8c0-2,1.2-3.4,2.9-3.4c1.4,0,2.8,0.8,2.8,3.3v0.4h-4.7c0,1.4,0.9,2.2,2,2.2c0.8,0,1.4-0.3,1.6-1l1,0.3
		c-0.3,1-1.3,1.7-2.6,1.7C519.1,105.1,517.9,103.8,517.9,101.8z M522.6,101.2c0-1.1-0.7-1.9-1.8-1.9c-1.2,0-1.9,0.9-1.9,1.9H522.6z"
		/>
	<path d="M528.9,100.2c-0.2-0.5-0.5-0.9-1.4-0.9c-0.8,0-1.4,0.4-1.4,1c0,0.5,0.3,0.8,1.1,1l1,0.2c1.2,0.3,1.7,0.9,1.7,1.8
		c0,1.1-1,2-2.6,2c-1.3,0-2.3-0.6-2.5-1.7l1-0.2c0.2,0.7,0.7,1.1,1.5,1.1c0.9,0,1.5-0.5,1.5-1c0-0.5-0.3-0.8-1-0.9l-1.1-0.3
		c-1.2-0.3-1.7-0.9-1.7-1.8c0-1.1,1-1.9,2.4-1.9c1.3,0,2,0.6,2.3,1.5L528.9,100.2z"/>
</g>
<g>
	<g>
		<line class="st1" x1="295" y1="69" x2="295" y2="72"/>
		<line class="st2" x1="295" y1="78" x2="295" y2="325"/>
		<line class="st1" x1="295" y1="328" x2="295" y2="331"/>
	</g>
</g>
<path class="st3" d="M295,295L295,295c-8.3,0-15-6.7-15-15V120c0-8.3,6.7-15,15-15l0,0c8.3,0,15,6.7,15,15v160
	C310,288.3,303.3,295,295,295z"/>
<g>
	<path class="st4" d="M289.2,267.2v-2.9c0-2,1.1-3,2.7-3c1.2,0,2.1,0.5,2.4,1.6l3.6-2v1.2l-3.4,1.8c0,0.1,0,0.1,0,0.2v1.9h3.4v1.1
		H289.2z M293.5,264.2c0-1.4-0.6-1.9-1.7-1.9s-1.7,0.5-1.7,2v1.9h3.4V264.2z"/>
	<path class="st4" d="M294.7,260c-2,0-3.4-1.2-3.4-2.9c0-1.4,0.8-2.8,3.3-2.8h0.4v4.7c1.4,0,2.2-0.9,2.2-2c0-0.8-0.3-1.4-1-1.6
		l0.3-1c1,0.3,1.7,1.3,1.7,2.6C298,258.8,296.7,260,294.7,260z M294.1,255.3c-1.1,0-1.9,0.7-1.9,1.8c0,1.2,0.9,1.9,1.9,1.9V255.3z"
		/>
	<path class="st4" d="M293.1,249c-0.5,0.2-0.9,0.5-0.9,1.4c0,0.8,0.4,1.4,1,1.4c0.5,0,0.8-0.3,1-1.1l0.2-1c0.3-1.2,0.9-1.7,1.8-1.7
		c1.1,0,2,1,2,2.6c0,1.3-0.6,2.3-1.7,2.5l-0.2-1c0.7-0.2,1.1-0.7,1.1-1.5c0-0.9-0.5-1.5-1-1.5c-0.5,0-0.8,0.3-0.9,1l-0.3,1.1
		c-0.3,1.2-0.9,1.7-1.8,1.7c-1.1,0-1.9-1-1.9-2.4c0-1.3,0.6-2,1.5-2.3L293.1,249z"/>
	<path class="st4" d="M291.3,246.4v-1h1v-0.1c-0.3-0.2-1.1-0.6-1.1-1.9c0-1.7,1.3-2.8,3.4-2.8c2.1,0,3.4,1.1,3.4,2.8
		c0,1.3-0.8,1.7-1.1,1.9v0.1h3.5v1H291.3z M297.1,243.6c0-1.3-1.1-1.9-2.5-1.9c-1.4,0-2.5,0.6-2.5,1.9c0,1.2,1,1.9,2.5,1.9
		C296.1,245.4,297.1,244.8,297.1,243.6z"/>
	<path class="st4" d="M294.6,239.4c-2,0-3.4-1.2-3.4-3s1.3-3,3.4-3c2,0,3.4,1.2,3.4,3S296.7,239.4,294.6,239.4z M294.6,234.5
		c-1.3,0-2.5,0.6-2.5,2s1.2,2,2.5,2s2.5-0.6,2.5-2S295.9,234.5,294.6,234.5z"/>
	<path class="st4" d="M297.9,230.9v1h-6.5v-1h1v-0.1c-0.7-0.3-1.1-0.9-1.1-1.9c0-1.3,0.8-2.2,2.5-2.2h4.2v1h-4.1
		c-1,0-1.6,0.6-1.6,1.5c0,1,0.6,1.7,1.8,1.7H297.9z"/>
	<path class="st4" d="M293.1,221.2c-0.5,0.2-0.9,0.5-0.9,1.4c0,0.8,0.4,1.4,1,1.4c0.5,0,0.8-0.3,1-1.1l0.2-1
		c0.3-1.2,0.9-1.7,1.8-1.7c1.1,0,2,1,2,2.6c0,1.3-0.6,2.3-1.7,2.5l-0.2-1c0.7-0.2,1.1-0.7,1.1-1.5c0-0.9-0.5-1.5-1-1.5
		c-0.5,0-0.8,0.3-0.9,1l-0.3,1.1c-0.3,1.2-0.9,1.7-1.8,1.7c-1.1,0-1.9-1-1.9-2.4c0-1.3,0.6-2,1.5-2.3L293.1,221.2z"/>
	<path class="st4" d="M289.6,218.9c-0.4,0-0.7-0.3-0.7-0.7c0-0.4,0.3-0.7,0.7-0.7c0.4,0,0.7,0.3,0.7,0.7
		C290.2,218.5,289.9,218.9,289.6,218.9z M291.3,218.7v-1h6.5v1H291.3z"/>
	<path class="st4" d="M289.2,215.7v-1h3.2v-0.1c-0.3-0.2-1.1-0.6-1.1-1.9c0-1.7,1.3-2.8,3.4-2.8c2.1,0,3.4,1.1,3.4,2.8
		c0,1.3-0.8,1.7-1.1,1.9v0.1h1v1H289.2z M297.1,212.8c0-1.3-1.1-1.9-2.5-1.9c-1.4,0-2.5,0.6-2.5,1.9c0,1.2,1,1.9,2.5,1.9
		C296.1,214.7,297.1,214,297.1,212.8z"/>
	<path class="st4" d="M289.6,208.6c-0.4,0-0.7-0.3-0.7-0.7s0.3-0.7,0.7-0.7c0.4,0,0.7,0.3,0.7,0.7S289.9,208.6,289.6,208.6z
		 M291.3,208.4v-1h6.5v1H291.3z"/>
	<path class="st4" d="M297.9,204.5v1h-8.7v-1H297.9z"/>
	<path class="st4" d="M289.6,202.9c-0.4,0-0.7-0.3-0.7-0.7s0.3-0.7,0.7-0.7c0.4,0,0.7,0.3,0.7,0.7S289.9,202.9,289.6,202.9z
		 M291.3,202.7v-1h6.5v1H291.3z"/>
	<path class="st4" d="M292.2,197v1.4h3.8c0.9,0,1-0.4,1-0.9c0-0.2,0-0.4-0.1-0.4l0.9-0.2c0.1,0.1,0.1,0.4,0.1,0.7
		c0,0.9-0.5,1.8-1.7,1.8h-4.1v1h-0.9v-1h-1.6v-1h1.6V197H292.2z"/>
	<path class="st4" d="M300.3,195.6l-0.9-0.3c0.2-0.7,0.1-1.2-0.9-1.5l-0.6-0.2l-6.6,2.4v-1.1l5.2-1.8V193l-5.2-1.8v-1.1l7.6,2.8
		c1,0.4,1.5,1,1.5,1.9C300.4,195.2,300.3,195.5,300.3,195.6z"/>
	<path class="st4" d="M289.2,185.3v-3c0-1.8,1-2.7,2.3-2.7c1.1,0,1.6,0.7,1.8,1.4h0.1c0.1-0.8,0.8-1.8,2.2-1.8
		c1.3,0,2.3,0.9,2.3,2.9v3.2H289.2z M293,182.3c0-1-0.6-1.7-1.5-1.7c-0.8,0-1.4,0.5-1.4,1.7v2h2.9V182.3z M296.9,182.1
		c0-1.4-0.6-1.9-1.4-1.9c-0.9,0-1.7,0.7-1.7,1.9v2.1h3V182.1z"/>
	<path class="st4" d="M294.6,177.9c-2,0-3.4-1.2-3.4-3s1.3-3,3.4-3c2,0,3.4,1.2,3.4,3S296.7,177.9,294.6,177.9z M294.6,173
		c-1.3,0-2.5,0.6-2.5,2s1.2,2,2.5,2s2.5-0.6,2.5-2S295.9,173,294.6,173z"/>
	<path class="st4" d="M291.3,166.3v-1h6.5v1h-1.1v0.1c0.7,0.3,1.2,1,1.2,1.9c0,1.2-0.8,2.1-2.5,2.1h-4.2v-1h4.1c1,0,1.6-0.6,1.6-1.4
		c0-0.7-0.6-1.7-1.8-1.7H291.3z"/>
	<path class="st4" d="M297.9,162.5v1h-6.5v-1h1v-0.1c-0.7-0.3-1.1-0.9-1.1-1.9c0-1.3,0.8-2.2,2.5-2.2h4.2v1h-4.1
		c-1,0-1.6,0.6-1.6,1.5c0,1,0.6,1.7,1.8,1.7H297.9z"/>
	<path class="st4" d="M294.6,156.7c-2.1,0-3.4-1.1-3.4-2.8c0-1.3,0.8-1.7,1.1-1.9V152h-3.2v-1h8.7v1h-1v0.1c0.4,0.2,1.1,0.6,1.1,1.9
		C298,155.6,296.7,156.7,294.6,156.7z M294.6,152c-1.5,0-2.5,0.6-2.5,1.9c0,1.3,1.1,1.9,2.5,1.9c1.4,0,2.5-0.6,2.5-1.9
		C297.1,152.6,296.1,152,294.6,152z"/>
	<path class="st4" d="M296,149.3c-1.5,0-1.8-1.3-1.9-2.5c-0.2-1.2-0.1-1.7-0.6-1.7h0c-0.8,0-1.3,0.5-1.3,1.4c0,1,0.5,1.5,1,1.7
		l-0.3,1c-1.2-0.5-1.5-1.6-1.5-2.6c0-0.8,0.2-2.4,2.3-2.4h4.3v1H297v0.1c0.4,0.2,1,0.8,1,1.9C298,148.3,297.3,149.3,296,149.3z
		 M295.5,145.1h-0.9c0.2,0.2,0.3,1.3,0.4,1.7c0.1,0.8,0.3,1.5,1.1,1.5c0.7,0,1.1-0.6,1.1-1.4C297.1,145.7,296.3,145.1,295.5,145.1z"
		/>
	<path class="st4" d="M291.3,142.2v-1h1v-0.1c-0.6-0.2-1.1-0.9-1.1-1.7c0-0.1,0-0.4,0-0.5h1c0,0.1-0.1,0.3-0.1,0.6
		c0,1,0.6,1.7,1.5,1.7h4.1v1H291.3z"/>
	<path class="st4" d="M300.3,137.7l-0.9-0.3c0.2-0.7,0.1-1.2-0.9-1.5l-0.6-0.2l-6.6,2.4V137l5.2-1.8v-0.1l-5.2-1.8v-1.1l7.6,2.8
		c1,0.4,1.5,1,1.5,1.9C300.4,137.3,300.3,137.6,300.3,137.7z"/>
</g>
<path class="st5" d="M370.5,140v26.5h-20c-5.5,0-10,4.5-10,10c0,5.5,4.5,10,10,10h20v27h-20c-5.5,0-10,4.5-10,10c0,5.5,4.5,10,10,10
	h20V260h190V140H370.5z"/>
<path class="st6" d="M219.5,166.5h20V140h-200v120h200v-26.5h-20c-5.5,0-10-4.5-10-10c0-5.5,4.5-10,10-10h20v-27h-20
	c-5.5,0-10-4.5-10-10C209.5,171,214,166.5,219.5,166.5z"/>
<g>
	<path class="st7" d="M108.6,195.1h8.4v1.8h-3.1v8.4h-2.1v-8.4h-3.1V195.1z"/>
	<path class="st7" d="M117.5,197.7h2.1v1.3h0.1c0.3-0.9,1-1.4,1.8-1.4c0.2,0,0.5,0,0.7,0.1v1.9c-0.2-0.1-0.6-0.1-0.9-0.1
		c-0.9,0-1.6,0.6-1.6,1.6v4.3h-2.1V197.7z"/>
	<path class="st7" d="M123.2,195.6c0-0.6,0.5-1.1,1.1-1.1c0.6,0,1.1,0.5,1.1,1.1c0,0.6-0.5,1.1-1.1,1.1
		C123.7,196.7,123.2,196.2,123.2,195.6z M123.2,197.7h2.1v7.6h-2.1V197.7z"/>
	<path class="st7" d="M131.5,205.3h-2.4l-2.7-7.6h2.2l1.6,5.5h0.1l1.6-5.5h2.2L131.5,205.3z"/>
	<path class="st7" d="M134.7,201.5c0-2.4,1.5-4,3.7-4c2,0,3.6,1.3,3.6,3.9v0.6h-5.2v0c0,1.1,0.7,1.8,1.7,1.8c0.7,0,1.3-0.3,1.5-0.9
		l2,0.1c-0.3,1.4-1.6,2.3-3.5,2.3C136.1,205.5,134.7,203.9,134.7,201.5z M140,200.7c0-0.9-0.6-1.6-1.6-1.6c-0.9,0-1.6,0.7-1.6,1.6
		H140z"/>
	<path class="st7" d="M145.5,205.3h-2.1v-7.6h2v1.3h0.1c0.3-0.9,1.2-1.4,2.3-1.4c1.6,0,2.6,1.1,2.6,2.9v4.9h-2.1v-4.5
		c0-0.9-0.5-1.5-1.4-1.5c-0.9,0-1.4,0.6-1.4,1.6V205.3z"/>
</g>
<g>
	<path class="st8" d="M419.7,196.6v-10.2h3.6c3.1,0,5,1.9,5,5.1c0,3.2-1.9,5.1-5,5.1H419.7z M423.2,194.8c1.9,0,2.9-1,2.9-3.3
		c0-2.3-1-3.2-2.9-3.2h-1.4v6.5H423.2z"/>
	<path class="st8" d="M429.4,194.5c0-1.7,1.4-2.2,2.9-2.4c1.3-0.1,1.8-0.2,1.8-0.7v0c0-0.6-0.4-1-1.1-1c-0.8,0-1.2,0.4-1.4,0.9
		l-2-0.2c0.3-1.4,1.5-2.3,3.3-2.3c1.7,0,3.2,0.8,3.2,2.6v5.2h-2v-1.1h-0.1c-0.4,0.7-1.1,1.2-2.2,1.2
		C430.5,196.8,429.4,196,429.4,194.5z M434.2,193.9v-0.8c-0.3,0.2-1,0.3-1.5,0.3c-0.7,0.1-1.2,0.4-1.2,1c0,0.6,0.5,0.9,1.1,0.9
		C433.5,195.3,434.2,194.7,434.2,193.9z"/>
	<path class="st8" d="M442,190.6h-1.4v3.7c0,0.6,0.3,0.7,0.7,0.7c0.2,0,0.4,0,0.5-0.1l0.3,1.6c-0.2,0.1-0.6,0.2-1.1,0.2
		c-1.5,0.1-2.6-0.7-2.5-2.2v-4h-1V189h1v-1.8h2.1v1.8h1.4V190.6z"/>
	<path class="st8" d="M443,192.8c0-2.4,1.5-4,3.7-4c2,0,3.6,1.3,3.6,3.9v0.6h-5.2v0c0,1.1,0.7,1.8,1.7,1.8c0.7,0,1.3-0.3,1.5-0.9
		l2,0.1c-0.3,1.4-1.6,2.3-3.5,2.3C444.4,196.8,443,195.3,443,192.8z M448.3,192c0-0.9-0.6-1.6-1.6-1.6c-0.9,0-1.6,0.7-1.6,1.6H448.3
		z"/>
	<path class="st8" d="M454.9,186.4h6.7v1.8h-4.6v2.4h4.1v1.8h-4.1v4.2h-2.2V186.4z"/>
	<path class="st8" d="M462.2,192.8c0-2.4,1.4-4,3.8-4s3.8,1.6,3.8,4c0,2.4-1.4,3.9-3.8,3.9S462.2,195.2,462.2,192.8z M467.6,192.8
		c0-1.3-0.5-2.3-1.6-2.3c-1.1,0-1.6,1-1.6,2.3c0,1.3,0.5,2.3,1.6,2.3C467,195.1,467.6,194.1,467.6,192.8z"/>
	<path class="st8" d="M471.1,189h2.1v1.3h0.1c0.3-0.9,1-1.4,1.8-1.4c0.2,0,0.5,0,0.7,0.1v1.9c-0.2-0.1-0.6-0.1-0.9-0.1
		c-0.9,0-1.6,0.6-1.6,1.6v4.3h-2.1V189z"/>
	<path class="st8" d="M476.8,189h2v1.3h0.1c0.3-0.9,1.1-1.4,2.1-1.4c1,0,1.8,0.6,2.1,1.4h0.1c0.3-0.9,1.2-1.4,2.3-1.4
		c1.4,0,2.4,0.9,2.4,2.6v5.1h-2.1v-4.7c0-0.9-0.5-1.3-1.2-1.3c-0.8,0-1.2,0.5-1.2,1.3v4.7h-2.1v-4.8c0-0.8-0.5-1.2-1.2-1.2
		c-0.7,0-1.2,0.6-1.2,1.4v4.6h-2.1V189z"/>
	<path class="st8" d="M489.3,194.5c0-1.7,1.4-2.2,2.9-2.4c1.3-0.1,1.8-0.2,1.8-0.7v0c0-0.6-0.4-1-1.1-1c-0.8,0-1.2,0.4-1.4,0.9
		l-2-0.2c0.3-1.4,1.5-2.3,3.3-2.3c1.7,0,3.2,0.8,3.2,2.6v5.2h-2v-1.1H494c-0.4,0.7-1.1,1.2-2.2,1.2
		C490.3,196.8,489.3,196,489.3,194.5z M494,193.9v-0.8c-0.3,0.2-1,0.3-1.5,0.3c-0.7,0.1-1.2,0.4-1.2,1c0,0.6,0.5,0.9,1.1,0.9
		C493.3,195.3,494,194.7,494,193.9z"/>
	<path class="st8" d="M501.8,190.6h-1.4v3.7c0,0.6,0.3,0.7,0.7,0.7c0.2,0,0.4,0,0.5-0.1l0.3,1.6c-0.2,0.1-0.6,0.2-1.1,0.2
		c-1.5,0.1-2.6-0.7-2.5-2.2v-4h-1V189h1v-1.8h2.1v1.8h1.4V190.6z"/>
	<path class="st8" d="M418.1,206.8c-0.2-1.1-1-1.8-2.2-1.8c-1.6,0-2.6,1.2-2.6,3.3c0,2.2,1,3.3,2.6,3.3c1.1,0,2-0.6,2.2-1.7l2.2,0
		c-0.2,1.9-1.8,3.6-4.4,3.6c-2.7,0-4.7-1.9-4.7-5.2c0-3.3,2.1-5.2,4.7-5.2c2.4,0,4.1,1.4,4.4,3.7H418.1z"/>
	<path class="st8" d="M426.7,205.8h2.1v7.6h-2V212h-0.1c-0.3,0.9-1.2,1.5-2.3,1.5c-1.5,0-2.6-1.1-2.6-2.9v-4.9h2.1v4.5
		c0,0.9,0.5,1.5,1.3,1.5c0.8,0,1.5-0.5,1.5-1.6V205.8z"/>
	<path class="st8" d="M434.9,208.1c-0.1-0.5-0.5-0.9-1.3-0.9c-0.7,0-1.2,0.3-1.2,0.8c0,0.4,0.3,0.6,1,0.8l1.4,0.3
		c1.5,0.3,2.2,1,2.2,2.1c0,1.5-1.4,2.5-3.4,2.5c-2,0-3.3-0.9-3.5-2.4l2.1-0.1c0.1,0.6,0.6,0.9,1.4,0.9c0.7,0,1.2-0.3,1.2-0.8
		c0-0.4-0.3-0.6-1-0.8l-1.3-0.3c-1.5-0.3-2.2-1-2.2-2.2c0-1.5,1.3-2.4,3.2-2.4c1.9,0,3.1,0.9,3.3,2.3L434.9,208.1z"/>
	<path class="st8" d="M442.4,207.4H441v3.7c0,0.6,0.3,0.7,0.7,0.7c0.2,0,0.4,0,0.5-0.1l0.3,1.6c-0.2,0.1-0.6,0.2-1.1,0.2
		c-1.5,0.1-2.6-0.7-2.5-2.2v-4h-1v-1.6h1v-1.8h2.1v1.8h1.4V207.4z"/>
	<path class="st8" d="M443.4,209.6c0-2.4,1.4-4,3.8-4c2.3,0,3.8,1.6,3.8,4c0,2.4-1.4,3.9-3.8,3.9C444.8,213.6,443.4,212,443.4,209.6
		z M448.8,209.6c0-1.3-0.5-2.3-1.6-2.3c-1.1,0-1.6,1-1.6,2.3c0,1.3,0.5,2.3,1.6,2.3C448.2,211.9,448.8,210.9,448.8,209.6z"/>
	<path class="st8" d="M452.3,205.8h2v1.3h0.1c0.3-0.9,1.1-1.4,2.1-1.4c1,0,1.8,0.6,2.1,1.4h0.1c0.3-0.9,1.2-1.4,2.3-1.4
		c1.4,0,2.4,0.9,2.4,2.6v5.1h-2.1v-4.7c0-0.9-0.5-1.3-1.2-1.3c-0.8,0-1.2,0.5-1.2,1.3v4.7h-2.1v-4.8c0-0.8-0.5-1.2-1.2-1.2
		c-0.7,0-1.2,0.6-1.2,1.4v4.6h-2.1V205.8z"/>
	<path class="st8" d="M465,203.7c0-0.6,0.5-1.1,1.1-1.1c0.6,0,1.1,0.5,1.1,1.1c0,0.6-0.5,1.1-1.1,1.1
		C465.5,204.8,465,204.3,465,203.7z M465.1,205.8h2.1v7.6h-2.1V205.8z"/>
	<path class="st8" d="M468.8,212.2l3.7-4.6v-0.1H469v-1.7h6.2v1.4l-3.5,4.5v0.1h3.6v1.7h-6.4V212.2z"/>
	<path class="st8" d="M476.5,211.3c0-1.7,1.4-2.2,2.9-2.4c1.3-0.1,1.8-0.2,1.8-0.7v0c0-0.6-0.4-1-1.1-1c-0.8,0-1.2,0.4-1.4,0.9
		l-2-0.2c0.3-1.4,1.5-2.3,3.3-2.3c1.7,0,3.2,0.8,3.2,2.6v5.2h-2v-1.1h-0.1c-0.4,0.7-1.1,1.2-2.2,1.2
		C477.6,213.6,476.5,212.8,476.5,211.3z M481.3,210.7v-0.8c-0.3,0.2-1,0.3-1.5,0.3c-0.7,0.1-1.2,0.4-1.2,1c0,0.6,0.5,0.9,1.1,0.9
		C480.6,212.1,481.3,211.5,481.3,210.7z"/>
	<path class="st8" d="M489.1,207.4h-1.4v3.7c0,0.6,0.3,0.7,0.7,0.7c0.2,0,0.4,0,0.5-0.1l0.3,1.6c-0.2,0.1-0.6,0.2-1.1,0.2
		c-1.5,0.1-2.6-0.7-2.5-2.2v-4h-1v-1.6h1v-1.8h2.1v1.8h1.4V207.4z"/>
	<path class="st8" d="M490.4,203.7c0-0.6,0.5-1.1,1.1-1.1c0.6,0,1.1,0.5,1.1,1.1c0,0.6-0.5,1.1-1.1,1.1
		C490.9,204.8,490.4,204.3,490.4,203.7z M490.4,205.8h2.1v7.6h-2.1V205.8z"/>
	<path class="st8" d="M493.9,209.6c0-2.4,1.4-4,3.8-4c2.3,0,3.8,1.6,3.8,4c0,2.4-1.4,3.9-3.8,3.9C495.4,213.6,493.9,212,493.9,209.6
		z M499.3,209.6c0-1.3-0.5-2.3-1.6-2.3c-1.1,0-1.6,1-1.6,2.3c0,1.3,0.5,2.3,1.6,2.3C498.8,211.9,499.3,210.9,499.3,209.6z"/>
	<path class="st8" d="M505,213.4h-2.1v-7.6h2v1.3h0.1c0.3-0.9,1.2-1.4,2.3-1.4c1.6,0,2.6,1.1,2.6,2.9v4.9h-2.1v-4.5
		c0-0.9-0.5-1.5-1.4-1.5c-0.9,0-1.4,0.6-1.4,1.6V213.4z"/>
</g>
</svg>
